<svg width="375" height="450" viewBox="0 0 375 450" fill="none" xmlns="http://www.w3.org/2000/svg">
<path fill-rule="evenodd" clip-rule="evenodd" d="M0 440.831C18.769 446.787 38.7592 450 59.5 450C168.024 450 256 362.024 256 253.5C256 144.976 168.024 57 59.5 57C38.7592 57 18.769 60.2134 0 66.1695V440.831Z" fill="#C3E4F2"/>
<path fill-rule="evenodd" clip-rule="evenodd" d="M375 0H275.863C274.64 6.64714 274 13.4989 274 20.5C274 78.7496 318.27 126.659 375 132.419V0Z" fill="#C3E4F2" fill-opacity="0.5"/>
<path d="M288.015 403.598C284.941 405.181 281.217 405.08 278.358 403.135C278.092 402.952 277.825 402.75 277.571 402.527C276.111 401.272 274.935 399.393 274.695 396.582L275.316 390.781C282.381 388.883 287.058 384.201 289.558 376.988C289.864 376.113 290.135 375.204 290.375 374.255C291.044 371.615 294.603 371.068 295.971 373.425C301.283 382.562 301.183 396.805 288.015 403.598Z" fill="#E4B740"/>
<g opacity="0.55">
<path opacity="0.55" d="M289.563 402.728C298.114 395.318 297.585 383.541 292.973 375.611C292.391 374.606 291.403 374.128 290.42 374.115C291.171 371.597 294.63 371.112 295.971 373.425C301.064 382.19 301.183 395.65 289.562 402.728H289.563Z" fill="white"/>
</g>
<path d="M283.511 406.234C281.381 406.234 279.285 405.618 277.498 404.399C274.948 402.662 273.452 400.003 273.169 396.712C273.097 395.87 273.721 395.128 274.562 395.056C275.404 394.986 276.145 395.607 276.218 396.449C276.425 398.86 277.408 400.634 279.222 401.87C281.561 403.464 284.661 403.606 287.312 402.238C292.227 399.703 295.568 395.817 296.974 391.001C298.533 385.661 297.664 379.378 294.65 374.193C294.188 373.398 293.389 373.444 293.156 373.476C292.912 373.511 292.096 373.695 291.86 374.63C289.465 384.092 284.032 390.024 275.71 392.256C274.893 392.476 274.055 391.991 273.836 391.175C273.617 390.359 274.101 389.52 274.917 389.3C282.19 387.348 286.761 382.305 288.893 373.88C289.354 372.056 290.861 370.708 292.73 370.445C294.6 370.183 296.351 371.03 297.295 372.654C300.722 378.549 301.7 385.729 299.912 391.858C298.266 397.498 294.394 402.029 288.715 404.957C287.061 405.81 285.274 406.232 283.511 406.232V406.234Z" fill="#323232"/>
<g opacity="0.3">
<path opacity="0.3" d="M277.571 402.527C276.111 401.272 274.935 399.393 274.695 396.582L275.316 390.781C282.381 388.883 287.058 384.201 289.558 376.988H289.563C289.563 376.988 296.745 399.358 277.571 402.527Z" fill="#323232"/>
</g>
<path d="M183.117 390.78C177.451 382.51 182.735 372.787 182.735 372.787L191.26 380.498L183.117 390.78Z" fill="#EF9F21"/>
<path d="M183.105 391.149L182.937 390.903C177.262 382.619 182.49 372.78 182.544 372.682L182.676 372.438L191.559 380.473L183.105 391.148V391.149ZM182.801 373.141C182.05 374.69 178.357 383.13 183.132 390.409L190.961 380.523L182.801 373.141Z" fill="#323232"/>
<g opacity="0.3">
<path opacity="0.3" d="M183.117 390.78C177.451 382.51 182.735 372.787 182.735 372.787L191.26 380.498L183.117 390.78Z" fill="#323232"/>
</g>
<path d="M275.087 399.502C274.41 402.693 271.612 404.989 268.347 404.989H194.986L191.261 380.499C191.09 380.367 190.92 380.241 190.75 380.11C176.643 369.233 168.634 353.347 170.133 335.807L175.335 331.768L180.367 327.864L240.482 347.033C264.042 351.244 281.161 370.92 275.088 399.502H275.087Z" fill="#E4B740"/>
<g opacity="0.55">
<path opacity="0.55" d="M275.088 399.503C274.703 401.313 273.636 402.838 272.185 403.813C272.22 403.691 272.251 403.564 272.277 403.438C278.349 374.856 261.23 355.178 237.671 350.969L177.556 331.799L170.01 337.657C170.041 337.045 170.08 336.429 170.132 335.808L180.367 327.865L240.482 347.034C264.041 351.244 281.161 370.921 275.088 399.503Z" fill="white"/>
</g>
<path d="M171.143 350.56C171.143 350.56 178.858 343.676 186.444 353.73C194.029 363.785 197.766 366.202 197.766 366.202L217.687 384.875C217.687 384.875 223.569 389.896 226.65 389.081L223.981 392.328L219.798 398.322L189.73 379.087C189.73 379.087 172.446 363.128 171.143 350.56Z" fill="white"/>
<path d="M220.323 378.575C215.68 391.034 209.314 400.175 200.313 404.228C199.819 404.45 199.29 404.586 198.757 404.647C197.441 404.801 196.182 404.914 194.984 404.988C185.751 405.544 180.068 403.563 180.378 397.316C180.518 394.466 181.9 391.842 183.972 389.888C190.805 383.431 196.091 372.768 200.147 358.78C200.213 358.557 200.279 358.33 200.343 358.102L220.322 378.575H220.323Z" fill="#E4B740"/>
<g opacity="0.55">
<path opacity="0.55" d="M220.323 378.574C215.681 391.034 209.315 400.175 200.314 404.227C199.82 404.45 199.291 404.586 198.757 404.647C197.441 404.8 196.182 404.914 194.985 404.988C194.709 403.896 194.775 402.75 194.945 401.788C195.413 401.743 195.889 401.692 196.37 401.635C196.908 401.573 197.437 401.438 197.927 401.215C205.997 397.577 211.951 389.848 216.445 379.308C217.109 377.748 219.138 377.358 220.323 378.573V378.574Z" fill="white"/>
</g>
<path d="M275.49 307.098C269.597 323.335 260.993 329.092 254.396 326.928C254.396 326.928 254.392 326.928 254.383 326.923C253.644 326.678 252.927 326.337 252.245 325.895C252.245 325.913 252.25 325.935 252.25 325.952C252.814 334.009 251.122 339.373 247.59 342.884V342.888C245.299 345.166 242.239 346.661 238.518 347.606C232.389 349.162 224.472 349.21 215.305 348.777C210.772 348.301 206.356 347.58 202.133 346.522H202.125C184.507 342.124 170.251 331.999 164.681 310.438C164.209 308.62 163.803 306.718 163.457 304.729L171.536 279.92L171.807 279.084C162.054 277.34 160.344 270.035 167.544 256.57C168.174 255.433 168.803 254.362 169.442 253.366C174.929 244.745 180.721 241.44 187.091 247.971C187.217 248.103 187.344 248.233 187.471 248.373C195.536 242.716 202.107 247.455 207.874 257.847C224.04 259.014 240.517 265.716 252.246 276.059C258.585 271.993 265.077 275.77 268.203 281.742C278.533 281.414 280.007 294.419 275.491 307.098H275.49Z" fill="#E4B740"/>
<g opacity="0.55">
<path opacity="0.55" d="M247.589 342.884V342.889C245.298 345.167 242.239 346.662 238.518 347.607C238.903 347.034 239.637 346.491 240.804 346.007C250.278 342.072 248.953 321.504 248.953 321.504C249.413 323.751 250.934 325.146 252.25 325.954C252.813 334.011 251.121 339.376 247.589 342.886V342.884Z" fill="white"/>
</g>
<g opacity="0.55">
<path opacity="0.55" d="M244.859 273.763C233.612 265.179 219.865 262.085 204.958 261.01C201.543 254.859 195.732 247.525 191.614 246.323C197.836 244.57 203.125 249.296 207.873 257.847C223.27 258.957 238.951 265.091 250.54 274.616C250.43 274.642 250.325 274.67 250.223 274.7C248.374 275.245 246.391 274.933 244.859 273.763Z" fill="white"/>
</g>
<g opacity="0.55">
<path opacity="0.55" d="M187.089 247.971L185.437 250.59C185.437 250.59 178.276 242.677 169.44 253.366C174.927 244.745 180.719 241.44 187.089 247.971Z" fill="white"/>
</g>
<g opacity="0.55">
<path opacity="0.55" d="M275.489 307.098C269.679 323.116 261.224 328.934 254.667 327.011C260.131 325.52 266.054 319.238 270.462 307.098C274.978 294.42 273.504 281.414 263.174 281.742C261.39 278.332 258.509 275.639 255.187 274.716C260.516 273.217 265.561 276.696 268.202 281.742C278.532 281.414 280.006 294.419 275.489 307.098Z" fill="white"/>
</g>
<path d="M247.589 342.885V342.889C241.521 348.926 230.033 349.473 215.304 348.778C191.842 346.321 171.588 337.167 164.681 310.438C170.884 319.79 189.437 315.553 189.437 315.553L193.009 314.08C201.8 310.863 208.651 313.176 213.555 321.018C222.089 335.244 232.301 345.333 247.589 342.885V342.885Z" fill="white"/>
<path d="M223.979 350.538C221.243 350.538 218.328 350.45 215.232 350.305C215.203 350.304 215.174 350.301 215.145 350.298C200.735 348.79 189.596 344.991 181.09 338.684C170.954 331.169 164.514 319.833 161.947 304.99C161.905 304.745 161.923 304.493 162 304.255L169.829 280.211C166.286 279.255 163.853 277.452 162.586 274.838C160.491 270.516 161.672 264.304 166.194 255.848C170.666 247.769 174.987 243.592 179.412 243.059C182.222 242.719 185 243.847 187.685 246.408C190.663 244.612 193.611 244.035 196.467 244.692C200.834 245.697 204.874 249.524 208.804 256.383C224.661 257.713 240.822 264.315 252.421 274.188C255.008 272.824 257.773 272.481 260.48 273.197C263.899 274.103 267.001 276.64 269.104 280.218C272.306 280.351 274.926 281.704 276.722 284.166C280.27 289.029 280.349 298.013 276.928 307.613C272.867 318.804 267.139 326.14 260.797 328.276C258.418 329.077 256.069 329.104 253.882 328.374C253.97 335.181 252.309 340.247 248.833 343.808C243.764 349.002 235.461 350.538 223.979 350.538ZM215.42 347.25C230.218 347.943 241.191 347.257 246.644 341.671C249.901 338.334 251.234 333.21 250.719 326.005C250.678 325.427 250.967 324.874 251.466 324.579C251.965 324.284 252.588 324.296 253.075 324.61C255.101 325.916 257.433 326.181 259.822 325.377C265.184 323.57 270.37 316.719 274.05 306.578C277.086 298.059 277.166 289.967 274.251 285.971C272.884 284.097 270.862 283.188 268.252 283.273C267.661 283.293 267.119 282.973 266.846 282.453C265.172 279.253 262.499 276.899 259.697 276.156C257.457 275.563 255.229 275.964 253.072 277.348C252.498 277.718 251.747 277.661 251.234 277.209C239.873 267.188 223.622 260.52 207.763 259.371C207.248 259.333 206.786 259.039 206.535 258.588C202.973 252.168 199.354 248.496 195.781 247.674C193.425 247.131 190.994 247.771 188.35 249.626C187.722 250.067 186.866 249.975 186.346 249.411C184.053 246.926 181.905 245.84 179.777 246.098C176.444 246.499 172.779 250.272 168.882 257.312C164.92 264.719 163.726 270.173 165.34 273.504C166.365 275.617 168.568 276.95 172.075 277.579C172.511 277.657 172.892 277.92 173.119 278.299C173.346 278.679 173.398 279.138 173.261 279.559L165.028 304.842C169.619 330.643 185.643 344.123 215.419 347.251L215.42 347.25Z" fill="#323232"/>
<path d="M251.159 326.973C249.059 324.724 247.465 322.045 246.427 319.22C245.402 316.384 244.905 313.429 244.727 310.502C244.556 307.57 244.691 304.652 245.037 301.777C245.391 298.903 245.932 296.069 246.577 293.267C246.658 292.914 247.01 292.694 247.363 292.775C247.705 292.853 247.922 293.185 247.862 293.526L247.86 293.536C247.367 296.327 246.979 299.132 246.778 301.94C246.583 304.747 246.602 307.559 246.905 310.316C247.213 313.068 247.82 315.774 248.869 318.263C249.931 320.744 251.438 322.982 253.332 324.819L253.343 324.83C253.95 325.419 253.965 326.388 253.376 326.994C252.787 327.601 251.818 327.616 251.212 327.027C251.195 327.01 251.175 326.99 251.159 326.973Z" fill="#323232"/>
<path d="M269.726 281.616C269.888 285.353 269.771 289.109 269.275 292.815C268.783 296.52 267.903 300.165 266.64 303.656C266.517 303.997 266.141 304.173 265.8 304.049C265.476 303.932 265.302 303.583 265.39 303.258C266.345 299.769 266.909 296.195 267.098 292.61C267.289 289.023 267.114 285.43 266.676 281.872V281.869C266.573 281.03 267.169 280.266 268.008 280.163C268.848 280.059 269.611 280.656 269.715 281.495C269.719 281.535 269.723 281.577 269.725 281.617L269.726 281.616Z" fill="#323232"/>
<path d="M171.227 278.603L176.262 277.792L175.47 278.177L189.942 266.033C190.22 265.8 190.634 265.836 190.867 266.114C191.086 266.375 191.066 266.759 190.831 266.998L177.544 280.428C177.339 280.634 177.082 280.76 176.816 280.802L176.751 280.813L171.716 281.624C170.882 281.759 170.096 281.191 169.962 280.357C169.828 279.523 170.395 278.738 171.229 278.603H171.227Z" fill="#323232"/>
<path d="M188.547 249.461C186.037 251.753 183.88 254.52 181.976 257.465C180.072 260.417 178.41 263.557 176.891 266.77C176.737 267.098 176.346 267.24 176.018 267.086C175.708 266.94 175.566 266.577 175.683 266.26C176.951 262.894 178.374 259.568 180.093 256.356C181.815 253.151 183.835 250.043 186.396 247.284C186.971 246.664 187.94 246.629 188.56 247.204C189.18 247.78 189.215 248.749 188.64 249.369C188.611 249.399 188.582 249.428 188.552 249.455L188.547 249.46V249.461Z" fill="#323232"/>
<path d="M203.189 319.138C206.442 320.92 208.292 323.803 207.319 325.579C206.346 327.354 202.136 327.821 198.883 326.039C195.63 324.257 194.565 320.9 195.537 319.124C196.51 317.349 199.936 317.355 203.189 319.138H203.189Z" fill="#323232"/>
<path d="M209.822 333.813C208.78 334.532 207.574 335.149 206.177 335.334C204.779 335.531 203.288 335.119 202.109 334.397C200.913 333.677 199.963 332.716 199.139 331.717C198.318 330.71 197.615 329.647 196.969 328.567L198.976 329.251C197.714 329.738 196.397 330.152 194.986 330.323C193.586 330.495 192.049 330.377 190.681 329.764C189.309 329.162 188.215 328.118 187.463 326.976C186.706 325.826 186.208 324.591 185.828 323.352C185.722 323.006 185.916 322.639 186.263 322.532C186.585 322.434 186.925 322.594 187.057 322.897L187.059 322.903C187.544 324.011 188.131 325.062 188.864 325.93C189.597 326.798 190.493 327.43 191.465 327.723C192.437 328.024 193.494 327.994 194.552 327.736C195.611 327.478 196.659 327.015 197.678 326.479C198.353 326.124 199.181 326.355 199.579 326.991L199.686 327.163C200.152 328.211 200.662 329.23 201.255 330.167C201.847 331.1 202.527 331.957 203.326 332.583C204.124 333.205 205.04 333.597 206.051 333.59C207.062 333.585 208.125 333.227 209.128 332.699L209.142 332.692C209.463 332.522 209.859 332.646 210.028 332.967C210.185 333.265 210.09 333.627 209.82 333.813H209.822Z" fill="#323232"/>
<path d="M198.326 329.395C198.088 329.395 197.847 329.339 197.621 329.221C196.871 328.831 196.58 327.907 196.97 327.158L198.792 323.66C199.183 322.911 200.106 322.621 200.856 323.01C201.605 323.401 201.896 324.325 201.506 325.074L199.684 328.571C199.412 329.095 198.878 329.395 198.326 329.395Z" fill="#323232"/>
<path d="M192.554 334.821C193.017 335.261 193.452 335.66 193.912 336.006C194.375 336.347 194.85 336.648 195.365 336.896C195.619 337.023 195.88 337.148 196.156 337.245C196.421 337.368 196.706 337.455 196.991 337.557C197.564 337.75 198.164 337.922 198.793 338.14L198.814 338.148C199.167 338.27 199.355 338.656 199.232 339.009C199.151 339.241 198.957 339.402 198.732 339.45C198.021 339.601 197.285 339.612 196.549 339.511C196.364 339.494 196.181 339.456 195.998 339.413C195.815 339.376 195.631 339.329 195.449 339.274C195.268 339.219 195.089 339.154 194.913 339.081C194.734 339.012 194.557 338.939 194.387 338.846C193.702 338.494 193.06 338.026 192.547 337.445C192.032 336.87 191.633 336.2 191.419 335.483C191.313 335.126 191.516 334.75 191.873 334.643C192.113 334.572 192.361 334.639 192.531 334.8L192.551 334.82L192.554 334.821Z" fill="#323232"/>
<g opacity="0.3">
<path opacity="0.3" d="M261.571 326.318C251.928 319.804 249.46 306.833 252.475 288.927C252.756 287.261 251.206 285.85 249.579 286.305C245.776 287.371 240.028 290.673 238.663 300.865C236.579 316.426 246.137 323.399 251.304 324.873C251.304 324.873 256.688 327.614 261.571 326.318Z" fill="#323232"/>
</g>
<g opacity="0.3">
<path opacity="0.3" d="M185.285 250.559C181.408 255.841 177.748 262.914 175.498 268.687C175.014 269.928 173.248 269.913 172.784 268.665C169.987 261.125 178.408 247.763 185.285 250.559Z" fill="#323232"/>
</g>
<g opacity="0.3">
<path opacity="0.3" d="M207.58 347.033C207.58 347.033 205.455 346.858 202.132 346.522H202.124C184.506 342.124 170.249 331.999 164.68 310.438C164.208 308.62 163.802 306.718 163.456 304.729L171.535 279.919L176.505 279.303L188.304 268.435C173.493 310.591 178.572 337.801 207.579 347.034L207.58 347.033Z" fill="#323232"/>
</g>
<path d="M240.75 345.528C246.159 346.507 251.443 348.308 256.274 351.001C261.1 353.685 265.459 357.279 268.918 361.628C272.393 365.964 274.907 371.058 276.328 376.412C277.043 379.089 277.494 381.83 277.709 384.583C277.93 387.337 277.86 390.1 277.627 392.836C277.554 393.519 277.519 394.207 277.413 394.885L277.124 396.922C277.012 397.598 276.874 398.269 276.75 398.943C276.68 399.289 276.636 399.593 276.544 399.975C276.493 400.171 276.445 400.37 276.388 400.565L276.185 401.142C275.585 402.655 274.56 404.009 273.223 404.949C271.897 405.893 270.286 406.463 268.652 406.506L252.569 406.519H220.499C219.706 406.519 219.054 405.903 218.989 405.126V405.124C218.857 403.652 218.757 402.147 218.809 400.588C218.86 399.038 219.084 397.406 219.689 395.843C220.28 394.278 221.255 392.845 222.422 391.705C223.588 390.555 224.908 389.662 226.255 388.896L225.541 390.703V390.701C224.441 387.022 223.894 383.153 224.137 379.29C224.26 377.362 224.582 375.437 225.147 373.575C225.715 371.716 226.527 369.922 227.59 368.285C228.651 366.647 229.964 365.171 231.47 363.94C232.974 362.707 234.666 361.723 236.444 360.996C240.013 359.536 243.855 359.108 247.595 359.196C247.956 359.204 248.244 359.505 248.235 359.866C248.227 360.22 247.941 360.5 247.592 360.507H247.581C243.975 360.564 240.356 361.13 237.138 362.602C233.919 364.051 231.202 366.448 229.447 369.438C227.667 372.42 226.833 375.913 226.758 379.409C226.676 382.913 227.312 386.432 228.454 389.764V389.766L228.459 389.783C228.669 390.488 228.353 391.224 227.741 391.572C226.57 392.238 225.475 392.992 224.576 393.88C223.674 394.767 222.987 395.786 222.55 396.933C222.103 398.078 221.91 399.359 221.868 400.7C221.822 402.041 221.91 403.436 222.037 404.849V404.851L220.513 403.46H252.57L268.542 403.45C269.582 403.425 270.597 403.06 271.444 402.461C272.3 401.865 272.948 400.996 273.334 400.032L273.465 399.664L273.563 399.286C273.629 399.02 273.685 398.661 273.747 398.354C273.865 397.714 273.997 397.076 274.103 396.435L274.376 394.505C274.478 393.863 274.508 393.214 274.579 392.569C274.799 389.987 274.865 387.39 274.657 384.815C274.455 382.241 274.035 379.691 273.372 377.206C272.052 372.239 269.735 367.544 266.524 363.536C263.326 359.518 259.288 356.182 254.782 353.676C250.275 351.163 245.313 349.468 240.211 348.543H240.205C239.374 348.391 238.821 347.596 238.972 346.764C239.123 345.933 239.919 345.381 240.751 345.532L240.75 345.528Z" fill="#323232"/>
<path d="M200.976 358.283C199.008 366.619 196.279 374.889 191.847 382.474C190.72 384.354 189.457 386.171 188.002 387.847C187.658 388.28 187.265 388.676 186.895 389.091L186.331 389.705L185.737 390.293L184.624 391.396C184.297 391.732 184.003 392.095 183.724 392.468C182.622 393.965 181.953 395.747 181.904 397.545C181.875 398.445 181.999 399.29 182.318 400C182.633 400.713 183.144 401.303 183.831 401.784C185.219 402.745 187.18 403.202 189.156 403.403C191.149 403.603 193.218 403.576 195.288 403.436C196.324 403.364 197.363 403.27 198.402 403.15L198.593 403.128L198.738 403.109C198.835 403.094 198.93 403.076 199.023 403.054C199.21 403.011 199.389 402.956 199.558 402.888L199.683 402.834L199.851 402.751L200.189 402.584L200.863 402.25C202.649 401.328 204.276 400.131 205.848 398.86C207.435 397.599 208.875 396.131 210.217 394.57C210.902 393.8 211.515 392.964 212.149 392.143C212.74 391.289 213.356 390.449 213.908 389.561C214.49 388.693 215.003 387.779 215.541 386.879C216.038 385.954 216.569 385.045 217.028 384.096C218.011 382.231 218.863 380.293 219.707 378.348L219.711 378.338C219.856 378.005 220.242 377.853 220.575 377.997C220.888 378.133 221.04 378.487 220.936 378.806C219.581 382.882 217.995 386.919 215.872 390.73C215.366 391.696 214.779 392.619 214.208 393.554C213.593 394.461 212.997 395.384 212.316 396.254C210.981 398.007 209.528 399.704 207.848 401.192C206.175 402.688 204.266 403.921 202.269 404.969L201.509 405.344L201.129 405.531L200.939 405.624L200.696 405.728C200.37 405.858 200.038 405.96 199.706 406.037C199.539 406.075 199.372 406.106 199.205 406.133L198.954 406.166L198.748 406.19C197.668 406.315 196.581 406.413 195.49 406.489C193.306 406.634 191.093 406.671 188.84 406.446C187.714 406.33 186.576 406.142 185.435 405.823C184.297 405.498 183.144 405.03 182.077 404.292C181.543 403.925 181.045 403.471 180.602 402.963C180.158 402.451 179.802 401.858 179.521 401.244C178.966 399.999 178.805 398.678 178.845 397.451C178.912 394.973 179.833 392.588 181.256 390.658C181.615 390.176 181.996 389.711 182.412 389.28L183.564 388.122L184.101 387.58L184.613 387.01C184.95 386.626 185.301 386.256 185.614 385.847C186.918 384.268 188.102 382.575 189.238 380.841C191.544 377.391 193.439 373.629 195.155 369.781C196 367.85 196.816 365.898 197.552 363.912C198.325 361.939 199.01 359.929 199.713 357.923L199.716 357.914C199.836 357.572 200.21 357.392 200.553 357.512C200.872 357.624 201.049 357.96 200.975 358.283H200.976Z" fill="#323232"/>
<path d="M191.259 382.027C190.938 382.027 190.614 381.926 190.338 381.718C175.016 370.16 167.095 353.378 168.605 335.676C168.678 334.835 169.422 334.211 170.26 334.282C171.101 334.355 171.726 335.095 171.654 335.937C170.235 352.569 177.717 368.365 192.181 379.275C192.856 379.784 192.99 380.744 192.481 381.418C192.18 381.816 191.722 382.027 191.258 382.027H191.259Z" fill="#323232"/>
<path d="M183.119 392.31C182.631 392.31 182.151 392.077 181.855 391.644C175.731 382.705 181.157 372.486 181.391 372.055C181.794 371.312 182.724 371.038 183.466 371.442C184.208 371.845 184.484 372.773 184.081 373.515C184.008 373.65 179.34 382.558 184.379 389.915C184.858 390.612 184.679 391.565 183.982 392.042C183.718 392.223 183.417 392.31 183.119 392.31Z" fill="#323232"/>
<path d="M220.513 406.518H194.984C194.139 406.518 193.454 405.834 193.454 404.988C193.454 404.143 194.139 403.458 194.984 403.458H220.513C221.359 403.458 222.043 404.143 222.043 404.988C222.043 405.834 221.359 406.518 220.513 406.518Z" fill="#323232"/>
<path d="M213.255 393.118L211.818 395.821L219.796 400.063L221.233 397.36L213.255 393.118Z" fill="#323232"/>
<path d="M226.466 388.799C226.979 388.64 227.394 388.54 227.852 388.439C228.299 388.339 228.746 388.259 229.192 388.187C229.638 388.107 230.088 388.066 230.535 388.005C230.984 387.959 231.434 387.93 231.882 387.893C233.679 387.791 235.485 387.885 237.258 388.176C238.147 388.297 239.016 388.538 239.884 388.756C240.312 388.888 240.734 389.044 241.158 389.187C241.368 389.263 241.582 389.328 241.789 389.413L242.402 389.689C244.061 390.364 245.544 391.384 246.954 392.439C247.243 392.655 247.302 393.066 247.086 393.356C246.881 393.629 246.505 393.697 246.22 393.522L246.171 393.492C244.766 392.622 243.333 391.8 241.765 391.318L241.189 391.113C240.994 391.052 240.793 391.01 240.596 390.958C240.2 390.861 239.808 390.752 239.412 390.665C238.606 390.537 237.809 390.383 236.994 390.344C235.374 390.22 233.743 390.274 232.137 390.503L230.939 390.706C230.545 390.796 230.147 390.866 229.759 390.971C229.368 391.069 228.981 391.173 228.601 391.293C228.231 391.406 227.826 391.548 227.532 391.668L227.5 391.681C226.716 392.001 225.822 391.625 225.502 390.841C225.183 390.058 225.559 389.164 226.342 388.844C226.383 388.827 226.426 388.812 226.467 388.799H226.466Z" fill="#323232"/>
<path d="M187.309 398.652C187.135 399.079 186.982 399.592 186.885 400.068C186.787 400.553 186.737 401.037 186.741 401.501C186.754 401.963 186.832 402.398 186.961 402.784C187.096 403.17 187.316 403.486 187.549 403.769L187.56 403.782C188.025 404.342 187.948 405.173 187.387 405.638C186.826 406.103 185.996 406.026 185.531 405.466C185.476 405.401 185.427 405.326 185.387 405.254C185.042 404.62 184.8 403.941 184.716 403.26C184.637 402.583 184.671 401.924 184.783 401.306C184.905 400.691 185.092 400.111 185.325 399.565C185.566 399.011 185.824 398.515 186.175 397.992C186.377 397.692 186.785 397.611 187.085 397.814C187.348 397.99 187.442 398.323 187.328 398.605L187.308 398.653L187.309 398.652Z" fill="#323232"/>
<path d="M196.562 399.032C196.389 399.458 196.235 399.971 196.139 400.447C196.04 400.932 195.99 401.416 195.994 401.88C196.007 402.342 196.085 402.777 196.215 403.163C196.349 403.549 196.568 403.866 196.803 404.149L196.813 404.162C197.278 404.722 197.201 405.553 196.64 406.018C196.08 406.483 195.248 406.406 194.783 405.845C194.729 405.78 194.679 405.705 194.64 405.634C194.295 405 194.052 404.32 193.969 403.639C193.89 402.962 193.924 402.304 194.036 401.686C194.158 401.07 194.345 400.491 194.578 399.944C194.818 399.391 195.076 398.895 195.428 398.371C195.63 398.071 196.037 397.99 196.338 398.193C196.601 398.37 196.695 398.702 196.58 398.985L196.561 399.033L196.562 399.032Z" fill="#323232"/>
<path d="M230.648 397.455C230.233 397.907 229.828 398.497 229.539 399.073C229.244 399.659 229.045 400.274 228.961 400.88C228.905 401.182 228.919 401.485 228.913 401.78C228.958 402.076 228.963 402.368 229.06 402.651C229.181 403.222 229.483 403.751 229.786 404.262L229.832 404.341C230.202 404.967 229.995 405.775 229.369 406.146C228.743 406.516 227.935 406.309 227.564 405.683C227.534 405.632 227.506 405.574 227.483 405.521C227.149 404.724 226.853 403.897 226.792 403.011C226.726 402.577 226.768 402.133 226.783 401.701C226.847 401.269 226.907 400.841 227.044 400.436C227.289 399.621 227.672 398.876 228.14 398.217C228.62 397.552 229.132 396.989 229.797 396.456C230.079 396.231 230.491 396.276 230.717 396.558C230.921 396.813 230.903 397.176 230.688 397.41L230.647 397.455H230.648Z" fill="#323232"/>
<path d="M239.319 398.247C239.057 398.672 238.801 399.227 238.651 399.751C238.49 400.284 238.409 400.831 238.404 401.363C238.398 401.896 238.458 402.419 238.612 402.916C238.739 403.417 238.981 403.884 239.228 404.335L239.256 404.387C239.605 405.026 239.37 405.827 238.731 406.176C238.092 406.525 237.291 406.289 236.942 405.651C236.908 405.588 236.877 405.515 236.853 405.45C236.614 404.754 236.408 404.046 236.351 403.309C236.267 402.58 236.314 401.839 236.45 401.135C236.586 400.429 236.818 399.754 237.134 399.133C237.293 398.823 237.466 398.524 237.66 398.238C237.859 397.946 238.052 397.692 238.321 397.399C238.566 397.133 238.98 397.116 239.246 397.361C239.481 397.577 239.522 397.924 239.359 398.185L239.32 398.249L239.319 398.247Z" fill="#323232"/>
<g opacity="0.3">
<path opacity="0.3" d="M244.325 359.975C244.325 359.975 226.051 371.389 236.78 389.082C236.78 389.082 222.886 392.942 228.166 400.059L229.415 397.823C229.415 397.823 232.306 403.198 237.466 400.925L237.375 405.079L220.513 404.513C219.721 397.763 221.61 392.639 226.998 389.634C222.658 375.378 226.032 364.454 244.324 359.975H244.325Z" fill="#323232"/>
</g>
<g opacity="0.3">
<path opacity="0.3" d="M194.77 364.664L199.798 359.973C199.798 359.973 195.343 374.155 190.748 380.109C176.641 369.232 168.632 353.346 170.131 335.806L175.333 331.767C183.093 343.024 197.31 347.798 215.304 348.777C215.304 348.777 197.349 354.325 180.606 347.033C180.606 347.186 180.636 356.485 187.977 364.447C189.774 366.396 192.832 366.473 194.77 364.664Z" fill="#323232"/>
</g>
<g opacity="0.3">
<path opacity="0.3" d="M219.582 380.497C219.582 380.497 222.59 383.895 224.557 381.272L226.649 390.431C226.649 390.431 221.856 395.062 220.147 397.821L220.513 404.511L200.344 404.987C209.734 398.388 216.863 390.601 219.582 380.496V380.497Z" fill="#323232"/>
</g>
<g opacity="0.3">
<path opacity="0.3" d="M189.122 393.657C185.139 397.74 185.694 397.92 186.236 399.432V400.145C186.236 400.145 189.384 402.213 195.635 399.437C195.574 399.577 194.337 402.423 194.984 404.988C185.751 405.544 180.068 403.563 180.378 397.316C180.518 394.466 181.9 391.842 183.972 389.888C190.805 383.431 196.091 372.768 200.147 358.78C200.147 358.78 205.685 365.468 202.045 372.786C198.399 380.105 193.105 389.578 189.122 393.657Z" fill="#323232"/>
</g>
<g opacity="0.3">
<path opacity="0.3" d="M180.732 400.145C180.841 400.473 180.981 400.779 181.143 401.072C180.977 400.784 180.841 400.473 180.732 400.145Z" fill="#323232"/>
</g>
<path d="M199.452 304.362C201.69 300.023 200.825 295.123 197.52 293.419C194.216 291.715 189.722 293.851 187.484 298.191C185.246 302.531 186.111 307.43 189.416 309.135C192.72 310.839 197.214 308.702 199.452 304.362Z" fill="#323232"/>
<path d="M197.426 301.484C198.08 300.217 197.828 298.786 196.863 298.288C195.898 297.79 194.585 298.414 193.932 299.682C193.278 300.95 193.53 302.381 194.495 302.878C195.461 303.376 196.773 302.752 197.426 301.484Z" fill="white"/>
<path d="M172.708 402.033C172.371 403.769 170.797 404.988 169.031 404.988H160.017C158.972 404.988 158.128 404.144 158.128 403.1L149.966 384.66L148.855 382.146L169.087 373.456L169.293 394.606C171.99 396.482 173.197 399.525 172.708 402.034V402.033Z" fill="#8E8FB3"/>
<path d="M169.031 405.177H160.017C158.885 405.177 157.96 404.267 157.939 403.14L148.604 382.047L169.275 373.168L169.483 394.505C172.054 396.335 173.422 399.362 172.894 402.068C172.545 403.869 170.92 405.177 169.032 405.177H169.031ZM149.106 382.244L158.317 403.099C158.317 404.035 159.079 404.797 160.017 404.797H169.031C170.739 404.797 172.206 403.619 172.521 401.996C173.027 399.407 171.685 396.499 169.185 394.761L169.104 394.705L168.9 373.741L149.106 382.244Z" fill="#323232"/>
<g opacity="0.55">
<path opacity="0.55" d="M172.707 402.033C172.37 403.769 170.796 404.988 169.03 404.988H167.671C168.615 404.481 169.328 403.589 169.547 402.487C170.032 399.982 168.825 396.936 166.128 395.06L165.932 374.81L169.088 373.455L169.294 394.605C171.991 396.481 173.198 399.524 172.709 402.033H172.707Z" fill="white"/>
</g>
<g opacity="0.3">
<path opacity="0.3" d="M161.608 404.149C161.332 404.442 161.066 404.722 160.804 404.988H160.016C158.972 404.988 158.127 404.145 158.127 403.1L149.965 384.661C150.249 384.035 150.656 383.568 151.26 383.315L161.249 386.064V394.462C161.249 394.462 165.542 399.997 161.608 404.15V404.149Z" fill="#323232"/>
</g>
<path d="M98.5809 392.406C75.3412 394.334 64.5386 375.676 71.7172 354.578V354.573C72.1897 353.183 72.7401 351.784 73.3695 350.376C79.2236 339.552 86.4979 341.917 88.6096 348.256V348.261C89.6016 351.229 89.4625 355.068 87.5077 358.832C86.8389 360.24 86.2969 361.617 85.877 362.958C83.1444 371.649 85.5229 378.775 91.9143 381.783H91.919C93.3656 382.47 95.0273 382.937 96.8769 383.165L98.5818 392.406H98.5809Z" fill="#8E8FB3"/>
<path d="M95.3728 392.732C86.5212 392.732 79.2158 389.549 74.5745 383.604C68.8556 376.277 67.7453 365.687 71.5272 354.547L71.5375 354.512C72.0091 353.123 72.567 351.705 73.1964 350.299C76.9839 343.295 80.8531 342.545 82.8258 342.712C85.4531 342.942 87.7386 345.044 88.7888 348.197L88.7982 348.231C89.8944 351.539 89.4858 355.433 87.6757 358.92C87.0219 360.295 86.477 361.675 86.0581 363.015C83.3941 371.489 85.6542 378.604 91.9573 381.594L92.0005 381.613C93.4396 382.296 95.0881 382.755 96.8992 382.978L97.0373 382.995L98.8061 392.58L98.5976 392.597C97.5023 392.689 96.4267 392.734 95.3737 392.734L95.3728 392.732ZM71.9067 354.605L71.8963 354.64C68.1446 365.669 69.2295 376.141 74.8732 383.371C79.9504 389.875 88.2834 393.021 98.3562 392.235L96.7142 383.336C94.9322 383.104 93.3052 382.647 91.8746 381.973L91.8333 381.956C85.3169 378.889 82.9648 371.588 85.6955 362.903C86.1201 361.546 86.6715 360.148 87.3356 358.752C89.1072 355.339 89.5037 351.54 88.4281 348.322L88.4187 348.288C87.4126 345.296 85.2587 343.306 82.7919 343.091C79.5502 342.807 76.2615 345.428 73.5355 350.468C72.9221 351.842 72.3717 353.238 71.9057 354.606L71.9067 354.605Z" fill="#323232"/>
<path d="M87.5074 358.832C86.8386 360.24 86.2966 361.617 85.8767 362.958C77.6141 367.824 72.8929 365.031 71.7168 354.577V354.573C72.1893 353.182 72.7398 351.784 73.3691 350.376C81.968 334.476 93.6273 347.032 87.5074 358.831V358.832Z" fill="white"/>
<path d="M154.669 391.68C154.625 391.707 154.582 391.737 154.538 391.763L155.049 393.804C160.256 395.115 162.769 402.473 154.538 404.987H145.869C142.044 404.498 139.425 401.267 138.126 397.201L137.803 397.349L137.607 397.437C137.686 397.555 137.755 397.672 137.821 397.791C139.565 400.947 137.554 404.986 134.429 404.986H116.212C116.155 404.982 116.103 404.978 116.046 404.973C105.938 404.252 97.4532 395.889 96.8802 385.152C96.6181 380.207 98.2 375.35 101.104 371.338C105.2 365.672 109.964 361.086 115.639 357.955L127.089 346.113L127.692 345.492L169.73 340.583C171.54 345.121 172.436 349.869 172.572 354.59C173.005 369.82 165.454 384.794 154.669 391.679V391.68Z" fill="#8E8FB3"/>
<path d="M154.567 405.177H145.869C142.34 404.727 139.494 401.921 138.012 397.463L137.885 397.522C137.92 397.581 137.954 397.64 137.987 397.699C138.907 399.363 138.879 401.41 137.916 403.041C137.115 404.399 135.844 405.176 134.429 405.176L116.032 405.163C105.575 404.416 97.2594 395.819 96.6911 385.162C96.4346 380.327 97.947 375.378 100.95 371.227C105.3 365.21 110.068 360.818 115.522 357.804L127.602 345.311L169.852 340.378L169.905 340.513C171.658 344.907 172.618 349.642 172.761 354.585C173.185 369.487 165.787 384.806 154.772 391.839L154.756 391.85L155.206 393.65C157.956 394.391 159.986 396.764 160.05 399.334C160.115 401.963 158.126 404.09 154.594 405.169L154.567 405.177ZM138.243 396.939L138.307 397.143C139.722 401.572 142.487 404.363 145.893 404.799L154.509 404.797C157.85 403.769 159.729 401.782 159.669 399.342C159.609 396.905 157.646 394.654 155.003 393.988L154.893 393.96L154.32 391.672L154.567 391.519C165.475 384.555 172.801 369.371 172.381 354.596C172.242 349.748 171.308 345.104 169.606 340.789L127.779 345.674L127.223 346.246L115.729 358.123C110.313 361.11 105.578 365.47 101.255 371.45C98.303 375.531 96.816 380.393 97.0678 385.143C97.6257 395.608 105.79 404.052 116.058 404.785L116.224 404.798H134.427C135.705 404.798 136.857 404.088 137.587 402.849C138.482 401.332 138.507 399.428 137.653 397.883C137.59 397.771 137.522 397.656 137.447 397.543L137.322 397.356L138.241 396.94L138.243 396.939Z" fill="#323232"/>
<path d="M152.56 282.13C158.194 277.061 164.15 273.084 170.619 270.853C172.944 270.05 175.486 271.192 176.392 273.478C178.416 278.584 181.591 288.125 181.524 297.579" fill="#8E8FB3"/>
<path d="M181.713 297.581L181.334 297.578C181.401 288.078 178.156 278.445 176.216 273.548C175.351 271.365 172.92 270.26 170.682 271.033C164.674 273.106 158.789 276.782 152.687 282.272L152.434 281.99C158.573 276.465 164.502 272.764 170.558 270.674C172.989 269.834 175.628 271.035 176.569 273.408C178.52 278.33 181.783 288.016 181.714 297.581H181.713Z" fill="#323232"/>
<g opacity="0.55">
<path opacity="0.55" d="M113.637 374.22C123.111 375.965 128.943 381.686 128.765 393.962C128.758 394.504 128.884 395.042 129.12 395.531L129.167 395.629C129.471 396.259 130.079 396.688 130.775 396.753C133.041 396.967 138.051 397.806 138.472 401.053C139.755 400.358 136.738 393.677 131.732 394.241C131.794 381.106 123.987 373.307 113.637 374.219V374.22Z" fill="white"/>
</g>
<g opacity="0.55">
<path opacity="0.55" d="M181.525 297.58L178.438 295.931C177.966 287.424 175.203 279.214 173.376 274.611C172.519 272.447 170.202 271.31 167.986 271.87C168.851 271.498 169.73 271.157 170.618 270.852C172.944 270.051 175.488 271.193 176.393 273.479C178.417 278.585 181.591 288.124 181.526 297.58H181.525Z" fill="white"/>
</g>
<g opacity="0.55">
<path opacity="0.55" d="M154.669 391.681C154.625 391.707 154.582 391.737 154.538 391.764L155.049 393.805C160.256 395.116 162.77 402.474 154.538 404.988H151.802C158.84 402.207 156.322 395.401 151.334 394.146L150.823 392.105L147.519 359.949C147.471 359.483 148.138 359.349 148.273 359.797L150.098 365.835L153.822 389.94C163.05 382.404 169.25 368.773 168.857 354.932C168.721 350.241 167.838 345.525 166.05 341.013L169.731 340.585C171.541 345.123 172.437 349.87 172.573 354.591C173.006 369.822 165.455 384.796 154.67 391.681H154.669Z" fill="white"/>
</g>
<path d="M154.669 391.681L151.709 375.239C155.281 372.892 158.31 369.512 160.247 364.079C162.766 357.823 166.7 354.325 172.571 354.592C173.004 369.823 165.453 384.796 154.668 391.682L154.669 391.681Z" fill="white"/>
<path d="M187.829 324.003C185.6 330.237 181.914 333.683 176.371 337.058C176.24 337.137 176.109 337.219 175.974 337.293C170.54 340.546 164.651 342.99 158.526 344.603C120.418 354.636 95.6267 333.411 110.311 300.322C107.408 295.998 106.074 291.364 105.838 285.83C105.743 283.675 107.373 281.838 109.52 281.633C119.964 280.628 130.679 280.819 137.782 283.202C166.443 275.63 195.677 302.057 187.829 324.003Z" fill="#8E8FB3"/>
<path d="M140.401 347.292C128.261 347.292 118.209 343.504 112.038 336.255C104.475 327.37 103.785 314.62 110.095 300.34C107.306 296.151 105.892 291.539 105.649 285.837C105.549 283.589 107.241 281.659 109.501 281.443C121.311 280.307 131.352 280.86 137.789 283.004C152.8 279.06 169.542 284.185 180.454 296.069C188.37 304.69 191.194 315.156 188.009 324.067C185.684 330.567 181.715 334.026 176.471 337.219L176.352 337.291C176.258 337.349 176.163 337.407 176.066 337.46C170.683 340.682 164.796 343.148 158.576 344.786C152.185 346.469 146.066 347.293 140.403 347.293L140.401 347.292ZM120.856 281.244C117.336 281.244 113.54 281.435 109.537 281.82C107.478 282.017 105.936 283.774 106.027 285.82C106.27 291.489 107.681 296.063 110.468 300.215L110.526 300.302L110.484 300.398C104.192 314.576 104.846 327.223 112.327 336.01C121.28 346.526 138.532 349.67 158.477 344.419C164.664 342.79 170.517 340.337 175.875 337.13C175.973 337.076 176.063 337.021 176.152 336.967L176.272 336.894C181.446 333.743 185.362 330.335 187.65 323.939C190.787 315.164 187.993 304.841 180.174 296.327C169.343 284.531 152.722 279.451 137.83 283.386L137.776 283.401L137.722 283.382C133.505 281.968 127.706 281.246 120.857 281.246L120.856 281.244Z" fill="#323232"/>
<g opacity="0.55">
<path opacity="0.55" d="M187.829 324.003C186.985 326.359 185.936 328.314 184.66 330.019C185.123 329.114 185.538 328.143 185.915 327.094C193.762 305.148 164.528 278.721 135.868 286.293C128.763 283.911 118.049 283.719 107.604 284.724C106.962 284.785 106.362 284.995 105.847 285.314C106.008 283.39 107.547 281.821 109.519 281.632C119.962 280.627 130.678 280.819 137.781 283.202C166.442 275.63 195.675 302.057 187.828 324.003H187.829Z" fill="white"/>
</g>
<path d="M140.414 348.628C127.869 348.628 117.448 344.677 111.017 337.123C103.221 327.966 102.365 314.972 108.579 300.465C105.911 296.226 104.55 291.572 104.307 285.896C104.18 282.935 106.405 280.392 109.373 280.108C116.225 279.45 128.933 278.786 137.83 281.607C153.217 277.728 170.288 283.02 181.439 295.164C189.698 304.157 192.624 315.131 189.269 324.518C186.812 331.391 182.653 335.023 177.165 338.363C171.567 341.769 165.426 344.365 158.915 346.08C152.419 347.79 146.191 348.628 140.414 348.628ZM120.87 282.584C117.392 282.584 113.634 282.773 109.664 283.153C108.317 283.282 107.306 284.429 107.364 285.764C107.596 291.171 108.935 295.526 111.581 299.469C111.874 299.906 111.922 300.462 111.709 300.942C105.638 314.621 106.219 326.766 113.347 335.138C121.958 345.253 138.701 348.236 158.135 343.119C164.361 341.48 170.228 339 175.574 335.747C180.647 332.66 184.225 329.532 186.387 323.486C189.353 315.188 186.661 305.374 179.185 297.232C168.686 285.798 152.586 280.871 138.17 284.678C137.881 284.755 137.576 284.744 137.293 284.649C133.208 283.281 127.561 282.583 120.87 282.583V282.584Z" fill="#323232"/>
<path d="M181.524 299.109H181.512C180.668 299.103 179.987 298.413 179.993 297.567C180.06 288.294 176.875 278.847 174.97 274.041C174.37 272.526 172.678 271.76 171.118 272.299C165.285 274.312 159.549 277.9 153.583 283.268C152.955 283.832 151.988 283.781 151.422 283.153C150.856 282.526 150.908 281.558 151.536 280.992C157.811 275.345 163.89 271.555 170.119 269.406C173.23 268.333 176.609 269.873 177.814 272.913C179.801 277.926 183.123 287.798 183.053 297.589C183.046 298.431 182.363 299.108 181.523 299.108L181.524 299.109Z" fill="#323232"/>
<path d="M162.085 317.112L159.903 317.247L160.007 318.928L162.189 318.793L162.085 317.112Z" fill="#323232"/>
<path d="M164.545 326.407C163.059 330.258 158.902 329.978 156.629 327.023V327.019C155.981 326.17 155.483 325.104 155.251 323.854L160.673 321.285L165.079 322.52C165.136 324.111 164.931 325.396 164.545 326.406V326.407Z" fill="#323232"/>
<path d="M164.546 326.407C163.06 330.258 158.902 329.979 156.629 327.023V327.019C157.77 324.169 163.3 323.727 164.542 326.402L164.547 326.407H164.546Z" fill="#F95877"/>
<path d="M160.764 329.489C159.197 329.489 157.591 328.632 156.456 327.157L156.411 327.098L156.427 326.938C157.102 325.251 159.14 324.45 160.86 324.404C162.67 324.363 164.146 325.073 164.725 326.278L164.797 326.353L164.752 326.488C164.101 328.175 162.898 329.226 161.366 329.447C161.167 329.476 160.966 329.49 160.765 329.49L160.764 329.489ZM156.88 326.989C158.062 328.465 159.746 329.24 161.303 329.013C162.645 328.819 163.709 327.899 164.307 326.419C163.69 325.206 162.144 324.81 160.872 324.841C159.335 324.882 157.528 325.563 156.881 326.989H156.88Z" fill="#323232"/>
<path d="M160.367 312.381C160.367 312.381 156.178 312.564 156.251 314.968C156.304 316.739 158.651 317.72 159.883 318.113C160.366 318.267 160.886 318.219 161.33 317.973C162.252 317.466 163.782 316.409 164.092 314.865C164.242 314.117 163.889 313.352 163.213 312.999C162.644 312.703 161.743 312.415 160.368 312.381H160.367Z" fill="#323232"/>
<path d="M169.926 318.877C169.84 319.449 169.656 320.016 169.397 320.56C169.126 321.096 168.769 321.603 168.333 322.046C167.457 322.93 166.251 323.517 164.959 323.637C163.679 323.76 162.258 323.406 161.229 322.469C160.718 322.013 160.307 321.446 160.037 320.839C159.774 320.228 159.625 319.594 159.587 318.974V318.968L161.761 318.954C161.72 319.298 161.667 319.644 161.607 319.987C161.512 320.322 161.396 320.656 161.276 320.984C161.123 321.299 160.943 321.601 160.772 321.907C160.569 322.19 160.347 322.46 160.13 322.732C159.169 323.733 157.932 324.434 156.604 324.709C155.285 324.987 153.862 324.902 152.626 324.336C151.38 323.793 150.385 322.803 149.782 321.681C149.61 321.361 149.73 320.963 150.049 320.791C150.331 320.64 150.674 320.714 150.869 320.953L150.884 320.972C151.544 321.778 152.364 322.372 153.276 322.653C154.188 322.925 155.174 322.933 156.087 322.653C156.993 322.37 157.842 321.878 158.443 321.181C159.066 320.503 159.442 319.663 159.584 318.752L159.595 318.681C159.688 318.085 160.246 317.678 160.842 317.771C161.342 317.849 161.71 318.257 161.759 318.739V318.743C161.906 319.572 162.229 320.273 162.758 320.741C163.282 321.211 164.024 321.461 164.81 321.44C165.596 321.423 166.402 321.137 167.074 320.633C167.754 320.13 168.279 319.391 168.661 318.533L168.67 318.511C168.819 318.178 169.208 318.028 169.541 318.176C169.819 318.299 169.968 318.591 169.925 318.877H169.926Z" fill="#323232"/>
<path d="M160.766 330.363C158.929 330.363 157.064 329.382 155.763 327.69C155.745 327.667 155.728 327.643 155.712 327.618C154.951 326.6 154.421 325.368 154.177 324.053L156.326 323.655C156.512 324.662 156.918 325.595 157.498 326.355C157.512 326.373 157.525 326.392 157.537 326.41C158.513 327.646 159.935 328.324 161.177 328.147C162.234 327.994 163.047 327.255 163.527 326.012C163.881 325.083 164.036 323.92 163.987 322.558L166.172 322.48C166.231 324.136 166.027 325.587 165.567 326.795C164.807 328.766 163.321 330.044 161.49 330.31C161.251 330.345 161.008 330.362 160.766 330.362V330.363Z" fill="#323232"/>
<path d="M110.31 301.634C110.052 301.634 109.791 301.557 109.562 301.399C108.967 300.985 108.821 300.168 109.235 299.573C111.756 295.953 114.369 293.195 117.181 291.198C109.379 286.145 107.05 287.174 106.847 287.285C106.412 287.777 105.668 287.875 105.117 287.491C104.522 287.078 104.375 286.26 104.79 285.665C105.478 284.678 108.631 282.079 120.31 290.135C120.679 290.39 120.892 290.815 120.876 291.264C120.859 291.712 120.615 292.12 120.229 292.347C117.087 294.187 114.196 297.041 111.389 301.072C111.134 301.439 110.726 301.635 110.311 301.635L110.31 301.634ZM106.94 287.168C106.94 287.168 106.94 287.169 106.939 287.17C106.939 287.17 106.939 287.169 106.94 287.168ZM106.942 287.166C106.942 287.166 106.942 287.167 106.941 287.168C106.941 287.168 106.941 287.167 106.942 287.166ZM106.944 287.164C106.944 287.164 106.943 287.165 106.942 287.166C106.942 287.166 106.942 287.165 106.944 287.164Z" fill="#323232"/>
<g opacity="0.3">
<path opacity="0.3" d="M119.564 291.215C116.063 293.265 113.028 296.422 110.31 300.321L105.869 286.415C105.869 286.415 108.055 283.272 119.565 291.215H119.564Z" fill="#323232"/>
</g>
<path d="M120.363 290.175L126.31 295.4C126.637 295.687 126.67 296.185 126.383 296.513C126.119 296.813 125.676 296.865 125.352 296.648L118.766 292.256C118.162 291.853 118 291.036 118.402 290.433C118.805 289.829 119.621 289.667 120.224 290.069C120.271 290.1 120.321 290.139 120.362 290.175H120.363Z" fill="#323232"/>
<path d="M170.423 289.512C169.837 289.512 169.305 289.117 169.153 288.525C167.525 282.151 167.833 277.295 170.069 274.091C172.172 271.079 175.206 270.736 175.335 270.723C176.057 270.65 176.699 271.173 176.773 271.894C176.846 272.611 176.327 273.252 175.613 273.331C175.506 273.345 173.57 273.617 172.185 275.645C170.464 278.165 170.295 282.394 171.695 287.875C171.874 288.577 171.45 289.292 170.749 289.47C170.64 289.499 170.531 289.512 170.424 289.512H170.423Z" fill="#323232"/>
<path d="M115.119 323.963C113.645 323.795 112.188 323.651 110.728 323.576C109.269 323.507 107.812 323.487 106.353 323.544C104.894 323.593 103.436 323.71 101.975 323.859C100.514 324.013 99.0521 324.212 97.5679 324.394H97.5642C97.2025 324.44 96.8728 324.182 96.8277 323.82C96.7901 323.513 96.9696 323.23 97.2448 323.123C98.6773 322.568 100.165 322.164 101.679 321.875C103.192 321.581 104.733 321.414 106.28 321.363C107.828 321.321 109.382 321.387 110.917 321.604C112.451 321.816 113.969 322.16 115.422 322.687C115.765 322.811 115.942 323.189 115.818 323.532C115.712 323.825 115.419 323.997 115.123 323.963H115.118H115.119Z" fill="#323232"/>
<path d="M116.21 329.278C114.805 329.437 113.423 329.642 112.056 329.93C110.691 330.218 109.343 330.574 108.008 330.991C106.677 331.418 105.354 331.882 104.04 332.393C102.718 332.889 101.41 333.433 100.06 333.934H100.056C99.7133 334.063 99.3319 333.888 99.2051 333.545C99.0999 333.262 99.2014 332.953 99.4324 332.782C100.618 331.905 101.9 331.17 103.227 330.519C104.561 329.883 105.944 329.332 107.374 328.916C108.799 328.489 110.264 328.172 111.748 328.003C113.232 327.834 114.735 327.797 116.216 327.967C116.578 328.009 116.838 328.335 116.796 328.698C116.761 329.009 116.515 329.245 116.216 329.279H116.21V329.278Z" fill="#323232"/>
<path d="M119.577 333.778C118.612 334.444 117.668 335.075 116.777 335.775C115.883 336.468 115.022 337.196 114.207 337.986C113.397 338.779 112.626 339.622 111.894 340.511C111.156 341.396 110.463 342.329 109.752 343.272L109.75 343.276C109.53 343.567 109.116 343.625 108.823 343.405C108.579 343.221 108.499 342.9 108.608 342.63C109.069 341.491 109.659 340.403 110.337 339.364C111.021 338.33 111.799 337.346 112.682 336.453C113.559 335.556 114.534 334.742 115.605 334.077C116.677 333.417 117.829 332.879 119.047 332.578C119.404 332.49 119.765 332.708 119.853 333.066C119.921 333.342 119.806 333.62 119.587 333.772L119.578 333.778H119.577Z" fill="#323232"/>
<path d="M186.223 304.837L181.956 307.993C181.664 308.209 181.251 308.147 181.035 307.855C180.841 307.592 180.872 307.233 181.091 307.005L184.783 303.192C185.204 302.757 185.899 302.745 186.334 303.166C186.769 303.587 186.78 304.282 186.359 304.717C186.318 304.759 186.269 304.802 186.223 304.836V304.837Z" fill="#323232"/>
<path d="M182.55 312.773L187.962 310.712C188.528 310.497 189.161 310.781 189.377 311.346C189.592 311.912 189.308 312.545 188.743 312.761C188.692 312.78 188.636 312.796 188.584 312.808L182.923 314.031C182.568 314.108 182.219 313.881 182.142 313.526C182.072 313.204 182.252 312.887 182.551 312.773H182.55Z" fill="#323232"/>
<path d="M184.333 318.201L188.735 318.216C189.342 318.218 189.831 318.712 189.829 319.318C189.828 319.923 189.333 320.414 188.728 320.412C188.655 320.412 188.579 320.402 188.511 320.389L184.199 319.504C183.842 319.431 183.613 319.083 183.686 318.727C183.75 318.414 184.026 318.199 184.334 318.2L184.333 318.201Z" fill="#323232"/>
<path d="M171.151 340.02C172.987 344.646 173.952 349.594 174.091 354.543C174.231 359.495 173.563 364.451 172.184 369.193C170.802 373.934 168.714 378.478 165.922 382.579C163.13 386.669 159.615 390.345 155.354 393.057L156.022 391.391L156.532 393.432L155.422 392.318C157.037 392.725 158.509 393.629 159.603 394.893C160.692 396.146 161.442 397.824 161.383 399.642C161.358 400.541 161.124 401.445 160.715 402.24C160.305 403.035 159.741 403.715 159.116 404.266C157.853 405.365 156.408 406.002 154.984 406.45C154.842 406.495 154.698 406.517 154.557 406.517H145.867C145.808 406.517 145.75 406.513 145.693 406.506L145.671 406.504C143.795 406.278 141.987 405.413 140.624 404.182C139.24 402.96 138.235 401.455 137.49 399.892C136.741 398.325 136.252 396.678 135.949 395.012C135.872 394.595 135.81 394.177 135.757 393.758C135.708 393.362 135.662 393.011 135.604 392.641C135.485 391.914 135.356 391.201 135.169 390.514L135.163 390.489C135.15 390.446 135.141 390.401 135.134 390.358C134.603 387.134 134.079 383.909 133.628 380.672C133.387 379.057 133.198 377.431 132.981 375.811C132.871 375.001 132.78 374.188 132.689 373.375C132.596 372.563 132.503 371.75 132.429 370.934C132.383 370.428 132.755 369.979 133.262 369.933C133.719 369.89 134.128 370.19 134.238 370.62C134.443 371.413 134.629 372.21 134.816 373.007C135.005 373.803 135.194 374.599 135.362 375.399C135.704 376.997 136.073 378.591 136.391 380.193C137.057 383.394 137.651 386.605 138.237 389.82L138.202 389.664C138.439 390.492 138.626 391.324 138.749 392.149C138.813 392.557 138.867 392.985 138.914 393.37C138.959 393.73 139.01 394.091 139.076 394.447C139.333 395.875 139.745 397.27 140.339 398.549C140.931 399.826 141.715 400.989 142.688 401.861C143.655 402.743 144.812 403.296 146.062 403.468L145.868 403.455H154.538L154.091 403.522C155.238 403.165 156.306 402.659 157.087 401.974C157.869 401.287 158.304 400.449 158.323 399.547C158.363 398.646 157.965 397.67 157.288 396.895C156.616 396.114 155.68 395.537 154.673 395.285C154.109 395.144 153.697 394.705 153.564 394.177V394.173L153.053 392.132C152.889 391.478 153.174 390.815 153.713 390.472L153.721 390.467C157.549 388.03 160.798 384.658 163.392 380.854C165.989 377.042 167.95 372.782 169.244 368.337C170.537 363.89 171.162 359.246 171.03 354.629C170.901 350.014 170.002 345.427 168.307 341.151L168.305 341.147C167.993 340.362 168.377 339.472 169.164 339.161C169.949 338.849 170.839 339.233 171.15 340.019L171.151 340.02Z" fill="#323232"/>
<path d="M153.03 392.022L149.116 365.543C149.042 365.042 149.388 364.575 149.89 364.501C150.377 364.428 150.831 364.755 150.925 365.233L156.046 391.506C156.207 392.336 155.666 393.14 154.836 393.301C154.006 393.463 153.202 392.922 153.041 392.091C153.037 392.071 153.032 392.043 153.028 392.023L153.03 392.022Z" fill="#323232"/>
<path d="M112.238 373.467C114.997 372.842 117.954 372.696 120.809 373.419C123.664 374.108 126.314 375.766 128.232 378.017C130.162 380.27 131.383 383.017 132.045 385.819C132.71 388.633 132.846 391.519 132.658 394.352L131.452 392.882C132.581 392.992 133.727 393.217 134.851 393.64C135.972 394.059 137.083 394.691 138.006 395.621C138.928 396.541 139.613 397.781 139.849 399.11C140.094 400.437 139.936 401.819 139.39 403.056C138.851 404.285 137.896 405.425 136.537 406.059C135.872 406.371 135.081 406.528 134.38 406.523L132.808 406.528L126.521 406.545L120.233 406.563L117.089 406.572L116.303 406.574C116.042 406.575 115.722 406.534 115.436 406.514C115.135 406.494 114.858 406.455 114.579 406.417C114.299 406.38 114.019 406.344 113.742 406.29C111.515 405.915 109.359 405.163 107.361 404.125C105.371 403.07 103.535 401.727 101.944 400.139C98.7489 396.972 96.5367 392.829 95.6762 388.412C94.797 384.006 95.3305 379.301 97.1125 375.203C97.5521 374.174 98.0547 373.173 98.6343 372.218C99.2063 371.261 99.8676 370.34 100.502 369.499C101.79 367.784 103.181 366.137 104.668 364.574C107.642 361.451 111.071 358.702 114.891 356.597L114.524 356.877L126.592 344.429C127.18 343.822 128.149 343.807 128.756 344.395C129.362 344.983 129.38 345.949 128.792 346.556L116.754 359.035C116.647 359.145 116.528 359.237 116.4 359.309L116.388 359.315C112.885 361.259 109.719 363.803 106.938 366.739C105.549 368.209 104.24 369.764 103.023 371.396C102.402 372.226 101.847 373.007 101.347 373.845C100.844 374.679 100.409 375.552 100.03 376.446C98.4924 380.025 98.0641 383.998 98.8156 387.801C99.5576 391.592 101.458 395.145 104.205 397.866C106.943 400.594 110.502 402.479 114.292 403.153C114.528 403.202 114.767 403.233 115.004 403.266C115.243 403.3 115.484 403.336 115.704 403.351C115.938 403.366 116.137 403.404 116.399 403.404L117.181 403.406L120.307 403.415L126.56 403.432L132.814 403.45L134.377 403.455C134.72 403.456 134.976 403.4 135.262 403.277C135.812 403.033 136.328 402.501 136.631 401.827C136.942 401.156 137.045 400.372 136.921 399.64C136.797 398.906 136.449 398.223 135.913 397.65C135.374 397.076 134.648 396.615 133.823 396.283C132.998 395.948 132.081 395.738 131.137 395.602L131.089 395.595C130.373 395.492 129.87 394.845 129.931 394.133C130.159 391.533 130.087 388.906 129.548 386.392C129.011 383.884 127.989 381.487 126.4 379.552C124.83 377.61 122.69 376.153 120.254 375.481C117.823 374.787 115.18 374.803 112.608 375.268H112.602C112.103 375.359 111.625 375.027 111.534 374.528C111.447 374.044 111.76 373.578 112.235 373.47L112.238 373.467Z" fill="#323232"/>
<path d="M125.248 404.551L125.685 400.616C125.725 400.253 126.051 399.993 126.414 400.033C126.727 400.068 126.963 400.316 126.996 400.616L127.433 404.551C127.5 405.155 127.065 405.698 126.462 405.765C125.858 405.832 125.315 405.397 125.247 404.794C125.239 404.713 125.239 404.629 125.247 404.551H125.248Z" fill="#323232"/>
<path d="M131.04 404.551L131.477 400.616C131.517 400.253 131.843 399.993 132.206 400.033C132.518 400.068 132.755 400.316 132.789 400.616L133.226 404.551C133.292 405.155 132.858 405.698 132.254 405.765C131.65 405.832 131.108 405.397 131.04 404.794C131.031 404.713 131.031 404.629 131.04 404.551Z" fill="#323232"/>
<path d="M153.446 404.551L153.882 400.616C153.923 400.253 154.249 399.993 154.611 400.033C154.924 400.068 155.161 400.316 155.195 400.616L155.632 404.551C155.698 405.155 155.263 405.698 154.66 405.765C154.056 405.832 153.513 405.397 153.446 404.794C153.436 404.713 153.437 404.629 153.446 404.551Z" fill="#323232"/>
<path d="M162.953 404.551L163.39 401.053C163.435 400.691 163.766 400.434 164.128 400.48C164.434 400.518 164.665 400.76 164.702 401.053L165.138 404.551C165.213 405.155 164.786 405.705 164.182 405.78C163.578 405.855 163.028 405.428 162.952 404.824C162.941 404.733 162.942 404.638 162.952 404.551H162.953Z" fill="#323232"/>
<path d="M167.762 404.551L168.199 401.053C168.244 400.691 168.575 400.434 168.937 400.48C169.243 400.518 169.474 400.76 169.511 401.053L169.947 404.551C170.023 405.155 169.595 405.705 168.991 405.78C168.387 405.855 167.837 405.428 167.762 404.824C167.75 404.733 167.751 404.638 167.762 404.551H167.762Z" fill="#323232"/>
<path d="M147.763 404.551L148.199 400.616C148.24 400.253 148.566 399.993 148.928 400.033C149.241 400.068 149.478 400.316 149.512 400.616L149.948 404.551C150.015 405.155 149.58 405.698 148.977 405.765C148.373 405.832 147.83 405.397 147.763 404.794C147.753 404.713 147.754 404.629 147.763 404.551Z" fill="#323232"/>
<path d="M169.029 406.518H160.015C158.13 406.518 156.597 404.985 156.597 403.1C156.597 402.256 157.282 401.57 158.127 401.57C158.973 401.57 159.658 402.255 159.658 403.1C159.658 403.298 159.818 403.457 160.015 403.457H169.03C170.098 403.457 171.013 402.735 171.207 401.74C171.605 399.695 170.459 397.278 168.421 395.862C168.013 395.579 167.769 395.116 167.764 394.62L167.559 373.467C167.55 372.623 168.229 371.931 169.074 371.922H169.089C169.927 371.922 170.61 372.598 170.619 373.437L170.817 393.838C173.445 395.996 174.797 399.314 174.211 402.323C173.739 404.753 171.559 406.517 169.03 406.517L169.029 406.518Z" fill="#323232"/>
<path d="M95.3417 394.074C85.6156 394.074 77.709 390.395 72.8497 383.529C66.7082 374.853 66.3813 362.226 71.9742 349.752C71.9902 349.717 72.0062 349.683 72.024 349.65C76.5743 341.235 82.0432 340.274 85.6447 342.182C90.2691 344.631 92.6673 352.175 88.877 359.51C85.887 365.817 85.4794 371.812 87.7601 375.96C89.513 379.148 92.7293 381.113 97.0607 381.645C97.8995 381.747 98.496 382.511 98.3927 383.35C98.2894 384.189 97.5285 384.786 96.6878 384.682C91.4152 384.036 87.2923 381.461 85.0783 377.434C82.2752 372.334 82.6463 365.494 86.1238 358.173C86.1313 358.156 86.1397 358.14 86.1482 358.125C89.078 352.479 87.4792 346.615 84.2131 344.885C81.2823 343.332 77.6564 345.697 74.7444 351.056C69.623 362.515 69.8475 373.99 75.3484 381.76C80.1062 388.482 88.3153 391.725 98.4575 390.882C99.302 390.82 100.039 391.439 100.109 392.28C100.178 393.122 99.5528 393.861 98.7102 393.932C97.5661 394.027 96.4426 394.073 95.3426 394.073L95.3417 394.074Z" fill="#323232"/>
<g opacity="0.3">
<path opacity="0.3" d="M176.287 335.806L175.972 337.292C170.538 340.545 164.649 342.988 158.525 344.601C120.417 354.635 95.6255 333.41 110.31 300.321L118.729 290.646L124.928 295.333C106.811 315.879 126.139 358.15 176.286 335.806H176.287Z" fill="#323232"/>
</g>
<g opacity="0.3">
<path opacity="0.3" d="M143.172 395.991L137.792 367.742C137.619 366.834 136.452 366.559 135.892 367.294L131.944 372.475C131.061 373.632 129.373 373.777 128.308 372.786C123.347 352.768 141.065 347.325 142.04 347.045C135.635 348.523 130.013 347.141 127.089 346.115L115.639 357.957C109.964 361.087 105.199 365.673 101.104 371.339C98.2009 375.352 96.6181 380.209 96.8802 385.153C97.4532 395.89 105.938 404.253 116.046 404.975C115.897 404.835 115.749 404.695 115.596 404.551C94.4322 384.651 113.201 374.22 113.201 374.22C135.137 372.524 131.295 394.242 131.295 394.242L137.822 397.792L137.883 397.823L137.804 397.351L137.481 395.397C137.94 397.705 140.113 405.142 148.856 404.989V401.798C146.474 400.814 144.558 398.925 143.173 395.992L143.172 395.991ZM137.37 394.753L137.479 395.388C137.41 395.055 137.379 394.828 137.37 394.753Z" fill="#323232"/>
</g>
<g opacity="0.3">
<path opacity="0.3" d="M137.48 395.387C137.411 395.055 137.38 394.828 137.371 394.753L137.48 395.387Z" fill="#323232"/>
</g>
<g opacity="0.3">
<path opacity="0.3" d="M137.48 395.387C137.411 395.055 137.38 394.828 137.371 394.753L137.48 395.387Z" fill="#323232"/>
</g>
<g opacity="0.3">
<path opacity="0.3" d="M98.5809 392.406C75.3412 394.334 64.5386 375.676 71.7172 354.578V354.573C72.1897 353.183 72.7401 351.784 73.3695 350.376C79.2236 339.552 86.4979 341.917 88.6096 348.256V348.261C78.0343 346.115 65.5578 384.354 91.9143 381.783H91.919C93.3656 382.47 95.0273 382.937 96.8769 383.165L98.5818 392.406H98.5809Z" fill="#323232"/>
</g>
<path d="M174.997 303.519C174.223 303.912 173.446 304.365 172.754 304.858C172.06 305.36 171.422 305.903 170.862 306.504C170.3 307.101 169.798 307.74 169.392 308.442C169.169 308.781 169.002 309.153 168.821 309.519C168.645 309.887 168.52 310.283 168.362 310.663L166.475 309.347C166.713 309.181 166.872 309.093 167.065 308.991C167.25 308.89 167.438 308.807 167.626 308.72C168.003 308.557 168.39 308.427 168.781 308.32C169.564 308.111 170.376 308.009 171.179 308.045C171.978 308.095 172.774 308.205 173.506 308.491C174.249 308.734 174.919 309.13 175.532 309.562C175.72 309.695 175.765 309.955 175.632 310.144C175.535 310.282 175.368 310.343 175.212 310.313L175.164 310.303C174.819 310.237 174.492 310.141 174.16 310.081C173.824 310.038 173.503 309.96 173.174 309.947C172.523 309.882 171.881 309.904 171.261 309.994C170.64 310.071 170.038 310.24 169.465 310.461C169.178 310.569 168.903 310.704 168.633 310.841C168.502 310.915 168.368 310.985 168.246 311.065C168.129 311.135 167.986 311.24 167.933 311.278L167.911 311.295C167.374 311.69 166.62 311.574 166.226 311.038C165.991 310.718 165.938 310.315 166.047 309.962C166.352 308.992 166.716 308.021 167.285 307.15C167.814 306.26 168.523 305.479 169.31 304.822C170.098 304.163 170.984 303.634 171.926 303.282C172.865 302.917 173.828 302.699 174.858 302.706C175.089 302.707 175.275 302.895 175.274 303.127C175.273 303.288 175.18 303.428 175.046 303.497L174.999 303.52L174.997 303.519Z" fill="#323232"/>
<path d="M144.568 321.444C147.804 320.216 149.12 315.775 147.508 311.525C145.895 307.275 141.964 304.825 138.728 306.053C135.492 307.281 134.176 311.722 135.788 315.972C137.401 320.222 141.332 322.672 144.568 321.444Z" fill="#323232"/>
<path d="M143.396 314.036C144.342 313.677 144.726 312.38 144.255 311.139C143.784 309.898 142.636 309.182 141.691 309.541C140.745 309.9 140.361 311.197 140.832 312.438C141.303 313.679 142.451 314.395 143.396 314.036Z" fill="white"/>
<path d="M120.277 361.281C123.96 362.15 127.779 361.234 130.947 358.725C133.718 356.53 133.372 352.211 130.341 350.393L122.997 345.99C120.715 344.622 117.701 345.157 116.181 347.34C114.715 349.446 114.282 352.122 114.608 354.814C114.986 357.941 117.212 360.556 120.278 361.281H120.277Z" fill="#E4B740"/>
<g opacity="0.3">
<path opacity="0.3" d="M131.885 354.028C128.718 356.537 124.899 357.453 121.215 356.584C118.149 355.86 115.924 353.246 115.545 350.118C115.485 349.619 115.46 349.122 115.453 348.628C114.585 350.488 114.343 352.643 114.606 354.814C114.985 357.941 117.21 360.557 120.276 361.281C123.959 362.151 127.778 361.235 130.946 358.725C132.66 357.367 133.178 355.199 132.61 353.311C132.396 353.567 132.16 353.81 131.885 354.028Z" fill="#323232"/>
</g>
<g opacity="0.55">
<path opacity="0.55" d="M115.24 350.628C116.759 348.445 119.774 347.909 122.056 349.278L129.399 353.682C130.93 354.599 131.773 356.154 131.879 357.751C133.574 355.429 132.969 351.971 130.339 350.394L122.995 345.99C120.713 344.622 117.699 345.157 116.179 347.34C115.271 348.643 114.761 350.166 114.581 351.774C114.775 351.378 114.986 350.991 115.24 350.628Z" fill="white"/>
</g>
<path d="M123.044 363.136C122.007 363.136 120.963 363.015 119.925 362.77C116.295 361.912 113.547 358.79 113.088 354.998C112.712 351.893 113.264 349.067 114.685 346.826C116.61 343.788 120.713 342.837 123.83 344.706L131.127 349.081C133.003 350.206 134.207 352.184 134.35 354.372C134.492 356.553 133.598 358.577 131.896 359.924C129.226 362.039 126.165 363.136 123.044 363.136ZM120.628 359.791C123.86 360.555 127.188 359.749 129.996 357.525C130.898 356.811 131.371 355.734 131.295 354.57C131.217 353.368 130.582 352.323 129.553 351.706L122.256 347.331C120.55 346.309 118.313 346.817 117.268 348.464C115.957 350.534 115.922 352.96 116.125 354.63C116.43 357.153 118.239 359.227 120.627 359.791H120.628Z" fill="#323232"/>
<path d="M231.812 313.169C230.587 312.921 229.32 312.711 228.096 312.608C226.865 312.499 225.653 312.483 224.469 312.566C223.875 312.594 223.295 312.688 222.714 312.764C222.427 312.816 222.144 312.884 221.859 312.942C221.717 312.974 221.573 312.996 221.432 313.031L221.016 313.154C219.888 313.431 218.842 313.936 217.802 314.454L217.078 311.403C217.197 311.413 217.269 311.424 217.348 311.434C217.43 311.444 217.506 311.456 217.578 311.469C217.726 311.495 217.875 311.521 218.017 311.554C218.305 311.612 218.583 311.688 218.862 311.762C219.416 311.915 219.953 312.114 220.478 312.33C221.527 312.769 222.517 313.344 223.414 314.033C224.307 314.725 225.127 315.512 225.777 316.419C226.468 317.29 226.962 318.292 227.361 319.291C227.477 319.58 227.336 319.909 227.047 320.024C226.831 320.111 226.593 320.054 226.439 319.899L226.391 319.851C226.032 319.493 225.727 319.11 225.373 318.775C225.013 318.443 224.68 318.101 224.3 317.809C223.568 317.201 222.783 316.686 221.964 316.253C221.152 315.809 220.296 315.459 219.421 315.192C218.984 315.057 218.54 314.951 218.1 314.855C217.88 314.814 217.659 314.769 217.442 314.741C217.332 314.723 217.227 314.713 217.121 314.702C217.068 314.694 217.017 314.689 216.971 314.686L216.858 314.677L216.815 314.673C215.916 314.602 215.244 313.816 215.314 312.917C215.358 312.36 215.685 311.886 216.134 311.626C217.394 310.909 218.719 310.248 220.145 309.917C220.497 309.816 220.849 309.721 221.21 309.678C221.57 309.623 221.928 309.559 222.288 309.515C223.011 309.473 223.732 309.41 224.448 309.466C225.881 309.531 227.286 309.792 228.614 310.242C229.942 310.708 231.186 311.296 232.327 312.17C232.576 312.361 232.623 312.718 232.432 312.967C232.296 313.144 232.075 313.22 231.869 313.178L231.813 313.167L231.812 313.169Z" fill="#323232"/>
<path opacity="0.2" d="M77.8514 404.373C82.6008 403.286 87.3502 402.998 92.1005 402.882C96.8499 402.731 101.599 402.811 106.35 402.893C111.099 402.982 115.848 402.962 120.599 402.964H277.336L284.46 402.962C286.835 402.964 289.209 402.866 291.584 402.822C293.959 402.776 296.334 402.847 298.708 403.024C301.083 403.233 303.458 403.582 305.832 404.373C306.221 404.502 306.432 404.923 306.302 405.312C306.226 405.541 306.045 405.71 305.832 405.782C303.458 406.574 301.083 406.922 298.708 407.131C296.334 407.307 293.959 407.379 291.584 407.333C289.209 407.289 286.835 407.191 284.46 407.193L277.336 407.191H120.599C115.849 407.193 111.1 407.173 106.35 407.261C101.6 407.344 96.8509 407.424 92.1005 407.273C87.3511 407.157 82.6018 406.869 77.8514 405.782C77.4625 405.693 77.2192 405.306 77.3085 404.916C77.3724 404.637 77.5903 404.433 77.8514 404.373Z" fill="#390565"/>
</svg>
