<svg width="375" height="450" viewBox="0 0 375 450" fill="none" xmlns="http://www.w3.org/2000/svg">
<path fill-rule="evenodd" clip-rule="evenodd" d="M0 0V132.999C0.166581 133 0.333248 133 0.5 133C62.632 133 113 82.632 113 20.5C113 13.4989 112.36 6.64714 111.137 0H0Z" fill="#C3E4F2" fill-opacity="0.5"/>
<path fill-rule="evenodd" clip-rule="evenodd" d="M375 75.5722C349.658 63.6588 321.357 57 291.5 57C182.976 57 95 144.976 95 253.5C95 362.024 182.976 450 291.5 450C321.357 450 349.658 443.341 375 431.428V75.5722Z" fill="#C3E4F2"/>
<g opacity="0.2">
<path opacity="0.2" d="M189.346 428.379C224.402 428.379 252.82 425.718 252.82 422.435C252.82 419.153 224.402 416.492 189.346 416.492C154.291 416.492 125.873 419.153 125.873 422.435C125.873 425.718 154.291 428.379 189.346 428.379Z" fill="#390565"/>
</g>
<path d="M157.866 406.332C142.068 415.381 127.067 407.12 124.792 394.61C124.346 392.153 124.394 389.531 125.02 386.846C125.387 385.27 125.955 383.675 126.743 382.071C127.437 380.655 128.148 379.236 128.839 377.814C131.253 372.852 133.414 367.901 133.796 363.279C133.978 361.087 133.759 358.965 132.971 356.954C132.554 355.893 131.879 354.977 131.052 354.249C130.071 353.388 128.874 352.788 127.64 352.526C127.088 352.41 126.53 352.359 125.979 352.384C122.421 352.535 119.194 355.754 120.496 363.78C122.321 375.055 110.062 378.582 105.557 368.913C105.358 368.483 105.179 368.031 105.011 367.559C104.957 367.394 104.9 367.226 104.846 367.059C102.033 358.055 105.44 342.465 119.35 339.197C119.986 339.043 120.649 338.922 121.335 338.824C122.273 338.693 123.197 338.614 124.102 338.591C125.78 338.545 127.398 338.682 128.936 338.983C140.235 341.196 147.348 352.318 143.784 366.27C141.87 373.758 134.126 387.877 137.406 394.697C138.444 396.858 141.629 398.536 145.402 398.36C145.499 398.357 145.599 398.351 145.698 398.345H145.701C148.422 398.149 151.428 396.983 154.133 394.344L157.867 406.33L157.866 406.332Z" fill="#8E8FB3"/>
<g opacity="0.15">
<path opacity="0.15" d="M157.864 406.333C142.068 415.382 127.064 407.119 124.791 394.61C126.7 400.926 137.025 405.007 145.399 398.361C145.496 398.358 145.595 398.353 145.695 398.346H145.698C148.42 398.149 151.425 396.983 154.129 394.345L157.864 406.333Z" fill="#323232"/>
</g>
<path d="M244.108 326.23C241.639 350.888 212.31 354.032 198.482 356.78H181.036C172.1 355.004 156.687 353.063 146.236 345.253C143.712 343.368 141.477 341.14 139.691 338.49C138.421 336.602 137.378 334.498 136.621 332.15C136.111 330.559 135.731 328.856 135.5 327.03C135.412 326.337 135.345 325.627 135.303 324.898C135.175 322.763 135.244 320.471 135.531 318.016C135.781 315.888 137.41 308.61 139.63 301.477C140.385 299.048 141.209 296.635 142.071 294.45C138.918 280.447 137.633 262.811 142.373 256.734C145.455 252.783 153.8 256.749 166.447 267.584C175.48 263.607 187.862 263.374 189.761 263.381C191.661 263.374 204.042 263.607 213.073 267.584C225.72 256.749 234.064 252.784 237.147 256.734C241.887 262.811 240.602 280.447 237.449 294.45C240.84 303.054 243.654 315.164 243.988 318.016C244.338 320.991 244.364 323.723 244.109 326.23H244.108Z" fill="#8E8FB3"/>
<g opacity="0.5">
<path opacity="0.5" d="M240.245 273.111C240.088 267.514 239.162 262.836 237.146 260.253C234.064 256.301 225.719 260.267 213.072 271.102C204.041 267.124 191.66 266.892 189.76 266.899C187.86 266.892 175.479 267.124 166.446 271.102C153.799 260.266 145.454 256.301 142.372 260.253C140.356 262.836 139.43 267.514 139.273 273.111C139.097 265.983 139.945 259.844 142.372 256.733C145.454 252.782 153.799 256.748 166.446 267.583C175.479 263.606 187.86 263.373 189.76 263.38C191.66 263.373 204.041 263.606 213.072 267.583C225.719 256.748 234.063 252.783 237.146 256.733C239.573 259.844 240.42 265.983 240.245 273.111Z" fill="white"/>
</g>
<path d="M244.108 326.23C241.639 350.888 212.31 354.032 198.482 356.779H181.036C172.1 355.003 156.687 353.063 146.236 345.253C143.712 343.367 141.477 341.14 139.691 338.49C138.421 336.602 137.378 334.498 136.621 332.15C136.111 330.559 135.731 328.856 135.5 327.03C156.86 345.374 172.276 337.146 179.169 323.133C181.831 317.724 187.072 317.204 189.346 317.204C191.621 317.204 196.862 317.724 199.522 323.133C206.513 337.345 222.275 345.609 244.108 326.23H244.108Z" fill="white"/>
<g opacity="0.15">
<path opacity="0.15" d="M241.694 335.198C233.9 351.739 210.417 354.406 198.483 356.778H181.037C172.101 355.002 156.688 353.062 146.237 345.252C143.713 343.366 141.478 341.139 139.692 338.489C139.001 337.461 138.376 336.371 137.828 335.209C138.956 336.33 140.167 337.365 141.445 338.32C149.401 344.267 177.071 347.254 189.757 347.254C202.443 347.254 233.548 343.31 241.694 335.198Z" fill="#323232"/>
</g>
<path d="M157.882 292.23C157.241 291.23 161.489 282.294 169.498 284.933C172.383 285.883 172.654 288.696 170.418 289.296C168.288 289.868 167.328 289.407 164.026 290.569C162.158 291.227 158.524 293.229 157.883 292.23H157.882Z" fill="#323232"/>
<path d="M221.637 292.23C222.278 291.23 218.03 282.294 210.021 284.933C207.137 285.883 206.865 288.696 209.101 289.296C211.231 289.868 212.191 289.407 215.493 290.569C217.362 291.227 220.995 293.229 221.636 292.23H221.637Z" fill="#323232"/>
<path d="M153.413 278.149C149.525 282.296 147.074 288.099 146.728 287.421C146.694 287.356 146.661 287.279 146.627 287.188C145.89 285.287 144.673 277.753 144.689 271.041C144.694 269.958 144.724 269.002 144.781 268.159C144.933 265.884 145.259 264.427 145.657 263.494C146.151 262.355 147.258 262.007 148.236 262.391C150.839 263.417 158.231 268.293 160.637 271.415C161.066 271.971 157.305 274.002 153.413 278.149Z" fill="#FFC4AD"/>
<path opacity="0.3" d="M153.414 278.149C149.525 282.296 147.074 288.099 146.728 287.421C146.694 287.356 146.661 287.278 146.627 287.188C147.497 283.666 149.888 278.803 151.72 275.287C154.224 270.486 150.79 266.661 147.809 265.515C146.787 265.12 145.57 266.8 144.781 268.16C144.933 265.885 145.258 264.428 145.657 263.495C146.151 262.355 147.257 262.007 148.236 262.392C150.839 263.417 158.231 268.294 160.637 271.416C161.065 271.971 157.304 274.002 153.413 278.15L153.414 278.149Z" fill="#323232"/>
<path d="M146.821 288.768C146.799 288.768 146.777 288.768 146.755 288.766C146.258 288.749 145.806 288.459 145.576 288.008C144.703 286.294 143.38 278.011 143.399 271.038C143.409 267.278 143.76 264.643 144.471 262.986C145.212 261.27 146.994 260.517 148.709 261.19C151.462 262.274 159.033 267.216 161.661 270.626C161.977 271.037 162.335 271.892 161.173 273.011C160.804 273.366 160.276 273.788 159.606 274.321C158.216 275.429 156.312 276.947 154.356 279.033C152.206 281.326 150.489 284.189 149.353 286.083C148.163 288.068 147.744 288.767 146.821 288.767V288.768ZM145.983 271.045C145.969 276.061 146.666 281.488 147.27 284.536C148.462 282.55 150.218 279.67 152.472 277.266C154.556 275.044 156.626 273.393 157.997 272.301C158.341 272.027 158.71 271.733 159.001 271.488C156.257 268.558 149.919 264.443 147.764 263.595C147.527 263.502 147.093 263.432 146.844 264.007C146.459 264.907 145.994 266.861 145.983 271.045V271.045Z" fill="#323232"/>
<path d="M226.241 278.149C230.129 282.296 232.58 288.099 232.927 287.421C232.96 287.356 232.994 287.279 233.028 287.188C233.764 285.287 234.981 277.753 234.965 271.041C234.96 269.958 234.931 269.002 234.873 268.159C234.721 265.884 234.396 264.427 233.997 263.494C233.503 262.355 232.397 262.007 231.418 262.391C228.815 263.417 221.423 268.293 219.017 271.415C218.589 271.971 222.35 274.002 226.241 278.149Z" fill="#FFC4AD"/>
<path opacity="0.3" d="M226.241 278.149C230.129 282.296 232.58 288.099 232.926 287.421C232.96 287.356 232.993 287.278 233.027 287.188C232.157 283.666 229.766 278.803 227.935 275.287C225.431 270.486 228.864 266.661 231.845 265.515C232.868 265.12 234.084 266.8 234.874 268.16C234.722 265.885 234.396 264.428 233.998 263.495C233.504 262.355 232.397 262.007 231.418 262.392C228.815 263.417 221.423 268.294 219.018 271.416C218.589 271.971 222.35 274.002 226.242 278.15L226.241 278.149Z" fill="#323232"/>
<path d="M232.833 288.767C231.909 288.767 231.49 288.069 230.3 286.084C229.164 284.189 227.447 281.326 225.297 279.033C223.342 276.948 221.438 275.43 220.047 274.321C219.378 273.788 218.849 273.366 218.48 273.011C217.319 271.892 217.676 271.037 217.992 270.627C220.621 267.217 228.191 262.274 230.945 261.191C232.659 260.516 234.441 261.271 235.182 262.983C235.894 264.645 236.244 267.278 236.255 271.039C236.274 278.011 234.951 286.295 234.077 288.008C233.847 288.459 233.396 288.75 232.899 288.767C232.876 288.768 232.854 288.769 232.833 288.769V288.767ZM220.653 271.488C220.945 271.733 221.313 272.027 221.658 272.301C223.027 273.393 225.098 275.044 227.182 277.266C229.437 279.67 231.193 282.549 232.384 284.536C232.988 281.488 233.684 276.061 233.671 271.045C233.66 266.862 233.196 264.907 232.809 264.005C232.562 263.432 232.127 263.502 231.891 263.595C229.735 264.443 223.398 268.558 220.654 271.488L220.653 271.488Z" fill="#323232"/>
<path d="M198.374 356.236C202.113 355.225 205.88 354.482 209.592 353.587C213.306 352.705 216.991 351.757 220.56 350.503C221.448 350.182 222.338 349.864 223.207 349.499C224.089 349.16 224.938 348.758 225.797 348.375C226.225 348.181 226.637 347.958 227.058 347.751C227.477 347.54 227.9 347.335 228.302 347.096L229.523 346.406C229.923 346.166 230.311 345.907 230.706 345.659L231.296 345.283C231.487 345.152 231.673 345.012 231.862 344.877L232.992 344.059L234.063 343.174C234.24 343.024 234.426 342.884 234.594 342.726L235.096 342.249C236.472 341.011 237.644 339.58 238.709 338.087L239.457 336.932C239.519 336.836 239.584 336.741 239.643 336.643L239.804 336.339L240.127 335.732L240.45 335.125C240.503 335.023 240.56 334.923 240.61 334.82L240.743 334.503L241.281 333.236L241.416 332.919L241.523 332.592L241.735 331.936C241.869 331.496 242.037 331.067 242.144 330.619L242.454 329.272L242.61 328.599L242.708 327.912L242.906 326.539C242.922 326.424 242.942 326.311 242.953 326.195L242.975 325.848L243.018 325.153L243.106 323.764C243.109 323.299 243.095 322.833 243.091 322.367L243.071 320.969L242.952 319.571L242.835 318.173L242.739 317.511L242.618 316.824C242.268 314.977 241.837 313.111 241.383 311.26C240.926 309.408 240.441 307.56 239.918 305.724C238.877 302.052 237.72 298.411 236.342 294.887L236.209 294.547L236.288 294.191C237.484 288.816 238.344 283.352 238.785 277.873C238.995 275.135 239.106 272.39 239.027 269.665C238.95 266.947 238.699 264.225 238.042 261.676C237.715 260.406 237.254 259.19 236.627 258.153C236.555 258.017 236.465 257.9 236.38 257.78L236.252 257.599C236.21 257.537 236.167 257.475 236.127 257.438C236.045 257.351 235.975 257.249 235.881 257.18L235.752 257.062C235.707 257.026 235.657 256.997 235.611 256.963C235.235 256.703 234.778 256.544 234.243 256.493C233.71 256.441 233.12 256.491 232.52 256.611C231.92 256.732 231.309 256.904 230.702 257.127C229.486 257.569 228.285 258.164 227.11 258.815C224.759 260.131 222.507 261.7 220.312 263.344C218.118 264.996 215.985 266.746 213.888 268.542L213.294 269.051L212.563 268.737C210.81 267.985 208.98 267.376 207.113 266.869C205.246 266.362 203.333 265.984 201.411 265.663C199.487 265.346 197.545 265.11 195.596 264.944C193.651 264.778 191.683 264.674 189.757 264.665C187.831 264.68 185.863 264.781 183.919 264.948C181.97 265.114 180.028 265.35 178.104 265.668C176.182 265.989 174.27 266.368 172.402 266.875C170.536 267.383 168.706 267.992 166.953 268.744L166.219 269.06L165.621 268.548C163.523 266.752 161.39 265.003 159.197 263.351C157.001 261.708 154.749 260.139 152.398 258.825C151.223 258.173 150.023 257.579 148.807 257.138C148.2 256.915 147.59 256.743 146.991 256.622C146.392 256.503 145.803 256.454 145.272 256.506C144.738 256.557 144.283 256.715 143.91 256.974C143.863 257.008 143.814 257.036 143.769 257.071L143.641 257.189C143.548 257.257 143.478 257.359 143.396 257.446C143.356 257.484 143.314 257.546 143.272 257.608L143.144 257.788C143.059 257.908 142.969 258.025 142.897 258.161C142.271 259.197 141.81 260.411 141.483 261.68C140.828 264.229 140.577 266.949 140.501 269.667C140.422 272.391 140.533 275.135 140.744 277.874C141.185 283.352 142.047 288.814 143.244 294.189L143.324 294.552L143.189 294.896C141.805 298.416 140.658 302.062 139.614 305.732C139.094 307.568 138.607 309.415 138.151 311.269C137.697 313.12 137.265 314.986 136.919 316.832C136.831 317.294 136.758 317.748 136.702 318.179C136.647 318.645 136.6 319.11 136.56 319.576C136.481 320.508 136.433 321.44 136.421 322.371C136.396 324.233 136.515 326.091 136.81 327.915C137.39 331.56 138.723 335.063 140.818 338.079C142.899 341.106 145.686 343.628 148.816 345.645C151.953 347.663 155.407 349.211 158.966 350.47C162.53 351.735 166.218 352.671 169.936 353.526L171.329 353.855L172.729 354.169L175.531 354.815C177.402 355.25 179.278 355.698 181.14 356.241C181.434 356.327 181.604 356.635 181.518 356.93C181.441 357.192 181.188 357.354 180.926 357.327H180.924C177.103 356.926 173.278 356.423 169.474 355.668C165.673 354.916 161.899 353.923 158.207 352.629C154.521 351.332 150.903 349.725 147.562 347.584C144.23 345.445 141.191 342.721 138.901 339.403C136.595 336.099 135.122 332.235 134.49 328.292C134.167 326.319 134.037 324.325 134.06 322.342C134.071 321.351 134.121 320.362 134.202 319.378C134.244 318.886 134.292 318.394 134.349 317.905C134.415 317.382 134.496 316.887 134.587 316.405C134.947 314.47 135.381 312.588 135.838 310.703C136.298 308.821 136.788 306.949 137.312 305.084C138.366 301.356 139.522 297.654 140.945 294.012L140.89 294.718C139.66 289.235 138.773 283.681 138.31 278.069C138.088 275.261 137.969 272.439 138.044 269.6C138.123 266.764 138.367 263.903 139.091 261.056C139.458 259.636 139.973 258.212 140.785 256.863C140.878 256.693 140.996 256.53 141.113 256.366L141.287 256.121C141.343 256.04 141.4 255.959 141.481 255.87C141.633 255.7 141.773 255.521 141.952 255.371L142.212 255.14C142.303 255.067 142.4 255.002 142.495 254.934C143.265 254.397 144.176 254.113 145.025 254.034C145.881 253.95 146.693 254.03 147.456 254.178C148.22 254.33 148.952 254.539 149.651 254.794C151.053 255.301 152.353 255.947 153.611 256.641C156.121 258.039 158.445 259.657 160.705 261.341C162.959 263.031 165.133 264.809 167.265 266.628L165.932 266.431C167.83 265.612 169.775 264.963 171.74 264.424C173.705 263.887 175.694 263.49 177.688 263.153C179.683 262.82 181.686 262.573 183.695 262.398C185.707 262.224 187.709 262.109 189.755 262.1C191.801 262.114 193.802 262.226 195.814 262.401C197.823 262.577 199.827 262.824 201.821 263.157C203.814 263.494 205.803 263.891 207.768 264.429C209.733 264.968 211.678 265.617 213.575 266.437L212.25 266.633C214.382 264.815 216.556 263.038 218.811 261.348C221.07 259.665 223.395 258.047 225.904 256.65C227.163 255.956 228.462 255.311 229.863 254.805C230.561 254.551 231.293 254.341 232.056 254.19C232.819 254.042 233.629 253.962 234.483 254.045C235.331 254.124 236.24 254.407 237.008 254.944C237.102 255.012 237.2 255.076 237.29 255.149L237.55 255.38C237.729 255.529 237.868 255.707 238.02 255.878C238.1 255.966 238.157 256.048 238.214 256.128L238.387 256.373C238.503 256.537 238.621 256.699 238.714 256.87C239.525 258.218 240.039 259.641 240.406 261.06C241.129 263.906 241.373 266.766 241.451 269.601C241.527 272.44 241.406 275.261 241.184 278.068C240.72 283.68 239.833 289.233 238.601 294.715L238.548 294.02C239.962 297.663 241.126 301.363 242.176 305.091C242.702 306.954 243.189 308.827 243.649 310.708C244.106 312.593 244.539 314.476 244.901 316.408L245.028 317.142L245.137 317.907L245.26 319.382L245.381 320.858L245.401 322.344C245.404 322.839 245.417 323.334 245.412 323.83L245.316 325.318L245.267 326.062L245.242 326.435C245.23 326.558 245.208 326.682 245.191 326.805L244.975 328.286L244.866 329.027L244.697 329.758L244.355 331.22C244.236 331.706 244.055 332.176 243.907 332.655L243.673 333.37L243.554 333.727L243.407 334.074L242.815 335.46L242.666 335.806C242.612 335.919 242.55 336.028 242.492 336.139L242.137 336.805L241.781 337.47L241.602 337.802C241.538 337.91 241.467 338.013 241.399 338.119L240.576 339.383C239.41 341.014 238.122 342.57 236.636 343.905L236.091 344.42C235.909 344.59 235.709 344.74 235.519 344.9L234.364 345.848L233.156 346.72C232.954 346.864 232.755 347.013 232.55 347.152L231.923 347.551C231.504 347.813 231.09 348.086 230.666 348.34L229.376 349.066C228.95 349.317 228.507 349.532 228.066 349.752C227.625 349.968 227.19 350.202 226.742 350.404C225.845 350.802 224.954 351.22 224.039 351.57C223.134 351.948 222.213 352.276 221.292 352.606C219.444 353.239 217.583 353.83 215.699 354.311C214.76 354.568 213.813 354.783 212.87 355.013C211.921 355.217 210.973 355.426 210.022 355.606C206.219 356.348 202.395 356.864 198.587 357.326H198.583C198.279 357.364 198.002 357.147 197.965 356.843C197.931 356.565 198.109 356.311 198.371 356.241L198.374 356.236Z" fill="#323232"/>
<path d="M199.214 327.046C199.214 327.046 199.217 332.809 194.061 332.506C190.409 332.292 189.651 329.285 189.597 329.044C189.54 329.286 188.782 332.292 185.13 332.506C179.972 332.809 179.975 327.046 179.975 327.046L189.552 319.578H189.64L199.214 327.046Z" fill="#E8E8E8"/>
<path d="M199.162 327.085C199.162 327.085 197.48 331.469 193.566 330.449C189.11 329.287 189.657 323.972 189.657 323.972H189.492C189.492 323.972 190.017 329.289 185.557 330.433C181.639 331.438 179.975 327.047 179.975 327.047C179.975 327.047 178.877 317.202 189.55 317.202C200.223 317.202 199.162 327.085 199.162 327.085Z" fill="white"/>
<path d="M198.659 328.063C197.903 329.29 196.264 331.153 193.568 330.447C189.11 329.286 189.656 323.971 189.656 323.971H189.493C189.493 323.971 190.019 329.29 185.557 330.434C182.861 331.125 181.229 329.259 180.476 328.028C181.229 328.097 182.049 328.039 182.94 327.811C190.305 325.92 189.438 318.703 189.438 318.703H189.711C189.711 318.703 188.809 325.917 196.168 327.839C197.07 328.074 197.899 328.136 198.66 328.063L198.659 328.063Z" fill="#E8E8E8"/>
<path d="M180.579 326.818C180.712 327.034 180.882 327.302 181.054 327.528C181.222 327.765 181.411 327.983 181.599 328.194C181.982 328.609 182.403 328.96 182.85 329.195C183.295 329.44 183.761 329.559 184.241 329.596C184.488 329.575 184.729 329.603 184.982 329.532C185.106 329.502 185.232 329.494 185.358 329.459L185.734 329.335C186.739 329.006 187.5 328.302 188.019 327.344C188.279 326.868 188.466 326.325 188.601 325.761C188.674 325.479 188.721 325.189 188.765 324.897C188.805 324.611 188.839 324.293 188.85 324.036L188.852 323.986C188.868 323.63 189.17 323.353 189.527 323.369C189.838 323.383 190.087 323.614 190.136 323.909C190.2 324.293 190.224 324.618 190.231 324.974C190.24 325.323 190.223 325.673 190.185 326.024C190.104 326.723 189.955 327.437 189.648 328.116C189.091 329.482 187.859 330.713 186.409 331.188L185.871 331.371C185.689 331.426 185.493 331.45 185.303 331.485C184.928 331.572 184.52 331.549 184.126 331.554C183.322 331.494 182.538 331.21 181.884 330.789C181.23 330.361 180.706 329.811 180.296 329.215C180.094 328.915 179.914 328.606 179.76 328.288C179.602 327.962 179.482 327.654 179.371 327.276C179.271 326.934 179.467 326.575 179.809 326.475C180.095 326.392 180.391 326.514 180.541 326.755L180.58 326.819L180.579 326.818Z" fill="#323232"/>
<path d="M199.766 327.316C199.653 327.694 199.532 328.002 199.373 328.326C199.218 328.645 199.037 328.953 198.834 329.252C198.422 329.845 197.896 330.394 197.24 330.819C196.585 331.237 195.8 331.518 194.995 331.575C194.601 331.568 194.193 331.589 193.818 331.501C193.628 331.465 193.433 331.439 193.251 331.384L192.714 331.2C191.266 330.718 190.039 329.482 189.487 328.114C189.182 327.434 189.036 326.72 188.958 326.02C188.922 325.669 188.905 325.319 188.916 324.97C188.924 324.614 188.95 324.289 189.015 323.905C189.075 323.553 189.409 323.316 189.761 323.376C190.067 323.428 190.287 323.688 190.299 323.988L190.301 324.037C190.311 324.294 190.344 324.613 190.382 324.898C190.426 325.19 190.471 325.481 190.543 325.763C190.675 326.328 190.861 326.871 191.119 327.349C191.633 328.309 192.392 329.016 193.396 329.349L193.771 329.474C193.897 329.51 194.023 329.519 194.147 329.549C194.399 329.621 194.641 329.594 194.887 329.616C195.367 329.581 195.834 329.463 196.279 329.22C196.727 328.986 197.15 328.638 197.534 328.224C197.723 328.015 197.913 327.797 198.082 327.56C198.255 327.335 198.426 327.068 198.559 326.853L198.598 326.79C198.787 326.487 199.185 326.394 199.488 326.583C199.74 326.74 199.846 327.043 199.766 327.315V327.316Z" fill="#323232"/>
<path d="M194.95 321.196C194.947 322.454 193.305 323.561 191.797 324.313C190.221 325.1 188.456 325.096 186.883 324.303C185.379 323.545 183.74 322.431 183.743 321.174C183.75 317.381 194.957 317.403 194.95 321.196Z" fill="#323232"/>
<g opacity="0.5">
<path opacity="0.5" d="M191.57 320.445C191.569 320.808 190.918 321.127 190.321 321.343C189.696 321.57 188.996 321.568 188.372 321.34C187.776 321.121 187.126 320.799 187.126 320.436C187.128 319.343 191.573 319.351 191.57 320.445Z" fill="white"/>
</g>
<path d="M142.037 324.342C141.824 324.22 141.577 324.088 141.338 323.966C141.101 323.838 140.857 323.718 140.611 323.602C140.368 323.481 140.122 323.367 139.87 323.262C139.618 323.157 139.376 323.035 139.122 322.933C138.113 322.521 137.098 322.124 136.058 321.797C133.984 321.134 131.867 320.589 129.709 320.26C129.172 320.159 128.626 320.124 128.086 320.047L127.273 319.945C127.002 319.914 126.728 319.907 126.456 319.886C125.911 319.853 125.366 319.818 124.821 319.775L123.18 319.756C122.083 319.707 120.992 319.838 119.894 319.865L119.482 319.883L119.072 319.928L118.253 320.019L116.61 320.188L116.571 320.192C116.259 320.224 115.98 319.997 115.947 319.685C115.917 319.388 116.122 319.121 116.411 319.068L118.08 318.763L118.917 318.616L119.336 318.543L119.759 318.497C120.322 318.434 120.887 318.379 121.452 318.327C121.735 318.305 122.018 318.263 122.301 318.258L123.153 318.232C123.721 318.217 124.289 318.194 124.858 318.187L126.565 318.252C126.849 318.268 127.134 318.27 127.418 318.297L128.268 318.385C128.833 318.45 129.404 318.488 129.965 318.588L131.651 318.875C132.211 318.983 132.765 319.123 133.32 319.252C133.879 319.37 134.421 319.553 134.971 319.707C135.52 319.861 136.057 320.058 136.594 320.251C138.743 321.042 140.796 322.019 142.691 323.409C142.944 323.595 142.999 323.95 142.813 324.203C142.64 324.439 142.319 324.502 142.072 324.36L142.036 324.339L142.037 324.342Z" fill="#323232"/>
<path d="M143.481 332.856C142.551 332.745 141.57 332.669 140.611 332.629C139.647 332.588 138.684 332.573 137.722 332.595C135.8 332.643 133.882 332.799 132.007 333.165C131.069 333.345 130.14 333.566 129.232 333.851C128.775 333.984 128.331 334.154 127.88 334.306C127.441 334.486 126.992 334.647 126.564 334.853C124.823 335.618 123.207 336.643 121.73 337.86L121.721 337.867C121.479 338.067 121.12 338.032 120.92 337.79C120.732 337.562 120.753 337.23 120.957 337.025C122.395 335.59 124.072 334.37 125.905 333.465C126.818 333.007 127.762 332.609 128.731 332.294C129.698 331.969 130.682 331.701 131.679 331.508C133.671 331.103 135.701 330.922 137.72 330.961C139.745 331.003 141.736 331.224 143.723 331.745C144.027 331.825 144.209 332.136 144.129 332.44C144.056 332.718 143.789 332.894 143.511 332.86L143.48 332.856H143.481Z" fill="#323232"/>
<path d="M236.828 323.412C238.722 322.022 240.775 321.046 242.925 320.254C243.462 320.061 243.998 319.864 244.548 319.71C245.097 319.556 245.64 319.373 246.198 319.255C246.753 319.126 247.307 318.986 247.867 318.879L249.554 318.591C250.116 318.491 250.685 318.454 251.251 318.388L252.101 318.3C252.384 318.273 252.67 318.271 252.954 318.256L254.66 318.19C255.229 318.198 255.797 318.22 256.366 318.235L257.218 318.261C257.502 318.266 257.783 318.308 258.066 318.33C258.631 318.383 259.196 318.437 259.76 318.501L260.182 318.546L260.601 318.619L261.439 318.766L263.108 319.071C263.417 319.127 263.621 319.423 263.565 319.732C263.511 320.025 263.241 320.224 262.949 320.195L262.909 320.191L261.265 320.022L260.446 319.931L260.037 319.886L259.625 319.869C258.527 319.841 257.435 319.71 256.339 319.759L254.698 319.779C254.152 319.821 253.607 319.856 253.062 319.889C252.79 319.91 252.517 319.916 252.246 319.948L251.433 320.05C250.893 320.127 250.346 320.162 249.81 320.263C247.652 320.592 245.535 321.137 243.46 321.8C242.42 322.127 241.405 322.524 240.396 322.936C240.144 323.038 239.901 323.159 239.649 323.265C239.397 323.37 239.15 323.484 238.907 323.605C238.662 323.722 238.417 323.84 238.181 323.969C237.943 324.091 237.696 324.223 237.482 324.345L237.446 324.365C237.174 324.522 236.827 324.428 236.671 324.156C236.525 323.902 236.597 323.583 236.827 323.415L236.828 323.412Z" fill="#323232"/>
<path d="M235.795 331.745C237.783 331.223 239.775 331.003 241.799 330.961C243.818 330.922 245.847 331.102 247.839 331.508C248.837 331.701 249.822 331.969 250.787 332.294C251.757 332.609 252.701 333.007 253.614 333.465C255.446 334.37 257.124 335.59 258.561 337.025C258.784 337.248 258.784 337.608 258.561 337.83C258.353 338.039 258.022 338.052 257.799 337.869L257.788 337.86C256.311 336.643 254.695 335.618 252.954 334.853C252.526 334.647 252.078 334.486 251.638 334.306C251.187 334.154 250.744 333.984 250.286 333.851C249.378 333.566 248.449 333.345 247.511 333.165C245.636 332.798 243.718 332.642 241.796 332.595C240.834 332.574 239.87 332.589 238.907 332.629C237.948 332.67 236.967 332.745 236.037 332.856L236.006 332.86C235.694 332.897 235.411 332.675 235.374 332.363C235.34 332.077 235.524 331.816 235.795 331.745H235.795Z" fill="#323232"/>
<g opacity="0.15">
<path opacity="0.15" d="M137.927 359.482C137.232 367.883 131.446 375.001 128.839 377.814C131.253 372.852 133.414 367.9 133.797 363.28C133.978 361.086 133.758 358.966 132.97 356.956C132.554 355.895 131.881 354.978 131.051 354.252C129.633 353.002 127.763 352.305 125.977 352.384C122.421 352.535 119.193 355.755 120.495 363.781C122.322 375.057 110.061 378.583 105.558 368.914C105.359 368.485 105.178 368.031 105.012 367.559C107.277 369.26 112.941 372.181 116.079 368.691C120.495 363.781 114.479 355.582 120.28 349.542C124.7 344.941 138.827 348.588 137.927 359.482Z" fill="#323232"/>
</g>
<path d="M129.052 348.409C128.941 348.526 127.508 348.153 127.548 348.309C127.715 348.995 128.025 350.38 127.639 352.526C127.63 352.524 127.625 352.524 127.616 352.524C127.508 352.498 127.403 352.478 127.295 352.464C127.201 352.447 127.107 352.435 127.013 352.424C126.94 352.416 126.863 352.407 126.786 352.401C126.717 352.395 126.646 352.39 126.575 352.387C126.376 352.376 126.177 352.376 125.978 352.384C122.42 352.535 119.193 355.754 120.495 363.78C122.321 375.055 110.061 378.582 105.556 368.913C105.358 368.483 105.178 368.031 105.01 367.559C107.277 369.26 112.939 372.181 116.079 368.691C120.495 363.78 114.477 355.581 120.279 349.541C122.125 347.622 125.656 347.138 129.084 348.017C129.129 348.196 129.126 348.332 129.052 348.409H129.052Z" fill="#686868"/>
<path d="M127.639 352.527C127.087 352.41 126.529 352.36 125.978 352.385C122.42 352.535 119.193 355.755 120.495 363.78C122.32 375.056 110.061 378.582 105.556 368.913C105.357 368.484 105.178 368.032 105.01 367.56C104.956 367.395 104.899 367.227 104.845 367.059C102.032 358.056 105.439 342.466 119.349 339.198C119.985 339.044 120.648 338.922 121.334 338.825C122.272 338.694 123.196 338.615 124.101 338.592C125.018 339.165 127.313 341.401 127.948 343.742C128.027 344.032 126.562 343.468 126.677 343.776C127.063 344.811 129.529 347.908 129.052 348.409C128.942 348.525 127.509 348.153 127.547 348.309C127.714 348.995 128.026 350.378 127.639 352.526V352.527Z" fill="white"/>
<g opacity="0.15">
<path opacity="0.15" d="M129.052 348.409C128.941 348.526 127.508 348.153 127.548 348.309C127.715 348.995 128.025 350.38 127.639 352.526C127.63 352.524 127.625 352.524 127.616 352.524C127.508 352.501 127.403 352.482 127.295 352.464C127.201 352.447 127.107 352.435 127.013 352.424C126.94 352.416 126.863 352.407 126.786 352.401C126.715 352.395 126.644 352.39 126.575 352.387C126.376 352.376 126.177 352.376 125.978 352.384C122.42 352.535 119.193 355.754 120.495 363.78C122.321 375.055 110.061 378.582 105.556 368.913C105.358 368.483 105.178 368.031 105.01 367.559C107.277 369.26 112.939 372.181 116.079 368.691C120.495 363.78 114.477 355.581 120.279 349.541C122.125 347.622 125.656 347.138 129.084 348.017C129.129 348.196 129.126 348.332 129.052 348.409H129.052Z" fill="#323232"/>
</g>
<path d="M144.375 411.267C138.808 411.267 133.593 409.355 129.571 405.582C123.064 399.475 121.552 390.051 125.72 381.572C125.982 381.038 126.248 380.502 126.513 379.966C130.422 372.065 134.464 363.896 131.911 357.371C130.86 354.684 127.625 352.958 124.99 353.679C122.004 354.495 120.743 358.204 121.618 363.6C122.671 370.102 119.389 374.166 115.669 375.309C112.016 376.431 107.155 375.037 104.527 369.393C101.77 363.472 102.32 354.78 105.864 348.255C108.118 344.106 112.605 338.906 121.177 337.7C128.758 336.634 135.773 339.003 140.427 344.2C145.455 349.816 147.08 357.964 144.886 366.554C144.322 368.76 143.275 371.504 142.166 374.408C139.553 381.256 136.3 389.778 138.428 394.204C139.083 395.567 140.921 396.699 143.109 397.085C146.65 397.712 150.378 396.417 153.338 393.532C153.788 393.093 154.508 393.103 154.946 393.553C155.385 394.003 155.376 394.723 154.925 395.161C151.435 398.563 146.983 400.081 142.713 399.325C139.782 398.807 137.354 397.222 136.377 395.189C133.825 389.882 137.127 381.23 140.04 373.597C141.125 370.754 142.15 368.07 142.681 365.99C144.684 358.148 143.245 350.759 138.731 345.717C134.592 341.095 128.308 338.993 121.493 339.952C113.859 341.026 109.867 345.65 107.862 349.34C104.269 355.954 104.502 363.951 106.588 368.431C108.639 372.835 112.29 373.967 114.999 373.134C117.573 372.342 120.263 369.466 119.371 363.963C117.772 354.093 122.808 351.916 124.39 351.483C128.141 350.458 132.556 352.774 134.03 356.541C136.949 364.002 132.68 372.631 128.552 380.974C128.287 381.508 128.024 382.042 127.762 382.575C123.987 390.252 125.278 398.431 131.128 403.921C137.728 410.115 148.001 410.673 157.299 405.344C157.845 405.032 158.539 405.221 158.851 405.765C159.164 406.31 158.975 407.005 158.43 407.317C153.821 409.959 148.978 411.266 144.375 411.266V411.267Z" fill="#323232"/>
<path d="M247.199 404.35C247.171 409.344 245.257 413.03 242.874 415.686C239.404 419.553 234.391 421.675 229.198 421.675H150.321C145.128 421.675 140.114 419.554 136.645 415.686C134.262 413.029 132.348 409.344 132.319 404.35C132.317 404.009 132.322 403.677 132.336 403.355C132.731 393.578 139.75 392.907 144.093 395.797C144.221 395.879 144.346 395.967 144.468 396.058L144.829 395.492C147.696 390.757 151.342 390.04 154.717 390.927C159.981 392.307 164.594 397.585 164.594 397.585H214.925C214.925 397.585 219.176 392.719 224.176 391.109C227.722 389.966 231.644 390.461 234.689 395.492L235.045 396.06C235.284 395.884 235.531 395.719 235.787 395.566C240.163 392.944 246.849 393.851 247.185 403.46C247.196 403.748 247.202 404.046 247.199 404.35Z" fill="#8E8FB3"/>
<g opacity="0.5">
<path opacity="0.5" d="M146.885 396.261C147.186 394.799 149.963 392.188 152.439 392.49C154.504 392.74 153.467 394.005 151.887 394.445C149.478 395.116 146.584 397.724 146.885 396.26V396.261Z" fill="white"/>
</g>
<g opacity="0.5">
<path opacity="0.5" d="M232.599 396.261C232.298 394.799 229.521 392.188 227.045 392.49C224.98 392.74 226.016 394.005 227.597 394.445C230.006 395.116 232.9 397.724 232.599 396.26V396.261Z" fill="white"/>
</g>
<g opacity="0.15">
<path opacity="0.15" d="M247.199 404.35C247.171 409.344 245.257 413.03 242.874 415.686C239.404 419.553 234.391 421.675 229.198 421.675H150.321C145.128 421.675 140.114 419.554 136.645 415.686C134.262 413.029 132.348 409.344 132.319 404.35C132.317 404.009 132.322 403.677 132.336 403.355L147.849 400.938C147.849 400.938 154.254 410.177 154.982 406.137C155.184 405.016 152.647 399.036 154.717 390.928C155.047 389.637 155.494 388.292 156.085 386.904C158.617 380.975 189.424 386.904 189.424 386.904C189.424 386.904 220.231 380.975 222.762 386.904C223.382 388.358 223.843 389.765 224.176 391.111C226.164 399.125 223.667 405.026 223.866 406.137C224.594 410.179 230.998 400.939 230.998 400.939L247.185 403.461C247.196 403.748 247.202 404.047 247.199 404.351V404.35Z" fill="#323232"/>
</g>
<path d="M247.199 404.35C247.171 409.344 245.257 413.03 242.874 415.686C239.404 419.553 234.391 421.675 229.198 421.675H150.321C145.128 421.675 140.114 419.554 136.645 415.686C134.262 413.029 132.348 409.344 132.32 404.35C132.266 393.626 139.609 392.813 144.093 395.796C148.777 400.053 148.757 405.081 151.245 407.427C158.329 414.107 167.432 409.534 168.553 397.585C168.721 395.793 168.707 393.834 168.482 391.721C166.741 375.391 189.811 383.053 189.811 383.053C189.811 383.053 212.88 375.392 211.137 391.721C210.912 393.834 210.901 395.793 211.066 397.585C212.189 409.535 221.289 414.107 228.374 407.427C230.91 405.039 230.842 399.871 235.788 395.566C240.295 392.864 247.254 393.908 247.2 404.35H247.199Z" fill="white"/>
<path d="M247.199 404.35C247.182 407.342 246.488 409.865 245.422 411.978C244.709 413.391 243.829 414.622 242.874 415.686C239.404 419.553 234.391 421.675 229.198 421.675H150.321C145.128 421.675 140.114 419.554 136.645 415.686C135.923 414.881 135.246 413.982 134.649 412.981C133.275 410.678 132.34 407.831 132.32 404.35C132.266 393.626 139.609 392.813 144.093 395.796C148.777 400.053 148.757 405.081 151.245 407.427C151.368 407.541 151.49 407.655 151.612 407.763C151.615 407.763 151.618 407.763 151.618 407.765C157.738 413.146 165.206 410.339 167.76 401.771C168.141 400.499 168.411 399.103 168.553 397.585C168.721 395.793 168.707 393.834 168.482 391.721C166.741 375.391 189.811 383.053 189.811 383.053C189.811 383.053 212.88 375.392 211.137 391.721C210.912 393.834 210.901 395.793 211.066 397.585C211.208 399.103 211.481 400.505 211.859 401.777C214.268 409.836 221.019 412.797 226.906 408.634V408.631C227.404 408.284 227.893 407.88 228.374 407.428C230.91 405.039 230.842 399.872 235.788 395.566C240.295 392.865 247.254 393.908 247.2 404.351L247.199 404.35Z" fill="white"/>
<g opacity="0.15">
<path opacity="0.15" d="M245.422 411.978C244.709 413.391 243.829 414.622 242.874 415.686C239.404 419.553 234.391 421.675 229.198 421.675H150.321C145.128 421.675 140.114 419.554 136.645 415.686C135.923 414.881 135.246 413.982 134.649 412.981C138.71 416.308 144.995 420.054 150.665 417.549C155.779 415.29 151.535 407.711 151.535 407.711C151.535 407.711 151.561 407.728 151.612 407.763C151.615 407.763 151.618 407.763 151.618 407.766C157.738 413.146 165.206 410.339 167.76 401.771C177.293 401.706 189.447 403.429 189.447 403.429C189.447 403.429 202.23 401.617 211.859 401.777C214.268 409.836 221.019 412.797 226.906 408.634C225.968 410.724 224.213 415.777 228.228 417.549C234.479 420.313 241.481 415.476 245.422 411.978V411.978Z" fill="#323232"/>
</g>
<path d="M227.897 406.984C228.593 406.336 229.052 405.392 229.44 404.388C229.827 403.378 230.169 402.31 230.58 401.243C230.988 400.175 231.466 399.102 232.079 398.083C232.687 397.062 233.424 396.099 234.27 395.228C234.708 394.777 235.429 394.765 235.88 395.204C236.331 395.642 236.342 396.363 235.904 396.814C235.882 396.837 235.86 396.858 235.836 396.878L235.82 396.893C235.052 397.562 234.357 398.321 233.748 399.167C233.136 400.011 232.618 400.943 232.146 401.921C231.669 402.899 231.242 403.924 230.741 404.959C230.482 405.476 230.213 405.996 229.869 406.497L229.607 406.87C229.509 406.991 229.403 407.107 229.301 407.225L229.147 407.4C229.092 407.456 229.028 407.507 228.969 407.56L228.607 407.872C228.37 408.077 228.011 408.051 227.807 407.814C227.606 407.582 227.627 407.236 227.848 407.028L227.896 406.984H227.897Z" fill="#323232"/>
<path d="M150.891 407.872L150.529 407.56C150.47 407.507 150.407 407.456 150.351 407.4L150.197 407.224C150.095 407.107 149.989 406.99 149.891 406.87L149.629 406.497C149.284 405.996 149.016 405.476 148.757 404.959C148.255 403.924 147.829 402.898 147.352 401.921C146.88 400.942 146.362 400.011 145.75 399.167C145.141 398.321 144.445 397.562 143.678 396.893L143.663 396.88C143.19 396.466 143.14 395.747 143.553 395.272C143.966 394.799 144.686 394.749 145.16 395.162C145.184 395.183 145.208 395.205 145.229 395.227C146.074 396.098 146.811 397.061 147.42 398.083C148.033 399.102 148.511 400.175 148.918 401.243C149.329 402.31 149.672 403.378 150.059 404.388C150.447 405.391 150.905 406.335 151.601 406.984L151.648 407.028C151.878 407.241 151.89 407.601 151.676 407.829C151.468 408.053 151.12 408.07 150.89 407.872L150.891 407.872Z" fill="#323232"/>
<path d="M229.198 422.814H150.322C144.724 422.814 139.431 420.492 135.799 416.445C132.761 413.061 131.208 408.994 131.184 404.356C131.149 397.762 133.739 395.06 135.917 393.955C138.347 392.722 141.46 392.944 144.124 394.474C146.082 391.433 148.573 389.751 151.518 389.494C157.616 388.962 163.588 394.842 165.097 396.448H214.422C215.932 394.842 221.904 388.962 228.001 389.494C230.94 389.751 233.425 391.425 235.395 394.474C238.059 392.943 241.172 392.722 243.602 393.954C245.78 395.058 248.371 397.76 248.336 404.355C248.312 408.993 246.759 413.061 243.721 416.445C240.089 420.492 234.795 422.813 229.198 422.813V422.814ZM139.351 395.443C138.489 395.443 137.664 395.62 136.947 395.984C134.642 397.153 133.436 400.043 133.458 404.343C133.48 408.408 134.837 411.968 137.491 414.925C140.693 418.493 145.369 420.538 150.321 420.538H229.198C234.15 420.538 238.826 418.492 242.028 414.925C244.683 411.968 246.04 408.408 246.061 404.343C246.084 400.042 244.878 397.151 242.572 395.982C240.615 394.99 237.862 395.388 235.722 396.974L234.733 397.706L233.725 396.094C232.104 393.417 230.116 391.964 227.807 391.761C222.052 391.256 215.841 398.264 215.779 398.335L215.439 398.723H164.079L163.738 398.334C163.677 398.264 157.465 391.256 151.711 391.761C149.402 391.964 147.414 393.417 145.802 396.08L144.77 397.696L143.791 396.972C142.437 395.97 140.838 395.443 139.351 395.443L139.351 395.443Z" fill="#323232"/>
<path d="M160.792 381.435C142.648 381.088 137.953 369.069 137.467 359.045C137.282 355.277 137.691 351.791 138.206 349.311L159.398 345.987C159.634 346.706 159.938 347.4 160.302 348.066C164.176 355.198 174.507 359.265 174.507 359.265C174.507 359.265 185.755 381.916 160.792 381.435V381.435Z" fill="#8E8FB3"/>
<g opacity="0.15">
<path opacity="0.15" d="M160.792 381.434C145.552 381.144 139.799 372.616 138.062 363.953C141.434 368.956 147.353 372.701 157.362 372.892C172.224 373.179 174.252 365.265 173.459 358.812C174.118 359.11 174.508 359.264 174.508 359.264C174.508 359.264 185.756 381.915 160.792 381.434Z" fill="#323232"/>
</g>
<path d="M160.302 348.065C158.459 351.876 155.263 354.91 151.492 356.878C147.181 359.128 142.122 359.992 137.467 359.045C137.282 355.277 137.691 351.791 138.206 349.311L159.398 345.987C159.56 346.484 159.756 346.967 159.981 347.44C160.083 347.65 160.189 347.861 160.302 348.066V348.065Z" fill="white"/>
<g opacity="0.15">
<path opacity="0.15" d="M160.303 348.065C158.46 351.876 155.263 354.91 151.493 356.878C151.484 356.884 151.476 356.887 151.467 356.889C148.933 358.018 144.855 357.995 143.721 355.613C142.839 353.756 154.61 349.342 159.982 347.439C160.084 347.65 160.19 347.86 160.303 348.065H160.303Z" fill="#323232"/>
</g>
<path d="M161.557 382.581C161.297 382.581 161.036 382.578 160.77 382.573C152.166 382.408 145.685 379.671 141.507 374.439C134.203 365.292 136.547 351.71 137.091 349.079C137.218 348.464 137.82 348.068 138.435 348.196C139.05 348.323 139.446 348.925 139.319 349.54C138.811 351.995 136.616 364.666 143.285 373.019C147.021 377.697 152.918 380.146 160.813 380.297C167.7 380.433 172.277 378.773 174.429 375.374C177.66 370.274 174.705 362.538 173.759 360.358C170.895 360.105 160.782 358.35 158.285 346.214C158.158 345.599 158.555 344.998 159.17 344.871C159.786 344.744 160.387 345.14 160.514 345.756C163.027 357.968 173.971 358.125 174.5 358.125H174.505L175.211 358.124L175.528 358.757C175.746 359.195 180.802 369.563 176.351 376.591C173.834 380.566 168.858 382.579 161.557 382.579V382.581Z" fill="#323232"/>
<path d="M162.348 348.457C160.053 350.186 156.612 350.266 154.152 345.986C154.788 348.315 154.467 355.598 144.773 355.635C144.434 355.638 144.084 355.629 143.72 355.612L137.427 356.551C136.986 339.326 148.765 333.095 158.676 338.319C160.365 339.209 161.983 341.251 162.82 343.321C163.644 345.361 163.712 347.428 162.348 348.458V348.457Z" fill="white"/>
<g opacity="0.15">
<path opacity="0.15" d="M162.348 348.457C160.053 350.186 156.612 350.266 154.151 345.986C154.788 348.315 154.467 355.598 144.772 355.635C146.433 354.918 149.59 353.241 151.401 350.235C152.761 347.974 152.914 345.62 153.309 345.384C154.183 344.858 161.779 348.068 162.819 343.322C163.644 345.361 163.712 347.428 162.348 348.458V348.457Z" fill="#323232"/>
</g>
<path d="M136.29 356.581C136.232 354.14 136.408 351.673 136.911 349.245C137.429 346.825 138.292 344.433 139.653 342.289C141.013 340.157 142.874 338.265 145.162 337.043C147.436 335.807 150.07 335.258 152.631 335.425C153.913 335.503 155.177 335.749 156.391 336.134C156.691 336.238 156.996 336.332 157.292 336.446L158.172 336.809L159.026 337.223C159.163 337.286 159.319 337.373 159.476 337.464C159.634 337.551 159.772 337.653 159.921 337.747C161.057 338.545 161.925 339.538 162.655 340.612C163.374 341.693 163.955 342.866 164.298 344.175C164.464 344.832 164.569 345.526 164.542 346.269C164.502 347.005 164.327 347.83 163.819 348.544C163.702 348.725 163.552 348.883 163.405 349.042C163.329 349.119 163.244 349.186 163.164 349.257L163.04 349.36L162.93 349.437L162.494 349.734L162.03 349.995C161.396 350.319 160.7 350.551 159.971 350.651C158.51 350.857 156.945 350.421 155.812 349.581C154.651 348.758 153.809 347.674 153.166 346.553L155.25 345.687V345.689C155.381 346.118 155.46 346.52 155.503 346.924C155.547 347.327 155.569 347.729 155.553 348.129C155.54 348.93 155.402 349.726 155.177 350.505C154.945 351.281 154.593 352.034 154.134 352.72C153.671 353.403 153.102 354.018 152.457 354.524C151.811 355.027 151.1 355.423 150.37 355.729C149.634 356.026 148.88 356.22 148.125 356.338C146.615 356.557 145.119 356.495 143.695 356.181C143.383 356.113 143.187 355.805 143.255 355.493C143.309 355.251 143.508 355.078 143.74 355.046H143.747C145.123 354.858 146.449 354.656 147.687 354.302C148.917 353.943 150.059 353.436 150.938 352.663C151.825 351.907 152.458 350.912 152.804 349.781C152.981 349.217 153.089 348.622 153.132 348.021C153.171 347.429 153.154 346.797 153.055 346.287V346.286L153.044 346.238C152.902 345.627 153.283 345.016 153.894 344.875C154.395 344.759 154.896 344.994 155.138 345.419C155.669 346.352 156.338 347.169 157.118 347.718C157.305 347.872 157.518 347.959 157.717 348.081C157.929 348.16 158.134 348.265 158.353 348.308C158.782 348.419 159.227 348.465 159.673 348.395C160.118 348.332 160.562 348.188 160.984 347.974L161.295 347.8L161.592 347.596L161.665 347.545L161.71 347.504C161.74 347.477 161.774 347.454 161.802 347.425C161.852 347.363 161.913 347.311 161.953 347.24C162.144 346.986 162.244 346.604 162.269 346.166C162.286 345.722 162.221 345.232 162.095 344.741C161.839 343.754 161.361 342.768 160.767 341.88C160.17 340.995 159.438 340.183 158.629 339.618C158.527 339.555 158.427 339.479 158.324 339.425C158.224 339.367 158.123 339.308 157.99 339.247L157.244 338.885L156.48 338.57C156.223 338.471 155.961 338.391 155.702 338.3C154.656 337.97 153.577 337.76 152.494 337.694C150.327 337.555 148.143 338.014 146.245 339.042C144.337 340.061 142.759 341.653 141.574 343.507C140.39 345.371 139.609 347.506 139.137 349.715C138.679 351.931 138.511 354.224 138.565 356.521V356.525C138.58 357.154 138.083 357.674 137.455 357.689C136.827 357.704 136.306 357.207 136.291 356.579L136.29 356.581Z" fill="#323232"/>
<path d="M221.461 407.958C224.96 399.098 222.247 383.551 219.875 366.95H158.974C156.601 383.55 153.888 399.097 157.388 407.958" fill="#8E8FB3"/>
<g opacity="0.15">
<path opacity="0.15" d="M221.061 407.958C224.561 399.098 221.848 383.551 219.476 366.95H158.574C156.202 383.55 153.488 399.097 156.989 407.958" fill="#323232"/>
</g>
<path d="M220.932 407.75C221.781 404.505 222.012 401.156 222.012 397.774L221.963 395.233C221.919 394.384 221.894 393.536 221.835 392.686C221.768 391.836 221.716 390.987 221.637 390.137L221.394 387.585C221.038 384.182 220.576 380.777 220.113 377.367L219.419 372.246C219.189 370.537 218.957 368.826 218.75 367.112L219.876 368.088H158.975L160.101 367.112C159.893 368.827 159.659 370.537 159.431 372.246L158.734 377.367C158.269 380.777 157.803 384.181 157.446 387.584C157.081 390.986 156.832 394.391 156.811 397.775C156.799 401.156 157.027 404.519 157.918 407.75L157.93 407.792C158.013 408.094 157.835 408.407 157.533 408.491C157.256 408.567 156.97 408.425 156.86 408.168C156.684 407.76 156.505 407.351 156.335 406.936C156.254 406.728 156.153 406.523 156.087 406.311L155.892 405.672C155.767 405.245 155.625 404.818 155.518 404.385L155.243 403.082L155.111 402.427L155.021 401.77L154.845 400.454C154.759 399.575 154.704 398.697 154.646 397.816C154.633 396.94 154.603 396.06 154.604 395.184C154.625 394.31 154.635 393.433 154.674 392.561C154.723 391.69 154.758 390.817 154.819 389.948C154.886 389.08 154.946 388.211 155.026 387.345C155.338 383.881 155.784 380.444 156.269 377.021C156.512 375.309 156.768 373.601 157.038 371.897C157.306 370.192 157.564 368.488 157.85 366.789L157.99 365.812H220.862L221.003 366.789C221.288 368.489 221.547 370.193 221.815 371.898C222.085 373.602 222.345 375.309 222.586 377.021C223.073 380.444 223.524 383.88 223.837 387.344L224.049 389.946C224.11 390.815 224.145 391.689 224.194 392.56C224.234 393.432 224.241 394.309 224.266 395.183C224.277 396.06 224.249 396.94 224.233 397.817C224.182 398.697 224.135 399.577 224.041 400.456L223.87 401.775L223.776 402.432L223.642 403.087C223.555 403.523 223.459 403.958 223.364 404.391C223.252 404.823 223.115 405.252 222.983 405.678L222.784 406.316C222.718 406.528 222.615 406.733 222.531 406.94C222.357 407.354 222.174 407.763 221.992 408.168C221.863 408.455 221.527 408.583 221.24 408.454C220.983 408.338 220.854 408.055 220.923 407.791L220.934 407.75H220.932Z" fill="#323232"/>
<path d="M220.12 357.394C220.12 357.394 246.821 390.015 218.453 394.516L220.12 357.394Z" fill="#8E8FB3"/>
<path d="M217.254 395.857L219.117 354.372L221.001 356.673C221.624 357.435 236.222 375.464 231.816 387.038C230.066 391.635 225.631 394.528 218.631 395.639L217.254 395.857ZM221.115 360.602L219.654 393.141C224.988 392.038 228.361 389.717 229.689 386.23C232.743 378.214 224.879 365.848 221.115 360.602H221.115Z" fill="#323232"/>
<path d="M199.943 421.676H178.946C170.054 421.676 162.45 415.28 160.928 406.519L154.444 369.184L153.853 363.387C153.238 357.362 157.966 352.127 164.022 352.127H214.826C220.898 352.127 225.631 357.389 224.991 363.427L224.298 369.97L217.962 406.513C216.442 415.277 208.837 421.676 199.943 421.676Z" fill="#00BDFF"/>
<g opacity="0.4">
<path opacity="0.4" d="M224.992 363.427L224.966 363.657C224.335 358.677 220.08 354.736 214.825 354.736H210.102C208.374 354.736 206.973 356.137 206.973 357.865V363.658H197.674V357.865C197.674 356.137 196.273 354.736 194.546 354.736H175.523C173.741 354.736 172.295 356.181 172.295 357.964V363.658H167.25V357.964C167.25 356.182 165.805 354.736 164.022 354.736C158.767 354.736 154.512 358.678 153.881 363.657L153.853 363.387C153.239 357.361 157.965 352.128 164.022 352.128H214.825C220.896 352.128 225.632 357.39 224.992 363.426V363.427Z" fill="white"/>
</g>
<path d="M199.943 422.814H178.946C169.477 422.814 161.428 416.043 159.807 406.713L153.323 369.378C153.318 369.352 153.315 369.326 153.312 369.299L152.721 363.502C152.395 360.311 153.441 357.116 155.591 354.735C157.741 352.355 160.814 350.99 164.022 350.99H214.826C218.042 350.99 221.121 352.361 223.271 354.752C225.422 357.144 226.461 360.349 226.123 363.547L225.429 370.091C225.427 370.116 225.423 370.14 225.419 370.165L219.083 406.708C217.464 416.041 209.415 422.815 199.943 422.815L199.943 422.814ZM155.571 369.028L162.049 406.324C163.48 414.561 170.586 420.539 178.947 420.539H199.943C208.306 420.539 215.413 414.559 216.841 406.319L223.171 369.813L223.86 363.307C224.132 360.75 223.301 358.186 221.58 356.274C219.86 354.361 217.398 353.265 214.826 353.265H164.022C161.456 353.265 158.999 354.356 157.28 356.26C155.561 358.164 154.724 360.719 154.984 363.271L155.571 369.028Z" fill="#323232"/>
<path d="M224.298 369.971L223.781 372.954L222.734 378.992L220.129 394.013L219.072 400.107L216.961 412.281C216.02 417.71 211.308 421.675 205.797 421.675H173.098C167.587 421.675 162.875 417.71 161.933 412.281L161.339 408.849L160.534 404.205L160.113 401.781L158.78 394.089L158.379 391.786L154.596 369.971C153.616 364.894 157.506 360.182 162.676 360.182H216.22C219.669 360.182 222.545 362.278 223.79 365.179C224.046 365.776 224.234 366.408 224.339 367.065C224.495 367.997 224.493 368.975 224.299 369.971H224.298Z" fill="#00BDFF"/>
<g opacity="0.15">
<path opacity="0.15" d="M222.734 378.992L220.129 394.013L219.072 400.107L216.961 412.281C216.02 417.71 211.308 421.675 205.797 421.675H173.098C167.587 421.675 162.875 417.71 161.933 412.281L158.78 394.089C162.812 402.612 171.361 412.119 189.425 412.128H189.448C203.132 412.122 211.357 406.665 216.291 400.311C210.359 400.177 206.727 396.046 208.346 384.36C209.278 377.628 219.653 378.57 222.736 378.991L222.734 378.992Z" fill="#323232"/>
</g>
<g opacity="0.4">
<path opacity="0.4" d="M224.299 369.971L223.781 372.954L161.339 408.849L160.534 404.205L224.338 367.065C224.495 367.997 224.492 368.976 224.299 369.971Z" fill="white"/>
</g>
<g opacity="0.4">
<path opacity="0.4" d="M223.79 365.179L160.113 401.782L158.779 394.09L158.378 391.786L212.67 360.183H216.22C219.669 360.183 222.545 362.279 223.79 365.18L223.79 365.179Z" fill="white"/>
</g>
<path d="M205.796 422.814H173.097C167.017 422.814 161.85 418.466 160.811 412.475L153.474 370.165C152.946 367.432 153.665 364.612 155.45 362.448C157.236 360.285 159.868 359.044 162.674 359.044H216.218C219.023 359.044 221.656 360.285 223.441 362.448C225.227 364.611 225.946 367.432 225.413 370.186L218.081 412.475C217.042 418.466 211.875 422.814 205.794 422.814H205.796ZM162.674 361.319C160.55 361.319 158.557 362.258 157.205 363.897C155.853 365.534 155.309 367.669 155.712 369.755L163.052 412.086C163.901 416.984 168.126 420.539 173.097 420.539H205.795C210.766 420.539 214.99 416.984 215.839 412.086L223.176 369.776C223.583 367.67 223.038 365.534 221.687 363.897C220.335 362.259 218.341 361.319 216.218 361.319H162.674Z" fill="#323232"/>
<path d="M225.27 389.545C223.877 392.218 221.562 394.152 218.454 394.516C211.276 395.353 207.207 391.286 209.814 381.116C210.534 378.309 212.53 376.529 214.791 375.403C218.798 373.398 223.627 373.443 223.627 373.443C227.347 378.138 227.677 384.939 225.27 389.545Z" fill="white"/>
<g opacity="0.15">
<path opacity="0.15" d="M225.27 389.545C223.877 392.219 221.562 394.152 218.454 394.517C211.276 395.353 207.207 391.286 209.814 381.117C210.534 378.31 212.53 376.53 214.791 375.404C213.315 378.901 211.87 384.259 214.199 388.676C216.278 392.618 221.795 392.367 225.27 389.546L225.27 389.545Z" fill="#323232"/>
</g>
<path d="M223.616 374.581C220.352 374.698 216.842 375.414 214.187 377.125C212.867 377.987 211.824 379.146 211.27 380.536C211.202 380.71 211.138 380.886 211.083 381.066C211.029 381.247 210.98 381.419 210.931 381.635C210.831 382.047 210.732 382.459 210.65 382.872C210.482 383.697 210.344 384.525 210.278 385.347C210.137 386.984 210.221 388.632 210.758 390.025C211.018 390.724 211.418 391.326 211.907 391.832C212.408 392.328 213.019 392.711 213.71 392.981C215.097 393.511 216.756 393.607 218.385 393.463C218.746 393.422 219.184 393.34 219.598 393.258C220.017 393.174 220.441 393.089 220.861 392.996C221.282 392.902 221.701 392.803 222.111 392.696L222.713 392.531C222.906 392.476 223.1 392.41 223.221 392.363L223.293 392.335C223.76 392.153 224.287 392.384 224.47 392.851C224.641 393.291 224.444 393.785 224.032 393.994C223.754 394.134 223.533 394.218 223.308 394.303C223.084 394.387 222.866 394.461 222.648 394.53C222.212 394.67 221.78 394.798 221.346 394.921C220.912 395.042 220.477 395.161 220.037 395.266C219.59 395.37 219.165 395.471 218.653 395.551C217.711 395.685 216.776 395.769 215.805 395.715C214.839 395.666 213.852 395.496 212.892 395.146C211.933 394.801 211.014 394.233 210.258 393.493C209.511 392.745 208.927 391.839 208.564 390.889C207.822 388.978 207.753 387.007 207.893 385.149C207.963 384.213 208.11 383.298 208.287 382.396C208.374 381.944 208.477 381.497 208.588 381.054C208.637 380.841 208.707 380.588 208.78 380.348C208.856 380.107 208.942 379.868 209.036 379.633C209.418 378.691 209.966 377.814 210.628 377.057C211.289 376.298 212.059 375.657 212.874 375.124C214.51 374.056 216.308 373.403 218.113 372.971C219.018 372.756 219.928 372.596 220.843 372.484C221.301 372.427 221.759 372.384 222.22 372.354C222.689 372.325 223.127 372.305 223.637 372.307C224.265 372.311 224.771 372.823 224.767 373.451C224.764 374.062 224.278 374.558 223.673 374.58L223.616 374.582V374.581Z" fill="#323232"/>
<path d="M216.079 381.448C215.43 381.554 214.736 381.736 214.097 381.963C213.455 382.193 212.836 382.472 212.284 382.819C211.73 383.161 211.249 383.573 210.882 384.032C210.703 384.265 210.553 384.508 210.433 384.757C210.317 385.01 210.237 385.273 210.178 385.539L210.177 385.546C210.04 386.16 209.431 386.548 208.816 386.411C208.201 386.274 207.813 385.666 207.95 385.05C207.961 385.004 207.976 384.953 207.991 384.91C208.146 384.484 208.34 384.073 208.583 383.696C208.83 383.321 209.114 382.981 209.423 382.678C210.049 382.081 210.761 381.638 211.489 381.31C212.218 380.977 212.967 380.756 213.717 380.593C214.475 380.436 215.208 380.339 216.002 380.314C216.316 380.304 216.578 380.551 216.588 380.864C216.597 381.153 216.389 381.398 216.111 381.443L216.08 381.448L216.079 381.448Z" fill="#323232"/>
<path d="M216.846 391.158C216.085 391.411 215.359 391.558 214.582 391.641C213.812 391.717 213.016 391.709 212.21 391.568C211.408 391.418 210.588 391.128 209.863 390.628C209.131 390.14 208.532 389.448 208.092 388.698L208.088 388.691C207.77 388.147 207.953 387.449 208.496 387.131C209.039 386.813 209.738 386.996 210.056 387.539C210.08 387.58 210.104 387.628 210.122 387.67C210.344 388.195 210.647 388.669 211.07 389.045C211.486 389.428 212.018 389.712 212.61 389.908C213.206 390.097 213.858 390.198 214.525 390.218C215.185 390.239 215.894 390.186 216.522 390.066L216.559 390.059C216.867 390 217.165 390.202 217.224 390.51C217.278 390.794 217.112 391.068 216.845 391.156L216.846 391.158Z" fill="#323232"/>
<path d="M159.607 370.125L160.643 375.977C160.978 377.863 162.617 379.238 164.532 379.238C166.98 379.238 168.839 377.033 168.425 374.62L167.421 368.768C167.096 366.872 165.452 365.486 163.529 365.486H163.496C161.039 365.486 159.178 367.705 159.607 370.124V370.125Z" fill="#323232"/>
<path d="M164.533 380.375C162.062 380.375 159.955 378.609 159.524 376.175L158.488 370.323C158.224 368.838 158.63 367.323 159.599 366.168C160.568 365.012 161.989 364.349 163.497 364.349H163.53C166.015 364.349 168.124 366.127 168.543 368.576L169.547 374.428C169.801 375.91 169.391 377.418 168.422 378.567C167.454 379.716 166.036 380.375 164.533 380.375H164.533ZM160.728 369.927L161.764 375.779C162.002 377.124 163.167 378.1 164.533 378.1C165.364 378.1 166.147 377.736 166.683 377.1C167.219 376.465 167.445 375.631 167.305 374.813L166.301 368.961C166.069 367.607 164.903 366.625 163.53 366.625H163.497C162.663 366.625 161.878 366.991 161.342 367.63C160.807 368.268 160.582 369.106 160.728 369.927H160.728Z" fill="#323232"/>
<path d="M163.411 371.192C164.621 371.192 165.602 370.211 165.602 369C165.602 367.79 164.621 366.809 163.411 366.809C162.201 366.809 161.22 367.79 161.22 369C161.22 370.211 162.201 371.192 163.411 371.192Z" fill="#323232"/>
<path d="M163.989 369.13C164.065 368.806 163.864 368.482 163.54 368.405C163.216 368.329 162.892 368.529 162.815 368.853C162.739 369.177 162.939 369.502 163.263 369.579C163.588 369.655 163.912 369.454 163.989 369.13Z" fill="#323232"/>
<path d="M163.411 371.76C161.89 371.76 160.651 370.522 160.651 369C160.651 367.479 161.89 366.24 163.411 366.24C164.933 366.24 166.172 367.479 166.172 369C166.172 370.522 164.933 371.76 163.411 371.76ZM163.411 367.377C162.517 367.377 161.789 368.105 161.789 369C161.789 369.894 162.517 370.622 163.411 370.622C164.306 370.622 165.034 369.894 165.034 369C165.034 368.105 164.306 367.377 163.411 367.377Z" fill="#61619B"/>
<path d="M166.723 375.749C166.916 374.555 166.105 373.429 164.911 373.235C163.716 373.041 162.591 373.852 162.397 375.047C162.203 376.241 163.014 377.367 164.209 377.561C165.403 377.755 166.529 376.944 166.723 375.749Z" fill="#323232"/>
<path d="M164.549 378.151C163.027 378.151 161.789 376.912 161.789 375.391C161.789 373.869 163.027 372.631 164.549 372.631C166.07 372.631 167.309 373.869 167.309 375.391C167.309 376.912 166.07 378.151 164.549 378.151ZM164.549 373.768C163.654 373.768 162.926 374.496 162.926 375.391C162.926 376.286 163.654 377.013 164.549 377.013C165.443 377.013 166.171 376.286 166.171 375.391C166.171 374.496 165.443 373.768 164.549 373.768Z" fill="#61619B"/>
<path d="M174.911 316.533C175.334 310.777 172.237 305.859 167.994 305.547C163.751 305.236 159.968 309.649 159.546 315.405C159.123 321.16 162.22 326.079 166.463 326.391C170.706 326.702 174.488 322.289 174.911 316.533Z" fill="#323232"/>
<path d="M172.585 314.396C172.753 312.111 171.733 310.173 170.306 310.069C168.879 309.964 167.586 311.731 167.418 314.017C167.25 316.302 168.271 318.239 169.698 318.344C171.125 318.449 172.418 316.681 172.585 314.396Z" fill="white"/>
<g opacity="0.35">
<path opacity="0.35" d="M164.776 322.533C165.445 322.283 165.57 320.968 165.056 319.598C164.541 318.227 163.583 317.319 162.915 317.57C162.246 317.82 162.121 319.135 162.635 320.505C163.15 321.876 164.108 322.784 164.776 322.533Z" fill="white"/>
</g>
<path d="M212.224 326.401C216.467 326.089 219.564 321.171 219.141 315.415C218.718 309.659 214.936 305.246 210.693 305.558C206.45 305.869 203.353 310.788 203.776 316.544C204.198 322.299 207.981 326.713 212.224 326.401Z" fill="#323232"/>
<path d="M208.989 318.354C210.416 318.25 211.437 316.312 211.269 314.027C211.101 311.742 209.808 309.974 208.382 310.079C206.955 310.184 205.934 312.121 206.102 314.406C206.27 316.692 207.562 318.459 208.989 318.354Z" fill="white"/>
<g opacity="0.35">
<path opacity="0.35" d="M216.048 320.485C216.562 319.114 216.437 317.8 215.769 317.549C215.1 317.299 214.142 318.206 213.628 319.577C213.114 320.948 213.239 322.262 213.907 322.513C214.575 322.763 215.534 321.855 216.048 320.485Z" fill="white"/>
</g>
<path d="M141.128 412.931C142.905 412.635 144.022 410.455 143.624 408.061C143.225 405.667 141.462 403.966 139.685 404.262C137.909 404.558 136.791 406.738 137.19 409.132C137.588 411.526 139.351 413.226 141.128 412.931Z" fill="#FFBCA3"/>
<path d="M143.582 402.316C143.602 401.505 143.13 400.835 142.528 400.82C141.926 400.806 141.422 401.451 141.402 402.262C141.382 403.073 141.854 403.743 142.456 403.758C143.058 403.772 143.562 403.127 143.582 402.316Z" fill="#FFBCA3"/>
<path d="M139.136 403.456C139.976 403.382 140.575 402.403 140.475 401.271C140.374 400.139 139.612 399.281 138.772 399.356C137.932 399.431 137.332 400.409 137.433 401.541C137.533 402.673 138.296 403.531 139.136 403.456Z" fill="#FFBCA3"/>
<path d="M136.752 405.441C137.338 405.274 137.63 404.498 137.405 403.708C137.179 402.919 136.521 402.415 135.935 402.582C135.349 402.75 135.057 403.525 135.283 404.315C135.509 405.104 136.167 405.608 136.752 405.441Z" fill="#FFBCA3"/>
<path d="M242.234 409.107C242.632 406.713 241.515 404.533 239.738 404.237C237.962 403.942 236.198 405.643 235.8 408.036C235.402 410.43 236.519 412.61 238.296 412.906C240.072 413.202 241.836 411.501 242.234 409.107Z" fill="#FFBCA3"/>
<path d="M236.966 403.792C237.568 403.777 238.039 403.108 238.02 402.297C238 401.486 237.496 400.84 236.894 400.855C236.292 400.87 235.82 401.539 235.84 402.35C235.859 403.161 236.364 403.807 236.966 403.792Z" fill="#FFBCA3"/>
<path d="M241.981 401.51C242.081 400.377 241.482 399.399 240.642 399.325C239.802 399.25 239.039 400.107 238.939 401.24C238.838 402.372 239.438 403.35 240.278 403.425C241.118 403.499 241.88 402.642 241.981 401.51Z" fill="#FFBCA3"/>
<path d="M244.162 404.314C244.387 403.524 244.095 402.748 243.509 402.581C242.923 402.414 242.265 402.918 242.04 403.707C241.814 404.497 242.106 405.272 242.692 405.44C243.278 405.607 243.936 405.103 244.162 404.314Z" fill="#FFBCA3"/>
<path d="M252.338 292.603C250.769 289.862 250.051 286.605 250.495 283.232C251.575 275.046 259.087 269.285 267.273 270.365C275.46 271.445 281.22 278.956 280.14 287.143C279.06 295.329 271.549 301.09 263.362 300.01C261.085 299.709 258.997 298.91 257.19 297.738L250.23 299.09L252.338 292.603Z" fill="white"/>
<g opacity="0.5">
<path opacity="0.5" d="M266.896 273.216C259.249 272.207 252.193 277.169 250.416 284.499C250.429 283.972 250.467 283.442 250.537 282.907C251.617 274.721 259.129 268.96 267.315 270.04C275.502 271.12 281.262 278.632 280.182 286.818C280.111 287.355 280.012 287.881 279.887 288.395C280.076 280.851 274.546 274.226 266.896 273.216Z" fill="white"/>
</g>
<path d="M265.328 301.296C264.629 301.296 263.923 301.251 263.211 301.157C260.973 300.862 258.873 300.123 256.962 298.961L248.523 300.6L251.082 292.722C249.506 289.754 248.906 286.433 249.348 283.081C250.509 274.275 258.619 268.056 267.424 269.218C276.229 270.379 282.448 278.488 281.287 287.293C280.219 295.387 273.281 301.296 265.328 301.296V301.296ZM257.427 296.515L257.819 296.769C259.545 297.889 261.461 298.593 263.513 298.864C271.054 299.859 277.999 294.533 278.993 286.992C279.988 279.451 274.662 272.507 267.121 271.513C259.58 270.518 252.636 275.843 251.641 283.384C251.243 286.402 251.831 289.391 253.341 292.03L253.595 292.474L251.935 297.582L257.427 296.515V296.515Z" fill="#323232"/>
<g opacity="0.15">
<path opacity="0.15" d="M252.258 292.457C256.251 296.038 261.846 297.716 267.487 296.484C273.742 295.117 278.454 290.52 280.266 284.828C280.284 285.59 280.243 286.363 280.141 287.142C279.061 295.328 271.549 301.089 263.363 300.009C261.086 299.709 258.998 298.91 257.191 297.738L250.23 299.09L252.338 292.602C252.31 292.554 252.285 292.505 252.258 292.456L252.258 292.457Z" fill="#323232"/>
</g>
<path d="M260.53 280.989C261.824 279.695 263.922 279.926 265.215 281.221L265.417 281.422L265.618 281.221C266.912 279.927 269.01 279.695 270.303 280.989C271.597 282.282 271.597 284.38 270.303 285.674L270.102 285.875L266.034 289.943C265.693 290.284 265.14 290.284 264.799 289.943L260.731 285.875L260.529 285.674C259.236 284.38 259.236 282.282 260.529 280.989H260.53Z" fill="#0BA011"/>
</svg>
