<svg width="375" height="450" viewBox="0 0 375 450" fill="none" xmlns="http://www.w3.org/2000/svg">
<path fill-rule="evenodd" clip-rule="evenodd" d="M187.5 450C275.481 450 349.957 392.179 375 312.463V194.537C349.957 114.821 275.481 57 187.5 57C99.5192 57 25.0434 114.821 0 194.537V312.463C25.0434 392.179 99.5192 450 187.5 450Z" fill="#C3E4F2"/>
<g opacity="0.2">
<path opacity="0.6" d="M190.02 428.903C227.161 428.903 257.27 421.105 257.27 411.486C257.27 401.867 227.161 394.07 190.02 394.07C152.879 394.07 122.77 401.867 122.77 411.486C122.77 421.105 152.879 428.903 190.02 428.903Z" fill="#390565"/>
</g>
<path d="M236.685 335.047V335.04H237.914L236.685 335.047Z" fill="#323232"/>
<path d="M237.299 335.047C237.289 344.837 214.773 379.037 195.587 384.239C193.988 384.674 192.408 384.907 190.872 384.907C188.496 384.907 186.159 384.529 183.872 383.838C170.672 379.846 159.088 365.442 151.347 353.308C151.341 353.298 151.337 353.295 151.334 353.292C145.272 343.788 141.566 335.682 141.293 335.077C150.771 350.943 172.445 361.654 190.789 361.654C209.132 361.654 228.746 350.07 237.299 335.048L237.299 335.047Z" fill="#FE5359"/>
<path d="M190.871 385.521C188.514 385.521 186.1 385.153 183.694 384.426C170.169 380.336 158.378 365.463 150.859 353.685L150.816 353.621C144.643 343.943 140.89 335.675 140.733 335.328L141.82 334.76C150.77 349.741 171.822 361.038 190.788 361.038C208.754 361.038 228.09 349.979 236.765 334.742L237.915 332.721L237.913 335.047C237.908 340.143 232.107 351.368 224.12 361.738C214.592 374.108 204.25 382.525 195.746 384.831C194.063 385.289 192.422 385.521 190.87 385.521L190.871 385.521ZM151.832 352.93L151.856 352.964C159.271 364.587 170.866 379.263 184.049 383.25C186.34 383.942 188.635 384.293 190.871 384.293C192.314 384.293 193.846 384.075 195.426 383.646C213.036 378.871 232.826 349.973 236.187 338.007C231.888 344.417 225.592 350.204 218.175 354.514C209.572 359.514 199.846 362.267 190.788 362.267C181.731 362.267 171.55 359.636 162.431 354.858C155.564 351.26 149.615 346.612 145.132 341.405C146.806 344.566 149.075 348.603 151.832 352.929L151.832 352.93Z" fill="#323232"/>
<path d="M193.188 377.436C192.864 377.403 192.533 377.394 192.215 377.33C191.755 377.238 191.323 377.275 190.894 377.465C190.267 377.744 189.614 377.831 188.946 377.633C187.849 377.307 187.397 376.259 187.925 375.243C188.058 374.988 188.243 374.752 188.441 374.541C188.832 374.124 189.157 373.669 189.404 373.152C189.734 372.463 190.289 372.068 191.05 372.003C191.816 371.937 192.44 372.235 192.87 372.873C193.173 373.322 193.534 373.687 194.007 373.955C194.411 374.184 194.724 374.517 194.928 374.942C195.284 375.684 195.081 376.476 194.414 376.959C194.076 377.204 193.664 377.351 193.193 377.396L193.189 377.436L193.188 377.436Z" fill="white"/>
<path d="M190.306 368.631C190.366 369.067 190.382 369.503 190.219 369.918C190.133 370.135 190.019 370.354 189.87 370.531C189.37 371.119 188.566 371.112 188.027 370.514C187.542 369.976 187.352 369.337 187.516 368.622C187.666 367.971 188.001 367.422 188.506 366.985C188.635 366.873 188.788 366.78 188.944 366.711C189.261 366.572 189.544 366.655 189.76 366.927C189.981 367.207 190.082 367.539 190.162 367.878C190.221 368.127 190.259 368.38 190.306 368.632V368.631Z" fill="white"/>
<path d="M191.028 368.565C191.052 368.132 191.061 367.699 191.107 367.269C191.126 367.084 191.203 366.896 191.289 366.729C191.427 366.462 191.667 366.356 191.965 366.397C192.327 366.446 192.623 366.633 192.896 366.86C193.373 367.256 193.76 367.725 193.909 368.338C194.063 368.972 193.961 369.578 193.556 370.104C193.049 370.764 192.202 370.769 191.628 370.132C191.342 369.814 191.181 369.435 191.113 369.016C191.088 368.868 191.081 368.716 191.066 368.566L191.028 368.565Z" fill="white"/>
<path d="M196.627 371.1C196.705 371.897 196.464 372.528 195.847 372.985C195.166 373.488 194.346 373.204 194.094 372.394C193.994 372.073 193.977 371.744 194.055 371.419C194.187 370.869 194.404 370.352 194.754 369.901C194.85 369.777 194.97 369.664 195.099 369.574C195.36 369.394 195.634 369.413 195.883 369.61C196.235 369.889 196.413 370.277 196.536 370.694C196.579 370.838 196.603 370.988 196.627 371.099V371.1Z" fill="white"/>
<path d="M188.114 372.634C188.083 372.849 188.076 373.071 188.015 373.277C187.838 373.88 187.249 374.176 186.65 373.982C185.918 373.746 185.393 373.041 185.347 372.237C185.324 371.807 185.372 371.388 185.548 370.991C185.6 370.872 185.67 370.756 185.749 370.652C185.966 370.366 186.259 370.294 186.587 370.441C186.677 370.482 186.768 370.531 186.844 370.594C187.39 371.053 187.793 371.613 188.018 372.293C188.054 372.401 188.066 372.516 188.089 372.628L188.114 372.634V372.634Z" fill="white"/>
<path d="M237.925 333.908L234.631 376.094C233.452 375.683 232.153 375.456 230.741 375.456C224.129 375.456 218.067 380.011 215.332 386.04C214.674 387.494 214.207 389.031 213.977 390.614L213.974 390.627L212.542 395.455C209.462 390.749 204.607 390.453 204.607 390.453C204.607 390.453 200.596 389.808 195.587 389.564V384.239C214.773 379.036 237.289 344.837 237.299 335.047C237.513 334.668 237.724 334.29 237.924 333.908H237.925Z" fill="#FFDCBF"/>
<path d="M237.31 333.908V333.902H238.539L237.31 333.908Z" fill="#323232"/>
<path d="M183.871 383.837V389.695C178.356 390.077 173.735 390.972 173.735 390.972C173.735 390.972 169.295 391.393 166.215 395.642L164.468 389.751L164.465 389.737C164.267 388.773 163.987 387.832 163.629 386.917L163.622 386.894C161.092 380.447 154.77 375.455 147.852 375.455C147.191 375.455 146.556 375.504 145.944 375.599L139.945 332.61C140.353 333.433 140.8 334.243 141.278 335.039C141.278 335.039 141.284 335.052 141.294 335.076C141.567 335.681 145.273 343.786 151.335 353.291C151.338 353.294 151.341 353.297 151.348 353.307C159.088 365.44 170.672 379.845 183.872 383.837L183.871 383.837Z" fill="#FFDCBF"/>
<path d="M237.273 397.498C238.257 397.837 239.122 398.246 239.833 398.709C241.199 399.594 242.002 400.674 242.002 401.842C242.002 403.689 239.995 405.318 236.924 406.298C235.009 406.914 232.676 407.273 230.162 407.273C228.273 407.273 226.486 407.069 224.906 406.707C223.172 406.315 221.678 405.729 220.556 405.015C216.238 402.761 213.276 397.772 213.875 391.444C213.902 391.171 213.934 390.898 213.974 390.628L213.977 390.615L215.333 386.04C218.068 380.012 224.129 375.457 230.741 375.457C232.152 375.457 233.453 375.684 234.631 376.095C240.232 378.067 243.151 384.293 242.444 390.951C241.851 393.313 240.432 396.078 237.273 397.499L237.273 397.498Z" fill="#FFDCBF"/>
<path d="M215.332 386.039L213.977 390.614C214.207 389.031 214.674 387.494 215.332 386.039Z" fill="#FFDCBF"/>
<path d="M231.021 398.402C233.631 398.597 235.675 398.221 237.274 397.497Z" fill="#FFDCBF"/>
<path d="M158.037 405.014C155.889 406.383 152.387 407.272 148.431 407.272C147.632 407.272 146.852 407.235 146.098 407.163C144.776 407.045 143.535 406.824 142.413 406.518C138.928 405.574 136.591 403.833 136.591 401.842C136.591 400.674 137.394 399.595 138.76 398.709C139.471 398.245 140.336 397.837 141.32 397.498C139.52 396.688 138.286 395.441 137.447 394.082C136.811 393.058 136.404 391.966 136.15 390.948C135.364 383.547 139.063 376.673 145.944 375.6C146.556 375.504 147.191 375.455 147.852 375.455C154.77 375.455 161.091 380.447 163.622 386.894L163.628 386.918L164.464 389.738L164.467 389.751C164.579 390.307 164.665 390.874 164.718 391.443C165.317 397.772 162.355 402.761 158.037 405.014V405.014Z" fill="#FFDCBF"/>
<path d="M164.464 389.738L163.628 386.917C163.987 387.832 164.267 388.774 164.464 389.738Z" fill="#FFDCBF"/>
<path d="M141.322 397.497C142.921 398.221 144.965 398.596 147.574 398.402Z" fill="#FFDCBF"/>
<path d="M195.587 384.239V389.564C193.543 389.462 191.335 389.43 189.163 389.535C187.386 389.508 185.586 389.577 183.871 389.696V383.838C186.158 384.529 188.494 384.907 190.871 384.907C192.408 384.907 193.987 384.674 195.587 384.239V384.239Z" fill="#FFDCBF"/>
<path d="M189.664 389.143C189.723 389.14 189.786 389.137 189.845 389.137C192.017 389.032 194.225 389.065 196.269 389.167C201.278 389.41 205.289 390.055 205.289 390.055C205.289 390.055 210.144 390.352 213.224 395.058C213.8 395.939 214.317 396.976 214.725 398.194C217.319 405.914 217.555 405.99 218.5 408.587C219.211 410.542 222.508 420.269 190.905 420.806L188.802 420.839C157.2 421.375 160.497 411.535 161.208 409.554C162.152 406.925 162.389 406.843 164.983 399.037C165.486 397.516 166.154 396.269 166.898 395.246C169.979 390.997 174.418 390.576 174.418 390.576C174.418 390.576 179.038 389.681 184.554 389.299C186.269 389.18 188.068 389.111 189.846 389.138C189.912 389.135 189.977 389.138 190.044 389.138" fill="#0BA011"/>
<g opacity="0.6">
<path opacity="0.6" d="M241.764 392.614C241.764 392.614 244.806 376.491 230.74 375.455C230.74 375.455 242.337 383.987 241.764 392.614Z" fill="white"/>
</g>
<g opacity="0.6">
<path opacity="0.6" d="M136.92 392.02C136.92 392.02 133.878 375.897 147.944 374.861C147.944 374.861 136.347 383.393 136.92 392.02Z" fill="white"/>
</g>
<g opacity="0.6">
<path opacity="0.6" d="M233.883 340.792C233.883 340.792 230.263 350.993 208.872 366.461C208.872 366.461 232.238 355.93 233.883 340.792Z" fill="white"/>
</g>
<g opacity="0.6">
<path opacity="0.6" d="M213.427 396.542C213.427 396.542 207.423 390.874 190.622 391.364C168.582 392.006 164.848 398.688 164.848 398.688C164.848 398.688 165.548 388.604 190.951 389.081C216.352 389.557 213.798 397.069 213.798 397.069" fill="white"/>
</g>
<g opacity="0.6">
<path opacity="0.6" d="M171.644 396.699C171.644 396.699 175.922 403.269 188.756 403.269C201.591 403.269 207.423 396.328 207.423 396.328C207.423 396.328 189.195 405.267 171.644 396.699Z" fill="white"/>
</g>
<g opacity="0.6">
<path opacity="0.6" d="M144.669 340.637C144.669 340.637 153.274 362.137 172.96 367.344C172.96 367.344 154.224 355.23 144.669 340.637Z" fill="white"/>
</g>
<g opacity="0.3">
<path opacity="0.3" d="M237.273 397.608C238.257 397.947 239.122 398.356 239.833 398.819C241.199 399.704 242.002 400.784 242.002 401.952C242.002 403.799 239.995 405.428 236.924 406.408C236.924 406.408 227.794 408.86 220.555 405.125C216.227 402.894 213.276 397.882 213.874 391.554C213.898 391.317 214.158 390.211 214.056 390.468L214.513 388.921C214.513 388.921 221.259 394.93 231.02 392.956C237.483 391.649 240.35 387.167 241.61 383.524C242.43 385.805 242.726 388.398 242.443 391.061C241.85 393.423 240.432 396.188 237.273 397.61V397.608Z" fill="#323232"/>
<path opacity="0.3" d="M231.019 398.515C233.628 398.709 235.672 398.333 237.271 397.609Z" fill="#323232"/>
</g>
<g opacity="0.3">
<path opacity="0.3" d="M158.052 404.551C155.903 405.92 152.401 406.809 148.446 406.809C141.907 406.809 136.605 404.377 136.605 401.379C136.605 400.211 137.407 399.131 138.774 398.246C139.484 397.781 140.35 397.374 141.334 397.035C138.175 395.613 136.756 392.848 136.164 390.486C135.683 385.977 136.871 381.663 139.428 378.737C138.141 384.48 143.088 389.653 150.262 390.581C156.328 391.365 163.373 387.116 163.373 387.116L160.517 375.92C160.517 375.92 160.698 376.088 161.04 376.385L163.637 386.432L164.483 389.288L164.812 390.391V390.401C165.408 396.726 162.367 402.297 158.052 404.552L158.052 404.551Z" fill="#323232"/>
<path opacity="0.3" d="M141.334 397.036C142.934 397.76 144.977 398.135 147.587 397.941Z" fill="#323232"/>
</g>
<g opacity="0.3">
<path opacity="0.3" d="M237.92 333.761L236.508 351.844C230.008 362.978 212.32 377.609 212.32 377.609C212.32 377.609 210.132 389.629 207.751 392.018C206.49 393.283 204.556 390.578 204.556 390.578C204.556 390.578 200.545 389.934 195.536 389.69V389.232C195.776 389.101 196.016 388.969 196.257 388.837C196.033 388.88 195.806 388.92 195.582 388.959C194.532 389.137 193.489 389.259 192.459 389.325H192.452C191.491 389.318 190.517 389.331 189.546 389.371C187.611 389.312 185.719 389.064 183.866 388.663C183.741 388.637 183.619 388.607 183.494 388.581C183.642 388.814 183.751 389.035 183.82 389.242V389.822C178.305 390.204 173.684 391.099 173.684 391.099C173.684 391.099 172.653 388.366 169.573 392.614C167.866 390.711 165.993 377.829 165.993 377.829C156.683 368.755 145.016 355.096 142.45 350.459L139.938 332.464C140.347 333.287 140.794 334.097 141.271 334.893V334.896C141.271 334.896 141.278 334.909 141.288 334.933C141.561 335.538 145.263 343.64 151.328 353.145C151.332 353.148 151.335 353.155 151.342 353.161C159.075 365.291 170.662 379.702 183.866 383.691V383.694C186.153 384.385 188.493 384.763 190.866 384.763C192.403 384.763 193.982 384.53 195.582 384.095C214.768 378.889 237.287 344.683 237.294 334.899V334.896C237.508 334.518 237.718 334.143 237.919 333.761H237.92Z" fill="#323232"/>
</g>
<g opacity="0.3">
<path opacity="0.3" d="M237.206 334.335C237.203 336.563 236.143 337.795 234.116 341.922C196.994 382.41 162.348 360.442 146.173 344.069L146.17 344.066C143.155 338.646 141.385 334.776 141.2 334.364C150.678 350.23 172.352 360.942 190.695 360.942C209.039 360.942 228.653 349.358 237.206 334.335H237.206Z" fill="#323232"/>
</g>
<g opacity="0.3">
<path opacity="0.3" d="M215.199 371.896C209.015 378.103 202.243 383.069 195.842 384.803C194.242 385.238 192.662 385.471 191.126 385.471C188.75 385.471 186.413 385.092 184.126 384.402C176.896 382.216 170.149 376.905 164.258 370.553C175.915 377.974 194.133 384.145 215.198 371.896L215.199 371.896Z" fill="#323232"/>
</g>
<g opacity="0.3">
<path opacity="0.3" d="M225.231 357.471C225.231 357.471 202.384 372.365 185.082 373.926C185.082 373.926 200.385 375.983 218.296 367.784L225.231 357.471V357.471Z" fill="#323232"/>
</g>
<g opacity="0.3">
<path opacity="0.3" d="M155.82 357.471C155.82 357.471 175.473 374.156 197.378 367.344C197.378 367.344 171.013 376.973 162.756 367.784L155.82 357.471H155.82Z" fill="#323232"/>
</g>
<path d="M152.495 352.185C152.493 352.148 152.461 352.097 152.453 352.087L152.596 352.205L152.884 352.445L153.477 352.94L154.672 353.939L157.075 355.941C158.686 357.267 160.291 358.607 161.939 359.898C163.581 361.199 165.266 362.443 166.979 363.66C168.687 364.89 170.459 366.02 172.246 367.175L172.25 367.177C172.337 367.234 172.363 367.351 172.306 367.439C172.258 367.514 172.165 367.543 172.085 367.514C170.07 366.807 168.088 365.971 166.174 365.006C164.263 364.037 162.383 362.992 160.574 361.839C158.761 360.693 156.977 359.491 155.286 358.168C154.44 357.507 153.607 356.829 152.803 356.113C152.396 355.76 152.003 355.392 151.61 355.019C151.413 354.836 151.223 354.636 151.029 354.445C150.933 354.352 150.835 354.244 150.738 354.142L150.594 353.986C150.493 353.882 150.37 353.735 150.275 353.603C149.884 352.99 150.064 352.176 150.677 351.785C151.289 351.394 152.103 351.573 152.495 352.185V352.185Z" fill="#323232"/>
<path d="M230.855 352.945C230.761 353.078 230.637 353.224 230.537 353.329L230.392 353.484C230.295 353.587 230.198 353.694 230.101 353.787C229.908 353.978 229.717 354.178 229.52 354.361C229.128 354.734 228.734 355.102 228.327 355.455C227.524 356.171 226.69 356.849 225.844 357.51C224.153 358.833 222.37 360.034 220.556 361.181C218.747 362.334 216.867 363.379 214.956 364.348C213.043 365.314 211.061 366.15 209.046 366.857C208.948 366.891 208.839 366.84 208.805 366.741C208.775 366.657 208.808 366.566 208.88 366.519L208.885 366.517C210.671 365.363 212.444 364.232 214.151 363.002C215.864 361.785 217.55 360.54 219.191 359.24C220.839 357.949 222.444 356.609 224.056 355.283L226.458 353.281L227.653 352.282L228.246 351.787L228.534 351.548L228.677 351.429C228.67 351.44 228.638 351.49 228.636 351.528C229.027 350.916 229.841 350.736 230.454 351.128C231.066 351.519 231.246 352.333 230.855 352.945V352.945Z" fill="#323232"/>
<g opacity="0.3">
<path opacity="0.3" d="M190.391 420.978L188.288 421.01C156.686 421.547 159.983 411.707 160.694 409.726C161.566 407.297 161.835 407.041 163.913 400.871C169.171 407.63 178.156 412.083 188.354 412.083C199.616 412.083 209.396 406.656 214.32 398.688C216.811 406.09 217.054 406.199 217.986 408.759C218.697 410.714 221.994 420.441 190.391 420.978V420.978Z" fill="#323232"/>
</g>
<g opacity="0.3">
<path opacity="0.3" d="M172.284 396.252C172.284 396.252 191.426 403.701 207.423 395.642C207.423 395.642 186.801 391.593 172.284 396.252Z" fill="#323232"/>
</g>
<path d="M190.923 385.828C184.409 385.828 177.662 383.111 170.87 377.753C165.531 373.541 160.14 367.685 154.846 360.348C145.877 347.915 140.183 335.308 140.127 335.182C139.83 334.519 140.127 333.74 140.79 333.443C141.451 333.146 142.231 333.441 142.529 334.105C142.75 334.596 164.858 383.195 190.924 383.195C199.156 383.195 209.978 375.732 220.615 362.718C230.14 351.067 236.035 339.074 236.035 334.644C236.035 333.917 236.624 333.327 237.352 333.327C238.079 333.327 238.668 333.917 238.668 334.644C238.668 340.43 231.784 353.216 222.654 364.385C216.108 372.393 203.281 385.829 190.924 385.829L190.923 385.828Z" fill="#323232"/>
<path d="M234.684 377.013C234.649 377.013 234.615 377.012 234.579 377.009C233.855 376.953 233.313 376.319 233.37 375.594L236.664 333.402C236.721 332.677 237.353 332.136 238.079 332.192C238.804 332.248 239.346 332.882 239.289 333.606L235.995 375.799C235.941 376.489 235.364 377.013 234.684 377.013Z" fill="#323232"/>
<path d="M145.994 376.519C145.348 376.519 144.784 376.043 144.692 375.384L138.693 332.395C138.592 331.675 139.095 331.01 139.815 330.91C140.536 330.81 141.2 331.311 141.301 332.031L147.3 375.02C147.401 375.74 146.898 376.405 146.178 376.506C146.116 376.515 146.055 376.519 145.994 376.519V376.519Z" fill="#323232"/>
<path d="M230.176 408.013C227.063 408.013 223.366 407.522 220.003 405.787C214.831 403.118 212 397.422 212.615 390.921C212.644 390.624 212.68 390.326 212.722 390.033L212.75 389.842L212.831 389.667C213.137 389.008 213.922 388.718 214.581 389.025C215.145 389.288 215.437 389.897 215.318 390.48C215.286 390.709 215.259 390.938 215.236 391.17C214.725 396.578 217.014 401.282 221.21 403.447C227.711 406.801 236.075 404.771 236.609 404.636C239.117 403.828 240.736 402.577 240.736 401.444C240.736 400.564 239.754 399.796 239.168 399.416C238.547 399.011 237.784 398.652 236.895 398.345L233.754 397.263L236.784 395.9C239.547 394.657 240.708 392.198 241.194 390.32C241.833 384 239.048 378.629 234.244 376.938C233.174 376.565 232.011 376.375 230.791 376.375C230.064 376.375 229.475 375.785 229.475 375.058C229.475 374.331 230.064 373.742 230.791 373.742C232.307 373.742 233.762 373.981 235.115 374.454C241.121 376.567 244.611 383.092 243.803 390.69L243.771 390.872C243.297 392.762 242.284 395.143 240.12 396.913C240.287 397.009 240.449 397.108 240.604 397.21C242.89 398.691 243.37 400.33 243.37 401.445C243.37 403.857 241.185 405.938 237.376 407.155L237.316 407.172C237.097 407.232 234.101 408.014 230.175 408.014L230.176 408.013Z" fill="#323232"/>
<path d="M232.392 399.372C231.931 399.372 231.458 399.354 230.974 399.318C230.25 399.264 229.705 398.632 229.759 397.907C229.813 397.182 230.443 396.637 231.169 396.692C233.372 396.855 235.259 396.59 236.782 395.901C237.444 395.6 238.223 395.895 238.523 396.557C238.823 397.219 238.53 397.999 237.867 398.299C236.292 399.013 234.455 399.372 232.392 399.372V399.372Z" fill="#323232"/>
<path d="M148.484 408.191C140.983 408.191 135.327 405.291 135.327 401.445C135.327 400.33 135.808 398.691 138.096 397.207C138.25 397.106 138.411 397.008 138.577 396.913C136.413 395.144 135.399 392.762 134.925 390.872L134.893 390.691C133.979 382.09 138.563 375.03 145.793 373.902C146.494 373.793 150.079 373.284 151.834 373.98C152.509 374.248 152.839 375.013 152.571 375.689C152.303 376.365 151.536 376.695 150.862 376.427C150.137 376.139 147.876 376.243 146.199 376.504C139.667 377.523 136.887 384.209 137.502 390.321C137.988 392.199 139.15 394.658 141.912 395.901L144.942 397.264L141.801 398.346C140.912 398.653 140.149 399.012 139.532 399.415C138.942 399.797 137.96 400.565 137.96 401.445C137.96 403.163 141.963 405.559 148.484 405.559C152.039 405.559 155.366 404.793 157.382 403.508L157.48 403.451C161.678 401.26 163.969 396.554 163.459 391.171C163.391 390.447 163.922 389.805 164.646 389.736C165.367 389.666 166.012 390.198 166.081 390.922C166.691 397.372 163.882 403.051 158.749 405.759C156.29 407.306 152.553 408.192 148.484 408.192V408.191Z" fill="#323232"/>
<path d="M146.307 399.372C144.243 399.372 142.406 399.013 140.83 398.3C140.168 398 139.874 397.22 140.173 396.558C140.473 395.896 141.252 395.601 141.916 395.901C143.438 396.59 145.327 396.855 147.528 396.692C148.252 396.639 148.884 397.182 148.938 397.908C148.993 398.633 148.448 399.264 147.723 399.318C147.239 399.354 146.767 399.372 146.306 399.372H146.307Z" fill="#323232"/>
<path d="M166.268 396.561C165.7 396.561 165.176 396.19 165.006 395.618L159.294 376.358C159.087 375.661 159.484 374.928 160.181 374.722C160.876 374.515 161.61 374.912 161.818 375.609L167.531 394.87C167.738 395.567 167.34 396.3 166.643 396.507C166.518 396.544 166.392 396.561 166.268 396.561L166.268 396.561Z" fill="#323232"/>
<path d="M212.595 396.373C212.471 396.373 212.345 396.356 212.22 396.318C211.523 396.112 211.126 395.379 211.332 394.682L214.123 385.267L217.055 375.601C217.266 374.905 218.004 374.513 218.697 374.724C219.393 374.934 219.785 375.67 219.575 376.365L216.645 386.024L213.856 395.431C213.686 396.003 213.162 396.374 212.595 396.374V396.373Z" fill="#323232"/>
<path d="M189.532 401.106C179.031 401.106 172.111 397.643 171.682 397.423C171.036 397.091 170.781 396.297 171.113 395.651C171.445 395.005 172.236 394.749 172.884 395.081C173.032 395.157 187.919 402.554 206.944 395.103C207.62 394.839 208.384 395.172 208.649 395.849C208.914 396.526 208.581 397.289 207.903 397.555C201.112 400.215 194.86 401.107 189.532 401.107V401.106Z" fill="#323232"/>
<path d="M185.761 422.175C171.791 422.175 163.153 419.998 160.07 415.695C158.702 413.785 158.456 411.57 159.338 409.109C159.63 408.296 159.858 407.718 160.099 407.104C160.636 405.737 161.304 404.036 163.103 398.62C163.612 397.084 164.318 395.687 165.203 394.471C168.408 390.049 172.934 389.352 173.589 389.272C174.143 389.167 178.55 388.35 183.832 387.985C185.748 387.853 187.552 387.798 189.192 387.82C191.186 387.726 193.376 387.736 195.705 387.852C200.474 388.084 204.298 388.666 204.814 388.747C205.51 388.807 210.468 389.406 213.695 394.337C214.37 395.37 214.924 396.526 215.343 397.775C217.144 403.136 217.783 404.744 218.348 406.163C218.588 406.766 218.816 407.336 219.107 408.136C219.983 410.544 219.752 412.747 218.421 414.683C215.206 419.357 205.744 421.86 190.298 422.121L188.193 422.154C187.366 422.168 186.555 422.175 185.762 422.175L185.761 422.175ZM188.461 390.447C187.081 390.447 185.589 390.502 184.014 390.611C178.65 390.982 174.082 391.858 174.037 391.867L173.911 391.885C173.759 391.902 170.002 392.336 167.333 396.017C166.607 397.016 166.025 398.17 165.602 399.449C163.78 404.933 163.097 406.671 162.548 408.067C162.305 408.688 162.094 409.223 161.815 409.999C161.445 411.033 161.082 412.588 162.209 414.162C163.743 416.303 169.156 419.843 188.148 419.523L190.253 419.49C209.325 419.166 214.727 415.405 216.249 413.192C217.359 411.579 216.998 410.048 216.63 409.037C216.353 408.274 216.143 407.747 215.9 407.137C215.351 405.759 214.669 404.044 212.845 398.614C212.497 397.576 212.041 396.623 211.49 395.778C208.832 391.718 204.743 391.381 204.571 391.37L204.449 391.356C204.41 391.349 200.444 390.719 195.574 390.482C193.45 390.376 191.451 390.361 189.625 390.437C189.555 390.448 189.484 390.454 189.411 390.454L189.274 390.452L189.232 390.454H189.204C189.173 390.454 189.14 390.456 189.108 390.458C189.026 390.462 188.945 390.46 188.865 390.45C188.731 390.449 188.596 390.449 188.46 390.449L188.461 390.447Z" fill="#323232"/>
<path d="M253.369 411.647C253.369 414.165 250.822 416.208 247.679 416.208C244.536 416.208 242.644 414.494 242.644 411.976H219.196C219.196 414.494 217.307 416.208 214.164 416.208C211.022 416.208 208.471 414.165 208.471 411.647C208.471 410.252 208.593 409.005 209.824 408.169C209.086 407.353 208.583 406.323 208.415 405.187C208.375 404.914 208.356 404.637 208.356 404.354C208.356 401.212 210.907 398.664 214.049 398.664C217.192 398.664 219.74 400.553 219.74 403.696C219.74 404.067 219.704 404.43 219.635 404.778H242.635C242.565 404.429 242.53 404.067 242.53 403.696C242.53 400.553 245.08 398.664 248.223 398.664C251.366 398.664 253.913 401.211 253.913 404.354C253.913 406.065 253.157 407.603 251.962 408.642C252.841 409.446 253.37 410.495 253.37 411.647H253.369Z" fill="white"/>
<g opacity="0.6">
<path opacity="0.6" d="M253.369 406.123C253.369 406.123 251.921 400.76 247.225 402.228C242.528 403.696 245.689 407.272 245.689 407.272H217.122C217.122 407.272 217.676 400.786 213.798 401.515C209.709 402.283 210.367 406.999 211.519 408.481C211.519 408.481 207.015 405.93 208.471 402.063C209.928 398.197 214.049 398.665 214.049 398.665C214.049 398.665 218.649 398.306 219.307 403.271C219.965 408.234 226.876 405.437 226.876 405.437L243.249 405.766C243.249 405.766 241.274 400.253 245.799 399.389C250.325 398.526 254.002 400.37 253.37 406.123H253.369Z" fill="white"/>
</g>
<g opacity="0.3">
<path opacity="0.3" d="M251.845 409.155C251.845 409.155 255.507 400.418 252.271 399.924C250.049 399.585 251.404 403.034 250.351 405.245C249.144 407.782 245.457 409.155 241.192 409.155H218.978C218.978 409.155 211.628 410.126 209.709 400.675C209.686 400.563 208.736 405.394 208.666 405.3C205.031 400.377 209.823 408.169 209.823 408.169C209.823 408.169 205.485 415.708 214.163 416.208C214.163 416.208 218.787 416.906 218.432 412.088H242.643C242.643 412.088 242.91 417.551 249.62 415.935C256.33 414.322 251.845 409.156 251.845 409.156V409.155ZM213.799 412.897C212.39 412.897 211.248 412.176 211.248 411.284C211.248 410.392 212.39 409.668 213.799 409.668C215.208 409.668 216.349 410.392 216.349 411.284C216.349 412.176 215.208 412.897 213.799 412.897ZM248.458 412.486C247.112 412.486 246.02 411.857 246.02 411.08C246.02 410.303 247.112 409.675 248.458 409.675C249.805 409.675 250.9 410.303 250.9 411.08C250.9 411.857 249.808 412.486 248.458 412.486Z" fill="#323232"/>
</g>
<path d="M247.679 417.525C244.407 417.525 242.06 415.871 241.472 413.293H220.369C219.78 415.871 217.434 417.525 214.165 417.525C210.299 417.525 207.155 414.888 207.155 411.647C207.155 410.444 207.242 409.12 208.076 408.023C207.581 407.22 207.253 406.324 207.113 405.38C207.064 405.04 207.04 404.696 207.04 404.355C207.04 400.491 210.184 397.349 214.05 397.349C217.915 397.349 220.93 399.906 221.052 403.463H241.216C241.338 399.906 244.247 397.349 248.222 397.349C252.197 397.349 255.229 400.492 255.229 404.355C255.229 405.936 254.695 407.455 253.735 408.679C254.354 409.57 254.686 410.591 254.686 411.647C254.686 414.888 251.543 417.525 247.68 417.525H247.679ZM217.88 410.66H243.96V411.977C243.96 413.802 245.35 414.892 247.679 414.892C250.008 414.892 252.053 413.437 252.053 411.648C252.053 410.708 251.52 410.024 251.073 409.615L249.983 408.619L251.097 407.65C252.05 406.82 252.596 405.619 252.596 404.355C252.596 401.943 250.634 399.981 248.223 399.981C246.044 399.981 243.846 401.13 243.846 403.696C243.846 403.976 243.873 404.254 243.926 404.523L244.237 406.095H218.031L218.343 404.523C218.396 404.255 218.423 403.976 218.423 403.696C218.423 401.13 216.226 399.981 214.049 399.981C211.635 399.981 209.672 401.943 209.672 404.355C209.672 404.574 209.687 404.786 209.718 405C209.844 405.849 210.218 406.642 210.801 407.286L211.813 408.408L210.563 409.257C209.961 409.666 209.787 410.202 209.787 411.647C209.787 413.436 211.75 414.891 214.164 414.891C216.578 414.891 217.88 413.801 217.88 411.976V410.659V410.66Z" fill="#323232"/>
<path d="M145.107 415.87C151.529 415.87 156.734 410.664 156.734 404.242C156.734 397.82 151.529 392.615 145.107 392.615C138.685 392.615 133.479 397.82 133.479 404.242C133.479 410.664 138.685 415.87 145.107 415.87Z" fill="#B2FA72"/>
<path d="M145.107 416.484C138.356 416.484 132.864 410.992 132.864 404.242C132.864 397.491 138.356 391.999 145.107 391.999C151.857 391.999 157.348 397.491 157.348 404.242C157.348 410.992 151.857 416.484 145.107 416.484ZM145.107 393.228C139.034 393.228 134.093 398.169 134.093 404.242C134.093 410.316 139.033 415.256 145.107 415.256C151.18 415.256 156.12 410.316 156.12 404.242C156.12 398.169 151.179 393.228 145.107 393.228Z" fill="#323232"/>
<g opacity="0.3">
<path opacity="0.3" d="M156.735 404.243C156.735 410.664 151.528 415.87 145.105 415.87C138.681 415.87 133.478 410.664 133.478 404.243C133.478 403.084 133.646 401.966 133.965 400.909C135.397 405.707 139.843 409.206 145.105 409.206C150.366 409.206 154.816 405.707 156.247 400.909C156.563 401.965 156.734 403.084 156.734 404.243H156.735Z" fill="#323232"/>
</g>
<g opacity="0.6">
<path opacity="0.6" d="M156.668 402.491C154.739 398.739 150.829 396.175 146.324 396.175C139.904 396.175 134.697 401.381 134.697 407.801C134.697 408.4 134.743 408.99 134.829 409.562C134.009 407.969 133.545 406.159 133.545 404.244C133.545 397.821 138.752 392.614 145.172 392.614C150.997 392.614 155.822 396.899 156.668 402.49V402.491Z" fill="white"/>
</g>
<g opacity="0.6">
<path opacity="0.6" d="M156.517 401.934C155.013 397.258 150.626 393.875 145.45 393.875C139.026 393.875 133.82 399.081 133.82 405.501C133.82 406.287 133.899 407.058 134.047 407.801C133.685 406.679 133.491 405.482 133.491 404.24C133.491 397.817 138.697 392.614 145.117 392.614C150.751 392.614 155.447 396.616 156.517 401.934V401.934Z" fill="white"/>
</g>
<path d="M145.106 417.186C137.969 417.186 132.162 411.38 132.162 404.242C132.162 397.104 137.969 391.298 145.106 391.298C152.244 391.298 158.051 397.104 158.051 404.242C158.051 411.38 152.244 417.186 145.106 417.186ZM145.106 393.931C139.421 393.931 134.795 398.557 134.795 404.243C134.795 409.928 139.421 414.554 145.106 414.554C150.792 414.554 155.418 409.928 155.418 404.243C155.418 398.557 150.792 393.931 145.106 393.931Z" fill="#323232"/>
<path d="M148.962 407.269C148.647 407.269 148.333 407.241 148.022 407.182C144.257 406.474 142.437 404.022 141.742 398.722C141.525 397.069 140.598 395.518 139.487 394.949C139.002 394.7 138.81 394.105 139.058 393.62C139.307 393.135 139.901 392.944 140.387 393.191C142.094 394.066 143.394 396.135 143.699 398.465C144.362 403.52 145.92 404.777 148.388 405.241C149.815 405.511 151.47 404.722 152.417 403.325C153.64 401.522 153.512 399.089 152.081 396.589H151.651L151.648 395.599C151.648 395.054 152.09 394.612 152.635 394.612C152.661 394.612 152.688 394.613 152.713 394.615H153.181L153.471 395.074C155.599 398.427 155.81 401.838 154.051 404.433C152.85 406.204 150.891 407.269 148.962 407.269H148.962Z" fill="#323232"/>
<path d="M151.49 414.948C151.44 414.948 151.388 414.944 151.338 414.936C150.799 414.852 150.43 414.347 150.513 413.808C150.605 413.217 150.85 411.646 147.757 411.046C144.166 410.353 142.339 411.626 140.727 412.75C139.801 413.395 138.927 414.005 137.848 414.176C137.309 414.261 136.804 413.893 136.719 413.354C136.634 412.816 137.001 412.31 137.54 412.225C138.17 412.126 138.832 411.664 139.598 411.13C141.338 409.917 143.721 408.255 148.133 409.108C152.611 409.975 152.654 412.896 152.465 414.112C152.389 414.6 151.969 414.948 151.491 414.948H151.49Z" fill="#323232"/>
<path d="M183.924 390.614C183.196 390.614 182.607 390.025 182.607 389.297V383.44C182.607 382.713 183.196 382.123 183.924 382.123C184.651 382.123 185.24 382.713 185.24 383.44V389.297C185.24 390.025 184.651 390.614 183.924 390.614Z" fill="#323232"/>
<path d="M195.639 390.483C194.912 390.483 194.322 389.893 194.322 389.166V383.844C194.322 383.117 194.912 382.528 195.639 382.528C196.366 382.528 196.955 383.117 196.955 383.844V389.166C196.955 389.893 196.366 390.483 195.639 390.483Z" fill="#323232"/>
<path d="M194.82 360.783C172.003 363.276 154.622 360.587 143.653 346.804L137.785 298.379C137.07 267.549 154.561 256.048 179.405 258.498L182.509 258.078C205.809 249.116 225.727 255.558 233.228 285.47L240.435 333.714C233.521 349.915 217.479 357.125 194.819 360.783" fill="#FFDCBF"/>
<g opacity="0.6">
<path opacity="0.6" d="M138.335 302.441C137.56 271.164 155.032 259.531 179.888 262.065L182.992 261.645C206.281 252.599 226.216 259.173 233.778 289.532L240.565 335.027C240.577 334.998 240.59 334.972 240.602 334.944L233.299 285.989C225.737 255.63 205.802 249.056 182.512 258.102L179.409 258.521C154.553 255.988 137.081 267.621 137.855 298.898L143.82 348.034C143.839 348.058 143.859 348.08 143.878 348.104L138.335 302.442L138.335 302.441Z" fill="white"/>
</g>
<g opacity="0.3">
<path opacity="0.3" d="M198.817 336.375C199.06 338.801 198.696 341.112 197.296 342.914C195.508 345.211 193.049 345.731 192.115 345.872C191.097 345.99 188.651 346.1 186.381 344.39C184.603 343.051 183.551 341.067 183.048 338.979C182.515 336.77 182.595 334.44 183.076 332.642C183.395 331.446 183.997 329.41 185.743 328.598C187.089 327.974 188.677 328.163 189.846 329.446L189.984 329.427C191.553 326.334 195.902 327.008 197.36 330.71C198.08 332.538 198.633 334.489 198.816 336.376L198.817 336.375Z" fill="#323232"/>
</g>
<path d="M203.025 328.907C195.966 341.734 187.33 342.902 177.117 332.411C182.161 330.173 188.114 326.428 188.768 323.703C190.48 325.663 195.087 327.954 203.025 328.907H203.025Z" fill="#323232"/>
<path d="M198.088 335.284C198.279 337.281 197.909 339.192 196.588 340.698C194.899 342.617 192.615 343.08 191.748 343.21C190.803 343.322 188.536 343.447 186.457 342.069C184.83 340.989 183.883 339.367 183.446 337.652C182.983 335.838 183.09 333.915 183.561 332.426C183.874 331.435 184.459 329.748 186.088 329.053C187.343 328.52 188.811 328.653 189.877 329.694L190.005 329.677C191.502 327.104 195.52 327.599 196.819 330.632C197.46 332.129 197.946 333.731 198.089 335.284H198.088Z" fill="#F95877"/>
<g opacity="0.6">
<path opacity="0.6" d="M196.378 339.146C194.69 341.065 192.406 341.528 191.538 341.658C190.594 341.77 188.327 341.895 186.248 340.517C184.62 339.437 183.674 337.815 183.236 336.1C183.21 335.996 183.192 335.89 183.168 335.785C183.202 336.406 183.289 337.035 183.446 337.652C183.883 339.367 184.83 340.989 186.457 342.068C188.536 343.447 190.802 343.322 191.748 343.209C192.615 343.08 194.899 342.618 196.588 340.698C197.909 339.192 198.279 337.281 198.088 335.284C198.048 334.856 197.981 334.424 197.894 333.992C198.029 335.894 197.641 337.705 196.378 339.145V339.146Z" fill="white"/>
</g>
<path d="M181.082 362.965C162.998 362.965 150.855 358.054 142.58 347.657C142.423 347.459 142.323 347.22 142.292 346.968L136.424 298.544C136.418 298.5 136.415 298.455 136.415 298.411C136.074 283.693 139.776 272.635 147.42 265.545C154.772 258.725 165.822 255.813 179.379 257.119L182.168 256.742C194.892 251.881 206.317 251.753 215.217 256.376C224.47 261.18 230.976 270.857 234.558 285.137C234.569 285.18 234.578 285.224 234.584 285.268L241.791 333.512C241.829 333.763 241.796 334.019 241.696 334.252C235.245 349.37 220.856 357.969 195.039 362.137C195.016 362.14 194.992 362.144 194.97 362.146C189.989 362.69 185.368 362.966 181.082 362.966L181.082 362.965ZM144.966 346.25C154.563 358.055 169.91 362.12 194.636 359.424C219.191 355.454 232.906 347.459 239.022 333.528L231.883 285.738C228.499 272.288 222.466 263.227 213.955 258.807C205.619 254.478 195.204 254.663 183.002 259.357C182.902 259.396 182.798 259.422 182.693 259.436L179.589 259.856C179.484 259.87 179.377 259.872 179.271 259.862C166.26 258.579 156.171 261.167 149.284 267.555C142.252 274.077 138.844 284.415 139.153 298.281L144.966 346.25V346.25Z" fill="#323232"/>
<path d="M176.728 307.12C177.462 304.571 179.632 302.695 182.261 302.34L189.373 301.378C192.126 301.006 194.822 302.373 196.148 304.814L196.179 304.871C197.161 306.68 196.832 308.92 195.371 310.37L192.048 313.666C191.57 314.112 190.145 315.326 187.92 315.607C185.921 315.86 184.383 315.22 183.778 314.93C182.275 314.2 180.772 313.471 179.268 312.741C178.919 312.568 177.643 311.881 176.964 310.319C176.321 308.838 176.623 307.511 176.728 307.119V307.12Z" fill="#323232"/>
<g opacity="0.3">
<path opacity="0.3" d="M176.921 308.543C177.654 305.994 179.824 304.119 182.453 303.763L189.566 302.801C192.318 302.429 195.014 303.796 196.34 306.237L196.371 306.294C197.354 308.103 197.025 310.343 195.563 311.793L192.24 315.09C191.763 315.536 190.337 316.75 188.112 317.031C186.113 317.284 184.575 316.644 183.971 316.353C182.467 315.624 180.964 314.895 179.461 314.165C179.111 313.991 177.835 313.305 177.157 311.743C176.513 310.262 176.816 308.934 176.921 308.543V308.543Z" fill="#323232"/>
</g>
<path d="M186.395 305.448C188.859 305.115 190.805 304.465 190.742 303.996C190.679 303.527 188.629 303.417 186.165 303.75C183.701 304.083 181.755 304.734 181.818 305.203C181.881 305.671 183.93 305.781 186.395 305.448Z" fill="white"/>
<path d="M189.011 314.914L189.873 321.318L189.925 321.718L189.952 321.914L189.978 322.063C190.01 322.263 190.068 322.457 190.134 322.648C190.269 323.03 190.481 323.386 190.741 323.706C191.266 324.353 191.984 324.832 192.845 325.094L199.004 327.049L199.774 327.294L200.155 327.413L200.509 327.518C200.984 327.646 201.466 327.754 201.955 327.825C202.931 327.973 203.928 327.999 204.909 327.891C205.89 327.785 206.858 327.55 207.769 327.179C208.686 326.801 209.571 326.318 210.358 325.72C211.145 325.12 211.843 324.411 212.417 323.613C212.996 322.816 213.423 321.918 213.714 320.978C214.293 319.094 214.237 317.017 213.612 315.088C212.993 313.152 211.847 311.363 210.396 309.825C210.275 309.696 210.28 309.493 210.409 309.371C210.526 309.261 210.704 309.256 210.828 309.352L210.829 309.353C211.697 310.031 212.479 310.829 213.177 311.705C213.861 312.592 214.44 313.575 214.865 314.633C215.293 315.689 215.572 316.82 215.652 317.977C215.722 319.131 215.633 320.31 215.321 321.437C215.008 322.562 214.526 323.648 213.865 324.615C213.209 325.584 212.403 326.448 211.496 327.178C210.586 327.908 209.582 328.495 208.521 328.965C207.45 329.436 206.312 329.746 205.156 329.903C204 330.062 202.825 330.064 201.668 329.922C201.088 329.855 200.516 329.732 199.95 329.59L199.528 329.473L199.136 329.356L198.363 329.124L192.174 327.268C190.97 326.923 189.785 326.206 188.946 325.182C188.525 324.67 188.177 324.088 187.946 323.456C187.833 323.14 187.738 322.816 187.68 322.484L187.637 322.235L187.608 322.032L187.553 321.632L186.683 315.23C186.595 314.587 187.046 313.995 187.689 313.907C188.331 313.82 188.923 314.27 189.011 314.913V314.915L189.011 314.914Z" fill="#323232"/>
<path d="M188.883 314.932L189.745 321.336L189.797 321.736L189.824 321.94L189.848 322.191C189.881 322.526 189.875 322.864 189.85 323.198C189.795 323.869 189.614 324.522 189.344 325.128C188.807 326.338 187.856 327.345 186.786 327.997L181.313 331.431L180.629 331.86L180.283 332.076L179.906 332.302C179.398 332.589 178.88 332.86 178.338 333.078C177.26 333.523 176.127 333.833 174.97 333.987C173.815 334.142 172.635 334.146 171.477 333.976C170.33 333.804 169.206 333.506 168.135 333.043C167.067 332.58 166.06 331.961 165.17 331.201C164.276 330.445 163.522 329.527 162.922 328.526C162.321 327.521 161.923 326.408 161.684 325.277C161.455 324.141 161.423 322.976 161.554 321.845C161.683 320.711 161.98 319.61 162.404 318.574C162.844 317.543 163.386 316.567 164.043 315.682V315.681C164.15 315.538 164.35 315.509 164.493 315.615C164.622 315.71 164.659 315.885 164.585 316.023C163.594 317.891 162.965 319.921 162.883 321.952C162.793 323.977 163.29 325.994 164.35 327.657C164.88 328.485 165.53 329.238 166.3 329.852C167.066 330.469 167.927 330.967 168.845 331.337C169.763 331.704 170.744 331.936 171.729 332.055C172.706 332.171 173.702 332.141 174.675 331.982C175.65 331.825 176.603 331.536 177.505 331.134C177.958 330.936 178.394 330.704 178.818 330.454L179.131 330.259L179.467 330.042L180.144 329.602L185.562 326.081C186.323 325.6 186.887 324.948 187.222 324.184C187.388 323.806 187.497 323.406 187.527 323.002C187.539 322.8 187.543 322.598 187.521 322.397L187.507 322.246L187.481 322.05L187.425 321.65L186.555 315.248C186.467 314.605 186.918 314.013 187.56 313.926C188.203 313.838 188.795 314.289 188.883 314.931V314.933L188.883 314.932Z" fill="#323232"/>
<path d="M190.692 344.054C189.395 344.054 187.649 343.798 186.023 342.72C182.475 340.367 181.723 335.642 182.813 332.189C183.097 331.292 183.761 329.192 185.782 328.333C187.162 327.747 188.637 327.869 189.796 328.63C190.638 327.669 191.88 327.16 193.249 327.244C195.13 327.359 196.773 328.539 197.537 330.324C198.913 333.536 199.967 338.033 197.175 341.213C195.437 343.193 193.101 343.798 191.863 343.983C191.856 343.985 191.848 343.985 191.84 343.986C191.526 344.024 191.134 344.054 190.692 344.054V344.054ZM187.553 329.528C187.174 329.528 186.781 329.609 186.393 329.774C185.036 330.351 184.543 331.911 184.306 332.661C183.415 335.483 184.016 339.51 186.888 341.414C188.645 342.579 190.615 342.554 191.643 342.433C192.672 342.278 194.594 341.779 195.997 340.18C198.251 337.613 197.295 333.739 196.097 330.941C195.463 329.462 194.161 328.869 193.153 328.807C192.087 328.74 191.186 329.203 190.68 330.072C190.559 330.281 190.347 330.422 190.108 330.455L189.979 330.472C189.74 330.506 189.499 330.424 189.327 330.256C188.837 329.776 188.215 329.529 187.553 329.529V329.528Z" fill="#323232"/>
<path d="M190.715 329.582L190.906 335.039C190.91 335.172 190.806 335.284 190.673 335.289C190.556 335.293 190.455 335.213 190.429 335.103L189.164 329.793C189.063 329.37 189.324 328.946 189.747 328.845C190.169 328.744 190.594 329.005 190.695 329.428C190.707 329.478 190.714 329.533 190.715 329.583V329.582Z" fill="#323232"/>
<g opacity="0.3">
<path opacity="0.3" d="M198.088 335.284C197.557 333.843 196.487 332.589 195.143 331.83C193.325 330.8 191.065 330.651 189.084 331.314C187.103 331.973 185.417 333.41 184.326 335.19C183.835 335.999 183.447 336.932 183.555 337.877L183.446 337.651C182.983 335.837 183.09 333.914 183.561 332.424C183.874 331.434 184.459 329.747 186.088 329.052C187.343 328.519 188.811 328.652 189.877 329.693L190.005 329.675C191.502 327.103 195.52 327.598 196.819 330.63C197.46 332.128 197.946 333.73 198.089 335.283L198.088 335.284Z" fill="#323232"/>
</g>
<path d="M181.764 262.426C182.171 264.084 182.479 265.756 182.769 267.43C183.045 269.107 183.3 270.786 183.511 272.47C183.622 273.312 183.731 274.154 183.825 274.998C183.927 275.841 184.018 276.685 184.103 277.53C184.273 279.221 184.426 280.913 184.511 282.615C184.519 282.76 184.407 282.883 184.263 282.89C184.133 282.897 184.021 282.808 183.994 282.685C183.625 281.022 183.322 279.349 183.037 277.674C182.895 276.837 182.758 275.999 182.632 275.159C182.499 274.32 182.38 273.479 182.264 272.638C182.019 270.958 181.82 269.272 181.64 267.583C181.475 265.892 181.327 264.198 181.28 262.491C181.276 262.355 181.383 262.242 181.519 262.238C181.637 262.235 181.738 262.316 181.765 262.426H181.764Z" fill="#323232"/>
<g opacity="0.3">
<path opacity="0.3" d="M233.137 284.792C230.077 272.735 224.88 264.604 218.188 259.833C221.128 264.449 223.534 270.384 225.281 277.765L231.603 320.569C229.073 314.836 227.331 308.767 226.45 302.574C225.83 303.76 225.478 305.074 225.412 306.401L225.396 304.457C224.781 310.917 225.159 317.46 226.515 323.799C226.942 325.793 227.468 327.797 227.387 329.836C227.32 331.543 226.842 333.152 226.107 334.679C225.518 335.9 224.634 336.953 223.547 337.762C217.096 342.567 206.395 348.939 192.58 350.531C187.176 351.154 182.67 350.887 180.58 350.713C171.196 349.932 163.692 347.131 158.62 344.683C156.577 343.697 154.986 341.936 154.286 339.778C154.281 339.76 154.275 339.742 154.269 339.725C153.65 337.78 153.625 335.709 153.506 333.673C153.13 327.202 151.757 320.793 149.448 314.729L149.949 316.607C149.532 315.346 148.845 314.172 147.931 313.194C148.56 318.094 148.65 323.061 148.209 327.986L143.4 288.84C143.124 281.26 143.866 274.9 145.475 269.668C140.291 276.045 137.441 285.264 137.694 297.701L143.399 344.922C154.318 358.331 171.682 360.898 194.497 358.39C217.159 354.747 233.217 347.66 240.181 331.832L233.137 284.792V284.792Z" fill="#323232"/>
</g>
<g opacity="0.3">
<path opacity="0.3" d="M163.303 317.759C163.275 317.78 163.248 317.801 163.22 317.822C163.254 317.817 163.288 317.813 163.321 317.809L163.309 317.804C163.255 317.784 163.186 317.808 163.148 317.847L163.07 317.926C163.048 317.948 163.028 317.971 163.013 317.998C163.009 318.007 163.004 318.015 162.999 318.024C162.992 318.039 162.984 318.056 162.979 318.071C162.972 318.095 162.971 318.118 162.976 318.141C162.975 318.151 162.977 318.16 162.98 318.168C162.986 318.182 162.992 318.195 162.997 318.209C163.008 318.228 163.022 318.244 163.041 318.256C163.052 318.267 163.065 318.274 163.079 318.278C163.099 318.289 163.121 318.294 163.144 318.293C163.206 318.3 163.254 318.259 163.295 318.22C163.319 318.198 163.336 318.171 163.353 318.144C163.371 318.112 163.389 318.08 163.408 318.048C163.423 318.022 163.431 317.995 163.431 317.965C163.431 317.935 163.423 317.907 163.408 317.881L163.4 317.87C163.404 317.904 163.409 317.938 163.413 317.971L163.451 317.875C163.457 317.859 163.455 317.836 163.451 317.821C163.445 317.8 163.432 317.782 163.414 317.769C163.4 317.758 163.385 317.751 163.367 317.749C163.346 317.746 163.319 317.748 163.302 317.761L163.303 317.759Z" fill="#323232"/>
</g>
<g opacity="0.3">
<path opacity="0.3" d="M164.18 316.122C163.034 318.129 162.728 320.598 163.349 322.823C163.971 325.048 165.512 327.001 167.532 328.124C170.634 329.848 174.568 329.516 177.789 328.024C181.01 326.532 183.637 324.018 186.044 321.41C187.119 320.246 188.223 318.907 188.248 317.323C188.628 319.546 188.783 321.807 188.708 324.061C188.694 324.492 188.668 324.936 188.48 325.324C188.253 325.791 187.821 326.118 187.399 326.42C184.389 328.572 181.103 330.334 177.646 331.651C175.861 332.331 173.998 332.897 172.088 332.911C168.892 332.933 165.731 331.29 163.913 328.661C162.095 326.033 161.673 322.494 162.821 319.512" fill="#323232"/>
</g>
<g opacity="0.3">
<path opacity="0.3" d="M163.661 318.571C162.475 320.649 162.158 323.205 162.802 325.51C163.742 328.874 166.335 330.514 167.133 330.999C170.94 333.317 175.1 332.284 177.647 331.651C180.087 331.045 184.811 329.872 187.221 325.528C188.442 323.327 188.606 321.144 188.585 319.815C188.979 322.117 189.139 324.458 189.062 326.792C189.054 327.042 189.091 327.555 188.825 328.1C188.537 328.691 188.049 329.041 187.706 329.235C187.207 329.252 186.437 329.327 185.571 329.637C183.785 330.276 183.161 331.353 181.479 332.61C180.053 333.676 178.792 334.179 177.607 334.651C176.23 335.201 174.197 335.94 171.851 335.956C168.542 335.979 165.268 334.277 163.386 331.556C160.434 327.288 162.088 322.539 162.255 322.083" fill="#323232"/>
</g>
<g opacity="0.3">
<path opacity="0.3" d="M210.928 309.799C212.565 311.429 213.516 313.728 213.508 316.038C213.5 318.349 212.533 320.641 210.885 322.26C208.351 324.746 204.471 325.471 200.97 324.888C197.468 324.306 194.268 322.58 191.254 320.706C189.908 319.869 188.488 318.872 188.043 317.351C188.266 319.594 188.719 321.816 189.389 323.969C189.517 324.38 189.66 324.802 189.945 325.126C190.287 325.516 190.791 325.716 191.279 325.895C194.751 327.17 198.388 327.996 202.07 328.347C203.972 328.528 205.919 328.58 207.764 328.085C210.851 327.257 213.462 324.832 214.516 321.816C215.57 318.799 215.037 315.276 213.138 312.706" fill="#323232"/>
</g>
<g opacity="0.3">
<path opacity="0.3" d="M212.413 312.695C214.117 314.316 215.097 316.612 215.074 318.924C215.04 322.355 212.9 324.548 212.29 325.167C209.244 328.261 205.061 328.312 202.071 328.348C199.215 328.382 194.407 328.439 191.027 324.948C189.484 323.354 188.771 321.57 188.422 320.397C188.641 322.642 189.101 324.862 189.789 327.013C189.832 327.146 189.971 327.653 190.364 328.167C190.607 328.485 190.865 328.824 191.268 328.889C191.973 329.001 192.554 328.183 192.58 328.146C196.892 330.384 200.637 331.077 203.031 331.315C205.165 331.528 206.85 331.578 208.989 331.017C212.224 330.169 214.972 327.727 216.094 324.701C217.754 320.224 215.175 316.268 214.744 315.642C214.729 315.621 214.717 315.603 214.709 315.592" fill="#323232"/>
</g>
<path d="M205.417 346.592C197.904 354.373 188.152 355.297 179.12 350.149L205.417 346.592Z" fill="#FFDCBF"/>
<path d="M179.285 349.859C181.445 350.856 183.665 351.659 185.945 352.12C188.221 352.573 190.551 352.713 192.83 352.398C193.393 352.289 193.966 352.227 194.526 352.101L195.361 351.886C195.638 351.811 195.922 351.757 196.19 351.65L197.008 351.372C197.281 351.279 197.557 351.194 197.817 351.066L198.609 350.716L199.009 350.546C199.142 350.489 199.266 350.412 199.395 350.347C201.467 349.301 203.383 347.926 205.186 346.372L205.189 346.37C205.323 346.255 205.525 346.27 205.64 346.403C205.743 346.523 205.742 346.697 205.645 346.815C204.101 348.699 202.217 350.341 200.07 351.59C199.811 351.762 199.535 351.903 199.255 352.04L198.417 352.45C198.142 352.598 197.849 352.703 197.558 352.815L196.684 353.152C196.395 353.273 196.087 353.336 195.787 353.423L194.882 353.668C194.582 353.758 194.269 353.788 193.963 353.85L193.038 354.009C190.554 354.336 188.016 354.133 185.623 353.495C183.227 352.861 180.968 351.809 178.953 350.441C178.8 350.337 178.76 350.129 178.864 349.976C178.958 349.838 179.136 349.792 179.282 349.859L179.284 349.861L179.285 349.859Z" fill="#323232"/>
<path d="M213.861 257.163C215.497 256.3 218.595 254.973 222.486 255.206C224.261 255.312 227.395 255.815 231.995 259.056C236.709 262.378 240.314 266.708 242.945 270.671C246.144 275.49 249.862 279.953 254.178 283.802C267.633 295.799 262.809 305.767 257.161 321.481C256.208 324.131 255.991 326.989 256.498 329.759C257.033 332.676 257.313 335.3 257.008 337.196C256.733 338.901 255.19 340.098 253.464 340.044C233.953 339.432 222.686 315.078 228.627 287.048C229.364 283.57 229.444 279.974 228.819 276.475C228.273 273.416 227.122 269.937 224.848 266.524C221.125 260.936 216.21 258.254 213.861 257.163H213.861Z" fill="#CE8C70"/>
<g opacity="0.6">
<path opacity="0.6" d="M254.491 337.579C254.801 335.716 254.527 333.137 253.999 330.272C253.498 327.551 253.722 324.742 254.681 322.135C260.365 306.679 265.21 296.873 251.788 285.114C247.481 281.342 243.775 276.964 240.589 272.236C237.968 268.348 234.374 264.1 229.67 260.848C225.078 257.674 221.947 257.187 220.172 257.087C218.185 256.974 216.406 257.263 214.921 257.684C214.529 257.482 214.171 257.308 213.861 257.163C215.497 256.3 218.595 254.973 222.486 255.206C224.261 255.312 227.395 255.815 231.995 259.056C236.709 262.378 240.314 266.708 242.945 270.671C246.144 275.49 249.862 279.953 254.179 283.802C267.633 295.799 262.81 305.767 257.161 321.481C256.208 324.131 255.991 326.989 256.499 329.759C257.033 332.676 257.313 335.3 257.008 337.196C256.734 338.901 255.19 340.098 253.465 340.044C253.196 340.036 252.929 340.021 252.663 340.003C253.605 339.531 254.313 338.659 254.493 337.579L254.491 337.579Z" fill="white"/>
</g>
<path d="M253.577 341.416C253.525 341.416 253.473 341.415 253.421 341.413C246.006 341.181 239.468 337.72 234.513 331.406C226.285 320.92 223.584 304.232 227.286 286.765C227.998 283.402 228.06 280.022 227.47 276.716C226.857 273.285 225.591 270.111 223.707 267.284C220.488 262.453 216.262 259.789 213.283 258.406C212.811 258.186 212.504 257.718 212.491 257.197C212.477 256.676 212.761 256.193 213.222 255.951C216.199 254.381 219.43 253.65 222.567 253.838C225.803 254.032 229.145 255.373 232.784 257.936C236.961 260.879 240.764 264.909 244.086 269.913C247.383 274.88 251.085 279.208 255.09 282.779C268.398 294.644 264.663 304.888 259.494 319.067C259.152 320.005 258.802 320.963 258.449 321.944C257.587 324.344 257.378 326.961 257.846 329.512C258.495 333.052 258.658 335.563 258.361 337.414C257.989 339.72 255.948 341.416 253.577 341.416V341.416ZM217.04 257.295C219.936 259.022 223.28 261.701 225.988 265.764C228.082 268.907 229.488 272.43 230.168 276.234C230.821 279.889 230.753 283.623 229.967 287.333C226.431 304.015 228.937 319.859 236.67 329.714C241.107 335.37 246.929 338.468 253.507 338.674C254.564 338.711 255.494 337.979 255.655 336.979C255.899 335.466 255.734 333.185 255.151 330.006C254.596 326.981 254.846 323.873 255.872 321.017C256.226 320.032 256.577 319.071 256.92 318.128C262.075 303.988 265.187 295.452 253.267 284.825C249.087 281.098 245.231 276.591 241.804 271.429C238.671 266.709 235.105 262.923 231.206 260.176C226.436 256.816 223.402 256.634 222.404 256.574C220.632 256.468 218.812 256.715 217.04 257.295H217.04Z" fill="#323232"/>
<g opacity="0.3">
<path opacity="0.3" d="M226.463 266.172C223.198 260.59 218.976 257.852 216.963 256.731C217.873 256.188 219.326 255.458 221.163 255.114C220.715 255.327 220.324 255.542 220.004 255.734C222.017 256.854 226.239 259.593 229.504 265.174C231.498 268.583 232.541 272.036 233.062 275.063C233.659 278.526 233.659 282.071 233.099 285.487C232.131 291.397 231.834 297.156 232.126 302.565C232.284 303.556 232.449 304.546 232.622 305.534C233.415 310.071 234.393 314.672 236.51 318.653C237.786 321.053 241.055 326.504 246.024 326.481C251.084 326.458 254.35 320.726 254.657 320.17C254.8 319.951 254.944 319.732 255.087 319.513C253.692 322.893 253.644 325.499 253.864 327.264C254.002 328.369 254.302 329.614 254.95 333.871C255.168 335.309 255.469 337.488 254.327 338.375C254.231 338.45 254.129 338.509 254.025 338.559C253.504 339.012 252.844 339.261 252.14 339.219C235.572 338.245 225.55 314.014 230.059 286.484C230.618 283.068 230.618 279.523 230.022 276.06C229.501 273.033 228.458 269.58 226.464 266.171L226.463 266.172Z" fill="#323232"/>
</g>
<path d="M148.807 265.961C147.001 265.565 143.662 265.108 139.972 266.367C138.29 266.941 135.402 268.258 131.828 272.604C128.165 277.058 125.841 282.191 124.357 286.711C122.553 292.206 120.154 297.496 117.015 302.354C107.231 317.494 114.529 325.822 124.15 339.471C125.772 341.773 126.741 344.471 126.987 347.276C127.246 350.231 127.674 352.835 128.472 354.581C129.189 356.151 130.995 356.895 132.645 356.385C151.293 350.612 155.684 324.14 142.512 298.696C140.878 295.539 139.845 292.093 139.517 288.553C139.231 285.459 139.417 281.799 140.702 277.905C142.807 271.528 146.833 267.637 148.807 265.961V265.961Z" fill="#CE8C70"/>
<g opacity="0.6">
<path opacity="0.6" d="M131 354.282C130.207 352.567 129.785 350.009 129.533 347.107C129.294 344.35 128.332 341.701 126.715 339.443C117.129 326.052 109.853 317.885 119.67 302.984C122.819 298.203 125.229 292.998 127.045 287.594C128.539 283.148 130.876 278.099 134.547 273.713C138.13 269.433 141.02 268.132 142.704 267.564C144.59 266.928 146.382 266.733 147.926 266.745C148.249 266.446 148.548 266.183 148.809 265.962C147.002 265.565 143.663 265.108 139.974 266.367C138.291 266.941 135.403 268.258 131.829 272.604C128.167 277.058 125.842 282.191 124.358 286.711C122.554 292.206 120.155 297.496 117.017 302.354C107.233 317.494 114.531 325.823 124.151 339.471C125.773 341.774 126.742 344.471 126.989 347.276C127.248 350.231 127.676 352.835 128.473 354.581C129.19 356.152 130.997 356.896 132.646 356.386C132.904 356.306 133.156 356.221 133.408 356.133C132.375 355.929 131.461 355.276 131.001 354.282H131Z" fill="white"/>
</g>
<path d="M131.594 357.915C129.748 357.915 128.012 356.872 127.226 355.151C126.447 353.445 125.937 350.981 125.622 347.396C125.395 344.812 124.499 342.345 123.029 340.261C122.429 339.408 121.837 338.577 121.259 337.764C112.509 325.468 106.188 316.585 115.864 301.61C118.777 297.103 121.196 291.947 123.055 286.284C124.928 280.577 127.523 275.682 130.77 271.734C133.597 268.297 136.462 266.116 139.53 265.07C142.502 264.056 145.812 263.902 149.101 264.624C149.61 264.736 150.011 265.126 150.137 265.632C150.263 266.138 150.091 266.671 149.694 267.008C147.19 269.133 143.823 272.823 142.003 278.336C140.938 281.563 140.56 284.958 140.881 288.429C141.19 291.773 142.148 295.016 143.728 298.068C151.937 313.924 153.765 330.731 148.619 343.025C145.521 350.429 140.137 355.502 133.049 357.696C132.566 357.846 132.076 357.917 131.593 357.917L131.594 357.915ZM145.035 266.916C143.432 266.916 141.873 267.166 140.415 267.663C139.469 267.986 136.592 268.967 132.886 273.474C129.858 277.158 127.425 281.756 125.659 287.138C123.727 293.024 121.206 298.393 118.166 303.097C109.5 316.51 114.766 323.912 123.492 336.175C124.073 336.991 124.667 337.826 125.27 338.681C127.018 341.161 128.083 344.091 128.352 347.156C128.635 350.375 129.082 352.618 129.719 354.012C130.139 354.933 131.225 355.39 132.24 355.076C138.526 353.13 143.316 348.596 146.092 341.965C150.928 330.409 149.135 314.47 141.295 299.325C139.552 295.959 138.494 292.377 138.152 288.679C137.797 284.831 138.217 281.062 139.401 277.474C140.932 272.837 143.444 269.366 145.777 266.933C145.529 266.921 145.281 266.915 145.034 266.915L145.035 266.916Z" fill="#323232"/>
<g opacity="0.3">
<path opacity="0.3" d="M139.051 277.994C140.716 271.746 144.058 267.985 145.702 266.37C144.681 266.088 143.087 265.77 141.223 265.927C141.712 266.013 142.146 266.117 142.506 266.216C140.863 267.831 137.52 271.593 135.855 277.841C134.839 281.657 134.75 285.263 135.051 288.32C135.396 291.817 136.338 295.235 137.784 298.38C140.288 303.821 142.105 309.293 143.26 314.585C143.37 315.582 143.475 316.58 143.571 317.579C144.012 322.163 144.291 326.859 143.307 331.259C142.714 333.913 141.011 340.036 136.215 341.334C131.331 342.655 126.659 337.997 126.216 337.543C126.02 337.37 125.823 337.197 125.626 337.024C127.87 339.912 128.608 342.413 128.865 344.171C129.026 345.274 129.067 346.554 129.573 350.83C129.744 352.275 130.033 354.455 131.37 355.007C131.482 355.053 131.595 355.083 131.709 355.104C132.331 355.402 133.034 355.466 133.702 355.239C149.415 349.899 152.64 323.876 140.98 298.534C139.533 295.389 138.592 291.972 138.247 288.474C137.946 285.418 138.034 281.811 139.051 277.995L139.051 277.994Z" fill="#323232"/>
</g>
<path d="M203.617 395.053C203.617 396.145 203.237 397.145 202.601 397.936H202.598C201.591 398.221 200.597 398.464 199.623 398.674C198.724 398.867 197.842 399.031 196.977 399.166H196.974C195.652 398.506 194.694 397.224 194.478 395.702C194.448 395.492 194.432 395.273 194.432 395.053C194.432 394.728 194.464 394.41 194.53 394.105C194.7 393.292 195.084 392.56 195.622 391.967C196.462 391.039 197.675 390.458 199.023 390.458C201.561 390.458 203.617 392.515 203.617 395.053Z" fill="#FFB74D"/>
<path d="M196.976 400.477C196.773 400.477 196.569 400.43 196.388 400.339C194.651 399.474 193.452 397.809 193.178 395.887C193.139 395.608 193.119 395.329 193.119 395.053C193.119 394.634 193.162 394.222 193.247 393.829C193.459 392.815 193.944 391.864 194.649 391.086C195.764 389.854 197.358 389.147 199.022 389.147C202.279 389.147 204.929 391.796 204.929 395.054C204.929 396.415 204.477 397.697 203.622 398.759C203.439 398.986 203.188 399.144 202.909 399.211C201.949 399.482 200.936 399.733 199.898 399.956C198.979 400.154 198.063 400.324 197.176 400.462C197.11 400.472 197.042 400.478 196.975 400.478L196.976 400.477ZM199.023 391.769C198.099 391.769 197.214 392.162 196.595 392.846C196.202 393.28 195.933 393.807 195.814 394.374C195.767 394.593 195.743 394.819 195.743 395.052C195.743 395.206 195.755 395.363 195.777 395.519C195.91 396.456 196.44 397.284 197.222 397.797C197.918 397.681 198.631 397.545 199.347 397.39C200.191 397.209 201.017 397.008 201.807 396.793C202.135 396.272 202.306 395.677 202.306 395.052C202.306 393.242 200.834 391.769 199.023 391.769H199.023Z" fill="#323232"/>
<path d="M194.321 395.866C196.115 394.072 196.115 391.163 194.321 389.369C192.527 387.575 189.619 387.575 187.825 389.369C186.031 391.163 186.031 394.072 187.825 395.866C189.619 397.66 192.527 397.66 194.321 395.866Z" fill="#FFB74D"/>
<path d="M191.073 398.523C187.817 398.523 185.167 395.874 185.167 392.618C185.167 389.361 187.816 386.712 191.073 386.712C194.329 386.712 196.978 389.361 196.978 392.618C196.978 395.874 194.329 398.523 191.073 398.523ZM191.073 389.336C189.264 389.336 187.791 390.808 187.791 392.618C187.791 394.427 189.263 395.899 191.073 395.899C192.883 395.899 194.355 394.427 194.355 392.618C194.355 390.808 192.883 389.336 191.073 389.336Z" fill="#323232"/>
<path d="M186.808 395.057C186.808 397.058 185.538 398.759 183.757 399.398C183.089 399.312 182.447 399.216 181.831 399.108C180.907 398.954 180.041 398.776 179.239 398.588C178.231 397.746 177.59 396.475 177.59 395.057C177.59 392.51 179.653 390.446 182.201 390.446C184.139 390.446 185.794 391.64 186.476 393.339V393.342C186.574 393.582 186.65 393.829 186.706 394.089C186.722 394.162 186.739 394.241 186.749 394.319V394.326C186.788 394.563 186.808 394.806 186.808 395.056V395.057Z" fill="#FFB74D"/>
<path d="M183.757 400.714C183.701 400.714 183.645 400.71 183.589 400.704C182.87 400.611 182.22 400.514 181.603 400.405C180.728 400.258 179.828 400.078 178.939 399.87C178.738 399.823 178.551 399.73 178.393 399.598C177.045 398.47 176.273 396.815 176.273 395.057C176.273 391.788 178.932 389.13 182.2 389.13C184.632 389.13 186.79 390.59 187.696 392.849C187.703 392.865 187.709 392.881 187.714 392.898C187.832 393.192 187.923 393.492 187.991 393.812C188.013 393.909 188.038 394.033 188.054 394.157C188.054 394.159 188.054 394.161 188.054 394.163C188.099 394.453 188.122 394.754 188.122 395.057C188.122 397.553 186.546 399.795 184.199 400.636C184.056 400.688 183.906 400.714 183.755 400.714L183.757 400.714ZM179.868 397.382C180.594 397.546 181.326 397.689 182.048 397.81C182.536 397.896 183.039 397.973 183.583 398.047C184.735 397.513 185.49 396.346 185.49 395.057C185.49 394.88 185.476 394.706 185.449 394.541C185.445 394.514 185.441 394.487 185.439 394.46C185.434 394.434 185.427 394.407 185.422 394.383C185.378 394.179 185.325 394.008 185.257 393.843C185.25 393.824 185.242 393.806 185.235 393.787C184.722 392.555 183.535 391.762 182.2 391.762C180.383 391.762 178.905 393.24 178.905 395.057C178.905 395.935 179.253 396.768 179.868 397.382V397.382Z" fill="#323232"/>
<path d="M191.073 398.67C191.073 399.034 191.03 399.385 190.951 399.723C190.82 399.729 190.686 399.729 190.557 399.733C188.114 399.782 185.858 399.635 183.824 399.379C183.159 399.293 182.519 399.198 181.906 399.09C181.892 398.952 181.886 398.811 181.886 398.67C181.886 396.135 183.943 394.079 186.478 394.079C186.559 394.079 186.639 394.082 186.717 394.085H186.72C186.737 394.085 186.75 394.085 186.763 394.089C188.584 394.2 190.115 395.367 190.754 396.988C190.784 397.06 190.81 397.132 190.833 397.204C190.987 397.663 191.073 398.158 191.073 398.67V398.67Z" fill="#FFB74D"/>
<path d="M189.635 401.054C187.638 401.054 185.635 400.929 183.661 400.68C182.942 400.589 182.294 400.491 181.678 400.382C181.097 400.28 180.656 399.802 180.6 399.215C180.583 399.038 180.575 398.855 180.575 398.671C180.575 395.415 183.223 392.767 186.478 392.767C186.57 392.767 186.66 392.77 186.749 392.774C186.784 392.774 186.834 392.776 186.895 392.783C189.152 392.941 191.142 394.398 191.974 396.506C192.012 396.598 192.05 396.704 192.084 396.81C192.28 397.394 192.384 398.028 192.384 398.67C192.384 399.122 192.331 399.577 192.228 400.02C192.095 400.59 191.6 401.004 191.015 401.033C190.915 401.038 190.814 401.04 190.715 401.041L190.591 401.043C190.273 401.05 189.954 401.053 189.635 401.053L189.635 401.054ZM183.271 397.98C183.504 398.013 183.743 398.046 183.991 398.077C185.895 398.317 187.833 398.435 189.752 398.43C189.732 398.155 189.677 397.884 189.589 397.622C189.57 397.56 189.555 397.522 189.54 397.484C189.068 396.288 187.949 395.475 186.683 395.398C186.671 395.398 186.66 395.396 186.649 395.395C186.593 395.393 186.536 395.39 186.478 395.39C184.906 395.39 183.59 396.502 183.271 397.979V397.98Z" fill="#323232"/>
<path d="M199.623 398.67V398.673C198.724 398.867 197.842 399.03 196.976 399.165H196.973C194.868 399.496 192.857 399.67 190.952 399.722C190.821 399.728 190.686 399.728 190.558 399.732C190.476 399.391 190.434 399.037 190.434 398.67C190.434 398.155 190.519 397.656 190.676 397.194C190.699 397.125 190.725 397.056 190.755 396.988C191.365 395.433 192.801 394.292 194.53 394.105C194.694 394.088 194.861 394.078 195.028 394.078C195.163 394.078 195.294 394.085 195.422 394.095C197.776 394.295 199.623 396.266 199.623 398.67H199.623Z" fill="#FFB74D"/>
<path d="M190.558 401.044C189.953 401.044 189.425 400.63 189.282 400.039C189.176 399.596 189.122 399.135 189.122 398.67C189.122 398.019 189.227 397.38 189.435 396.771C189.463 396.685 189.5 396.588 189.541 396.49C190.349 394.45 192.205 393.037 194.389 392.8C194.809 392.758 195.172 392.76 195.523 392.787C198.562 393.046 200.935 395.629 200.935 398.67V398.674C200.935 399.292 200.503 399.826 199.899 399.956C198.98 400.154 198.064 400.324 197.178 400.462C197.167 400.464 197.155 400.465 197.144 400.467C195.097 400.788 193.026 400.978 190.988 401.035C190.917 401.039 190.816 401.041 190.717 401.043L190.593 401.045C190.581 401.045 190.57 401.045 190.558 401.045L190.558 401.044ZM195.028 395.39C194.915 395.39 194.791 395.396 194.661 395.41C193.455 395.54 192.423 396.329 191.976 397.466C191.971 397.478 191.966 397.49 191.961 397.502C191.946 397.536 191.933 397.57 191.922 397.604C191.835 397.858 191.781 398.117 191.758 398.379C193.433 398.3 195.109 398.129 196.769 397.868C196.782 397.866 196.794 397.864 196.808 397.862C197.245 397.794 197.691 397.717 198.141 397.633C197.732 396.425 196.634 395.513 195.311 395.4C195.226 395.394 195.128 395.388 195.028 395.388V395.39Z" fill="#323232"/>
<path d="M165.217 289.329C161.613 289.334 159.019 293.814 159.422 299.334C159.825 304.855 163.074 309.326 166.679 309.322C170.283 309.317 172.878 304.837 172.474 299.317C172.07 293.796 168.821 289.325 165.217 289.329Z" fill="#323232"/>
<path d="M165.344 291.647C164.297 292.271 164.116 294.185 164.939 295.922C165.763 297.658 167.278 298.56 168.325 297.935C169.371 297.31 169.552 295.396 168.729 293.66C167.906 291.923 166.39 291.022 165.344 291.647H165.344Z" fill="white"/>
<path d="M167.596 298.31C167.413 298.31 167.222 298.28 167.029 298.222C166.155 297.956 165.314 297.125 164.78 295.997C163.92 294.183 164.132 292.164 165.253 291.494C165.657 291.253 166.137 291.207 166.638 291.359C167.513 291.625 168.354 292.456 168.889 293.584C169.748 295.398 169.536 297.417 168.415 298.087C168.166 298.235 167.89 298.31 167.596 298.31ZM166.074 291.626C165.843 291.626 165.627 291.684 165.435 291.798C164.466 292.376 164.315 294.192 165.099 295.846C165.592 296.885 166.352 297.647 167.132 297.884C167.536 298.007 167.918 297.973 168.234 297.783C169.202 297.205 169.353 295.389 168.569 293.736C168.076 292.696 167.316 291.935 166.536 291.698C166.377 291.649 166.223 291.625 166.074 291.625L166.074 291.626Z" fill="#323232"/>
<path d="M163.472 303.816C163.007 304.294 163.11 305.328 163.702 306.123C164.295 306.918 165.152 307.175 165.618 306.696C166.083 306.217 165.98 305.184 165.388 304.389C164.795 303.594 163.938 303.337 163.472 303.816Z" fill="#B199C5"/>
<path d="M165.032 307.114C165.006 307.114 164.98 307.113 164.954 307.111C164.47 307.08 163.949 306.75 163.561 306.229C162.909 305.353 162.814 304.24 163.346 303.693C163.551 303.481 163.825 303.379 164.136 303.401C164.621 303.433 165.142 303.762 165.53 304.284C166.182 305.159 166.276 306.273 165.745 306.82C165.557 307.013 165.311 307.115 165.032 307.115V307.114ZM163.599 303.939C163.199 304.35 163.312 305.302 163.845 306.017C164.172 306.456 164.595 306.733 164.977 306.758C165.184 306.772 165.358 306.709 165.491 306.572C165.891 306.161 165.779 305.209 165.246 304.494C164.919 304.055 164.496 303.778 164.113 303.753C163.905 303.74 163.733 303.802 163.599 303.939Z" fill="#323232"/>
<path d="M203.404 284.964C206.943 284.281 210.345 288.184 211.001 293.681C211.657 299.177 209.32 304.186 205.78 304.868C202.241 305.55 198.84 301.648 198.184 296.151C197.528 290.655 199.865 285.646 203.404 284.964Z" fill="#323232"/>
<path d="M203.723 287.263C204.869 287.677 205.412 289.521 204.934 291.382C204.457 293.244 203.141 294.417 201.995 294.004C200.849 293.59 200.306 291.746 200.783 289.885C201.26 288.023 202.576 286.849 203.723 287.263Z" fill="white"/>
<path d="M202.468 294.264C202.286 294.264 202.107 294.233 201.934 294.17C200.706 293.727 200.112 291.785 200.611 289.84C200.921 288.632 201.588 287.655 202.395 287.228C202.859 286.982 203.339 286.937 203.782 287.097C205.009 287.539 205.603 289.482 205.104 291.427C204.795 292.635 204.128 293.612 203.321 294.039C203.038 294.189 202.749 294.264 202.468 294.264V294.264ZM203.25 287.357C203.024 287.357 202.791 287.419 202.561 287.541C201.84 287.922 201.239 288.815 200.953 289.928C200.499 291.701 200.993 293.455 202.054 293.838C202.401 293.962 202.781 293.925 203.155 293.727C203.876 293.345 204.477 292.452 204.762 291.339C205.216 289.566 204.723 287.812 203.661 287.429C203.528 287.382 203.39 287.357 203.249 287.357H203.25Z" fill="#323232"/>
<path d="M207.879 298.852C208.427 299.233 208.523 300.267 208.093 301.161C207.663 302.054 206.87 302.47 206.322 302.088C205.774 301.707 205.678 300.673 206.108 299.78C206.538 298.886 207.33 298.471 207.878 298.852H207.879Z" fill="#B199C5"/>
<path d="M206.772 302.408C206.574 302.408 206.387 302.349 206.221 302.234C205.595 301.798 205.475 300.687 205.949 299.703C206.23 299.118 206.679 298.694 207.148 298.571C207.45 298.491 207.738 298.538 207.98 298.707C208.606 299.143 208.726 300.254 208.253 301.238C207.971 301.823 207.522 302.247 207.052 302.37C206.957 302.395 206.863 302.408 206.772 302.408ZM207.429 298.887C207.368 298.887 207.304 298.896 207.238 298.913C206.868 299.011 206.505 299.364 206.268 299.857C205.881 300.66 205.952 301.616 206.423 301.944C206.581 302.053 206.762 302.081 206.963 302.028C207.334 301.931 207.697 301.578 207.934 301.085C208.321 300.281 208.249 299.325 207.778 298.998C207.673 298.924 207.556 298.887 207.429 298.887Z" fill="#323232"/>
<path fill-rule="evenodd" clip-rule="evenodd" d="M76.8633 0C75.6395 6.64714 75 13.4989 75 20.5C75 82.632 125.368 133 187.5 133C249.632 133 300 82.632 300 20.5C300 13.4989 299.36 6.64714 298.137 0H76.8633Z" fill="#C3E4F2" fill-opacity="0.5"/>
</svg>
