<svg width="24" height="24" viewBox="0 0 24 24" fill="none" xmlns="http://www.w3.org/2000/svg">
<path fill-rule="evenodd" clip-rule="evenodd" d="M20.7133 7.88797L14.0467 2.70249C12.8433 1.76584 11.1578 1.76584 9.95333 2.70249L3.28667 7.88797C2.47444 8.51908 2 9.49017 2 10.519V18.6667C2 20.5078 3.49222 22 5.33333 22H18.6667C20.5078 22 22 20.5078 22 18.6667V10.519C22 9.49017 21.5256 8.51908 20.7133 7.88797Z" fill="#323232"/>
<path d="M7.55556 15.3334C7.55556 12.8789 9.5454 10.889 12 10.889C14.4546 10.889 16.4444 12.8789 16.4444 15.3334V22H7.55556V15.3334Z" fill="white"/>
<path fill-rule="evenodd" clip-rule="evenodd" d="M20.7133 7.88797L14.0467 2.70249C12.8433 1.76584 11.1578 1.76584 9.95333 2.70249L3.28667 7.88797C2.47444 8.51908 2 9.49017 2 10.519V18.6667C2 20.5078 3.49222 22 5.33333 22H18.6667C20.5078 22 22 20.5078 22 18.6667V10.519C22 9.49017 21.5256 8.51908 20.7133 7.88797Z" stroke="#323232" stroke-width="1.5"/>
<path d="M7.55556 15.3334C7.55556 12.8789 9.5454 10.889 12 10.889C14.4546 10.889 16.4444 12.8789 16.4444 15.3334V22H7.55556V15.3334Z" stroke="#323232" stroke-width="1.5"/>
</svg>
