<svg width="24" height="24" viewBox="0 0 24 24" fill="none" xmlns="http://www.w3.org/2000/svg">
<path fill-rule="evenodd" clip-rule="evenodd" d="M22 23V21.0556C22 18.4475 19.8594 16.3333 17.2188 16.3333H8.78125C6.14064 16.3333 4 18.4475 4 21.0556V23" fill="#323232"/>
<path d="M17.5 7.44444C17.5 9.89904 15.4853 11.8889 13 11.8889C10.5147 11.8889 8.5 9.89904 8.5 7.44444C8.5 4.98985 10.5147 3 13 3C15.4853 3 17.5 4.98985 17.5 7.44444Z" fill="#323232"/>
<path d="M22 23V21.0556C22 18.4475 19.8594 16.3333 17.2188 16.3333H8.78125C6.14064 16.3333 4 18.4475 4 21.0556V23H22ZM17.5 7.44444C17.5 9.89904 15.4853 11.8889 13 11.8889C10.5147 11.8889 8.5 9.89904 8.5 7.44444C8.5 4.98985 10.5147 3 13 3C15.4853 3 17.5 4.98985 17.5 7.44444Z" stroke="#323232" stroke-width="1.5" stroke-linecap="round" stroke-linejoin="round"/>
</svg>
