<svg width="24" height="24" viewBox="0 0 24 24" fill="none" xmlns="http://www.w3.org/2000/svg">
<g clip-path="url(#clip0_2_8535)">
<path d="M19.7714 9.38924C19.7953 9.56541 19.8152 9.72892 19.8399 9.89182C19.906 10.3238 19.9657 10.757 20.0426 11.1872C20.1732 11.919 20.3141 12.6487 20.4532 13.3791C20.4737 13.4886 20.4806 13.4916 20.6061 13.4997C21.0705 13.5232 21.5202 13.6702 21.9087 13.9257C22.5772 14.3646 22.9923 14.9779 23.1241 15.7692C23.1618 15.9954 23.1603 16.2289 23.1682 16.4594C23.1751 16.66 23.1712 16.8615 23.1682 17.0627C23.1639 17.4624 22.8804 17.7565 22.4804 17.7758C22.4605 17.7758 22.4403 17.7758 22.42 17.7758C22.3039 17.7819 22.2921 17.79 22.2671 17.8998C22.1961 18.2301 22.0582 18.5423 21.862 18.8172C21.2351 19.683 20.3877 20.0814 19.3204 19.9783C18.1991 19.8697 17.264 19.0229 17 17.9626C16.9859 17.9049 16.9668 17.8485 16.9478 17.7834C16.8854 17.7807 16.8311 17.7761 16.7768 17.7761C15.4243 17.7761 14.0719 17.7761 12.7194 17.7761C12.6993 17.7773 12.6792 17.7773 12.6591 17.7761C12.5731 17.7668 12.5333 17.8063 12.5149 17.8902C12.4612 18.1306 12.374 18.3624 12.2557 18.5786C11.9986 19.0536 11.6055 19.441 11.1268 19.6911C10.648 19.9412 10.1055 20.0427 9.56872 19.9825C9.03195 19.9223 8.52539 19.7031 8.11398 19.3531C7.70257 19.0031 7.40505 18.5382 7.25957 18.0181C7.18356 17.7442 7.21372 17.7767 6.92624 17.7767C6.56906 17.7745 6.21209 17.7745 5.85532 17.7767C5.69311 17.7818 5.53384 17.7326 5.40283 17.6368C5.31555 17.5757 5.24434 17.4944 5.19528 17.3999C5.14622 17.3053 5.12076 17.2003 5.12107 17.0938C5.12107 16.536 5.09091 15.9776 5.14883 15.421C5.23661 14.5737 5.55064 13.8189 6.07132 13.148C6.12351 13.0804 6.18112 13.0168 6.23452 12.9501C6.25503 12.9245 6.27072 12.8949 6.29787 12.8533C6.26084 12.8444 6.22324 12.838 6.18535 12.8343C6.05985 12.8315 5.93406 12.8358 5.80857 12.83C5.41429 12.8119 5.13525 12.5284 5.11775 12.1332C5.11594 12.0879 5.11775 12.0427 5.11775 11.9974C5.11775 9.60946 5.11826 7.22148 5.11926 4.8335C5.11801 4.72316 5.13058 4.61311 5.15667 4.50589C5.19408 4.36401 5.27642 4.23805 5.39137 4.14686C5.50632 4.05566 5.64771 4.00414 5.79439 4C5.82938 4 5.86468 4 5.89967 4C7.63424 4 9.36882 4 11.1034 4C11.2307 4 11.355 4.00845 11.4711 4.06395C11.7309 4.18854 11.8633 4.40031 11.8829 4.68387C11.8874 4.74421 11.885 4.80454 11.885 4.86487C11.885 6.27767 11.885 7.69037 11.885 9.10296C11.885 9.31413 11.885 9.31413 12.1028 9.31413C12.6006 9.31413 13.0983 9.31413 13.596 9.31413C13.9303 9.31413 14.2597 9.35606 14.5641 9.50387C15.3137 9.86587 15.7376 10.4614 15.8118 11.2909C15.8326 11.5768 15.8359 11.8638 15.8214 12.1501C15.8085 12.516 15.5514 12.7836 15.1931 12.827C15.0724 12.8418 15.0661 12.8439 15.0362 12.9685C14.9707 13.2418 14.9077 13.516 14.844 13.7899C14.8202 13.8925 14.794 13.9951 14.7759 14.0988C14.7646 14.1579 14.7621 14.2182 14.7683 14.278C14.7822 14.3911 14.8096 14.4147 14.9246 14.415C15.4274 14.4162 15.9301 14.4162 16.4329 14.415C16.4583 14.4131 16.4836 14.4098 16.5086 14.405C16.5168 14.3546 16.5291 14.3028 16.5331 14.2503C16.5685 13.7636 16.5679 13.275 16.5312 12.7884C16.4673 11.8609 16.3989 10.9337 16.3261 10.0068C16.3002 9.671 16.2625 9.33615 16.2287 9.0013C16.2232 8.947 16.2112 8.89361 16.1985 8.82634C16.0618 8.82871 15.9253 8.83878 15.7898 8.8565C15.6549 8.86978 15.5201 8.88667 15.3846 8.89391C15.06 8.9108 14.7756 8.67761 14.6992 8.38771C14.6151 8.06735 14.7433 7.74788 15.0365 7.59343C15.14 7.53883 15.2643 7.5159 15.3819 7.49811C15.5704 7.46975 15.7617 7.45768 15.9517 7.43777C15.9867 7.43445 16.022 7.43204 16.0567 7.42721C16.1928 7.40791 16.1913 7.407 16.2021 7.26884C16.2462 6.71529 16.4899 6.27033 16.9415 5.94634C17.2148 5.74233 17.5459 5.63055 17.8869 5.62718C18.5808 5.62356 19.2746 5.61632 19.9684 5.62718C20.75 5.64076 21.4647 6.21874 21.6749 6.9723C21.9727 8.03929 21.3129 9.08728 20.2447 9.3271C20.0972 9.36149 19.9455 9.36782 19.7714 9.38924ZM21.7482 16.3839C21.8408 15.8162 21.5006 15.1637 20.8484 14.9519C20.6831 14.8985 20.5135 14.8916 20.3422 14.8883C20.1612 14.8856 19.9802 14.8928 19.8007 14.8699C19.5407 14.8361 19.3594 14.682 19.2695 14.4358C19.2276 14.3122 19.1954 14.1855 19.1732 14.0569C19.0103 13.2343 18.8393 12.4131 18.6924 11.5875C18.5738 10.9199 18.4857 10.2469 18.3838 9.57627C18.3744 9.51353 18.3645 9.45078 18.3536 9.37838C18.1246 9.37325 17.9114 9.36933 17.6863 9.38049C17.6863 9.44686 17.6827 9.49603 17.6863 9.5443C17.7165 9.86979 17.7518 10.1947 17.7747 10.5205C17.8317 11.3274 17.8827 12.135 17.9358 12.9423C17.9723 13.5003 17.9524 14.0584 17.9114 14.6147C17.8628 15.2744 17.3412 15.7948 16.7083 15.8063C16.0599 15.8183 15.4115 15.8178 14.7629 15.8047C14.3505 15.7963 14.0054 15.6177 13.7408 15.2995C13.4392 14.936 13.3261 14.5082 13.3788 14.046C13.412 13.7583 13.4923 13.4756 13.549 13.1902C13.571 13.0798 13.6226 12.973 13.603 12.843C13.5499 12.8394 13.501 12.8334 13.4522 12.8334C12.1499 12.8334 10.8479 12.8204 9.54589 12.8373C8.52023 12.8502 7.69639 13.2916 7.08793 14.1184C6.60225 14.7785 6.46589 15.532 6.52291 16.333C6.52291 16.3417 6.53196 16.3502 6.55066 16.3839H21.7482ZM6.52562 11.4113C6.68249 11.4451 10.348 11.4415 10.4675 11.4113C10.4995 11.2906 10.5007 8.12768 10.4675 7.99796C10.3103 7.96388 9.31934 7.97112 9.20561 8.00943C9.20463 8.0633 9.19979 8.11703 9.19113 8.17022C9.17002 8.26071 9.15343 8.35936 9.1115 8.44171C8.96941 8.72136 8.66714 8.85771 8.34889 8.79677C8.07377 8.74428 7.84601 8.49119 7.81072 8.19767C7.80257 8.12949 7.79593 8.06101 7.78719 7.97805C7.36124 7.97805 6.94705 7.97805 6.52442 7.97805L6.52562 11.4113ZM10.4829 5.41752C10.2937 5.378 6.63211 5.38736 6.51838 5.42808C6.51657 5.80396 6.51507 6.18224 6.51838 6.55812C6.7018 6.58828 7.68552 6.58406 7.80438 6.55269C7.87527 6.2106 8.07588 5.97621 8.43486 5.94936C8.86986 5.91587 9.10968 6.16686 9.20652 6.56506C9.44604 6.59522 10.3697 6.58497 10.4823 6.54816L10.4829 5.41752ZM17.6067 7.9678C17.6688 7.97142 17.7177 7.97685 17.7669 7.97685C18.4301 7.97906 19.0936 7.98017 19.7572 7.98017C19.8025 7.98133 19.8477 7.97962 19.8927 7.97504C20.1624 7.94185 20.3633 7.72828 20.3503 7.48242C20.3457 7.35529 20.2909 7.23518 20.1978 7.14839C20.1048 7.06161 19.9812 7.01521 19.8541 7.01936C19.2263 7.02329 18.5982 7.01936 17.9705 7.02419C17.7433 7.02419 17.607 7.16567 17.6003 7.39162C17.597 7.50685 17.5982 7.62269 17.6003 7.73793C17.5988 7.81063 17.6034 7.88424 17.6067 7.9678ZM14.4178 11.4246C14.4202 11.3921 14.4202 11.3596 14.4178 11.3271C14.3526 10.9669 14.0609 10.7172 13.6871 10.7102C13.3855 10.7045 13.0838 10.7087 12.7822 10.7087C12.5257 10.7087 12.2693 10.7087 12.0129 10.7087C11.9025 10.7087 11.8898 10.7217 11.8877 10.8294C11.8845 10.9903 11.8845 11.1512 11.8877 11.3121C11.8898 11.4197 11.9013 11.4279 12.0126 11.4327C12.0328 11.4327 12.0527 11.4327 12.0729 11.4327C12.7969 11.4327 13.5209 11.4327 14.2449 11.4327C14.2971 11.4342 14.3514 11.4285 14.4178 11.4246ZM8.68283 17.7975C8.76669 18.1641 9.24121 18.6045 9.87501 18.6033C10.4705 18.6033 10.967 18.1936 11.0596 17.8021C10.9486 17.7686 8.84694 17.7626 8.68283 17.7975ZM20.8131 17.7927C20.7757 17.7845 20.7378 17.7791 20.6996 17.7764C19.9813 17.7764 19.263 17.7764 18.5449 17.7764C18.5075 17.7797 18.4704 17.7863 18.4341 17.796C18.5705 18.2712 19.1527 18.6371 19.6996 18.6045C20.2043 18.5746 20.7527 18.1795 20.8131 17.7927Z" fill="#0BA011"/>
<path d="M2.4384 15.4313C2.99588 15.4313 3.55456 15.4277 4.11053 15.434C4.23084 15.4342 4.35016 15.4559 4.46287 15.4979C4.72502 15.6017 4.89667 15.9016 4.87103 16.1761C4.85909 16.3248 4.79999 16.4659 4.70233 16.5788C4.60467 16.6916 4.47354 16.7704 4.32803 16.8035C4.284 16.8139 4.23901 16.8197 4.19379 16.8207C3.02363 16.8207 1.85347 16.8244 0.683612 16.8207C0.375009 16.8207 0.135487 16.6307 0.0362388 16.3441C-0.101622 15.9456 0.169273 15.4995 0.587683 15.4424C0.65775 15.4342 0.728307 15.4307 0.798848 15.4322C1.34466 15.4304 1.89118 15.4301 2.4384 15.4313Z" fill="#0BA011"/>
<path d="M2.85527 14.3227C2.41846 14.3227 1.98044 14.326 1.54453 14.3227C1.2311 14.319 0.988566 14.1359 0.886302 13.84C0.762619 13.4825 0.975293 13.0674 1.34031 12.9652C1.43223 12.9401 1.52709 12.9274 1.62236 12.9275C2.44108 12.9248 3.2598 12.9275 4.07852 12.9257C4.33976 12.9257 4.5645 13.005 4.71865 13.2273C4.8728 13.4496 4.89211 13.6871 4.77898 13.9272C4.66163 14.1736 4.4568 14.3148 4.18289 14.3193C3.74095 14.3287 3.29871 14.3227 2.85527 14.3227Z" fill="#0BA011"/>
<path d="M3.24477 10.4288C3.52562 10.4288 3.80677 10.4254 4.08792 10.4288C4.40316 10.4336 4.65083 10.6366 4.7546 10.9235C4.87708 11.2611 4.6451 11.8008 4.10783 11.8216C3.85745 11.8312 3.60616 11.8237 3.35518 11.8237C3.02908 11.8237 2.70268 11.83 2.37658 11.8213C2.10508 11.814 1.89572 11.6834 1.77325 11.4397C1.65258 11.2013 1.66796 10.9618 1.81608 10.7392C1.95364 10.5319 2.15576 10.4315 2.40282 10.4285C2.68307 10.4261 2.96362 10.4288 3.24477 10.4288Z" fill="#0BA011"/>
<path d="M7.99569 15.0467C7.99207 14.7794 8.05602 14.6141 8.18785 14.4789C8.40203 14.2605 8.61591 14.0415 8.83703 13.83C8.90004 13.7641 8.97543 13.7111 9.05889 13.6743C9.14235 13.6375 9.23225 13.6174 9.32346 13.6153C9.41467 13.6132 9.50539 13.6291 9.59046 13.6621C9.67553 13.695 9.75327 13.7444 9.81925 13.8074C9.88523 13.8704 9.93816 13.9458 9.975 14.0293C10.0118 14.1127 10.0319 14.2026 10.034 14.2938C10.0361 14.385 10.0202 14.4758 9.98724 14.5608C9.95428 14.6459 9.90489 14.7237 9.84188 14.7896C9.61895 15.034 9.38395 15.269 9.13809 15.4898C8.91547 15.6895 8.64759 15.7139 8.37941 15.5851C8.12661 15.4639 8.00383 15.2503 7.99569 15.0467Z" fill="#0BA011"/>
<path d="M10.4056 15.0228C10.4056 14.8026 10.447 14.6509 10.5565 14.5341C10.7945 14.2831 11.0328 14.0306 11.2886 13.7984C11.5601 13.5528 11.9749 13.5818 12.2298 13.8394C12.4847 14.097 12.507 14.5115 12.26 14.7815C12.0371 15.0258 11.803 15.2617 11.5583 15.4838C11.3372 15.6841 11.0708 15.7151 10.8005 15.589C10.542 15.4678 10.4195 15.2482 10.4056 15.0228Z" fill="#0BA011"/>
</g>
<defs>
<clipPath id="clip0_2_8535">
<rect width="24" height="24" fill="white"/>
</clipPath>
</defs>
</svg>
