<svg width="193" height="202" viewBox="0 0 193 202" fill="none" xmlns="http://www.w3.org/2000/svg">
<ellipse cx="96.5" cy="96.4521" rx="96.5" ry="96.4521" fill="#C3E4F2"/>
<g clip-path="url(#clip0_2_10728)">
<g opacity="0.2">
<path opacity="0.2" d="M92.1061 202C122.538 202 147.208 197.722 147.208 192.445C147.208 187.168 122.538 182.89 92.1061 182.89C61.674 182.89 37.0039 187.168 37.0039 192.445C37.0039 197.722 61.674 202 92.1061 202Z" fill="#390565"/>
</g>
<path d="M142.335 158.883C142.242 172.705 127.821 181.54 127.821 181.54L124.003 172.633L122.086 168.164L118.862 160.643C118.862 160.643 129.741 154.867 132.967 144.721C133.079 144.362 133.268 144.032 133.521 143.754C133.775 143.477 134.087 143.258 134.434 143.115C134.948 142.894 135.52 142.844 136.065 142.971C136.609 143.098 137.099 143.396 137.463 143.821C138.687 145.262 139.687 146.879 140.428 148.618C141.557 151.235 142.364 154.606 142.335 158.883Z" fill="#E4B740"/>
<path d="M142.335 158.883C142.242 172.705 127.821 181.54 127.821 181.54L124.002 172.633C144.59 166.797 135.504 145.465 134.434 143.115C134.948 142.894 135.519 142.844 136.064 142.971C136.609 143.098 137.099 143.396 137.462 143.821C139.802 146.552 142.388 151.289 142.335 158.883Z" fill="#FFFEFF"/>
<g opacity="0.3">
<path opacity="0.3" d="M142.335 158.884C142.242 172.705 127.82 181.54 127.82 181.54L124.002 172.633L122.085 168.164C143.673 169.768 139.474 148.314 139.474 148.314C139.799 148.39 140.118 148.492 140.428 148.618C141.556 151.235 142.364 154.606 142.335 158.884Z" fill="#323232"/>
</g>
<g opacity="0.4">
<path opacity="0.4" d="M126.133 173.699L120.993 161.71C120.993 161.71 131.872 155.935 135.098 145.788C135.209 145.429 135.399 145.099 135.652 144.821C135.905 144.544 136.217 144.325 136.565 144.182C136.889 144.046 137.236 143.975 137.588 143.972C137.545 143.922 137.503 143.871 137.461 143.822C137.097 143.397 136.607 143.099 136.062 142.972C135.517 142.845 134.946 142.895 134.432 143.116C134.084 143.259 133.772 143.478 133.519 143.755C133.265 144.033 133.076 144.363 132.965 144.722C129.738 154.869 118.86 160.644 118.86 160.644L124.001 172.633L127.819 181.54C127.819 181.54 128.312 181.237 129.117 180.657L126.133 173.699Z" fill="#FFFEFF"/>
</g>
<path d="M127.818 182.52C127.717 182.52 127.617 182.505 127.521 182.474C127.387 182.431 127.264 182.36 127.16 182.266C127.056 182.171 126.974 182.055 126.918 181.926L117.961 161.028C117.864 160.802 117.855 160.548 117.937 160.316C118.019 160.085 118.185 159.892 118.402 159.777C118.537 159.705 128.973 154.045 132.032 144.424C132.229 143.814 132.585 143.267 133.064 142.841C133.542 142.414 134.126 142.122 134.755 141.996C135.384 141.87 136.035 141.913 136.642 142.122C137.248 142.331 137.788 142.698 138.205 143.184C140.568 145.938 143.371 150.899 143.316 158.89C143.219 173.093 128.939 182.003 128.331 182.375C128.176 182.47 127.999 182.52 127.818 182.52ZM120.105 161.061L128.252 180.067C131.394 177.839 141.279 169.953 141.355 158.877C141.406 151.49 138.861 146.959 136.717 144.459C136.526 144.234 136.277 144.065 135.997 143.969C135.718 143.874 135.417 143.857 135.128 143.918C134.843 143.973 134.578 144.104 134.361 144.298C134.144 144.492 133.983 144.74 133.896 145.018C131.064 153.931 122.729 159.493 120.105 161.059V161.061Z" fill="#323232"/>
<path d="M139.959 188.711C135.176 194.966 123.897 194.46 107.551 191.041C107.551 191.041 99.2399 192.054 91.9899 192.054C84.7398 192.054 76.4289 191.041 76.4289 191.041C60.0837 194.46 48.8047 194.966 44.0211 188.711C39.8377 183.243 37.8429 171.519 43.2614 168.336C48.6799 165.154 53.5725 169.667 53.5725 169.667C55.0201 168.851 56.7881 168.054 57.4892 167.745C57.6864 167.657 57.8014 167.609 57.8014 167.609C59.777 158.004 62.5714 150.963 64.8005 146.411C65.3767 145.236 65.9151 144.226 66.3927 143.38C67.6245 141.203 68.4455 140.124 68.4455 140.124H115.535C115.535 140.124 117.414 142.597 119.752 147.613C121.872 152.165 124.37 158.812 126.178 167.609C126.178 167.609 128.554 168.622 130.407 169.667C130.407 169.667 135.303 165.155 140.718 168.336C146.134 171.518 144.143 183.243 139.959 188.711Z" fill="#E4B740"/>
<path d="M139.959 188.712C135.176 194.967 123.897 194.46 107.551 191.041C107.551 191.041 99.2399 192.054 91.9899 192.054C89.8303 192.054 87.5721 191.963 85.4722 191.838C83.1554 191.699 81.0221 191.515 79.4118 191.358C77.5852 191.182 76.4306 191.041 76.4306 191.041C74.3344 191.479 72.3221 191.866 70.3938 192.203C68.7806 192.485 67.2288 192.725 65.7383 192.923C55.1314 194.324 47.6787 193.493 44.0228 188.712C39.8394 183.243 37.8446 171.519 43.2631 168.337C48.6816 165.155 53.5742 169.667 53.5742 169.667C55.0218 168.851 56.7898 168.054 57.4909 167.746C58.0715 167.921 58.6377 168.14 59.1844 168.402C60.8856 169.218 62.32 170.483 63.4237 172.011C71.2953 182.887 79.2623 179.188 83.662 174.127C85.6935 171.787 86.9631 169.157 87.1044 167.542C87.1361 167.179 87.1098 166.87 87.0244 166.625C86.939 166.38 86.8431 166.145 86.7336 165.911C86.2406 164.823 85.5073 163.802 84.7443 162.92C84.1241 162.205 83.4463 161.542 82.7178 160.938C81.7724 160.155 80.7545 159.464 79.678 158.875C68.0469 152.476 67.9138 145.046 67.7297 143.382C68.9615 141.205 68.4494 140.126 68.4494 140.126H115.539C115.539 140.126 115.027 141.205 116.258 143.382C116.074 145.048 115.941 152.479 104.31 158.875C102.403 159.925 100.665 161.273 99.2416 162.92C98.3105 163.994 97.4341 165.268 96.9615 166.625C95.6656 170.324 108.235 189.046 120.562 172.011C121.666 170.484 123.1 169.219 124.801 168.402C125.348 168.14 125.914 167.921 126.495 167.746C127.196 168.054 128.964 168.851 130.412 169.667C130.412 169.667 135.308 165.155 140.723 168.337C146.138 171.518 144.143 183.243 139.959 188.712Z" fill="#FFFEFF"/>
<g opacity="0.3">
<path opacity="0.3" d="M143.862 173.869C143.404 177.664 141.922 181.613 139.958 184.181C135.174 190.436 123.895 189.929 107.55 186.51C107.55 186.51 102.529 187.122 96.8885 187.395C96.286 183.481 94.9798 173.08 96.9559 166.626C96.9559 166.626 93.3575 172.938 93.8767 185.561C93.888 185.813 93.8481 186.065 93.7596 186.302C93.671 186.539 93.5355 186.756 93.3612 186.939C93.1869 187.122 92.9774 187.268 92.7453 187.369C92.5131 187.469 92.2631 187.522 92.0101 187.523H91.9685C91.7154 187.522 91.4652 187.469 91.2329 187.369C91.0006 187.268 90.7911 187.122 90.6168 186.938C90.4424 186.755 90.307 186.538 90.2185 186.301C90.13 186.064 90.0904 185.812 90.1019 185.559C90.6211 172.937 87.0227 166.624 87.0227 166.624C88.9988 173.079 87.6931 183.48 87.09 187.393C86.5423 187.367 86.0017 187.338 85.4705 187.305C83.1537 187.167 81.0203 186.983 79.4101 186.826C77.5835 186.65 76.4289 186.509 76.4289 186.509C74.3326 186.947 72.3204 187.334 70.3921 187.67C68.7789 187.953 67.227 188.193 65.7365 188.39C55.1296 189.792 47.677 188.96 44.021 184.179C42.0564 181.611 40.5748 177.665 40.117 173.867C39.4312 178.685 41.2414 185.076 44.021 188.71C47.677 193.491 55.1296 194.322 65.7365 192.921C67.2267 192.723 68.7785 192.484 70.3921 192.201C72.32 191.868 74.3323 191.481 76.4289 191.039C76.4289 191.039 77.5835 191.181 79.4101 191.356C81.0203 191.513 83.1537 191.697 85.4705 191.836C87.572 191.961 89.8302 192.052 91.9882 192.052C99.2382 192.052 107.55 191.039 107.55 191.039C123.895 194.459 135.174 194.965 139.958 188.71C142.739 185.078 144.549 178.685 143.862 173.869Z" fill="#323232"/>
</g>
<path d="M50.6386 186.022C52.2434 185.594 53.1037 183.596 52.5601 181.56C52.0165 179.523 50.2748 178.22 48.67 178.648C47.0651 179.076 46.2049 181.073 46.7485 183.11C47.2921 185.146 49.0338 186.45 50.6386 186.022Z" fill="#FFBCA3"/>
<path d="M48.2159 177.725C49.2047 177.46 49.7335 176.228 49.3969 174.973C49.0604 173.718 47.986 172.915 46.9972 173.18C46.0084 173.445 45.4796 174.677 45.8161 175.932C46.1527 177.187 47.2271 177.99 48.2159 177.725Z" fill="#FFBCA3"/>
<path d="M45.3884 180.302C46.1072 179.686 46.0557 178.447 45.2734 177.536C44.4912 176.624 43.2744 176.384 42.5556 177C41.8368 177.616 41.8883 178.854 42.6706 179.766C43.4528 180.678 44.6696 180.918 45.3884 180.302Z" fill="#FFBCA3"/>
<path d="M53.9937 176.142C54.0927 174.852 53.3491 173.743 52.3327 173.665C51.3163 173.587 50.412 174.569 50.3129 175.859C50.2139 177.149 50.9575 178.258 51.9739 178.336C52.9903 178.414 53.8946 177.432 53.9937 176.142Z" fill="#FFBCA3"/>
<path d="M137.241 183.12C137.785 181.083 136.924 179.086 135.32 178.658C133.715 178.23 131.973 179.534 131.429 181.57C130.886 183.606 131.746 185.604 133.351 186.032C134.956 186.46 136.697 185.156 137.241 183.12Z" fill="#FFBCA3"/>
<path d="M139.24 175.366C139.576 174.111 139.048 172.879 138.059 172.614C137.07 172.349 135.996 173.152 135.659 174.407C135.323 175.661 135.851 176.893 136.84 177.158C137.829 177.423 138.903 176.621 139.24 175.366Z" fill="#FFBCA3"/>
<path d="M141.315 179.783C142.097 178.871 142.149 177.633 141.43 177.017C140.711 176.401 139.495 176.641 138.712 177.553C137.93 178.465 137.879 179.703 138.597 180.319C139.316 180.935 140.533 180.695 141.315 179.783Z" fill="#FFBCA3"/>
<path d="M131.999 178.351C133.015 178.273 133.759 177.164 133.66 175.874C133.561 174.584 132.656 173.602 131.64 173.68C130.624 173.758 129.88 174.866 129.979 176.156C130.078 177.446 130.982 178.429 131.999 178.351Z" fill="#FFBCA3"/>
<g opacity="0.3">
<path opacity="0.3" d="M119.753 147.613C93.6913 157.844 71.0803 149.26 64.8008 146.411C65.377 145.236 65.9154 144.226 66.393 143.38C67.6248 141.203 68.4458 140.124 68.4458 140.124H115.535C115.535 140.124 117.415 142.597 119.753 147.613Z" fill="#323232"/>
</g>
<path d="M131.013 170.437L130.895 170.546C130.851 170.585 130.804 170.634 130.759 170.68C130.668 170.77 130.576 170.865 130.485 170.963C130.395 171.061 130.303 171.156 130.216 171.259C130.129 171.363 130.036 171.458 129.951 171.564C129.602 171.981 129.276 172.416 128.973 172.868C128.819 173.093 128.663 173.318 128.527 173.556C128.391 173.795 128.237 174.022 128.115 174.268C127.993 174.514 127.847 174.749 127.732 174.998L127.386 175.749C127.27 176 127.179 176.262 127.074 176.516L126.92 176.903L126.794 177.3C126.713 177.566 126.619 177.829 126.533 178.095C126.463 178.366 126.396 178.637 126.314 178.907L126.199 179.314L126.108 179.727C126.044 180.001 125.987 180.28 125.915 180.557C125.795 181.115 125.708 181.681 125.565 182.254L125.557 182.283C125.538 182.359 125.493 182.426 125.429 182.473C125.366 182.52 125.288 182.543 125.209 182.539C125.131 182.534 125.056 182.503 124.998 182.45C124.94 182.396 124.902 182.324 124.891 182.246C124.85 181.95 124.816 181.651 124.789 181.351C124.767 181.051 124.725 180.749 124.734 180.447C124.734 180.146 124.746 179.845 124.752 179.54C124.756 179.389 124.758 179.237 124.772 179.085L124.827 178.634C124.86 178.331 124.905 178.032 124.947 177.728C125.009 177.43 125.072 177.131 125.142 176.833L125.246 176.386L125.379 175.948C125.473 175.656 125.551 175.359 125.657 175.072C126.075 173.908 126.624 172.795 127.294 171.755C127.632 171.232 128.005 170.731 128.41 170.257C128.618 170.021 128.823 169.786 129.054 169.564C129.164 169.455 129.28 169.34 129.403 169.236C129.465 169.181 129.522 169.127 129.59 169.072C129.657 169.017 129.713 168.968 129.804 168.898C130.003 168.747 130.252 168.677 130.501 168.704C130.75 168.73 130.979 168.851 131.142 169.041C131.304 169.231 131.387 169.476 131.375 169.726C131.362 169.976 131.254 170.211 131.073 170.384L131.013 170.437Z" fill="#323232"/>
<path d="M125.835 168.525C125.297 168.288 124.761 167.999 124.234 167.704C123.693 167.406 123.172 167.072 122.675 166.705C122.627 166.668 122.591 166.617 122.573 166.56C122.554 166.502 122.554 166.44 122.572 166.383C122.59 166.325 122.625 166.274 122.673 166.237C122.721 166.2 122.779 166.178 122.839 166.175C123.483 166.148 124.104 166.212 124.716 166.303C125.327 166.39 125.931 166.521 126.524 166.695C126.772 166.771 126.981 166.943 127.103 167.173C127.224 167.403 127.25 167.672 127.173 167.921C127.097 168.17 126.925 168.378 126.695 168.499C126.465 168.621 126.196 168.647 125.947 168.57C125.912 168.56 125.877 168.547 125.844 168.533L125.835 168.525Z" fill="#323232"/>
<path d="M54.1832 168.896C54.2736 168.966 54.33 169.014 54.3974 169.07C54.4648 169.125 54.5223 169.179 54.5836 169.234C54.7074 169.341 54.8208 169.453 54.9325 169.562C55.1642 169.781 55.3707 170.019 55.5772 170.255C55.9818 170.729 56.3545 171.23 56.6928 171.753C57.3629 172.793 57.9121 173.906 58.3299 175.07C58.4357 175.359 58.5145 175.656 58.6071 175.946L58.7407 176.384L58.8453 176.831C58.9154 177.128 58.9784 177.428 59.0398 177.726C59.0825 178.028 59.1269 178.328 59.1603 178.632L59.215 179.083C59.2293 179.234 59.2309 179.387 59.2353 179.538C59.2413 179.842 59.255 180.144 59.2534 180.445C59.2621 180.746 59.2205 181.048 59.1986 181.349C59.1767 181.65 59.1378 181.947 59.0967 182.244C59.0858 182.322 59.048 182.394 58.9899 182.447C58.9319 182.501 58.8571 182.532 58.7783 182.536C58.6996 182.541 58.6218 182.517 58.5583 182.471C58.4948 182.424 58.4495 182.357 58.4302 182.28L58.4231 182.252C58.2801 181.68 58.1919 181.114 58.072 180.555C58.0002 180.278 57.9438 180 57.8797 179.725L57.7883 179.312L57.6732 178.905C57.5944 178.635 57.527 178.363 57.4574 178.093C57.3709 177.827 57.2772 177.564 57.1962 177.298L57.0702 176.901L56.9163 176.514C56.8111 176.257 56.7208 175.995 56.6047 175.747L56.2585 174.996C56.1413 174.747 56.0005 174.509 55.8751 174.266C55.7497 174.022 55.6013 173.79 55.4632 173.554C55.3252 173.319 55.1713 173.091 55.0174 172.866C54.7137 172.415 54.3866 171.981 54.0376 171.565C53.9527 171.46 53.8601 171.363 53.7719 171.261C53.6837 171.159 53.5956 171.059 53.503 170.964C53.4104 170.87 53.3206 170.772 53.2291 170.681C53.1837 170.636 53.1371 170.587 53.0933 170.548L52.975 170.438L52.9202 170.387C52.7378 170.215 52.6284 169.979 52.6145 169.729C52.6007 169.479 52.6835 169.233 52.8459 169.042C53.0083 168.851 53.2378 168.729 53.4872 168.702C53.7366 168.676 53.9867 168.746 54.186 168.898L54.1832 168.896Z" fill="#323232"/>
<path d="M57.4635 166.691C58.0557 166.517 58.6598 166.386 59.271 166.3C59.8833 166.208 60.5044 166.144 61.148 166.171C61.2083 166.174 61.2663 166.196 61.314 166.233C61.3617 166.27 61.397 166.321 61.4149 166.378C61.4328 166.436 61.4326 166.498 61.4142 166.555C61.3959 166.613 61.3603 166.663 61.3123 166.7C60.8151 167.067 60.2942 167.401 59.753 167.699C59.2255 167.997 58.6899 168.286 58.152 168.52H58.1493C57.911 168.626 57.6408 168.632 57.3981 168.538C57.1553 168.443 56.9599 168.257 56.8548 168.019C56.7497 167.781 56.7435 167.511 56.8377 167.268C56.9318 167.025 57.1185 166.83 57.3567 166.725C57.3896 166.716 57.429 166.702 57.4635 166.691Z" fill="#323232"/>
<path d="M57.6523 194.512C51.3652 194.512 46.1839 193.152 43.2427 189.307C40.0419 185.123 38.2925 177.975 39.2603 173.036C39.7653 170.459 40.9768 168.542 42.7656 167.492C47.1358 164.925 51.5328 166.819 53.6908 168.486C54.9374 167.821 56.2606 167.218 56.9469 166.913C60.7672 148.753 67.3857 139.902 67.6677 139.531C67.7593 139.41 67.8773 139.313 68.0127 139.246C68.1481 139.179 68.2971 139.144 68.4482 139.144H115.535C115.686 139.144 115.835 139.179 115.971 139.246C116.106 139.313 116.224 139.41 116.316 139.531C116.598 139.902 123.217 148.753 127.037 166.913C127.722 167.218 129.046 167.821 130.293 168.486C132.451 166.819 136.848 164.927 141.218 167.492C143.006 168.542 144.217 170.459 144.723 173.036C145.69 177.976 143.942 185.123 140.741 189.307C135.154 196.611 121.482 194.946 107.509 192.031C106.304 192.172 98.662 193.033 91.9925 193.033C85.3231 193.033 77.6793 192.172 76.476 192.031C69.8564 193.411 63.3069 194.512 57.6523 194.512ZM47.3374 168.177C46.22 168.177 45.0041 168.45 43.757 169.181C42.4485 169.947 41.5826 171.371 41.1828 173.412C40.3245 177.792 41.9496 184.389 44.7976 188.118C48.7959 193.346 57.9026 193.915 76.2273 190.081C76.3323 190.06 76.4402 190.055 76.5466 190.068C76.6293 190.077 84.8844 191.074 91.9882 191.074C99.0919 191.074 107.348 190.077 107.43 190.068C107.537 190.055 107.645 190.06 107.75 190.081C126.074 193.913 135.18 193.346 139.179 188.118C142.031 184.389 143.653 177.792 142.794 173.412C142.395 171.373 141.529 169.949 140.22 169.181C135.51 166.415 131.246 170.224 131.067 170.385C130.914 170.524 130.722 170.612 130.516 170.635C130.311 170.659 130.103 170.617 129.923 170.517C128.14 169.511 125.815 168.516 125.791 168.506C125.645 168.444 125.517 168.348 125.416 168.225C125.316 168.103 125.247 167.958 125.215 167.803C121.939 151.867 116.324 142.998 115.024 141.1H68.9532C67.6535 142.997 62.0378 151.866 58.7615 167.803C58.7296 167.958 58.6607 168.103 58.5605 168.225C58.4603 168.348 58.332 168.444 58.1864 168.506C58.1628 168.516 55.8367 169.511 54.0539 170.517C53.8734 170.618 53.6652 170.661 53.4593 170.637C53.2534 170.613 53.0604 170.524 52.9081 170.383C52.7777 170.267 50.4379 168.177 47.3374 168.177Z" fill="#323232"/>
<path d="M83.7907 193.447C77.962 196.803 66.3659 196.486 65.4167 192.118C65.2699 191.441 65.3526 190.777 65.5843 190.147C65.891 189.326 66.4513 188.556 67.0807 187.892C68.4724 186.414 70.2026 185.435 70.2026 185.435C70.0076 184.82 69.8208 184.201 69.6423 183.58C66.0931 171.403 64.9736 158.931 64.9736 158.931C71.0395 158.438 78.5568 161.849 83.0622 164.29C85.0888 165.385 86.5046 166.286 86.9077 166.548L87.0249 166.625C87.0704 167.07 87.1235 167.568 87.1766 168.107C87.1925 168.213 87.2035 168.322 87.2117 168.432C87.2276 168.621 87.2462 168.82 87.2703 169.026C87.3393 169.727 87.4116 170.484 87.4779 171.281C88.14 179.05 88.513 190.726 83.7907 193.447Z" fill="#E4B740"/>
<path d="M83.7908 193.448C77.9621 196.803 66.366 196.486 65.4169 192.118C64.6462 188.581 70.2006 185.439 70.2006 185.439C70.0056 184.824 69.8188 184.205 69.6402 183.584C71.4296 187.203 78.6128 185.644 82.9671 183.696C87.7825 181.543 87.4758 171.285 87.4758 171.285C88.1402 179.051 88.5132 190.726 83.7908 193.448Z" fill="#FFFEFF"/>
<g opacity="0.3">
<path opacity="0.3" d="M87.4756 171.282C87.4093 170.485 87.337 169.728 87.268 169.027C87.2439 168.822 87.2253 168.622 87.2094 168.433C87.2012 168.323 87.1902 168.214 87.1743 168.108C87.1557 167.916 87.1316 167.724 87.1026 167.543C87.0478 167.199 86.9826 166.868 86.9054 166.549C86.8545 166.33 86.7959 166.119 86.7318 165.911C86.2388 164.824 85.5055 163.803 84.7425 162.921C84.1223 162.206 83.4445 161.543 82.716 160.938C82.8434 162.095 82.9588 163.213 83.0621 164.291C83.4143 168.02 83.6098 171.282 83.6646 174.128C83.8459 184.274 82.2061 189.178 79.4144 191.358C78.0413 192.426 76.3905 192.843 74.5398 192.898C72.7723 192.953 71.4228 192.664 70.3937 192.203C67.3035 190.825 67.0822 187.893 67.0822 187.893L65.5859 190.148C65.3542 190.777 65.2715 191.441 65.4183 192.119C65.4803 192.403 65.5883 192.675 65.7381 192.924C67.8605 196.513 78.3447 196.585 83.7922 193.449C84.4456 193.072 85.0005 192.523 85.4721 191.839C88.4039 187.571 88.0501 177.976 87.4756 171.282Z" fill="#323232"/>
</g>
<path d="M71.3857 190.486C71.235 190.876 71.13 191.282 71.0729 191.697C71.02 192.084 71.0072 192.475 71.0346 192.864C71.0734 193.244 71.1434 193.62 71.2438 193.989C71.2876 194.173 71.361 194.357 71.4081 194.541C71.4739 194.725 71.5467 194.907 71.6009 195.096L71.6294 195.196C71.7006 195.439 71.6742 195.701 71.556 195.925C71.4377 196.149 71.2368 196.319 70.9957 196.398C70.7546 196.477 70.4922 196.459 70.2641 196.348C70.0359 196.237 69.8599 196.042 69.7732 195.803C69.685 195.564 69.6034 195.323 69.5366 195.076C69.5076 194.95 69.4851 194.823 69.4605 194.693C69.4325 194.567 69.4142 194.438 69.4057 194.31L69.3745 193.919C69.3646 193.79 69.3778 193.656 69.3789 193.525C69.3761 193.264 69.4254 193 69.4632 192.742C69.5625 192.226 69.7524 191.732 70.0241 191.283C70.3029 190.845 70.6413 190.462 71.1042 190.196C71.1409 190.174 71.1834 190.165 71.2256 190.169C71.2679 190.173 71.308 190.189 71.3404 190.217C71.3728 190.244 71.3959 190.281 71.4065 190.322C71.4172 190.363 71.4149 190.407 71.3999 190.446L71.3857 190.486Z" fill="#323232"/>
<path d="M78.7353 190.361C78.5847 190.751 78.4798 191.158 78.4226 191.572C78.3699 191.959 78.3571 192.35 78.3843 192.74C78.4231 193.12 78.4931 193.496 78.5935 193.864C78.6378 194.049 78.7107 194.233 78.7578 194.417C78.8235 194.6 78.8969 194.783 78.9506 194.971L78.9791 195.071C79.0494 195.315 79.0225 195.576 78.9041 195.799C78.7857 196.023 78.585 196.192 78.3443 196.271C78.1036 196.35 77.8417 196.332 77.6139 196.221C77.386 196.111 77.21 195.916 77.1229 195.678C77.0347 195.44 76.9531 195.198 76.8868 194.951C76.8572 194.826 76.8353 194.697 76.8101 194.568C76.7819 194.442 76.7636 194.314 76.7554 194.185L76.7236 193.795C76.7137 193.666 76.7269 193.531 76.7285 193.401C76.7252 193.14 76.7745 192.876 76.8123 192.618C76.9114 192.102 77.1015 191.608 77.3737 191.159C77.652 190.721 77.9905 190.338 78.4538 190.072C78.4906 190.051 78.5329 190.041 78.5751 190.045C78.6173 190.049 78.6572 190.066 78.6895 190.093C78.7218 190.121 78.7448 190.158 78.7555 190.198C78.7661 190.239 78.7639 190.283 78.749 190.322L78.7353 190.361Z" fill="#323232"/>
<path d="M65.3966 158.894C65.8414 161.098 66.2489 163.312 66.664 165.518C67.0792 167.724 67.4856 169.927 67.9489 172.119C68.3948 174.314 68.8948 176.496 69.4245 178.667C69.9399 180.843 70.5374 182.992 71.135 185.144L71.1525 185.207C71.2098 185.414 71.1944 185.634 71.1089 185.831C71.0233 186.028 70.8729 186.19 70.6826 186.289C70.4755 186.414 70.2285 186.576 70.0056 186.731C69.7827 186.887 69.5537 187.055 69.3346 187.224C68.9016 187.561 68.4892 187.923 68.0996 188.31C67.3361 189.065 66.7007 189.938 66.4773 190.789C66.3754 191.206 66.3622 191.625 66.4773 191.984C66.5764 192.323 66.7971 192.64 67.1307 192.932C67.8027 193.515 68.8193 193.918 69.8621 194.178C70.942 194.433 72.0451 194.578 73.1544 194.611C74.283 194.655 75.4132 194.612 76.5354 194.484C78.7744 194.231 81.0134 193.676 82.9326 192.677C83.0476 192.614 83.1791 192.551 83.2798 192.487L83.5592 192.299C83.6578 192.245 83.7372 192.157 83.8254 192.08C83.9135 192.004 84.0061 191.939 84.0817 191.842C84.2383 191.659 84.4065 191.49 84.5423 191.275C84.6124 191.17 84.6918 191.076 84.7559 190.964L84.9482 190.629C85.4548 189.723 85.8009 188.663 86.0606 187.576C86.577 185.39 86.7698 183.071 86.8427 180.753C86.9155 178.436 86.8273 176.091 86.7266 173.75C86.6395 171.404 86.5201 169.054 86.5458 166.672C86.5474 166.555 86.5921 166.442 86.6714 166.355C86.7507 166.268 86.8592 166.213 86.9762 166.201C87.0932 166.189 87.2107 166.219 87.3064 166.288C87.4021 166.356 87.4694 166.457 87.4955 166.572C88.0091 168.897 88.3749 171.252 88.591 173.624C88.8006 176.008 88.8892 178.402 88.8566 180.795C88.8106 183.199 88.6649 185.625 88.115 188.053C87.834 189.263 87.4578 190.482 86.8246 191.651L86.5781 192.086C86.4954 192.23 86.3886 192.368 86.2939 192.509C86.1115 192.795 85.8732 193.057 85.6421 193.32C85.5326 193.455 85.3836 193.567 85.2549 193.69C85.1262 193.813 84.9942 193.936 84.8364 194.034L84.3802 194.342C84.2312 194.436 84.0954 194.502 83.9519 194.582C82.8181 195.2 81.6258 195.615 80.4252 195.951C79.2279 196.272 78.0074 196.5 76.7747 196.633C75.5452 196.771 74.3069 196.816 73.0706 196.767C71.8135 196.727 70.5637 196.559 69.3407 196.266C68.1067 195.944 66.8327 195.504 65.7116 194.521C65.1639 194.033 64.6643 193.354 64.4458 192.55C64.2191 191.772 64.2678 190.967 64.46 190.244C64.6586 189.562 64.9708 188.918 65.3835 188.34C65.7628 187.802 66.1935 187.303 66.6695 186.849C67.1263 186.409 67.6119 186 68.1231 185.625C68.3756 185.437 68.6325 185.258 68.8943 185.085C69.1561 184.911 69.4113 184.751 69.7159 184.578L69.264 185.728C69.0887 185.187 68.9091 184.646 68.7415 184.101L68.4873 183.285L68.2524 182.464C68.0968 181.917 67.9358 181.369 67.7901 180.822L67.3711 179.168C67.2293 178.617 67.1071 178.063 66.9822 177.508C66.8574 176.954 66.7248 176.401 66.6136 175.844C66.3891 174.731 66.1623 173.618 65.9657 172.5C65.5746 170.265 65.2159 168.024 64.9667 165.767C64.7175 163.51 64.5449 161.252 64.5477 158.968C64.5481 158.863 64.5878 158.761 64.6589 158.682C64.7301 158.604 64.8278 158.555 64.933 158.545C65.0383 158.534 65.1437 158.563 65.229 158.626C65.3142 158.688 65.3731 158.78 65.3944 158.884L65.3966 158.894Z" fill="#323232"/>
<path d="M100.19 193.447C106.018 196.803 117.614 196.486 118.564 192.118C118.71 191.441 118.628 190.777 118.395 190.147C118.089 189.326 117.529 188.556 116.9 187.892C115.508 186.414 113.778 185.435 113.778 185.435C113.973 184.82 114.16 184.201 114.338 183.58C117.887 171.403 119.007 158.931 119.007 158.931C112.941 158.438 105.424 161.849 100.918 164.29C98.8911 165.385 97.4752 166.286 97.0727 166.548L96.9555 166.625C96.91 167.07 96.8569 167.568 96.8037 168.107C96.7873 168.213 96.7769 168.322 96.7687 168.432C96.7528 168.621 96.7342 168.82 96.7101 169.026C96.6411 169.727 96.5688 170.484 96.5025 171.281C95.8403 179.05 95.4673 190.726 100.19 193.447Z" fill="#E4B740"/>
<path d="M100.19 193.448C106.018 196.803 117.614 196.486 118.564 192.118C119.334 188.581 113.78 185.439 113.78 185.439C113.975 184.824 114.162 184.205 114.34 183.584C112.551 187.203 105.368 185.644 101.013 183.696C96.198 181.543 96.5047 171.285 96.5047 171.285C95.8403 179.051 95.4674 190.726 100.19 193.448Z" fill="#FFFEFF"/>
<g opacity="0.3">
<path opacity="0.3" d="M96.5047 171.282C96.571 170.485 96.6433 169.728 96.7123 169.027C96.7364 168.822 96.755 168.622 96.7709 168.433C96.7791 168.323 96.7895 168.214 96.8059 168.108C96.8246 167.916 96.8487 167.724 96.8777 167.543C96.9325 167.199 96.9976 166.868 97.0749 166.549C97.1258 166.33 97.1844 166.119 97.2485 165.911C97.7414 164.824 98.4748 163.803 99.2378 162.921C99.858 162.206 100.536 161.543 101.264 160.938C101.137 162.095 101.019 163.214 100.918 164.291C100.566 168.02 100.37 171.282 100.315 174.128C100.134 184.274 101.774 189.178 104.565 191.358C105.938 192.426 107.589 192.843 109.44 192.898C111.207 192.953 112.557 192.664 113.586 192.203C116.676 190.825 116.898 187.893 116.898 187.893L118.393 190.148C118.626 190.777 118.708 191.441 118.561 192.119C118.499 192.403 118.391 192.675 118.242 192.924C116.119 196.513 105.635 196.585 100.187 193.449C99.5341 193.072 98.9793 192.523 98.5077 191.839C95.5763 187.571 95.9313 177.976 96.5047 171.282Z" fill="#323232"/>
</g>
<path d="M112.876 190.199C113.339 190.466 113.677 190.847 113.956 191.287C114.228 191.736 114.418 192.23 114.517 192.745C114.555 193.003 114.604 193.267 114.601 193.529C114.601 193.659 114.616 193.793 114.606 193.923L114.575 194.313C114.566 194.442 114.548 194.57 114.52 194.696C114.495 194.823 114.473 194.951 114.444 195.079C114.377 195.326 114.295 195.568 114.207 195.807C114.119 196.043 113.944 196.237 113.717 196.346C113.49 196.456 113.229 196.474 112.989 196.396C112.749 196.319 112.549 196.151 112.43 195.929C112.311 195.707 112.282 195.448 112.35 195.205L112.379 195.101C112.434 194.912 112.506 194.73 112.572 194.546C112.621 194.362 112.695 194.178 112.736 193.994C112.837 193.625 112.907 193.249 112.946 192.869C112.973 192.48 112.96 192.089 112.907 191.702C112.85 191.287 112.745 190.881 112.595 190.491L112.581 190.454C112.566 190.414 112.563 190.371 112.574 190.33C112.584 190.289 112.607 190.252 112.64 190.224C112.672 190.196 112.712 190.18 112.754 190.176C112.797 190.172 112.839 190.181 112.876 190.202V190.199Z" fill="#323232"/>
<path d="M105.526 190.073C105.989 190.339 106.328 190.72 106.606 191.16C106.878 191.61 107.067 192.105 107.165 192.621C107.203 192.879 107.252 193.143 107.249 193.404C107.249 193.535 107.263 193.669 107.253 193.798L107.222 194.188C107.214 194.317 107.195 194.445 107.167 194.571C107.142 194.698 107.12 194.826 107.091 194.955C107.025 195.201 106.943 195.443 106.855 195.682C106.767 195.918 106.591 196.111 106.364 196.221C106.138 196.331 105.877 196.349 105.637 196.271C105.397 196.193 105.197 196.026 105.078 195.804C104.958 195.582 104.93 195.322 104.997 195.079L105.027 194.976C105.082 194.788 105.154 194.605 105.22 194.421C105.269 194.237 105.342 194.054 105.384 193.869C105.485 193.501 105.555 193.125 105.593 192.745C105.621 192.355 105.608 191.964 105.555 191.577C105.498 191.162 105.393 190.756 105.242 190.365L105.229 190.329C105.209 190.278 105.211 190.221 105.233 190.171C105.255 190.122 105.296 190.083 105.347 190.063C105.376 190.052 105.407 190.046 105.438 190.048C105.469 190.05 105.499 190.058 105.526 190.073Z" fill="#323232"/>
<path d="M119.434 158.97C119.434 161.254 119.262 163.514 119.014 165.769C118.766 168.023 118.407 170.264 118.016 172.502C117.819 173.62 117.593 174.733 117.368 175.846C117.258 176.403 117.121 176.955 116.999 177.51C116.877 178.065 116.752 178.619 116.61 179.17L116.191 180.824C116.046 181.374 115.885 181.919 115.729 182.466L115.494 183.287L115.24 184.103C115.073 184.65 114.893 185.188 114.718 185.73L114.266 184.585C114.57 184.758 114.82 184.914 115.087 185.091C115.355 185.269 115.606 185.444 115.858 185.631C116.37 186.007 116.855 186.416 117.312 186.856C117.788 187.31 118.219 187.809 118.598 188.347C119.011 188.925 119.323 189.568 119.522 190.251C119.713 190.974 119.762 191.779 119.536 192.557C119.317 193.361 118.82 194.039 118.27 194.528C117.149 195.513 115.875 195.951 114.641 196.273C113.418 196.566 112.168 196.734 110.911 196.774C109.675 196.823 108.436 196.778 107.207 196.64C105.974 196.507 104.754 196.279 103.556 195.958C102.356 195.623 101.163 195.209 100.03 194.589C99.8862 194.508 99.7498 194.442 99.6009 194.349L99.1452 194.041C98.9874 193.943 98.8631 193.814 98.7267 193.697C98.5903 193.579 98.4496 193.462 98.3395 193.327C98.1084 193.063 97.8701 192.802 97.6877 192.516C97.593 192.375 97.4862 192.237 97.4035 192.093L97.157 191.657C96.5216 190.489 96.1476 189.27 95.8666 188.06C95.3189 185.632 95.171 183.206 95.125 180.802C95.0924 178.408 95.181 176.015 95.3906 173.63C95.6067 171.259 95.9725 168.904 96.486 166.579C96.5112 166.463 96.5781 166.361 96.6739 166.292C96.7698 166.222 96.8879 166.191 97.0056 166.203C97.1233 166.216 97.2322 166.271 97.3116 166.359C97.391 166.446 97.4352 166.56 97.4358 166.678C97.4615 169.06 97.3421 171.41 97.255 173.756C97.1543 176.098 97.0639 178.437 97.1389 180.76C97.2139 183.082 97.4046 185.396 97.921 187.582C98.1807 188.67 98.5268 189.729 99.0334 190.635L99.2257 190.97C99.2898 191.08 99.3692 191.176 99.4393 191.281C99.5751 191.496 99.7433 191.664 99.8999 191.848C99.9755 191.945 100.073 192.005 100.156 192.087C100.239 192.168 100.324 192.251 100.422 192.306L100.702 192.493C100.803 192.557 100.934 192.62 101.048 192.683C102.965 193.68 105.207 194.236 107.446 194.49C108.568 194.618 109.699 194.661 110.827 194.617C111.936 194.584 113.04 194.439 114.119 194.184C115.16 193.923 116.179 193.521 116.851 192.938C117.184 192.648 117.405 192.329 117.504 191.99C117.621 191.631 117.608 191.212 117.504 190.795C117.281 189.944 116.646 189.071 115.882 188.316C115.492 187.93 115.08 187.567 114.647 187.23C114.428 187.06 114.204 186.895 113.976 186.738C113.753 186.582 113.506 186.42 113.298 186.295C113.108 186.196 112.958 186.034 112.872 185.837C112.787 185.641 112.771 185.42 112.829 185.214L112.846 185.15C113.444 182.999 114.041 180.849 114.557 178.673C115.086 176.502 115.586 174.32 116.032 172.125C116.494 169.935 116.902 167.729 117.317 165.524C117.732 163.319 118.139 161.106 118.584 158.9V158.892C118.606 158.789 118.665 158.697 118.75 158.634C118.835 158.571 118.94 158.542 119.046 158.553C119.151 158.563 119.248 158.612 119.32 158.69C119.391 158.769 119.431 158.87 119.431 158.976L119.434 158.97Z" fill="#323232"/>
<path d="M135.473 108.13C135.473 108.13 136.021 111.465 135.752 114.682C135.752 114.682 138.447 112.703 139.86 114.946C141.215 117.097 138.473 122.727 135.964 124.216C135.964 124.216 140.92 123.779 138.805 129.412C136.851 134.617 128.043 137.796 128.043 137.796C128.043 137.796 116.75 148.557 97.0818 148.306C97.0818 148.306 94.025 148.556 89.943 148.294C85.8636 148.032 82.8638 147.394 82.8638 147.394C63.3255 145.125 53.5018 133.008 53.5018 133.008C53.5018 133.008 45.1733 128.73 43.9021 123.319C43.2662 120.615 43.9569 119.386 44.888 118.847C45.973 118.22 47.3828 118.529 47.3828 118.529C45.0857 116.731 43.086 110.797 44.7056 108.84C46.3947 106.795 48.8134 109.103 48.8134 109.103C48.9596 105.877 49.9296 102.639 49.9296 102.639C49.9296 102.639 42.0569 95.7536 42.1806 74.9817C42.2354 66.4713 43.8418 59.2785 45.7862 53.6749C45.7866 53.672 45.7878 53.6692 45.7895 53.6667C47.311 49.2779 49.0374 45.8636 50.3831 43.5463C51.1039 42.3031 52.2847 41.393 53.6709 41.0123C55.0571 40.6316 56.5374 40.8109 57.7925 41.5115C68.7795 47.6597 77.091 70.7166 77.091 70.7166C81.2536 69.6031 85.73 69.2495 89.1685 69.1712C92.5396 69.0962 94.9134 69.2889 95.0169 69.2982C95.0169 69.2982 104.638 69.7236 112.617 72.9972C112.617 72.9972 123.81 51.1918 135.494 46.5013C136.829 45.9653 138.321 45.9759 139.648 46.5307C140.975 47.0855 142.03 48.14 142.585 49.4663C144.949 55.0901 148.547 66.6229 146.698 81.6922C144.162 102.307 135.473 108.13 135.473 108.13Z" fill="#E4B740"/>
<path d="M80.4729 92.1812C81.2228 90.5432 80.0369 88.3948 77.8241 87.3827C75.6112 86.3705 73.2094 86.8779 72.4595 88.5159C71.7095 90.1538 72.8954 92.3022 75.1083 93.3143C77.3211 94.3265 79.7229 93.8192 80.4729 92.1812Z" fill="#FFFEFF"/>
<path d="M111.693 95.6659C114.017 94.945 115.468 92.9659 114.934 91.2455C114.4 89.5251 112.083 88.7148 109.759 89.4357C107.434 90.1566 105.983 92.1356 106.517 93.856C107.052 95.5765 109.369 96.3867 111.693 95.6659Z" fill="#FFFEFF"/>
<path d="M129.023 126.69C125.268 118.672 117.229 120.175 111.116 118.971C105.002 117.767 96.819 112.343 98.5443 91.8926C99.6397 78.9139 102.514 73.7943 103.27 70.3367C99.9361 69.8314 95.1211 69.3015 95.0171 69.2966C94.913 69.2917 90.0707 69.1969 86.699 69.2719C87.0074 72.798 89.2043 78.2433 88.6275 91.2548C87.7216 111.759 78.9117 116.096 72.6942 116.506C66.4766 116.916 58.6969 114.399 53.9467 121.871C50.6571 127.045 53.5008 133.01 53.5008 133.01C53.5008 133.01 63.3245 145.127 82.8629 147.396C82.8629 147.396 85.8627 148.034 89.942 148.297C94.0214 148.559 97.0776 148.308 97.0776 148.308C116.746 148.556 128.039 137.797 128.039 137.797C128.039 137.797 131.623 132.242 129.023 126.69Z" fill="white"/>
<g opacity="0.3">
<path opacity="0.3" d="M138.399 124.848C138.366 125.327 137.807 130.603 129.972 131.158C129.972 131.158 117.49 144.535 90.2981 142.789C63.1061 141.044 52.4384 126.184 52.4384 126.184C44.7387 124.632 44.8603 119.328 44.8882 118.848C43.9571 119.387 43.2653 120.616 43.9023 123.319C45.1736 128.731 53.502 133.009 53.502 133.009C53.502 133.009 63.3257 145.125 82.8641 147.395C82.8641 147.395 85.8639 148.033 89.9432 148.295H89.9481C94.0275 148.557 97.0842 148.307 97.0842 148.307C116.752 148.555 128.046 137.796 128.046 137.796C128.046 137.796 136.854 134.617 138.807 129.412C139.783 126.811 139.252 125.505 138.399 124.848Z" fill="#323232"/>
</g>
<g opacity="0.3">
<path opacity="0.3" d="M91.9537 117.109L87.422 116.819C87.422 116.819 87.7775 121.667 84.6835 121.683C82.8442 121.691 81.8436 120.15 81.3348 118.898C81.0253 118.136 79.9721 118.033 79.5366 118.734C79.0284 119.549 78.6603 120.704 79.0815 122.158C79.9775 125.261 83.2988 127.093 87.1262 125.625C90.9536 124.158 91.8705 121.036 91.9537 117.109Z" fill="#390565"/>
</g>
<g opacity="0.3">
<path opacity="0.3" d="M91.9537 117.109L96.4855 117.4C96.4855 117.4 95.5127 122.163 98.5815 122.574C100.404 122.818 101.594 121.418 102.259 120.24C102.664 119.524 103.721 119.558 104.064 120.306C104.463 121.182 104.679 122.37 104.077 123.76C102.791 126.723 99.2623 128.115 95.6546 126.169C92.0468 124.222 91.5336 121.016 91.9537 117.109Z" fill="#390565"/>
</g>
<g opacity="0.4">
<path opacity="0.4" d="M142.579 49.4664C142.025 48.1407 140.97 47.0865 139.644 46.5316C138.318 45.9766 136.826 45.9656 135.492 46.5009C123.808 51.1935 112.614 72.9968 112.614 72.9968C108.629 71.3605 104.234 70.4376 100.834 69.9202C97.4998 69.415 95.1211 69.3022 95.017 69.2984C94.9129 69.2945 92.5414 69.0963 89.1686 69.1741C85.7301 69.2524 81.2531 69.606 77.0911 70.7195C77.0911 70.7195 68.7796 47.6626 57.7926 41.5143C56.5378 40.8135 55.0577 40.6338 53.6716 41.014C52.2855 41.3942 51.1044 42.3037 50.3832 43.5464C49.0375 45.8637 47.3111 49.2781 45.7896 53.6669C45.9314 53.3532 50.5968 43.1758 54.9281 43.5924C59.1454 44.0019 68.4992 53.9904 74.2758 71.8735C74.4766 72.4942 74.8998 73.0189 75.4642 73.3465C76.0286 73.6741 76.6943 73.7816 77.3332 73.6483C80.282 73.0341 86.0576 72.243 94.7919 72.8036C103.526 73.3642 109.153 74.8871 111.999 75.8731C112.616 76.0869 113.29 76.0655 113.891 75.8129C114.493 75.5602 114.98 75.0942 115.259 74.5045C123.277 57.5066 133.829 48.7952 138.066 48.9293C142.415 49.0695 145.739 59.7571 145.844 60.0894C144.893 55.5429 143.618 51.9342 142.579 49.4664Z" fill="#FFFEFF"/>
</g>
<path d="M78.7399 106.258C79.2295 101.491 76.7906 97.3347 73.2925 96.9758C69.7944 96.617 66.5618 100.191 66.0722 104.959C65.5827 109.726 68.0215 113.882 71.5196 114.241C75.0177 114.6 78.2503 111.026 78.7399 106.258Z" fill="#323232"/>
<path d="M76.6565 104.466C76.8397 102.682 76.0152 101.136 74.8148 101.013C73.6145 100.89 72.4929 102.236 72.3097 104.02C72.1265 105.804 72.9511 107.351 74.1514 107.474C75.3517 107.597 76.4733 106.25 76.6565 104.466Z" fill="white"/>
<g opacity="0.35">
<path opacity="0.35" d="M69.5358 110.812C70.1305 110.706 70.4585 109.757 70.2684 108.692C70.0783 107.628 69.4422 106.851 68.8475 106.957C68.2528 107.063 67.9248 108.012 68.1149 109.077C68.305 110.141 68.9411 110.918 69.5358 110.812Z" fill="white"/>
</g>
<path d="M120.201 105.917C119.595 106.026 118.981 106.15 118.404 106.273C117.824 106.416 117.262 106.547 116.716 106.717C115.625 107.046 114.575 107.421 113.611 107.982C113.367 108.112 113.14 108.279 112.904 108.423C112.787 108.497 112.666 108.566 112.551 108.642L112.222 108.899C112.003 109.071 111.771 109.228 111.556 109.407C111.347 109.596 111.14 109.79 110.926 109.971C110.82 110.064 110.707 110.152 110.607 110.249L110.314 110.562C110.12 110.772 109.914 110.971 109.711 111.175C109.328 111.607 108.964 112.061 108.557 112.489L106.907 110.506L107.127 110.411C107.193 110.383 107.258 110.357 107.319 110.335C107.444 110.287 107.573 110.242 107.697 110.205C107.946 110.121 108.198 110.058 108.45 109.998C108.702 109.938 108.956 109.895 109.209 109.85C109.465 109.819 109.72 109.782 109.976 109.758C111.006 109.673 112.043 109.739 113.053 109.955L113.431 110.036C113.556 110.065 113.679 110.109 113.802 110.146C114.048 110.225 114.295 110.287 114.535 110.381C115.01 110.581 115.481 110.778 115.908 111.06C116.788 111.568 117.531 112.275 118.123 113.057C118.177 113.128 118.207 113.215 118.208 113.304C118.208 113.393 118.181 113.48 118.128 113.553C118.076 113.625 118.002 113.679 117.917 113.706C117.832 113.733 117.74 113.732 117.656 113.704L117.61 113.688C117.388 113.61 117.172 113.529 116.967 113.444C116.766 113.353 116.56 113.272 116.351 113.202C116.141 113.134 115.938 113.062 115.739 112.987C115.639 112.948 115.537 112.917 115.432 112.895L115.127 112.809C114.729 112.677 114.312 112.619 113.915 112.521C113.713 112.485 113.508 112.462 113.307 112.43C113.206 112.417 113.106 112.396 113.004 112.389L112.698 112.372C111.886 112.313 111.071 112.342 110.266 112.459L109.663 112.554C109.466 112.6 109.266 112.632 109.07 112.678C108.874 112.724 108.678 112.773 108.488 112.825C108.39 112.849 108.301 112.88 108.207 112.906C108.159 112.918 108.116 112.931 108.075 112.944L107.972 112.975C107.736 113.146 107.447 113.23 107.156 113.214C106.865 113.197 106.588 113.08 106.372 112.883C106.157 112.686 106.016 112.421 105.974 112.133C105.931 111.844 105.99 111.549 106.139 111.299L106.323 110.991C106.496 110.701 106.676 110.412 106.863 110.128C107.05 109.844 107.225 109.55 107.444 109.285C107.664 109.021 107.882 108.753 108.111 108.496L108.453 108.107C108.574 107.983 108.704 107.867 108.83 107.746C109.083 107.507 109.345 107.277 109.604 107.042C109.874 106.824 110.169 106.626 110.452 106.418L110.883 106.116C111.033 106.024 111.189 105.94 111.343 105.853C111.655 105.689 111.956 105.503 112.278 105.36L113.257 104.955C113.586 104.83 113.932 104.745 114.268 104.643C114.601 104.53 114.955 104.488 115.298 104.42C115.641 104.351 115.996 104.333 116.344 104.31C117.742 104.252 119.143 104.481 120.383 105.217C120.449 105.256 120.501 105.314 120.532 105.383C120.564 105.452 120.574 105.53 120.561 105.604C120.547 105.679 120.512 105.748 120.458 105.802C120.405 105.857 120.336 105.893 120.261 105.907L120.201 105.917Z" fill="#323232"/>
<path d="M92.2938 111.731C89.0514 111.523 86.9783 111.957 85.7629 112.395C85.5358 112.477 85.3277 112.605 85.1511 112.769C84.9745 112.934 84.8331 113.133 84.7355 113.353C84.6379 113.574 84.5861 113.812 84.5831 114.054C84.5802 114.295 84.6262 114.535 84.7185 114.758C86.2745 118.504 91.8102 119.256 91.8102 119.256C91.8102 119.256 97.3968 119.218 99.4189 115.701C99.539 115.491 99.6153 115.26 99.6434 115.02C99.6714 114.78 99.6505 114.538 99.5819 114.306C99.5134 114.075 99.3986 113.86 99.2445 113.674C99.0905 113.488 98.9003 113.335 98.6856 113.225C97.5365 112.635 95.5362 111.94 92.2938 111.731Z" fill="#323232"/>
<path d="M96.4385 113.868C96.4632 113.484 94.5721 113.05 92.2147 112.898C89.8573 112.747 87.9262 112.936 87.9016 113.321C87.8769 113.705 89.768 114.139 92.1254 114.29C94.4828 114.441 96.4139 114.252 96.4385 113.868Z" fill="white"/>
<path d="M92.9321 117.044C92.9086 117.952 92.8604 118.872 92.8226 119.77C92.8004 120.535 92.9297 121.296 93.2032 122.011C93.4789 122.722 93.8942 123.37 94.4246 123.917C94.9585 124.456 95.5997 124.876 96.3065 125.151L96.5711 125.252L96.8449 125.324C97.0269 125.377 97.2128 125.415 97.4009 125.439C97.5957 125.476 97.7931 125.498 97.9913 125.505L98.5888 125.52C99.3775 125.505 100.142 125.367 100.826 125.058C101.523 124.732 102.142 124.26 102.64 123.673C102.906 123.364 103.147 123.035 103.361 122.688C103.577 122.335 103.771 121.969 103.942 121.593L103.969 121.534C104.018 121.428 104.102 121.342 104.207 121.292C104.313 121.241 104.432 121.229 104.546 121.257C104.659 121.285 104.759 121.352 104.828 121.446C104.897 121.541 104.932 121.656 104.925 121.772C104.892 122.28 104.793 122.78 104.631 123.262C104.552 123.502 104.458 123.737 104.35 123.966C104.254 124.202 104.115 124.419 103.986 124.643C103.432 125.554 102.642 126.298 101.7 126.798C100.744 127.305 99.6799 127.515 98.6535 127.574L97.8834 127.582C97.6267 127.58 97.3704 127.56 97.1166 127.521C96.8516 127.492 96.5891 127.443 96.3312 127.375L95.9429 127.278L95.5655 127.144C94.5573 126.781 93.6424 126.199 92.8872 125.439C92.1384 124.679 91.5597 123.77 91.1893 122.77C90.816 121.774 90.6635 120.71 90.7424 119.649C90.8141 118.728 90.8881 117.829 90.9801 116.918C91.0047 116.666 91.1264 116.433 91.3195 116.268C91.5127 116.103 91.7622 116.02 92.0156 116.035C92.269 116.051 92.5065 116.164 92.6782 116.351C92.8498 116.538 92.9422 116.784 92.9359 117.038L92.9321 117.044Z" fill="#323232"/>
<path d="M92.932 117.044C92.9068 117.958 92.8652 118.859 92.818 119.781C92.761 120.843 92.4733 121.88 91.9751 122.821C91.4795 123.765 90.7887 124.593 89.9486 125.25C89.1021 125.907 88.1199 126.369 87.0731 126.6L86.6815 126.684L86.2839 126.731C86.0195 126.765 85.753 126.78 85.4864 126.775C85.2288 126.781 84.9711 126.768 84.7153 126.737L83.9523 126.631C82.9418 126.441 81.9137 126.097 81.0308 125.472C80.1599 124.856 79.4718 124.017 79.0394 123.042C78.9402 122.804 78.8296 122.571 78.7655 122.324C78.6865 122.084 78.6234 121.839 78.5765 121.59C78.4772 121.092 78.4434 120.582 78.4758 120.075C78.4838 119.959 78.5322 119.849 78.6128 119.764C78.6933 119.68 78.8009 119.626 78.9169 119.612C79.033 119.598 79.1501 119.626 79.2482 119.689C79.3463 119.753 79.419 119.848 79.454 119.96L79.4737 120.023C79.5958 120.418 79.7421 120.806 79.9119 121.183C80.0794 121.554 80.2763 121.911 80.5006 122.25C80.9192 122.896 81.4726 123.443 82.123 123.855C82.7621 124.25 83.5021 124.484 84.282 124.6L84.8768 124.662C85.0744 124.68 85.2731 124.683 85.4711 124.671C85.6607 124.672 85.8501 124.658 86.0374 124.628L86.3184 124.592L86.5923 124.525C87.3294 124.343 88.0199 124.007 88.6188 123.54C89.215 123.065 89.7098 122.475 90.074 121.805C90.4346 121.132 90.6589 120.395 90.734 119.636C90.8118 118.741 90.8814 117.823 90.975 116.918C91.0025 116.667 91.1258 116.436 91.3194 116.274C91.513 116.111 91.7618 116.03 92.014 116.046C92.2662 116.063 92.5024 116.176 92.6732 116.362C92.844 116.548 92.9363 116.793 92.9309 117.046L92.932 117.044Z" fill="#323232"/>
<path d="M91.8103 119.256C91.2626 127.788 100.19 126.337 100.19 126.337C100.19 126.337 98.5421 135.077 90.8244 134.582C83.1066 134.086 82.5918 125.208 82.5918 125.208C82.5918 125.208 91.262 127.788 91.8103 119.256Z" fill="#323232"/>
<path d="M91.205 128.673C86.8398 128.392 85.2898 131.964 85.2898 131.964C87.0874 134.26 90.8216 134.582 90.8216 134.582C90.8216 134.582 94.5696 134.74 96.646 132.694C96.6493 132.694 95.5708 128.954 91.205 128.673Z" fill="#F95877"/>
<path d="M91.4395 135.588C91.2204 135.588 90.9926 135.581 90.7626 135.565C83.971 135.128 81.8042 128.637 81.6082 125.265C81.5988 125.107 81.6277 124.949 81.6925 124.805C81.7573 124.66 81.856 124.533 81.9802 124.435C82.1045 124.336 82.2507 124.269 82.4063 124.24C82.562 124.21 82.7226 124.218 82.8745 124.263C82.9084 124.273 86.4647 125.29 88.77 123.677C89.998 122.817 90.6897 121.309 90.8261 119.193C90.8343 118.931 90.946 118.684 91.1367 118.505C91.3274 118.326 91.5814 118.23 91.8429 118.238C92.1044 118.246 92.3519 118.358 92.531 118.549C92.7101 118.739 92.806 118.993 92.7978 119.255C92.7978 119.276 92.7978 119.297 92.7978 119.319C92.662 121.435 93.1549 123.02 94.2635 124.027C96.3448 125.921 100 125.367 100.037 125.362C100.193 125.337 100.353 125.349 100.504 125.399C100.654 125.449 100.79 125.534 100.901 125.647C101.011 125.761 101.093 125.899 101.138 126.051C101.184 126.202 101.192 126.362 101.163 126.518C100.555 129.727 97.7541 135.587 91.4395 135.588ZM83.7607 126.446C84.2153 128.737 85.7603 133.268 90.8891 133.597C96.0375 133.925 98.1407 129.63 98.8779 127.416C97.2896 127.431 94.7701 127.151 92.9402 125.494C92.351 124.96 91.8724 124.315 91.5315 123.597C91.1015 124.266 90.5442 124.844 89.8912 125.298C87.869 126.71 85.3277 126.662 83.7607 126.447V126.446Z" fill="#323232"/>
<path d="M64.6888 77.4403C64.6094 77.3894 61.0668 75.1351 58.5474 76.5464C56.0027 77.9746 57.2006 83.668 57.2006 83.668C50.4188 82.4609 53.0325 90.8115 53.1152 91.0677C53.1152 91.0704 53.1152 91.0704 53.1152 91.0731C53.1152 91.0759 52.8348 93.9422 50.6248 93.8651C48.4148 93.7879 46.8182 92.7313 46.1883 77.8421C45.5585 62.953 50.1444 52.4504 50.9841 52.3601C51.8237 52.2698 53.1749 54.1513 53.1749 54.1513C58.7161 61.1519 64.5984 77.1869 64.6888 77.4403Z" fill="#FFC4AD"/>
<g opacity="0.3">
<path opacity="0.3" d="M64.6889 77.4405C64.6095 77.3895 61.0669 75.1352 58.5475 76.5465C56.0028 77.9748 57.2007 83.6681 57.2007 83.6681C50.419 82.461 53.0326 90.8116 53.1153 91.0678C46.177 75.0421 53.1783 54.1509 53.1783 54.1509C58.7162 61.152 64.5986 77.187 64.6889 77.4405Z" fill="#323232"/>
</g>
<path d="M51.412 52.0392C51.5314 52.0846 51.5966 52.1186 51.6793 52.1569C51.7566 52.192 51.8319 52.2313 51.9049 52.2746C52.0485 52.3532 52.188 52.4391 52.3228 52.5319C52.4537 52.6233 52.5912 52.7131 52.7166 52.81L53.0858 53.1072C53.3377 53.3043 53.5546 53.5227 53.7841 53.7373C54.0136 53.9519 54.2223 54.1791 54.4332 54.4063C55.2766 55.3183 55.998 56.3108 56.6788 57.3247C58.0206 59.3644 59.1829 61.4929 60.2526 63.6624L61.0139 65.3047C61.2653 65.8521 61.5315 66.3963 61.7555 66.9546L62.456 68.6205L62.806 69.4537L63.1346 70.2945L63.7869 71.9774C64.0022 72.539 64.2251 73.098 64.4201 73.6662L65.625 77.0603C65.6939 77.2547 65.6994 77.466 65.6407 77.6637C65.582 77.8614 65.4621 78.0355 65.2982 78.1608C65.1344 78.2862 64.935 78.3564 64.7287 78.3614C64.5224 78.3664 64.3198 78.3059 64.15 78.1886L64.121 78.1683C64.0569 78.1234 63.943 78.0512 63.8472 77.9926C63.7513 77.934 63.6434 77.8711 63.5372 77.8163C63.3268 77.7024 63.1105 77.5973 62.8914 77.5032C62.4649 77.313 62.018 77.1723 61.5594 77.0838C61.3359 77.0291 61.1168 77.022 60.8978 76.9952C60.6836 77.0012 60.464 76.982 60.2602 77.0209C60.0488 77.0307 59.8555 77.0964 59.6577 77.143C59.5618 77.1737 59.4678 77.2103 59.3762 77.2525C59.28 77.2848 59.188 77.3287 59.1024 77.3833L58.8395 77.5497C58.7447 77.5957 58.6899 77.6745 58.6105 77.7315C58.4462 77.841 58.3449 78.0052 58.2118 78.142C57.9847 78.477 57.82 78.8501 57.7254 79.2435C57.5343 80.0849 57.5792 81.0626 57.7736 82.0217C57.8191 82.262 57.8766 82.5029 57.9418 82.74C57.9725 82.8593 58.0091 82.9765 58.0442 83.0942L58.099 83.2677L58.1428 83.4051C58.1876 83.5618 58.1977 83.7263 58.1724 83.8873C58.1472 84.0483 58.0871 84.2019 57.9965 84.3373C57.9058 84.4728 57.7868 84.5869 57.6476 84.6717C57.5083 84.7565 57.3523 84.81 57.1903 84.8284C57.0712 84.8417 56.9507 84.8363 56.8332 84.8125L56.6645 84.7792C56.5501 84.7589 56.435 84.7403 56.3195 84.7244C56.0913 84.6949 55.8616 84.6794 55.6315 84.6779C55.1802 84.6779 54.7454 84.7326 54.3806 84.8635C54.0415 84.9799 53.7426 85.1905 53.519 85.4706C53.4077 85.6199 53.3157 85.7827 53.2452 85.955C53.1619 86.1612 53.0942 86.3733 53.0425 86.5895C52.9368 87.0365 52.8941 87.496 52.9155 87.9548C52.939 88.437 53.0045 88.9161 53.111 89.3869C53.219 89.8703 53.3598 90.3459 53.5322 90.8103L53.5497 90.8568C53.5909 90.9667 53.5915 91.0878 53.5514 91.1981C53.5112 91.3085 53.433 91.4009 53.3307 91.4586C53.2284 91.5164 53.1089 91.5358 52.9936 91.5133C52.8783 91.4907 52.7748 91.4278 52.7019 91.3358C52.3346 90.8746 52.0332 90.3646 51.8064 89.8205C51.5722 89.2729 51.4109 88.6971 51.3266 88.1076C51.2406 87.4958 51.2473 86.8747 51.3463 86.2649C51.3953 85.9531 51.4685 85.6456 51.5654 85.3452C51.6804 85.0133 51.8384 84.6978 52.0353 84.4069C52.4471 83.8108 53.031 83.3544 53.7091 83.0985C54.3532 82.8516 55.0011 82.7668 55.6222 82.7547C55.9299 82.7497 56.2376 82.7638 56.5435 82.7969C56.6952 82.8122 56.8464 82.833 56.997 82.8571L57.2243 82.8971C57.1399 82.8801 57.0535 82.8763 56.968 82.8856C56.8238 82.9025 56.6865 82.9565 56.5695 83.0422C56.4525 83.128 56.3597 83.2427 56.3003 83.375C56.2212 83.554 56.2071 83.7549 56.2603 83.9432C56.2817 84.01 56.2691 83.9684 56.268 83.9673L56.2592 83.941L56.2417 83.8863L56.1738 83.681C56.1305 83.5414 56.0867 83.4018 56.0494 83.2617C55.9695 82.9797 55.8999 82.6956 55.8452 82.4104C55.6129 81.2695 55.5165 80.0564 55.7904 78.7902C55.9427 78.1353 56.2174 77.5149 56.5999 76.9618C57.0118 76.414 57.5367 75.961 58.139 75.6337C58.2829 75.548 58.4345 75.476 58.5919 75.4185C58.7448 75.3501 58.9015 75.2905 59.0613 75.2401C59.3844 75.1558 59.7081 75.066 60.0357 75.0446C60.3643 74.9937 60.6847 75.0134 61.0078 75.0145C61.3217 75.0485 61.6421 75.0693 61.9422 75.1426C62.5397 75.2627 63.1218 75.4497 63.6774 75.6999C63.9512 75.8196 64.2185 75.9514 64.4792 76.0952C64.6112 76.1652 64.7388 76.2441 64.8681 76.3202C64.9974 76.3963 65.1151 76.474 65.2707 76.5846L63.7661 77.6926L62.582 74.3357C62.3908 73.7735 62.1706 73.2233 61.9592 72.6699L61.3222 71.0106L61.0007 70.1818L60.6579 69.3634L59.9721 67.726C59.7503 67.1785 59.4995 66.6431 59.2574 66.1039L58.5273 64.4901C57.4883 62.3753 56.44 60.2617 55.1972 58.28C54.5646 57.3017 53.9375 56.318 53.2348 55.407C53.0639 55.1749 52.8957 54.939 52.709 54.7255C52.5222 54.512 52.3557 54.2705 52.1613 54.0685L51.8787 53.7516C51.7839 53.6476 51.6826 53.5561 51.5851 53.4554C51.4909 53.3567 51.3916 53.263 51.2877 53.1746C51.2373 53.1297 51.1874 53.0804 51.1403 53.0454C51.0932 53.0103 51.0341 52.9605 51.0182 52.943L50.8928 52.8089C50.8214 52.7296 50.7786 52.6287 50.7712 52.5222C50.7638 52.4158 50.7921 52.3099 50.8518 52.2215C50.9115 52.133 50.999 52.067 51.1005 52.034C51.202 52.001 51.3117 52.0028 51.412 52.0392Z" fill="#323232"/>
<path d="M124.054 81.2489C124.14 81.209 127.943 79.426 130.26 81.1476C132.601 82.8896 130.685 88.3831 130.685 88.3831C137.565 88.0546 133.904 96.0001 133.789 96.2443C133.789 96.2443 133.789 96.2443 133.789 96.2492C133.789 96.2541 133.701 99.1304 135.902 99.3357C138.104 99.5409 139.823 98.6979 142.353 84.0124C144.884 69.3269 141.679 58.3234 140.858 58.1263C140.037 57.9292 138.454 59.6225 138.454 59.6225C132.062 65.8594 124.177 81.0108 124.054 81.2489Z" fill="#FFC4AD"/>
<g opacity="0.3">
<path opacity="0.3" d="M124.054 81.249C124.14 81.209 127.943 79.426 130.26 81.1477C132.601 82.8896 130.685 88.3831 130.685 88.3831C137.565 88.0547 133.904 96.0002 133.789 96.2443C142.721 81.2369 138.451 59.6208 138.451 59.6208C132.062 65.8594 124.177 81.0108 124.054 81.249Z" fill="#323232"/>
</g>
<path d="M140.749 58.706C140.731 58.7214 140.665 58.7608 140.615 58.792C140.565 58.8232 140.505 58.8631 140.451 58.9015C140.337 58.9759 140.227 59.0563 140.122 59.1423C140.013 59.2294 139.903 59.3066 139.793 59.3985L139.473 59.6766C139.253 59.8496 139.055 60.0653 138.844 60.2553C138.634 60.4452 138.434 60.656 138.235 60.8646C137.422 61.6781 136.674 62.5737 135.921 63.4627C134.436 65.2692 133.128 67.2302 131.825 69.1944L130.894 70.702C130.585 71.2056 130.268 71.7033 129.978 72.2195L129.089 73.7556L128.644 74.522L128.218 75.3054L127.376 76.8689C127.095 77.3906 126.807 77.909 126.545 78.4411L124.94 81.619L123.59 80.3276C123.758 80.2378 123.88 80.1825 124.022 80.1168C124.164 80.0511 124.296 79.9964 124.437 79.9438C124.715 79.8343 124.996 79.7374 125.283 79.6537C125.866 79.4775 126.467 79.3673 127.075 79.3252C127.382 79.2924 127.702 79.311 128.018 79.3175C128.339 79.3581 128.659 79.3794 128.978 79.4719C129.3 79.5349 129.61 79.6657 129.92 79.79C130.072 79.8609 130.219 79.94 130.362 80.027C130.511 80.1049 130.653 80.1965 130.784 80.3007C131.339 80.7012 131.802 81.2161 132.141 81.8106C132.449 82.4078 132.642 83.0579 132.709 83.7266C132.819 85.0153 132.567 86.2087 132.191 87.3101C132.098 87.5877 131.993 87.8576 131.879 88.1263C131.824 88.261 131.763 88.3935 131.702 88.5265L131.607 88.7258L131.583 88.7751L131.571 88.8002C131.571 88.8002 131.553 88.8408 131.582 88.7773C131.659 88.5987 131.671 88.3987 131.616 88.2121C131.561 88.0255 131.443 87.864 131.281 87.7557C131.128 87.652 130.944 87.603 130.76 87.6167L130.99 87.6057C131.143 87.6014 131.295 87.6003 131.447 87.6057C131.755 87.612 132.062 87.6372 132.367 87.6813C132.981 87.7722 133.613 87.9397 134.221 88.2665C134.86 88.607 135.38 89.1338 135.712 89.7769C135.87 90.0904 135.986 90.4234 136.058 90.7672C136.116 91.0774 136.149 91.3917 136.158 91.7071C136.179 92.3247 136.106 92.9419 135.942 93.5378C135.783 94.1116 135.549 94.6621 135.247 95.1751C134.952 95.6858 134.588 96.153 134.165 96.5634C134.081 96.6451 133.97 96.6942 133.853 96.7018C133.736 96.7094 133.62 96.675 133.526 96.6048C133.432 96.5346 133.366 96.4333 133.34 96.3189C133.314 96.2046 133.33 96.0848 133.385 95.981L133.409 95.9361C133.639 95.4984 133.839 95.0458 134.008 94.5812C134.174 94.1279 134.3 93.661 134.385 93.1858C134.465 92.734 134.481 92.2734 134.434 91.8172C134.411 91.5955 134.371 91.3759 134.314 91.1602C134.266 90.9802 134.195 90.807 134.103 90.6446C133.917 90.3385 133.647 90.0917 133.326 89.9329C132.981 89.7566 132.559 89.6444 132.109 89.5891C131.881 89.5606 131.651 89.5465 131.421 89.5469C131.305 89.5469 131.188 89.5502 131.072 89.5557L130.9 89.5672C130.781 89.5759 130.661 89.5659 130.544 89.5376C130.417 89.506 130.296 89.4527 130.187 89.38C129.969 89.2337 129.81 89.0159 129.735 88.7642C129.661 88.5125 129.678 88.2429 129.782 88.0021L129.843 87.8718L129.92 87.7076C129.97 87.5981 130.022 87.4842 130.067 87.3692C130.162 87.1426 130.25 86.9116 130.326 86.6789C130.642 85.7527 130.812 84.7886 130.73 83.9292C130.686 83.5262 130.57 83.1345 130.388 82.7724C130.274 82.6197 130.192 82.444 130.045 82.3142C129.974 82.2474 129.929 82.1626 129.841 82.1051L129.603 81.9135C129.525 81.8488 129.44 81.7936 129.349 81.7493C129.264 81.6949 129.175 81.6459 129.084 81.6026C128.893 81.5308 128.71 81.4411 128.501 81.4038C128.304 81.3392 128.085 81.3305 127.873 81.2943C127.654 81.2943 127.434 81.2719 127.205 81.2976C126.739 81.327 126.278 81.4095 125.83 81.5434C125.601 81.6086 125.373 81.6858 125.15 81.7717C125.037 81.8128 124.931 81.862 124.821 81.9069C124.712 81.9518 124.597 82.0098 124.528 82.046L124.501 82.0597C124.318 82.1558 124.109 82.1912 123.904 82.1608C123.699 82.1304 123.51 82.0358 123.362 81.8906C123.215 81.7453 123.118 81.5571 123.085 81.353C123.051 81.1489 123.084 80.9395 123.178 80.7551L124.807 77.5406C125.072 77.0019 125.366 76.4764 125.651 75.947L126.51 74.3594L126.943 73.5673L127.397 72.7861L128.304 71.2232C128.598 70.6976 128.932 70.1934 129.251 69.6816L130.216 68.1488C131.554 66.1342 132.98 64.1716 134.572 62.3202C135.378 61.4021 136.221 60.5098 137.174 59.7133C137.412 59.5146 137.646 59.3142 137.904 59.1325C138.161 58.9507 138.402 58.7602 138.677 58.5971L139.081 58.3491C139.218 58.2692 139.366 58.198 139.507 58.1241C139.648 58.0502 139.801 57.9851 139.954 57.9221C140.033 57.8887 140.112 57.8593 140.193 57.834C140.28 57.8071 140.349 57.7792 140.474 57.7513C140.579 57.7258 140.69 57.7366 140.788 57.7822C140.886 57.8277 140.966 57.9052 141.015 58.0019C141.063 58.0987 141.077 58.2091 141.055 58.315C141.033 58.4209 140.975 58.5161 140.892 58.585L140.749 58.706Z" fill="#323232"/>
<path d="M97.0873 147.895C99.8505 147.691 102.581 147.382 105.273 146.886C106.616 146.627 107.957 146.352 109.272 146C109.933 145.836 110.586 145.645 111.243 145.458C111.893 145.253 112.547 145.062 113.188 144.83C113.833 144.611 114.469 144.369 115.105 144.132C115.736 143.879 116.369 143.629 116.991 143.352C118.235 142.804 119.465 142.221 120.66 141.572C121.86 140.934 123.026 140.233 124.165 139.496C124.731 139.123 125.289 138.739 125.835 138.343C126.109 138.144 126.375 137.94 126.641 137.735C126.906 137.531 127.175 137.313 127.396 137.121L127.4 137.117C127.494 137.031 127.604 136.964 127.723 136.918C128.501 136.626 129.317 136.265 130.093 135.888C130.869 135.512 131.641 135.098 132.381 134.652C133.859 133.763 135.252 132.736 136.37 131.514C136.915 130.923 137.374 130.257 137.733 129.538C137.812 129.358 137.887 129.189 137.957 128.998C138.027 128.807 138.097 128.611 138.147 128.419C138.262 128.051 138.338 127.672 138.375 127.288C138.412 126.958 138.388 126.624 138.305 126.302C138.235 126.042 138.087 125.809 137.881 125.635C137.641 125.444 137.36 125.309 137.06 125.242C136.889 125.2 136.716 125.171 136.541 125.155C136.452 125.146 136.362 125.142 136.273 125.139C136.184 125.136 136.08 125.139 136.04 125.142H136.031C135.822 125.156 135.614 125.1 135.441 124.982C135.268 124.864 135.14 124.691 135.076 124.492C135.013 124.292 135.019 124.077 135.093 123.881C135.167 123.685 135.304 123.519 135.483 123.411C135.899 123.159 136.318 122.771 136.695 122.338C137.079 121.892 137.426 121.415 137.731 120.912C138.349 119.897 138.852 118.78 139.118 117.666C139.184 117.396 139.231 117.121 139.258 116.845C139.288 116.592 139.289 116.336 139.261 116.083C139.243 115.881 139.187 115.685 139.097 115.503C139.073 115.434 138.98 115.343 138.926 115.259L138.88 115.194L138.825 115.148C138.79 115.117 138.757 115.085 138.724 115.051C138.691 115.018 138.65 115.006 138.615 114.98C138.579 114.953 138.548 114.925 138.505 114.914C138.424 114.89 138.354 114.844 138.261 114.838C138.092 114.795 137.881 114.806 137.659 114.844C137.417 114.889 137.181 114.964 136.957 115.067C136.838 115.118 136.72 115.179 136.604 115.242C136.55 115.275 136.488 115.306 136.436 115.341C136.383 115.377 136.319 115.416 136.294 115.433L136.283 115.441C136.137 115.542 135.966 115.6 135.789 115.607C135.613 115.615 135.437 115.573 135.283 115.485C135.13 115.397 135.004 115.268 134.92 115.112C134.837 114.956 134.799 114.78 134.812 114.603C134.85 114.082 134.879 113.559 134.881 113.03C134.884 112.501 134.877 111.972 134.85 111.443C134.823 110.913 134.788 110.38 134.736 109.849C134.685 109.319 134.621 108.779 134.544 108.28C134.517 108.104 134.541 107.924 134.612 107.76C134.683 107.597 134.798 107.457 134.945 107.357C135.005 107.317 135.119 107.222 135.208 107.153C135.298 107.085 135.4 106.989 135.495 106.908C135.689 106.748 135.871 106.555 136.06 106.378C136.248 106.202 136.42 105.995 136.602 105.81L136.87 105.52L137.124 105.214L137.632 104.601L138.108 103.959C138.437 103.539 138.72 103.083 139.015 102.636C139.321 102.198 139.579 101.722 139.849 101.257L140.253 100.559L140.616 99.8354L140.981 99.1128L141.163 98.7514C141.218 98.6294 141.273 98.5035 141.327 98.3803L141.975 96.8913C142.089 96.646 142.179 96.3898 142.273 96.1352L142.555 95.3721L142.838 94.609L142.98 94.2258L143.1 93.836L143.583 92.278L143.822 91.4985L144.022 90.7058C144.28 89.647 144.582 88.5998 144.77 87.5224L145.088 85.9163C145.138 85.648 145.197 85.382 145.242 85.1115L145.361 84.3002C146.067 79.9864 146.357 75.6148 146.228 71.2455C146.132 69.0662 145.987 66.8857 145.681 64.725C145.383 62.5637 144.988 60.4156 144.476 58.2954C143.966 56.1765 143.337 54.0878 142.594 52.0393C142.398 51.5318 142.217 51.0178 142.007 50.5174C141.905 50.2705 141.803 50.0028 141.701 49.7729L141.551 49.4619C141.503 49.3574 141.434 49.2649 141.377 49.1652C140.885 48.3819 140.167 47.7669 139.316 47.4025C138.891 47.227 138.443 47.1118 137.986 47.0603C137.529 47.0169 137.067 47.0416 136.617 47.1337L136.282 47.212L135.953 47.3253C135.835 47.3657 135.719 47.4134 135.607 47.4682L135.25 47.628C134.768 47.8235 134.313 48.0983 133.847 48.3397C132.016 49.3968 130.327 50.7484 128.743 52.2194C127.161 53.6975 125.694 55.3129 124.296 56.9897C122.898 58.6665 121.577 60.4167 120.319 62.2128C119.061 64.009 117.854 65.8451 116.71 67.7184C115.566 69.5917 114.455 71.5028 113.447 73.421C113.338 73.6271 113.157 73.7858 112.939 73.8667C112.721 73.9475 112.48 73.9448 112.263 73.859C109.544 72.7641 106.685 71.9687 103.778 71.3884C97.9503 70.2216 91.9924 69.8395 86.0631 70.2525C83.1055 70.4567 80.1681 70.8815 77.3315 71.6178C77.1067 71.6762 76.8683 71.6494 76.6621 71.5426C76.4559 71.4357 76.2965 71.2564 76.2147 71.0391V71.0326C75.46 69.001 74.605 66.9591 73.7084 64.9599C72.8118 62.9606 71.8501 60.9805 70.8335 59.0377C69.817 57.0948 68.7259 55.1941 67.5577 53.3493C66.3894 51.5044 65.1368 49.7176 63.7577 48.0496C62.3785 46.3815 60.8718 44.8317 59.1914 43.5491C58.7598 43.2507 58.3447 42.9201 57.8912 42.6644L57.556 42.4591C57.4514 42.3903 57.3425 42.3281 57.2301 42.273L56.9212 42.1192L56.5991 41.9987C56.1648 41.8497 55.7107 41.7662 55.2518 41.7508C54.7917 41.7434 54.3328 41.8003 53.8885 41.9199C52.9987 42.1735 52.2072 42.6919 51.6194 43.4062C51.5504 43.4982 51.4698 43.5808 51.4085 43.6799L51.2201 43.9695C51.0897 44.1847 50.9539 44.4365 50.8214 44.6686C50.5475 45.1383 50.3043 45.625 50.0453 46.1029C49.0424 48.0381 48.149 50.0281 47.3692 52.0634C46.5903 54.1009 45.9243 56.1806 45.3525 58.2861C44.7714 60.3899 44.3491 62.5336 43.9745 64.6834C43.2877 69.0002 43.0165 73.3729 43.1644 77.7414L43.1786 78.5625C43.1858 78.8363 43.2126 79.1072 43.2285 79.3799L43.338 81.014C43.3857 82.1061 43.5522 83.1835 43.6721 84.2668L43.7691 85.0781L43.9049 85.879L44.1837 87.4863L44.2538 87.8881L44.3453 88.2845L44.5282 89.0777L44.7106 89.8709C44.7714 90.1353 44.8278 90.4009 44.9094 90.6587L45.3613 92.2178C45.3996 92.3475 45.4346 92.4789 45.4757 92.607L45.6105 92.9902L45.8816 93.7539L46.15 94.5176L46.4605 95.2621C46.6692 95.7581 46.8653 96.2601 47.1112 96.7358C47.3472 97.2164 47.5702 97.7053 47.8418 98.164L48.2318 98.8626L48.6568 99.5348L48.8699 99.8704L49.0983 100.192C49.2549 100.402 49.3968 100.63 49.5638 100.825C49.7309 101.021 49.8837 101.24 50.0568 101.423C50.1417 101.516 50.2255 101.617 50.3098 101.703C50.3941 101.79 50.4911 101.891 50.5442 101.938C50.6775 102.056 50.7746 102.209 50.8243 102.38C50.874 102.551 50.8743 102.733 50.8252 102.904V102.908C50.685 103.394 50.5513 103.924 50.433 104.44C50.3147 104.957 50.2096 105.481 50.1165 106.007C50.0233 106.533 49.9456 107.055 49.882 107.579C49.8185 108.103 49.7785 108.627 49.7495 109.148C49.7395 109.324 49.6798 109.495 49.5771 109.639C49.4745 109.783 49.3332 109.895 49.1695 109.962C49.0058 110.029 48.8265 110.049 48.6521 110.019C48.4778 109.989 48.3155 109.91 48.1841 109.791L48.1732 109.781C48.1513 109.761 48.0916 109.709 48.045 109.672C47.9985 109.634 47.9415 109.592 47.89 109.551C47.7832 109.474 47.6742 109.399 47.5614 109.332C47.3524 109.202 47.1282 109.097 46.8937 109.021C46.6747 108.956 46.4698 108.917 46.2962 108.939C46.2036 108.933 46.128 108.969 46.0453 108.982C46.0026 108.987 45.9692 109.02 45.9292 109.034C45.8892 109.048 45.8487 109.057 45.8131 109.089C45.7775 109.12 45.7392 109.143 45.7036 109.172L45.6444 109.21L45.5897 109.269C45.5256 109.345 45.4215 109.424 45.3892 109.488C45.2768 109.657 45.1966 109.845 45.1526 110.043C45.0935 110.29 45.0619 110.544 45.0584 110.798C45.0498 111.077 45.0611 111.355 45.0923 111.632C45.2139 112.771 45.5688 113.943 46.0525 115.026C46.2912 115.564 46.5739 116.081 46.8976 116.573C47.2158 117.05 47.5822 117.489 47.9618 117.792C48.1259 117.922 48.2414 118.104 48.2895 118.309C48.3377 118.513 48.3157 118.727 48.2272 118.917C48.1387 119.107 47.9888 119.262 47.8015 119.357C47.6143 119.451 47.4007 119.48 47.195 119.439H47.1851C47.1457 119.431 47.0351 119.414 46.954 119.406C46.8729 119.398 46.776 119.39 46.6862 119.388C46.511 119.381 46.3356 119.388 46.1615 119.408C45.856 119.437 45.561 119.534 45.2988 119.693C45.0725 119.84 44.8964 120.052 44.7938 120.301C44.6697 120.608 44.6034 120.935 44.5983 121.266C44.5852 121.651 44.6121 122.037 44.6788 122.416C44.7046 122.613 44.7528 122.814 44.7933 123.014C44.8338 123.215 44.8913 123.39 44.9466 123.578C45.2101 124.338 45.58 125.056 46.0453 125.713C46.9984 127.065 48.2488 128.264 49.6005 129.335C50.2769 129.872 50.9857 130.375 51.7108 130.854C52.436 131.333 53.194 131.793 53.928 132.184C54.0344 132.239 54.1296 132.313 54.2084 132.403L54.2259 132.424C54.4176 132.646 54.6586 132.904 54.8864 133.14C55.1143 133.377 55.3597 133.617 55.5985 133.852C56.081 134.324 56.5843 134.783 57.0932 135.228C58.1196 136.116 59.1892 136.958 60.2901 137.758C62.5015 139.356 64.8423 140.766 67.2882 141.974C68.5107 142.581 69.7584 143.135 71.0312 143.636C72.2986 144.15 73.5951 144.59 74.903 144.993C75.5602 145.184 76.2126 145.397 76.8747 145.564L77.8661 145.842C78.1991 145.925 78.5326 146.006 78.8651 146.096C79.1976 146.187 79.5306 146.273 79.8663 146.348L80.8719 146.595C81.5428 146.765 82.2204 146.901 82.8946 147.088L82.9088 147.092C82.9817 147.112 83.0447 147.158 83.0861 147.221C83.1275 147.285 83.1446 147.361 83.1341 147.436C83.1235 147.51 83.0862 147.579 83.029 147.628C82.9717 147.678 82.8985 147.705 82.8228 147.704C82.119 147.699 81.4136 147.676 80.7109 147.625C80.0104 147.555 79.3044 147.506 78.6082 147.391C77.2088 147.201 75.8264 146.898 74.4582 146.542C73.0977 146.17 71.7422 145.76 70.414 145.268C69.0781 144.796 67.7718 144.242 66.4869 143.642C65.8417 143.347 65.2107 143.023 64.5776 142.702C63.9532 142.366 63.3288 142.028 62.7181 141.666C61.4929 140.949 60.2973 140.18 59.1449 139.348C57.988 138.519 56.8757 137.629 55.8126 136.683C55.2819 136.207 54.7594 135.721 54.2527 135.215C53.999 134.961 53.7505 134.702 53.5073 134.437C53.2603 134.163 53.0314 133.909 52.7772 133.597L53.0757 133.84C52.2279 133.391 51.4616 132.922 50.6855 132.417C49.9094 131.911 49.1662 131.376 48.4399 130.801C46.9923 129.651 45.6225 128.357 44.5107 126.782C43.9408 125.976 43.4891 125.092 43.1693 124.159C43.097 123.919 43.0236 123.666 42.9705 123.428C42.9174 123.191 42.8664 122.956 42.8325 122.709C42.7466 122.208 42.7126 121.698 42.7312 121.19C42.7454 120.625 42.8654 120.068 43.085 119.547C43.3353 118.968 43.751 118.476 44.2801 118.131C44.7809 117.816 45.3473 117.621 45.9358 117.559C46.206 117.527 46.4783 117.516 46.7502 117.526C46.8844 117.53 47.0175 117.541 47.1512 117.554C47.293 117.571 47.4042 117.584 47.5839 117.62L46.8078 119.264C46.1856 118.765 45.7359 118.196 45.341 117.613C44.9597 117.035 44.6268 116.426 44.3458 115.793C44.065 115.169 43.8291 114.525 43.6398 113.867C43.4437 113.2 43.3073 112.516 43.2323 111.825C43.1921 111.465 43.1776 111.103 43.189 110.741C43.1961 110.355 43.2457 109.971 43.3369 109.596C43.4374 109.168 43.6175 108.764 43.8677 108.403L43.9734 108.26C44.009 108.216 44.0462 108.18 44.0829 108.141L44.3069 107.91L44.4208 107.797L44.5572 107.696L44.8349 107.499C44.9335 107.437 45.0372 107.383 45.1449 107.338C45.2507 107.285 45.3606 107.24 45.4735 107.204C45.7019 107.144 45.9331 107.08 46.1636 107.076C46.6297 107.035 47.0652 107.12 47.4573 107.24C47.833 107.36 48.1928 107.526 48.5287 107.733C48.693 107.831 48.8474 107.937 48.9997 108.048C49.0747 108.103 49.1503 108.157 49.2242 108.222C49.2982 108.287 49.3639 108.337 49.4603 108.426L47.884 109.06C47.9152 108.487 47.9574 107.917 48.0275 107.354C48.0976 106.791 48.1776 106.231 48.2773 105.676C48.3769 105.121 48.487 104.57 48.6125 104.021C48.7379 103.473 48.8721 102.936 49.0358 102.369L49.3152 103.338C49.1624 103.201 49.0764 103.104 48.9602 102.989C48.8441 102.873 48.7587 102.765 48.6568 102.653C48.4509 102.434 48.2805 102.197 48.0932 101.969C47.9059 101.74 47.7487 101.499 47.5751 101.265L47.3231 100.909L47.0909 100.544L46.6292 99.8129L46.208 99.064C45.9155 98.5713 45.6778 98.0496 45.4264 97.5367C45.1641 97.0276 44.9565 96.4966 44.7358 95.9738L44.4072 95.1854L44.124 94.3829L43.8419 93.5804L43.7006 93.1791C43.6573 93.0439 43.6206 92.9054 43.5807 92.7718L43.108 91.1415C43.0231 90.8711 42.9639 90.5941 42.9004 90.3204L42.7104 89.4954L42.5208 88.6704L42.4261 88.2576L42.3538 87.8416L42.0646 86.1768L41.9222 85.3447L41.8236 84.5072C41.6987 83.3909 41.5284 82.2764 41.4786 81.1558L41.3657 79.4762C41.3493 79.1965 41.3219 78.9162 41.3148 78.6364L41.3 77.7961C41.1485 73.3091 41.4275 68.8178 42.1331 64.384C42.5165 62.1723 42.9546 59.9672 43.5505 57.8016C44.1393 55.6348 44.8256 53.4933 45.628 51.3966C46.4321 49.2947 47.3539 47.2396 48.389 45.2412C48.6568 44.7485 48.9099 44.2432 49.193 43.7549C49.3354 43.5069 49.4614 43.2704 49.6175 43.012L49.8815 42.6053C49.9697 42.4701 50.0792 42.3491 50.1778 42.2221C50.995 41.2121 52.1386 40.484 53.3802 40.126C54.0064 39.9549 54.6537 39.8741 55.3027 39.8862C55.9521 39.9071 56.5948 40.025 57.2093 40.236L57.6644 40.4084L58.0998 40.6225C58.2358 40.69 58.3678 40.7651 58.4953 40.8475L58.8705 41.0763C59.382 41.3686 59.8372 41.7272 60.3148 42.0617C62.1578 43.4692 63.7456 45.1241 65.1943 46.8627C66.643 48.6014 67.9268 50.4583 69.1318 52.3513C70.3367 54.2443 71.4458 56.1916 72.4838 58.1711C73.5217 60.1506 74.4977 62.1603 75.4091 64.1973C76.3204 66.2343 77.1814 68.2822 77.9685 70.4014L76.8495 69.8156C79.8411 69.0383 82.8864 68.6025 85.9322 68.3923C92.0294 67.9679 98.1561 68.3612 104.149 69.5616C107.143 70.1605 110.107 70.9849 112.975 72.1346L111.79 72.5725C112.842 70.5711 113.954 68.6534 115.122 66.7461C116.291 64.8389 117.514 62.9754 118.792 61.1437C120.07 59.312 121.427 57.5268 122.861 55.8002C124.295 54.0735 125.814 52.4061 127.469 50.8601C129.124 49.3141 130.915 47.8826 132.923 46.722C133.439 46.4532 133.936 46.156 134.481 45.9315L134.882 45.7525C135.019 45.6871 135.16 45.6296 135.303 45.5801L135.763 45.423L136.236 45.3107C136.872 45.1798 137.525 45.1449 138.171 45.2073C138.816 45.278 139.448 45.4406 140.046 45.6901C141.233 46.2036 142.274 47.0718 142.956 48.1771C143.037 48.3167 143.13 48.4508 143.201 48.5959L143.41 49.0338C143.532 49.3103 143.629 49.5605 143.739 49.8249C143.958 50.345 144.144 50.876 144.346 51.4021C145.117 53.5153 145.769 55.6701 146.298 57.8563C146.822 60.041 147.236 62.2505 147.538 64.4765C147.854 66.7007 148.004 68.9435 148.102 71.1858C148.235 75.6747 147.937 80.166 147.212 84.598L147.09 85.4296C147.047 85.7033 146.984 85.9803 146.932 86.2557L146.603 87.9067C146.411 89.0126 146.099 90.0965 145.832 91.187L145.628 92.0021L145.38 92.8096L144.88 94.424L144.755 94.8274L144.608 95.2243L144.315 96.0181L144.02 96.8119C143.922 97.0768 143.828 97.3429 143.709 97.6002L143.032 99.1565C142.978 99.2857 142.923 99.4166 142.861 99.5452L142.67 99.9251L142.286 100.685L141.903 101.445L141.476 102.184C141.191 102.677 140.917 103.175 140.592 103.647C140.277 104.123 139.975 104.607 139.621 105.061L139.109 105.753L138.557 106.419L138.28 106.752L137.984 107.071C137.782 107.282 137.601 107.503 137.382 107.704C137.163 107.904 136.968 108.116 136.735 108.31C136.62 108.408 136.516 108.507 136.391 108.604C136.266 108.701 136.164 108.789 135.994 108.906L136.395 107.98C136.486 108.563 136.549 109.108 136.604 109.672C136.659 110.237 136.698 110.794 136.724 111.357C136.751 111.919 136.762 112.486 136.757 113.054C136.752 113.622 136.724 114.192 136.682 114.764L135.2 113.934C135.306 113.858 135.374 113.815 135.46 113.762C135.545 113.709 135.624 113.665 135.705 113.618C135.869 113.527 136.037 113.442 136.212 113.366C136.571 113.203 136.95 113.085 137.338 113.013C137.742 112.943 138.185 112.914 138.642 113.013C138.87 113.046 139.091 113.139 139.31 113.228C139.417 113.278 139.519 113.336 139.617 113.402C139.718 113.461 139.814 113.527 139.904 113.602L140.154 113.832L140.276 113.95L140.374 114.077L140.567 114.334C140.598 114.379 140.631 114.418 140.661 114.467L140.747 114.623C140.95 115.011 141.077 115.435 141.123 115.87C141.165 116.254 141.165 116.642 141.123 117.025C141.088 117.386 141.027 117.743 140.942 118.095C140.779 118.771 140.556 119.432 140.276 120.069C140.003 120.698 139.686 121.308 139.327 121.892C138.967 122.484 138.559 123.045 138.107 123.569C137.641 124.098 137.121 124.605 136.441 125.02L135.882 123.289C136.065 123.275 136.177 123.277 136.32 123.279C136.463 123.28 136.588 123.289 136.722 123.302C136.993 123.327 137.261 123.373 137.525 123.439C138.101 123.575 138.637 123.842 139.094 124.218C139.574 124.627 139.924 125.169 140.098 125.776C140.249 126.32 140.297 126.888 140.239 127.45C140.192 127.957 140.093 128.458 139.943 128.945C139.879 129.185 139.794 129.41 139.715 129.64C139.635 129.87 139.526 130.11 139.424 130.339C138.988 131.224 138.426 132.042 137.758 132.769C136.453 134.189 134.929 135.298 133.347 136.252C132.554 136.731 131.741 137.164 130.914 137.566C130.088 137.969 129.26 138.333 128.362 138.673L128.691 138.471C128.402 138.751 128.143 138.979 127.869 139.221C127.595 139.462 127.317 139.683 127.037 139.908C126.477 140.355 125.899 140.775 125.314 141.184C124.141 141.995 122.927 142.744 121.676 143.428C119.176 144.79 116.552 145.91 113.84 146.775C112.486 147.204 111.116 147.588 109.729 147.886C109.037 148.045 108.338 148.167 107.641 148.296C107.293 148.365 106.94 148.406 106.59 148.457C106.24 148.508 105.89 148.566 105.537 148.597C102.723 148.919 99.8845 148.99 97.0819 148.726C96.9762 148.718 96.8773 148.671 96.8053 148.594C96.7333 148.516 96.6937 148.414 96.6944 148.308C96.6951 148.202 96.7361 148.101 96.8091 148.024C96.8821 147.947 96.9816 147.901 97.0873 147.895Z" fill="#323232"/>
<path d="M158.844 78.5631C157.525 76.4122 156.952 73.887 157.214 71.378C157.864 65.0409 163.532 60.4293 169.872 61.0818C176.213 61.7343 180.826 67.397 180.174 73.7341C179.521 80.0713 173.855 84.6829 167.515 84.0303C165.811 83.8573 164.166 83.3057 162.703 82.4159L157.362 83.6132L158.844 78.5631Z" fill="#0BA011"/>
<g opacity="0.5">
<path opacity="0.5" d="M169.646 63.2886C163.723 62.681 158.389 66.6641 157.181 72.3569C157.178 71.9459 157.198 71.5351 157.239 71.1263C157.89 64.7891 163.558 60.1775 169.898 60.8301C176.238 61.4826 180.852 67.1453 180.199 73.4824C180.157 73.893 180.092 74.3011 180.007 74.7049C179.984 68.8829 175.57 63.8968 169.646 63.2886Z" fill="white"/>
</g>
<path d="M168.703 85.0704C168.273 85.0705 167.843 85.0485 167.415 85.0047C165.7 84.8326 164.04 84.3052 162.54 83.456L157.576 84.5689C157.41 84.6063 157.237 84.5995 157.074 84.5493C156.911 84.4992 156.763 84.4073 156.647 84.2829C156.53 84.1585 156.448 84.0058 156.409 83.84C156.369 83.6741 156.374 83.5008 156.422 83.3372L157.784 78.6944C156.508 76.4439 155.968 73.8505 156.24 71.2777C156.945 64.4134 163.105 59.4011 169.973 60.11C171.609 60.2778 173.195 60.7659 174.642 61.5466C176.089 62.3273 177.368 63.3851 178.406 64.6598C179.444 65.9345 180.22 67.4011 180.691 68.9757C181.161 70.5503 181.317 72.2022 181.149 73.837C180.488 80.2656 175.036 85.0699 168.703 85.0704ZM162.703 81.4365C162.883 81.4366 163.059 81.486 163.212 81.5794C164.551 82.3956 166.055 82.9008 167.615 83.0575C173.408 83.6514 178.604 79.4252 179.199 73.6356C179.371 71.9688 179.143 70.2851 178.534 68.7238C177.926 67.1625 176.954 65.7685 175.7 64.657C174.445 63.5455 172.944 62.7484 171.32 62.3318C169.697 61.9152 167.997 61.8909 166.362 62.261C164.727 62.6311 163.203 63.3849 161.918 64.4602C160.632 65.5354 159.621 66.9011 158.968 68.4444C158.315 69.9876 158.039 71.6641 158.163 73.3351C158.287 75.0061 158.807 76.6236 159.68 78.0539C159.751 78.1705 159.797 78.3008 159.815 78.4363C159.833 78.5717 159.823 78.7094 159.784 78.8406L158.77 82.2949L162.488 81.4617C162.559 81.4455 162.631 81.437 162.703 81.4365Z" fill="#323232"/>
<g opacity="0.3">
<path opacity="0.3" d="M158.778 78.4526C160.479 79.8932 162.513 80.8848 164.696 81.3366C166.878 81.7884 169.139 81.686 171.272 81.0388C173.405 80.3916 175.341 79.2202 176.904 77.6317C178.467 76.0433 179.607 74.0886 180.218 71.9463C180.25 72.5425 180.235 73.1403 180.174 73.7342C179.522 80.0713 173.855 84.6829 167.515 84.0304C165.811 83.8574 164.166 83.3058 162.703 82.416L157.362 83.6133L158.844 78.5632C158.821 78.527 158.8 78.4892 158.778 78.4526Z" fill="#390565"/>
</g>
<path d="M165.003 69.3168C166.002 68.3189 167.621 68.4957 168.618 69.4958L168.774 69.6513L168.929 69.4958C169.928 68.4979 171.547 68.3189 172.544 69.3168C173.023 69.7961 173.292 70.4459 173.292 71.1234C173.292 71.8009 173.023 72.4506 172.544 72.9299L172.389 73.0848L169.249 76.2233C169.187 76.2859 169.112 76.3355 169.03 76.3694C168.949 76.4033 168.861 76.4207 168.772 76.4207C168.684 76.4207 168.596 76.4033 168.514 76.3694C168.432 76.3355 168.358 76.2859 168.296 76.2233L165.156 73.0848L165 72.9299C164.522 72.4501 164.253 71.8001 164.254 71.1227C164.255 70.4453 164.524 69.7958 165.003 69.3168Z" fill="white"/>
</g>
<defs>
<clipPath id="clip0_2_10728">
<rect width="144.211" height="162.114" fill="white" transform="translate(37.0039 39.8862)"/>
</clipPath>
</defs>
</svg>
