<svg width="24" height="24" viewBox="0 0 24 24" fill="none" xmlns="http://www.w3.org/2000/svg">
<path d="M3.61471 17.0769C3.35753 20.3374 5.69362 23 8.80127 23H13.9342C17.4277 23 19.8281 20.0328 19.2494 16.4C18.6386 12.5867 15.1452 9.46154 11.4696 9.46154C7.48319 9.46154 3.94691 12.8913 3.61471 17.0769Z" stroke="#323232" stroke-width="1.5" stroke-linecap="round" stroke-linejoin="round"/>
<path d="M10.1086 6.64103C11.5882 6.64103 12.7876 5.37824 12.7876 3.82051C12.7876 2.26279 11.5882 1 10.1086 1C8.62905 1 7.42961 2.26279 7.42961 3.82051C7.42961 5.37824 8.62905 6.64103 10.1086 6.64103Z" stroke="#323232" stroke-width="1.5" stroke-linecap="round" stroke-linejoin="round"/>
<path d="M17.4277 7.99487C18.6113 7.99487 19.5709 6.98464 19.5709 5.73846C19.5709 4.49228 18.6113 3.48205 17.4277 3.48205C16.244 3.48205 15.2845 4.49228 15.2845 5.73846C15.2845 6.98464 16.244 7.99487 17.4277 7.99487Z" stroke="#323232" stroke-width="1.5" stroke-linecap="round" stroke-linejoin="round"/>
<path d="M21.3926 12.5077C22.2803 12.5077 23 11.75 23 10.8154C23 9.88075 22.2803 9.12308 21.3926 9.12308C20.5049 9.12308 19.7852 9.88075 19.7852 10.8154C19.7852 11.75 20.5049 12.5077 21.3926 12.5077Z" stroke="#323232" stroke-width="1.5" stroke-linecap="round" stroke-linejoin="round"/>
<path d="M3.1432 10.2513C4.32686 10.2513 5.28641 9.24105 5.28641 7.99487C5.28641 6.74869 4.32686 5.73846 3.1432 5.73846C1.95955 5.73846 1 6.74869 1 7.99487C1 9.24105 1.95955 10.2513 3.1432 10.2513Z" stroke="#323232" stroke-width="1.5" stroke-linecap="round" stroke-linejoin="round"/>
</svg>
