<svg width="24" height="24" viewBox="0 0 24 24" fill="none" xmlns="http://www.w3.org/2000/svg">
<path d="M3.11111 5.35294V3.11765C3.11111 2.50039 3.60857 2 4.22222 2H19.7778C20.3914 2 20.8889 2.50039 20.8889 3.11765V5.35294M3.11111 5.35294H20.8889M3.11111 5.35294C2.49746 5.35294 2 5.85333 2 6.47059V18.7647C2 19.9992 2.99492 21 4.22222 21H19.7778C21.0051 21 22 19.9992 22 18.7647V6.47059C22 5.85333 21.5025 5.35294 20.8889 5.35294M16.4444 9.82353C16.4444 12.2926 14.4546 14.2941 12 14.2941C9.5454 14.2941 7.55556 12.2926 7.55556 9.82353" stroke="#323232" stroke-width="1.5" stroke-linecap="round" stroke-linejoin="round"/>
</svg>
