<svg width="41" height="41" viewBox="0 0 41 41" fill="none" xmlns="http://www.w3.org/2000/svg">
<path d="M9.13045 25.3726H8.25774C6.81806 25.3726 5.65096 26.5397 5.65096 27.9794C5.65096 29.4191 6.81806 30.5862 8.25774 30.5862H33.6637C35.1034 30.5862 36.2705 29.4191 36.2705 27.9794C36.2705 26.5397 35.1034 25.3726 33.6637 25.3726H32.791M20.9955 6.57077L20.9781 6.596M20.9781 6.596L17.9642 9.38938C17.8519 9.49344 17.7545 9.61231 17.6543 9.72802C17.2359 10.211 16.6152 10.4793 15.9686 10.4458L14.1838 10.3535C11.3983 10.2094 9.06084 10.7625 9.06084 13.5516M20.9781 6.596L20.9607 6.57077M20.9781 6.596L23.9921 9.38938C24.1043 9.49344 24.2017 9.61231 24.3019 9.72802C24.7203 10.211 25.341 10.4793 25.9876 10.4458L27.7724 10.3535C30.5579 10.2094 32.8954 10.7625 32.8954 13.5516M21.0303 6.91865V13.4288M9.75681 18.9646V20.6695M32.2343 18.9646V20.6695M9.89598 30.5863H32.0951C32.0951 33.8916 29.4157 34.9043 26.1104 34.9043H15.8807C12.5754 34.9043 9.89598 33.8916 9.89598 30.5863ZM15.5327 19.6607C15.5327 22.8122 12.9779 25.3671 9.82636 25.3671C6.67482 25.3671 4.12 22.8122 4.12 19.6607C4.12 16.5092 6.67482 13.9543 9.82636 13.9543C12.9779 13.9543 15.5327 16.5092 15.5327 19.6607ZM37.8711 19.6606C37.8711 22.8122 35.3162 25.367 32.1647 25.367C29.0132 25.367 26.4583 22.8122 26.4583 19.6606C26.4583 16.5091 29.0132 13.9543 32.1647 13.9543C35.3162 13.9543 37.8711 16.5091 37.8711 19.6606Z" stroke="#323232" stroke-width="2" stroke-linecap="round"/>
<path d="M20.0039 24.9041C20.0039 25.2301 19.7304 25.5162 19.366 25.5162C19.0015 25.5162 18.728 25.2301 18.728 24.9041C18.728 24.578 19.0015 24.292 19.366 24.292C19.7304 24.292 20.0039 24.578 20.0039 24.9041ZM23.2281 24.9041C23.2281 25.2301 22.9546 25.5162 22.5901 25.5162C22.2257 25.5162 21.9522 25.2301 21.9522 24.9041C21.9522 24.578 22.2257 24.292 22.5901 24.292C22.9546 24.292 23.2281 24.578 23.2281 24.9041Z" stroke="#323232" stroke-width="1.22416"/>
</svg>
