<svg width="239" height="165" viewBox="0 0 239 165" fill="none" xmlns="http://www.w3.org/2000/svg">
<path d="M220.015 160.598C216.941 162.181 213.217 162.08 210.358 160.135C210.092 159.952 209.825 159.75 209.571 159.527C208.111 158.272 206.935 156.393 206.695 153.582L207.316 147.781C214.381 145.883 219.058 141.201 221.558 133.988C221.864 133.113 222.135 132.204 222.375 131.255C223.044 128.615 226.603 128.068 227.971 130.425C233.283 139.562 233.183 153.805 220.015 160.598Z" fill="#E4B740"/>
<g opacity="0.55">
<path opacity="0.55" d="M221.563 159.728C230.114 152.318 229.585 140.541 224.973 132.611C224.391 131.606 223.403 131.128 222.42 131.115C223.171 128.597 226.63 128.112 227.971 130.425C233.064 139.19 233.183 152.65 221.562 159.728H221.563Z" fill="white"/>
</g>
<path d="M215.511 163.234C213.381 163.234 211.285 162.618 209.498 161.399C206.948 159.662 205.452 157.003 205.169 153.712C205.097 152.87 205.721 152.128 206.562 152.056C207.404 151.986 208.145 152.607 208.218 153.449C208.425 155.86 209.408 157.634 211.222 158.87C213.561 160.464 216.661 160.606 219.312 159.238C224.227 156.703 227.568 152.817 228.974 148.001C230.533 142.661 229.664 136.378 226.65 131.193C226.188 130.398 225.389 130.444 225.156 130.476C224.912 130.511 224.096 130.695 223.86 131.63C221.465 141.092 216.032 147.024 207.71 149.256C206.893 149.476 206.055 148.991 205.836 148.175C205.617 147.359 206.101 146.52 206.917 146.3C214.19 144.348 218.761 139.305 220.893 130.88C221.354 129.056 222.861 127.708 224.73 127.445C226.6 127.183 228.351 128.03 229.295 129.654C232.722 135.549 233.7 142.729 231.912 148.858C230.266 154.498 226.394 159.029 220.715 161.957C219.061 162.81 217.274 163.232 215.511 163.232V163.234Z" fill="#323232"/>
<g opacity="0.3">
<path opacity="0.3" d="M209.571 159.527C208.111 158.272 206.935 156.393 206.695 153.582L207.316 147.781C214.381 145.883 219.058 141.201 221.558 133.988H221.563C221.563 133.988 228.745 156.358 209.571 159.527Z" fill="#323232"/>
</g>
<path d="M115.117 147.78C109.451 139.51 114.735 129.787 114.735 129.787L123.26 137.498L115.117 147.78Z" fill="#EF9F21"/>
<path d="M115.105 148.149L114.937 147.903C109.262 139.619 114.49 129.78 114.544 129.682L114.676 129.438L123.559 137.473L115.105 148.148V148.149ZM114.801 130.141C114.05 131.69 110.357 140.13 115.132 147.409L122.961 137.523L114.801 130.141Z" fill="#323232"/>
<g opacity="0.3">
<path opacity="0.3" d="M115.117 147.78C109.451 139.51 114.735 129.787 114.735 129.787L123.26 137.498L115.117 147.78Z" fill="#323232"/>
</g>
<path d="M207.087 156.502C206.41 159.693 203.612 161.989 200.347 161.989H126.986L123.261 137.499C123.09 137.367 122.92 137.241 122.75 137.11C108.643 126.233 100.634 110.347 102.133 92.8072L107.335 88.768L112.367 84.864L172.482 104.033C196.042 108.244 213.161 127.92 207.088 156.502H207.087Z" fill="#E4B740"/>
<g opacity="0.55">
<path opacity="0.55" d="M207.088 156.503C206.703 158.313 205.636 159.838 204.185 160.813C204.22 160.691 204.251 160.564 204.277 160.438C210.349 131.856 193.23 112.178 169.671 107.969L109.556 88.7995L102.01 94.6573C102.041 94.0448 102.08 93.4286 102.132 92.8077L112.367 84.8645L172.482 104.034C196.041 108.244 213.161 127.921 207.088 156.503Z" fill="white"/>
</g>
<path d="M103.143 107.56C103.143 107.56 110.858 100.676 118.444 110.73C126.029 120.785 129.766 123.202 129.766 123.202L149.687 141.875C149.687 141.875 155.569 146.896 158.65 146.081L155.981 149.328L151.798 155.322L121.73 136.087C121.73 136.087 104.446 120.128 103.143 107.56Z" fill="white"/>
<path d="M152.323 135.575C147.68 148.034 141.314 157.175 132.313 161.228C131.819 161.45 131.29 161.586 130.757 161.647C129.441 161.801 128.182 161.914 126.984 161.988C117.751 162.544 112.068 160.563 112.378 154.316C112.518 151.466 113.9 148.842 115.972 146.888C122.805 140.431 128.091 129.768 132.147 115.78C132.213 115.557 132.279 115.33 132.343 115.102L152.322 135.575H152.323Z" fill="#E4B740"/>
<g opacity="0.55">
<path opacity="0.55" d="M152.323 135.574C147.681 148.034 141.315 157.175 132.314 161.227C131.82 161.45 131.291 161.586 130.757 161.647C129.441 161.8 128.182 161.914 126.985 161.988C126.709 160.896 126.775 159.75 126.945 158.788C127.413 158.743 127.889 158.692 128.37 158.635C128.908 158.573 129.437 158.438 129.927 158.215C137.997 154.577 143.951 146.848 148.445 136.308C149.109 134.748 151.138 134.358 152.323 135.573V135.574Z" fill="white"/>
</g>
<path d="M207.49 64.098C201.597 80.3348 192.993 86.0921 186.396 83.9278C186.396 83.9278 186.392 83.9278 186.383 83.9231C185.644 83.6779 184.927 83.3369 184.245 82.8954C184.245 82.9133 184.25 82.9349 184.25 82.9518C184.814 91.0087 183.122 96.3733 179.59 99.8837V99.8884C177.299 102.166 174.239 103.661 170.518 104.606C164.389 106.162 156.472 106.21 147.305 105.777C142.772 105.301 138.356 104.58 134.133 103.522H134.125C116.507 99.1238 102.251 88.9994 96.6813 67.4383C96.2088 65.6197 95.803 63.7185 95.4573 61.7289L103.536 36.9196L103.807 36.0845C94.0539 34.3401 92.3442 27.0347 99.5444 13.57C100.174 12.4334 100.803 11.3625 101.442 10.3658C106.929 1.74535 112.721 -1.56024 119.091 4.97111C119.217 5.10262 119.344 5.23319 119.471 5.37315C127.536 -0.283654 134.107 4.4554 139.874 14.8466C156.04 16.0142 172.517 22.7156 184.246 33.0588C190.585 28.9933 197.077 32.7704 200.203 38.7419C210.533 38.4141 212.007 51.4195 207.491 64.098H207.49Z" fill="#E4B740"/>
<g opacity="0.55">
<path opacity="0.55" d="M179.589 99.8844V99.8891C177.298 102.167 174.239 103.662 170.518 104.607C170.903 104.034 171.637 103.491 172.804 103.007C182.278 99.0718 180.953 78.5037 180.953 78.5037C181.413 80.7506 182.934 82.1455 184.25 82.9543C184.813 91.0112 183.121 96.3759 179.589 99.8862V99.8844Z" fill="white"/>
</g>
<g opacity="0.55">
<path opacity="0.55" d="M176.859 30.7635C165.612 22.1787 151.865 19.0854 136.958 18.0098C133.543 11.8589 127.732 4.52536 123.614 3.32298C129.836 1.57014 135.125 6.29604 139.873 14.847C155.27 15.9573 170.951 22.0913 182.54 31.6164C182.43 31.6418 182.325 31.67 182.223 31.7C180.374 32.2448 178.391 31.933 176.859 30.7635Z" fill="white"/>
</g>
<g opacity="0.55">
<path opacity="0.55" d="M119.089 4.97111L117.437 7.59003C117.437 7.59003 110.276 -0.32311 101.44 10.3658C106.927 1.74535 112.719 -1.56024 119.089 4.97111Z" fill="white"/>
</g>
<g opacity="0.55">
<path opacity="0.55" d="M207.489 64.0977C201.679 80.1157 193.224 85.934 186.667 84.0112C192.131 82.5204 198.054 76.238 202.462 64.0977C206.978 51.4202 205.504 38.4139 195.174 38.7417C193.39 35.3318 190.509 32.6387 187.187 31.7162C192.516 30.217 197.561 33.6964 200.202 38.7417C210.532 38.4139 212.006 51.4193 207.489 64.0977Z" fill="white"/>
</g>
<path d="M179.589 99.8845V99.8892C173.521 105.926 162.033 106.473 147.304 105.778C123.842 103.321 103.588 94.1667 96.6807 67.4382C102.884 76.7895 121.437 72.553 121.437 72.553L125.009 71.0801C133.8 67.8628 140.651 70.1755 145.555 78.0182C154.089 92.2438 164.301 102.333 179.589 99.8855V99.8845Z" fill="white"/>
<path d="M155.979 107.538C153.243 107.538 150.328 107.45 147.232 107.305C147.203 107.304 147.174 107.301 147.145 107.298C132.735 105.79 121.596 101.991 113.09 95.6838C102.954 88.1689 96.5136 76.8328 93.9473 61.99C93.9051 61.7448 93.9229 61.4931 93.9999 61.2554L101.829 37.2107C98.2862 36.2554 95.8533 34.4518 94.5861 31.8376C92.4913 27.5156 93.6721 21.3036 98.1941 12.8485C102.666 4.76906 106.987 0.591739 111.412 0.0591234C114.222 -0.280924 117 0.84724 119.685 3.40793C122.663 1.61188 125.611 1.03512 128.467 1.69173C132.834 2.69684 136.874 6.52378 140.804 13.383C156.661 14.7131 172.822 21.3149 184.421 31.1875C187.008 29.8236 189.773 29.4807 192.48 30.1974C195.899 31.103 199.001 33.6402 201.104 37.2182C204.306 37.3506 206.926 38.7043 208.722 41.1663C212.27 46.0294 212.349 55.0134 208.928 64.6127C204.867 75.8042 199.139 83.1396 192.797 85.2757C190.418 86.077 188.069 86.1042 185.882 85.3743C185.97 92.1809 184.309 97.2469 180.833 100.808C175.764 106.002 167.461 107.538 155.979 107.538ZM147.42 104.25C162.218 104.943 173.191 104.257 178.644 98.6709C181.901 95.3343 183.234 90.2101 182.719 83.0053C182.678 82.4266 182.967 81.8743 183.466 81.5793C183.965 81.2844 184.588 81.2956 185.075 81.6103C187.101 82.916 189.433 83.1809 191.822 82.3768C197.184 80.5704 202.37 73.7188 206.05 63.5784C209.086 55.0594 209.166 46.9668 206.251 42.9708C204.884 41.0968 202.862 40.1884 200.252 40.273C199.661 40.2927 199.119 39.9733 198.846 39.4529C197.172 36.2525 194.499 33.8985 191.697 33.1564C189.457 32.5627 187.229 32.9639 185.072 34.3485C184.498 34.7176 183.747 34.6613 183.234 34.2085C171.873 24.1884 155.622 17.5199 139.763 16.3711C139.248 16.3335 138.786 16.0395 138.535 15.5876C134.973 9.16806 131.354 5.49612 127.781 4.67418C125.425 4.13124 122.994 4.77093 120.35 6.62616C119.722 7.06672 118.866 6.97467 118.346 6.41105C116.053 3.92552 113.905 2.83962 111.777 3.09794C108.444 3.49905 104.779 7.2715 100.882 14.312C96.9204 21.7188 95.7255 27.1727 97.3403 30.5037C98.3651 32.6172 100.568 33.9502 104.075 34.5786C104.511 34.6566 104.892 34.9196 105.119 35.2991C105.346 35.6786 105.398 36.1379 105.261 36.5588L97.0284 61.8416C101.619 87.6429 117.643 101.123 147.419 104.251L147.42 104.25Z" fill="#323232"/>
<path d="M183.159 83.9727C181.059 81.7239 179.465 79.0449 178.427 76.2202C177.402 73.3843 176.905 70.4291 176.727 67.5021C176.556 64.5703 176.691 61.6517 177.037 58.7773C177.391 55.9029 177.932 53.0688 178.577 50.2667C178.658 49.9135 179.01 49.6937 179.363 49.7745C179.705 49.8534 179.922 50.185 179.862 50.526L179.86 50.5363C179.367 53.3272 178.979 56.1321 178.778 58.9398C178.583 61.7466 178.602 64.5591 178.905 67.3161C179.213 70.0684 179.82 72.7737 180.869 75.263C181.931 77.7439 183.438 79.9824 185.332 81.8188L185.343 81.8301C185.95 82.419 185.965 83.3875 185.376 83.9944C184.787 84.6012 183.818 84.6162 183.212 84.0272C183.195 84.0103 183.175 83.9896 183.159 83.9727Z" fill="#323232"/>
<path d="M201.726 38.6157C201.888 42.3534 201.771 46.1089 201.275 49.8147C200.783 53.5195 199.903 57.1652 198.64 60.6558C198.517 60.9968 198.141 61.1734 197.8 61.0494C197.476 60.932 197.302 60.5835 197.39 60.2575C198.345 56.7688 198.909 53.1945 199.098 49.6099C199.289 46.0235 199.114 42.4304 198.676 38.8721V38.8693C198.573 38.0295 199.169 37.2658 200.008 37.1625C200.848 37.0592 201.611 37.6557 201.715 38.4955C201.719 38.5349 201.723 38.5772 201.725 38.6166L201.726 38.6157Z" fill="#323232"/>
<path d="M103.227 35.6033L108.262 34.7917L107.47 35.1768L121.942 23.0328C122.22 22.7998 122.634 22.8365 122.867 23.1136C123.086 23.3747 123.066 23.7589 122.831 23.9975L109.544 37.4275C109.339 37.6342 109.082 37.7601 108.816 37.8023L108.751 37.8127L103.716 38.6243C102.882 38.7586 102.096 38.1912 101.962 37.3571C101.828 36.5229 102.395 35.7376 103.229 35.6033H103.227Z" fill="#323232"/>
<path d="M120.547 6.4608C118.037 8.75283 115.88 11.5202 113.976 14.4651C112.072 17.4165 110.41 20.5568 108.891 23.7703C108.737 24.0982 108.346 24.24 108.018 24.086C107.708 23.9404 107.566 23.5768 107.683 23.2603C108.951 19.8936 110.374 16.5683 112.093 13.3557C113.815 10.1506 115.835 7.04321 118.396 4.28432C118.971 3.66434 119.94 3.62865 120.56 4.20447C121.18 4.7803 121.215 5.74877 120.64 6.36875C120.611 6.39881 120.582 6.42793 120.552 6.45517L120.547 6.45987V6.4608Z" fill="#323232"/>
<path d="M135.189 76.1376C138.442 77.9195 140.292 80.8034 139.319 82.5787C138.346 84.3541 134.136 84.821 130.883 83.039C127.63 81.2571 126.565 77.8998 127.537 76.1244C128.51 74.349 131.936 74.3547 135.189 76.1376H135.189Z" fill="#323232"/>
<path d="M141.822 90.8132C140.78 91.5318 139.574 92.1489 138.177 92.334C136.779 92.5312 135.288 92.1189 134.109 91.3974C132.913 90.6769 131.963 89.716 131.139 88.7165C130.318 87.7105 129.615 86.6471 128.969 85.5669L130.976 86.2507C129.714 86.7382 128.397 87.1525 126.986 87.3225C125.586 87.4953 124.049 87.377 122.681 86.7636C121.309 86.1624 120.215 85.1178 119.463 83.9756C118.706 82.8258 118.208 81.5915 117.828 80.3525C117.722 80.0059 117.916 79.6386 118.263 79.5324C118.585 79.4338 118.925 79.5944 119.057 79.8969L119.059 79.9035C119.544 81.011 120.131 82.0621 120.864 82.9301C121.597 83.798 122.493 84.4302 123.465 84.7233C124.437 85.0239 125.494 84.9938 126.552 84.7355C127.611 84.4781 128.659 84.015 129.678 83.4787C130.353 83.1236 131.181 83.3547 131.579 83.9906L131.686 84.1625C132.152 85.2108 132.662 86.23 133.255 87.1666C133.847 88.1003 134.527 88.957 135.326 89.5826C136.124 90.2054 137.04 90.5971 138.051 90.5896C139.062 90.5849 140.125 90.227 141.128 89.6991L141.142 89.6916C141.463 89.5225 141.859 89.6455 142.028 89.9668C142.185 90.2646 142.09 90.6272 141.82 90.8132H141.822Z" fill="#323232"/>
<path d="M130.326 86.3951C130.088 86.3951 129.847 86.3388 129.621 86.2214C128.871 85.8306 128.58 84.9072 128.97 84.1576L130.792 80.6604C131.183 79.9108 132.106 79.6205 132.856 80.0103C133.605 80.4011 133.896 81.3245 133.506 82.0741L131.684 85.5713C131.412 86.0955 130.878 86.3951 130.326 86.3951Z" fill="#323232"/>
<path d="M124.554 91.8206C125.017 92.2612 125.452 92.6604 125.912 93.0061C126.375 93.3471 126.85 93.6477 127.365 93.8956C127.619 94.0234 127.88 94.1483 128.156 94.2451C128.421 94.3682 128.706 94.4546 128.991 94.557C129.564 94.7505 130.164 94.9224 130.793 95.1403L130.814 95.1478C131.167 95.2699 131.355 95.656 131.232 96.0092C131.151 96.2412 130.957 96.4019 130.732 96.4498C130.021 96.601 129.285 96.6123 128.549 96.5108C128.364 96.4939 128.181 96.4563 127.998 96.4131C127.815 96.3765 127.631 96.3286 127.449 96.2741C127.268 96.2187 127.089 96.1539 126.913 96.0806C126.734 96.012 126.557 95.9388 126.387 95.8458C125.702 95.4944 125.06 95.0257 124.547 94.4452C124.032 93.8703 123.633 93.1996 123.419 92.4829C123.313 92.1259 123.516 91.7502 123.873 91.6431C124.113 91.5717 124.361 91.6393 124.531 91.8L124.551 91.8197L124.554 91.8206Z" fill="#323232"/>
<g opacity="0.3">
<path opacity="0.3" d="M193.571 83.3182C183.928 76.8037 181.46 63.8331 184.475 45.9271C184.756 44.2607 183.206 42.8498 181.579 43.3053C177.776 44.3706 172.028 47.6733 170.663 57.8654C168.579 73.4258 178.137 80.3987 183.304 81.8725C183.304 81.8725 188.688 84.6135 193.571 83.3182Z" fill="#323232"/>
</g>
<g opacity="0.3">
<path opacity="0.3" d="M117.285 7.55885C113.408 12.8408 109.748 19.9142 107.498 25.6875C107.014 26.9284 105.248 26.9134 104.784 25.6649C101.987 18.1247 110.408 4.76332 117.285 7.55885Z" fill="#323232"/>
</g>
<g opacity="0.3">
<path opacity="0.3" d="M139.58 104.033C139.58 104.033 137.455 103.858 134.132 103.522H134.124C116.506 99.1236 102.249 88.9992 96.68 67.4382C96.2075 65.6196 95.8017 63.7183 95.4561 61.7287L103.535 36.9194L108.505 36.3032L120.304 25.4348C105.493 67.5913 110.572 94.8007 139.579 104.034L139.58 104.033Z" fill="#323232"/>
</g>
<path d="M172.75 102.528C178.159 103.507 183.443 105.308 188.274 108.001C193.1 110.685 197.459 114.279 200.918 118.628C204.393 122.964 206.907 128.058 208.328 133.412C209.043 136.089 209.494 138.83 209.709 141.583C209.93 144.337 209.86 147.1 209.627 149.836C209.554 150.519 209.519 151.207 209.413 151.885L209.124 153.922C209.012 154.598 208.874 155.269 208.75 155.943C208.68 156.289 208.636 156.593 208.544 156.975C208.493 157.171 208.445 157.37 208.388 157.565L208.185 158.142C207.585 159.655 206.56 161.009 205.223 161.949C203.897 162.893 202.286 163.463 200.652 163.506L184.569 163.519H152.499C151.706 163.519 151.054 162.903 150.989 162.126V162.124C150.857 160.652 150.757 159.147 150.809 157.588C150.86 156.038 151.084 154.406 151.689 152.843C152.28 151.278 153.255 149.845 154.422 148.705C155.588 147.555 156.908 146.662 158.255 145.896L157.541 147.703V147.701C156.441 144.022 155.894 140.153 156.137 136.29C156.26 134.362 156.582 132.437 157.147 130.575C157.715 128.716 158.527 126.922 159.59 125.285C160.651 123.647 161.964 122.171 163.47 120.94C164.974 119.707 166.666 118.723 168.444 117.996C172.013 116.536 175.855 116.108 179.595 116.196C179.956 116.204 180.244 116.505 180.235 116.866C180.227 117.22 179.941 117.5 179.592 117.507H179.581C175.975 117.564 172.356 118.13 169.138 119.602C165.919 121.051 163.202 123.448 161.447 126.438C159.667 129.42 158.833 132.913 158.758 136.409C158.676 139.913 159.312 143.432 160.454 146.764V146.766L160.459 146.783C160.669 147.488 160.353 148.224 159.741 148.572C158.57 149.238 157.475 149.992 156.576 150.88C155.674 151.767 154.987 152.786 154.55 153.933C154.103 155.078 153.91 156.359 153.868 157.7C153.822 159.041 153.91 160.436 154.037 161.849V161.851L152.513 160.46H184.57L200.542 160.45C201.582 160.425 202.597 160.06 203.444 159.461C204.3 158.865 204.948 157.996 205.334 157.032L205.465 156.664L205.563 156.286C205.629 156.02 205.685 155.661 205.747 155.354C205.865 154.714 205.997 154.076 206.103 153.435L206.376 151.505C206.478 150.863 206.508 150.214 206.579 149.569C206.799 146.987 206.865 144.39 206.657 141.815C206.455 139.241 206.035 136.691 205.372 134.206C204.052 129.239 201.735 124.544 198.524 120.536C195.326 116.518 191.288 113.182 186.782 110.676C182.275 108.163 177.313 106.468 172.211 105.543H172.205C171.374 105.391 170.821 104.596 170.972 103.764C171.123 102.933 171.919 102.381 172.751 102.532L172.75 102.528Z" fill="#323232"/>
<path d="M132.976 115.283C131.008 123.619 128.279 131.889 123.847 139.474C122.72 141.354 121.457 143.171 120.002 144.847C119.658 145.28 119.265 145.676 118.895 146.091L118.331 146.705L117.737 147.293L116.624 148.396C116.297 148.732 116.003 149.095 115.724 149.468C114.622 150.965 113.953 152.747 113.904 154.545C113.875 155.445 113.999 156.29 114.318 157C114.633 157.713 115.144 158.303 115.831 158.784C117.219 159.745 119.18 160.202 121.156 160.403C123.149 160.603 125.218 160.576 127.288 160.436C128.324 160.364 129.363 160.27 130.402 160.15L130.593 160.128L130.738 160.109C130.835 160.094 130.93 160.076 131.023 160.054C131.21 160.011 131.389 159.956 131.558 159.888L131.683 159.834L131.851 159.751L132.189 159.584L132.863 159.25C134.649 158.328 136.276 157.131 137.848 155.86C139.435 154.599 140.875 153.131 142.217 151.57C142.902 150.8 143.515 149.964 144.149 149.143C144.74 148.289 145.356 147.449 145.908 146.561C146.49 145.693 147.003 144.779 147.541 143.879C148.038 142.954 148.569 142.045 149.028 141.096C150.011 139.231 150.863 137.293 151.707 135.348L151.711 135.338C151.856 135.005 152.242 134.853 152.575 134.997C152.888 135.133 153.04 135.487 152.936 135.806C151.581 139.882 149.995 143.919 147.872 147.73C147.366 148.696 146.779 149.619 146.208 150.554C145.593 151.461 144.997 152.384 144.316 153.254C142.981 155.007 141.528 156.704 139.848 158.192C138.175 159.688 136.266 160.921 134.269 161.969L133.509 162.344L133.129 162.531L132.939 162.624L132.696 162.728C132.37 162.858 132.038 162.96 131.706 163.037C131.539 163.075 131.372 163.106 131.205 163.133L130.954 163.166L130.748 163.19C129.668 163.315 128.581 163.413 127.49 163.489C125.306 163.634 123.093 163.671 120.84 163.446C119.714 163.33 118.576 163.142 117.435 162.823C116.297 162.498 115.144 162.03 114.077 161.292C113.543 160.925 113.045 160.471 112.602 159.963C112.158 159.451 111.802 158.858 111.521 158.244C110.966 156.999 110.805 155.678 110.845 154.451C110.912 151.973 111.833 149.588 113.256 147.658C113.615 147.176 113.996 146.711 114.412 146.28L115.564 145.122L116.101 144.58L116.613 144.01C116.95 143.626 117.301 143.256 117.614 142.847C118.918 141.268 120.102 139.575 121.238 137.841C123.544 134.391 125.439 130.629 127.155 126.781C128 124.85 128.816 122.898 129.552 120.912C130.325 118.939 131.01 116.929 131.713 114.923L131.716 114.914C131.836 114.572 132.21 114.392 132.553 114.512C132.872 114.624 133.049 114.96 132.975 115.283H132.976Z" fill="#323232"/>
<path d="M123.259 139.027C122.938 139.027 122.614 138.926 122.338 138.718C107.016 127.16 99.0948 110.378 100.605 92.6762C100.678 91.8345 101.422 91.2108 102.26 91.2822C103.101 91.3545 103.726 92.0947 103.654 92.9373C102.235 109.569 109.717 125.365 124.181 136.275C124.856 136.784 124.99 137.744 124.481 138.418C124.18 138.816 123.722 139.027 123.258 139.027H123.259Z" fill="#323232"/>
<path d="M115.119 149.31C114.631 149.31 114.151 149.077 113.855 148.644C107.731 139.705 113.157 129.486 113.391 129.055C113.794 128.312 114.724 128.038 115.466 128.442C116.208 128.845 116.484 129.773 116.081 130.515C116.008 130.65 111.34 139.558 116.379 146.915C116.858 147.612 116.679 148.565 115.982 149.042C115.718 149.223 115.417 149.31 115.119 149.31Z" fill="#323232"/>
<path d="M152.513 163.518H126.984C126.139 163.518 125.454 162.834 125.454 161.988C125.454 161.143 126.139 160.458 126.984 160.458H152.513C153.359 160.458 154.043 161.143 154.043 161.988C154.043 162.834 153.359 163.518 152.513 163.518Z" fill="#323232"/>
<path d="M145.255 150.118L143.818 152.821L151.796 157.063L153.233 154.36L145.255 150.118Z" fill="#323232"/>
<path d="M158.466 145.799C158.979 145.64 159.394 145.54 159.852 145.439C160.299 145.339 160.746 145.259 161.192 145.187C161.638 145.107 162.088 145.066 162.535 145.005C162.984 144.959 163.434 144.93 163.882 144.893C165.679 144.791 167.485 144.885 169.258 145.176C170.147 145.297 171.016 145.538 171.884 145.756C172.312 145.888 172.734 146.044 173.158 146.187C173.368 146.263 173.582 146.328 173.789 146.413L174.402 146.689C176.061 147.364 177.544 148.384 178.954 149.439C179.243 149.655 179.302 150.066 179.086 150.356C178.881 150.629 178.505 150.697 178.22 150.522L178.171 150.492C176.766 149.622 175.333 148.8 173.765 148.318L173.189 148.113C172.994 148.052 172.793 148.01 172.596 147.958C172.2 147.861 171.808 147.752 171.412 147.665C170.606 147.537 169.809 147.383 168.994 147.344C167.374 147.22 165.743 147.274 164.137 147.503L162.939 147.706C162.545 147.796 162.147 147.866 161.759 147.971C161.368 148.069 160.981 148.173 160.601 148.293C160.231 148.406 159.826 148.548 159.532 148.668L159.5 148.681C158.716 149.001 157.822 148.625 157.502 147.841C157.183 147.058 157.559 146.164 158.342 145.844C158.383 145.827 158.426 145.812 158.467 145.799H158.466Z" fill="#323232"/>
<path d="M119.309 155.652C119.135 156.079 118.982 156.592 118.885 157.068C118.787 157.553 118.737 158.037 118.741 158.501C118.754 158.963 118.832 159.398 118.961 159.784C119.096 160.17 119.316 160.486 119.549 160.769L119.56 160.782C120.025 161.342 119.948 162.173 119.387 162.638C118.826 163.103 117.996 163.026 117.531 162.466C117.476 162.401 117.427 162.326 117.387 162.254C117.042 161.62 116.8 160.941 116.716 160.26C116.637 159.583 116.671 158.924 116.783 158.306C116.905 157.691 117.092 157.111 117.325 156.565C117.566 156.011 117.824 155.515 118.175 154.992C118.377 154.692 118.785 154.611 119.085 154.814C119.348 154.99 119.442 155.323 119.328 155.605L119.308 155.653L119.309 155.652Z" fill="#323232"/>
<path d="M128.562 156.032C128.389 156.458 128.235 156.971 128.139 157.447C128.04 157.932 127.99 158.416 127.994 158.88C128.007 159.342 128.085 159.777 128.215 160.163C128.349 160.549 128.568 160.866 128.803 161.149L128.813 161.162C129.278 161.722 129.201 162.553 128.64 163.018C128.08 163.483 127.248 163.406 126.783 162.845C126.729 162.78 126.679 162.705 126.64 162.634C126.295 162 126.052 161.32 125.969 160.639C125.89 159.962 125.924 159.304 126.036 158.686C126.158 158.07 126.345 157.491 126.578 156.944C126.818 156.391 127.076 155.895 127.428 155.371C127.63 155.071 128.037 154.99 128.338 155.193C128.601 155.37 128.695 155.702 128.58 155.985L128.561 156.033L128.562 156.032Z" fill="#323232"/>
<path d="M162.648 154.455C162.233 154.907 161.828 155.497 161.539 156.073C161.244 156.659 161.045 157.274 160.961 157.88C160.905 158.182 160.919 158.485 160.913 158.78C160.958 159.076 160.963 159.368 161.06 159.651C161.181 160.222 161.483 160.751 161.786 161.262L161.832 161.341C162.202 161.967 161.995 162.775 161.369 163.146C160.743 163.516 159.935 163.309 159.564 162.683C159.534 162.632 159.506 162.574 159.483 162.521C159.149 161.724 158.853 160.897 158.792 160.011C158.726 159.577 158.768 159.133 158.783 158.701C158.847 158.269 158.907 157.841 159.044 157.436C159.289 156.621 159.672 155.876 160.14 155.217C160.62 154.552 161.132 153.989 161.797 153.456C162.079 153.231 162.491 153.276 162.717 153.558C162.921 153.813 162.903 154.176 162.688 154.41L162.647 154.455H162.648Z" fill="#323232"/>
<path d="M171.319 155.247C171.057 155.672 170.801 156.227 170.651 156.751C170.49 157.284 170.409 157.831 170.404 158.363C170.398 158.896 170.458 159.419 170.612 159.916C170.739 160.417 170.981 160.884 171.228 161.335L171.256 161.387C171.605 162.026 171.37 162.827 170.731 163.176C170.092 163.525 169.291 163.289 168.942 162.651C168.908 162.588 168.877 162.515 168.853 162.45C168.614 161.754 168.408 161.046 168.351 160.309C168.267 159.58 168.314 158.839 168.45 158.135C168.586 157.429 168.818 156.754 169.134 156.133C169.293 155.823 169.466 155.524 169.66 155.238C169.859 154.946 170.052 154.692 170.321 154.399C170.566 154.133 170.98 154.116 171.246 154.361C171.481 154.577 171.522 154.924 171.359 155.185L171.32 155.249L171.319 155.247Z" fill="#323232"/>
<g opacity="0.3">
<path opacity="0.3" d="M176.325 116.975C176.325 116.975 158.051 128.389 168.78 146.082C168.78 146.082 154.886 149.942 160.166 157.059L161.415 154.823C161.415 154.823 164.306 160.198 169.466 157.925L169.375 162.079L152.513 161.513C151.721 154.763 153.61 149.639 158.998 146.634C154.658 132.378 158.032 121.454 176.324 116.975H176.325Z" fill="#323232"/>
</g>
<g opacity="0.3">
<path opacity="0.3" d="M126.77 121.664L131.798 116.973C131.798 116.973 127.343 131.155 122.748 137.109C108.641 126.232 100.632 110.346 102.131 92.8063L107.333 88.7671C115.093 100.024 129.31 104.798 147.304 105.777C147.304 105.777 129.349 111.325 112.606 104.033C112.606 104.186 112.636 113.485 119.977 121.447C121.774 123.396 124.832 123.473 126.77 121.664Z" fill="#323232"/>
</g>
<g opacity="0.3">
<path opacity="0.3" d="M151.582 137.497C151.582 137.497 154.59 140.895 156.557 138.272L158.649 147.431C158.649 147.431 153.856 152.062 152.147 154.821L152.513 161.511L132.344 161.987C141.734 155.388 148.863 147.601 151.582 137.496V137.497Z" fill="#323232"/>
</g>
<g opacity="0.3">
<path opacity="0.3" d="M121.122 150.657C117.139 154.74 117.694 154.92 118.236 156.432V157.145C118.236 157.145 121.384 159.213 127.635 156.437C127.574 156.577 126.337 159.423 126.984 161.988C117.751 162.544 112.068 160.563 112.378 154.316C112.518 151.466 113.9 148.842 115.972 146.888C122.805 140.431 128.091 129.768 132.147 115.78C132.147 115.78 137.685 122.468 134.045 129.786C130.399 137.105 125.105 146.578 121.122 150.657Z" fill="#323232"/>
</g>
<g opacity="0.3">
<path opacity="0.3" d="M112.732 157.145C112.841 157.473 112.981 157.779 113.143 158.072C112.977 157.784 112.841 157.473 112.732 157.145Z" fill="#323232"/>
</g>
<path d="M131.452 61.3624C133.69 57.0226 132.825 52.123 129.52 50.4188C126.216 48.7146 121.722 50.8512 119.484 55.1909C117.246 59.5307 118.111 64.4303 121.416 66.1345C124.72 67.8387 129.214 65.7022 131.452 61.3624Z" fill="#323232"/>
<path d="M129.426 58.4842C130.08 57.2167 129.828 55.7857 128.863 55.288C127.898 54.7903 126.585 55.4144 125.932 56.682C125.278 57.9495 125.53 59.3805 126.495 59.8782C127.461 60.3759 128.773 59.7518 129.426 58.4842Z" fill="white"/>
<path d="M104.708 159.033C104.371 160.769 102.797 161.988 101.031 161.988H92.0169C90.9723 161.988 90.1279 161.144 90.1279 160.1L81.9658 141.66L80.8555 139.146L101.087 130.456L101.293 151.606C103.99 153.482 105.197 156.525 104.708 159.034V159.033Z" fill="#8E8FB3"/>
<path d="M101.031 162.177H92.0167C90.8848 162.177 89.9605 161.267 89.9389 160.14L80.6045 139.047L101.275 130.168L101.483 151.505C104.054 153.335 105.422 156.362 104.894 159.068C104.545 160.869 102.92 162.177 101.032 162.177H101.031ZM81.1061 139.244L90.3174 160.099C90.3174 161.035 91.0793 161.797 92.0167 161.797H101.031C102.739 161.797 104.206 160.619 104.521 158.996C105.027 156.407 103.685 153.499 101.185 151.761L101.104 151.705L100.9 130.741L81.1061 139.244Z" fill="#323232"/>
<g opacity="0.55">
<path opacity="0.55" d="M104.707 159.033C104.37 160.769 102.796 161.988 101.03 161.988H99.6709C100.615 161.481 101.328 160.589 101.547 159.487C102.032 156.982 100.825 153.936 98.1285 152.06L97.9321 131.81L101.088 130.455L101.294 151.605C103.991 153.481 105.198 156.524 104.709 159.033H104.707Z" fill="white"/>
</g>
<g opacity="0.3">
<path opacity="0.3" d="M93.6077 161.149C93.3325 161.442 93.0657 161.722 92.8036 161.988H92.0165C90.9719 161.988 90.1274 161.145 90.1274 160.1L81.9653 141.661C82.249 141.035 82.6558 140.568 83.2598 140.315L93.2489 143.064V151.462C93.2489 151.462 97.5417 156.997 93.6077 161.15V161.149Z" fill="#323232"/>
</g>
<path d="M30.5809 149.406C7.3412 151.334 -3.46141 132.676 3.71716 111.578V111.573C4.18965 110.183 4.74012 108.784 5.36949 107.376C11.2236 96.5522 18.4979 98.9175 20.6096 105.256V105.261C21.6016 108.229 21.4625 112.068 19.5077 115.832C18.8389 117.24 18.2969 118.617 17.877 119.958C15.1444 128.649 17.5229 135.775 23.9143 138.783H23.919C25.3656 139.47 27.0273 139.937 28.8769 140.165L30.5818 149.406H30.5809Z" fill="#8E8FB3"/>
<path d="M27.3728 149.732C18.5212 149.732 11.2158 146.549 6.57445 140.604C0.855649 133.277 -0.254671 122.687 3.52718 111.547L3.53751 111.512C4.00907 110.123 4.56705 108.705 5.19642 107.299C8.9839 100.295 12.8531 99.5448 14.8258 99.712C17.4531 99.9422 19.7386 102.044 20.7888 105.197L20.7982 105.231C21.8944 108.539 21.4858 112.433 19.6757 115.92C19.0219 117.295 18.477 118.675 18.0581 120.015C15.3941 128.489 17.6542 135.604 23.9573 138.594L24.0005 138.613C25.4396 139.296 27.0881 139.755 28.8992 139.978L29.0373 139.995L30.8061 149.58L30.5976 149.597C29.5023 149.689 28.4267 149.734 27.3737 149.734L27.3728 149.732ZM3.90668 111.605L3.89635 111.64C0.144557 122.669 1.22951 133.141 6.87317 140.371C11.9504 146.875 20.2834 150.021 30.3562 149.235L28.7142 140.336C26.9322 140.104 25.3052 139.647 23.8746 138.973L23.8333 138.956C17.3169 135.889 14.9648 128.588 17.6955 119.903C18.1201 118.546 18.6715 117.148 19.3356 115.752C21.1072 112.339 21.5037 108.54 20.4281 105.322L20.4187 105.288C19.4126 102.296 17.2587 100.306 14.7919 100.091C11.5502 99.8069 8.26154 102.428 5.53552 107.468C4.92212 108.842 4.37166 110.238 3.90574 111.606L3.90668 111.605Z" fill="#323232"/>
<path d="M19.5074 115.832C18.8386 117.24 18.2966 118.617 17.8767 119.958C9.61408 124.824 4.89287 122.031 3.7168 111.577V111.573C4.18929 110.182 4.73976 108.784 5.36912 107.376C13.968 91.4761 25.6273 104.032 19.5074 115.831V115.832Z" fill="white"/>
<path d="M86.6694 148.68C86.6253 148.707 86.5821 148.737 86.5379 148.763L87.0489 150.804C92.2558 152.115 94.7695 159.473 86.5379 161.987H77.8686C74.0435 161.498 71.4246 158.267 70.1264 154.201L69.8033 154.349L69.6069 154.437C69.6858 154.555 69.7554 154.672 69.8211 154.791C71.5655 157.947 69.5543 161.986 66.4291 161.986H48.2121C48.1548 161.982 48.1032 161.978 48.0459 161.973C37.9384 161.252 29.4532 152.889 28.8802 142.152C28.6181 137.207 30.2 132.35 33.1035 128.338C37.2001 122.672 41.9645 118.086 47.6391 114.955L59.089 103.113L59.692 102.492L101.73 97.583C103.54 102.121 104.436 106.869 104.572 111.59C105.005 126.82 97.4542 141.794 86.6694 148.679V148.68Z" fill="#8E8FB3"/>
<path d="M86.5667 162.177H77.8692C74.3401 161.727 71.4938 158.921 70.0124 154.463L69.8847 154.522C69.9204 154.581 69.9542 154.64 69.9871 154.699C70.9067 156.363 70.8785 158.41 69.9157 160.041C69.1154 161.399 67.8444 162.176 66.4288 162.176L48.0324 162.163C37.5746 161.416 29.2594 152.819 28.6911 142.162C28.4346 137.327 29.947 132.378 32.9501 128.227C37.3003 122.21 42.0675 117.818 47.5224 114.804L59.6025 102.311L101.852 97.3777L101.905 97.5129C103.658 101.907 104.618 106.642 104.761 111.585C105.185 126.487 97.7873 141.806 86.7715 148.839L86.7555 148.85L87.2064 150.65C89.9559 151.391 91.9859 153.764 92.0498 156.334C92.1146 158.963 90.1259 161.09 86.594 162.169L86.5667 162.177ZM70.2426 153.939L70.3074 154.143C71.7221 158.572 74.4866 161.363 77.8927 161.799L86.5094 161.797C89.8498 160.769 91.7294 158.782 91.6693 156.342C91.6092 153.905 89.6459 151.654 87.0026 150.988L86.8927 150.96L86.3197 148.672L86.5667 148.519C97.4755 141.555 104.801 126.371 104.381 111.596C104.242 106.748 103.308 102.104 101.606 97.7891L59.7791 102.674L59.223 103.246L47.729 115.123C42.3127 118.11 37.5783 122.47 33.2554 128.45C30.303 132.531 28.816 137.393 29.0678 142.143C29.6257 152.608 37.7897 161.052 48.0578 161.785L48.2241 161.798H66.4269C67.7054 161.798 68.857 161.088 69.5869 159.849C70.4821 158.332 70.5075 156.428 69.6527 154.883C69.5897 154.771 69.5221 154.656 69.4469 154.543L69.322 154.356L70.2407 153.94L70.2426 153.939Z" fill="#323232"/>
<path d="M84.5596 39.1304C90.1938 34.0607 96.1503 30.0844 102.619 27.8525C104.944 27.0503 107.486 28.1916 108.392 30.478C110.416 35.5844 113.591 45.1254 113.524 54.5791" fill="#8E8FB3"/>
<path d="M113.713 54.5807L113.334 54.5779C113.401 45.0781 110.156 35.445 108.216 30.5482C107.351 28.3651 104.92 27.2604 102.682 28.0326C96.6743 30.1057 90.7893 33.7824 84.6872 39.272L84.4336 38.9902C90.5732 33.4649 96.5015 29.7638 102.558 27.6737C104.989 26.834 107.628 28.0354 108.569 30.4082C110.52 35.3304 113.783 45.0161 113.714 54.5807H113.713Z" fill="#323232"/>
<g opacity="0.55">
<path opacity="0.55" d="M45.6367 131.22C55.1111 132.965 60.9426 138.686 60.7651 150.962C60.7575 151.504 60.8844 152.042 61.1201 152.531L61.1671 152.629C61.4705 153.259 62.0792 153.688 62.7753 153.753C65.041 153.967 70.0506 154.806 70.4724 158.053C71.7546 157.358 68.7383 150.677 63.7316 151.241C63.7945 138.106 55.9866 130.307 45.6367 131.219V131.22Z" fill="white"/>
</g>
<g opacity="0.55">
<path opacity="0.55" d="M113.525 54.58L110.438 52.9314C109.966 44.4237 107.203 36.2137 105.376 31.6109C104.519 29.4466 102.202 28.31 99.9858 28.8698C100.851 28.4978 101.73 28.1568 102.618 27.8516C104.944 27.0512 107.488 28.1925 108.393 30.4789C110.417 35.5853 113.591 45.1244 113.526 54.58H113.525Z" fill="white"/>
</g>
<g opacity="0.55">
<path opacity="0.55" d="M86.6694 148.681C86.6253 148.707 86.5821 148.737 86.5379 148.764L87.0489 150.805C92.2558 152.116 94.7695 159.474 86.5379 161.988H83.8016C90.8402 159.207 88.3218 152.401 83.3338 151.146L82.8228 149.105L79.5191 116.949C79.4712 116.483 80.1381 116.349 80.2734 116.797L82.0976 122.835L85.8221 146.94C95.0504 139.404 101.25 125.773 100.857 111.932C100.721 107.241 99.8383 102.525 98.0498 98.0131L101.731 97.5847C103.541 102.123 104.437 106.87 104.573 111.591C105.006 126.822 97.4551 141.796 86.6704 148.681H86.6694Z" fill="white"/>
</g>
<path d="M86.6694 148.681L83.7095 132.239C87.2809 129.892 90.3103 126.512 92.2473 121.079C94.7657 114.823 98.6997 111.325 104.571 111.592C105.004 126.823 97.4532 141.796 86.6684 148.682L86.6694 148.681Z" fill="white"/>
<path d="M119.829 81.0034C117.6 87.237 113.914 90.6825 108.371 94.0576C108.24 94.1365 108.109 94.2192 107.974 94.2934C102.54 97.5464 96.6507 99.9897 90.5261 101.603C52.4182 111.636 27.6267 90.411 42.3108 57.3222C39.4082 52.9983 38.0743 48.3645 37.8385 42.8298C37.7427 40.6749 39.3734 38.8385 41.5198 38.6328C51.9636 37.6276 62.6788 37.8193 69.7822 40.2024C98.443 32.6303 127.677 59.0572 119.829 81.0034Z" fill="#8E8FB3"/>
<path d="M72.4011 104.292C60.2609 104.292 50.2088 100.504 44.0382 93.2549C36.4745 84.3705 35.785 71.6197 42.0947 57.3396C39.3057 53.151 37.892 48.5387 37.6487 42.8368C37.5491 40.5889 39.2409 38.6595 41.501 38.4425C53.3106 37.3068 63.3523 37.8601 69.7888 40.0037C84.7997 36.0603 101.542 41.1854 112.454 53.0692C120.37 61.6897 123.194 72.156 120.009 81.0668C117.684 87.5671 113.715 91.0258 108.471 94.2187L108.352 94.291C108.258 94.3493 108.163 94.4066 108.066 94.4601C102.683 97.6821 96.7962 100.148 90.5758 101.786C84.1854 103.469 78.0664 104.293 72.403 104.293L72.4011 104.292ZM52.856 38.2443C49.3362 38.2443 45.5402 38.435 41.5367 38.8201C39.4776 39.0174 37.9361 40.774 38.0273 42.8199C38.2696 48.4889 39.6805 53.0627 42.4676 57.2146L42.5258 57.302L42.4836 57.3978C36.1918 71.5755 36.8465 84.223 44.3266 93.0098C53.2796 103.526 70.5318 106.67 90.4772 101.419C96.6638 99.79 102.517 97.3374 107.875 94.1304C107.973 94.0759 108.063 94.0214 108.152 93.9669L108.272 93.8937C113.446 90.7431 117.362 87.3351 119.65 80.939C122.787 72.1635 119.993 61.8409 112.174 53.3266C101.343 41.5311 84.7218 36.4511 69.8301 40.386L69.7757 40.4011L69.7221 40.3823C65.5053 38.9676 59.7057 38.2462 52.8569 38.2462L52.856 38.2443Z" fill="#323232"/>
<g opacity="0.55">
<path opacity="0.55" d="M119.829 81.0029C118.985 83.3588 117.936 85.3136 116.66 87.0185C117.123 86.1139 117.538 85.1426 117.915 84.0943C125.762 62.1481 96.5283 35.7212 67.8676 43.2934C60.7632 40.9111 50.0489 40.7186 39.6042 41.7237C38.9617 41.7848 38.3624 41.9952 37.8467 42.3136C38.0082 40.3898 39.5469 38.8211 41.5186 38.6323C51.9624 37.6272 62.6776 37.8188 69.7811 40.2019C98.4418 32.6298 127.675 59.0567 119.828 81.0029H119.829Z" fill="white"/>
</g>
<path d="M72.4139 105.628C59.8688 105.628 49.4476 101.677 43.0167 94.1228C35.221 84.966 34.3653 71.9719 40.5791 57.4654C37.9113 53.2261 36.5502 48.5716 36.3069 42.896C36.1801 39.9351 38.4054 37.3923 41.3729 37.1076C48.2255 36.4501 60.9331 35.786 69.8297 38.6069C85.2173 34.7282 102.288 40.0196 113.439 52.1636C121.698 61.157 124.624 72.1306 121.269 81.5176C118.812 88.3909 114.653 92.0234 109.165 95.3628C103.567 98.7689 97.4262 101.365 90.9145 103.08C84.4189 104.79 78.191 105.628 72.4139 105.628ZM52.8697 39.5838C49.3922 39.5838 45.6338 39.7726 41.6641 40.153C40.317 40.2817 39.3063 41.4287 39.3636 42.7635C39.5956 48.1714 40.9351 52.5262 43.5813 56.4687C43.8744 56.9055 43.9223 57.4616 43.709 57.9416C37.638 71.6215 38.2194 83.7664 45.3473 92.138C53.9584 102.253 70.7005 105.236 90.1349 100.119C96.3609 98.4796 102.228 95.9997 107.574 92.7467C112.647 89.66 116.225 86.5319 118.387 80.4862C121.353 72.1879 118.661 62.3735 111.185 54.2321C100.686 42.7983 84.5861 37.8713 70.1698 41.6776C69.8814 41.7546 69.5761 41.7443 69.2934 41.6494C65.2081 40.2808 59.5607 39.5828 52.8697 39.5828V39.5838Z" fill="#323232"/>
<path d="M113.524 56.1089H113.512C112.668 56.1033 111.987 55.4129 111.993 54.5675C112.06 45.2941 108.875 35.847 106.97 31.0413C106.37 29.5261 104.678 28.7596 103.118 29.2988C97.285 31.3118 91.5493 34.9001 85.5834 40.2676C84.955 40.8322 83.9884 40.7814 83.422 40.153C82.8565 39.5255 82.9082 38.558 83.5356 37.9925C89.8115 32.3451 95.8901 28.5548 102.119 26.4055C105.23 25.3328 108.609 26.8733 109.814 29.9131C111.801 34.9264 115.123 44.7981 115.053 54.5891C115.046 55.4307 114.363 56.108 113.523 56.108L113.524 56.1089Z" fill="#323232"/>
<path d="M94.0845 74.1123L91.9028 74.2473L92.0068 75.9284L94.1885 75.7934L94.0845 74.1123Z" fill="#323232"/>
<path d="M96.5455 83.407C95.0594 87.2583 90.9018 86.9784 88.6286 84.0232V84.0185C87.9813 83.1703 87.4835 82.1041 87.2515 80.8538L92.6725 78.2847L97.079 79.5199C97.1363 81.1112 96.9306 82.3962 96.5455 83.406V83.407Z" fill="#323232"/>
<path d="M96.5458 83.4071C95.0597 87.2585 90.9021 86.9785 88.6289 84.0233V84.0186C89.7702 81.1686 95.3002 80.7271 96.542 83.4024L96.5467 83.4071H96.5458Z" fill="#F95877"/>
<path d="M92.7641 86.4888C91.1973 86.4888 89.591 85.6321 88.4562 84.1573L88.4111 84.0981L88.4271 83.9384C89.1025 82.2514 91.14 81.4501 92.8599 81.4041C94.6701 81.3627 96.1458 82.0729 96.7254 83.2781L96.7968 83.3532L96.7517 83.4876C96.1007 85.1746 94.8983 86.2258 93.3662 86.4475C93.1671 86.4756 92.9661 86.4897 92.765 86.4897L92.7641 86.4888ZM88.8799 83.9892C90.0616 85.4649 91.7458 86.2399 93.3033 86.0135C94.6447 85.819 95.709 84.8994 96.3074 83.419C95.6902 82.2063 94.144 81.8099 92.8721 81.8409C91.3353 81.8822 89.528 82.5632 88.8808 83.9892H88.8799Z" fill="#323232"/>
<path d="M92.3672 69.3813C92.3672 69.3813 88.1777 69.5636 88.2509 71.9683C88.3045 73.739 90.651 74.7197 91.8834 75.1133C92.3663 75.2674 92.8857 75.2185 93.3301 74.9733C94.2516 74.4661 95.7818 73.4093 96.0918 71.865C96.2421 71.1173 95.8889 70.3517 95.2135 69.9994C94.6442 69.7026 93.7434 69.4152 92.3682 69.3813H92.3672Z" fill="#323232"/>
<path d="M101.926 75.8774C101.84 76.4494 101.656 77.0159 101.397 77.5597C101.126 78.0961 100.769 78.6034 100.333 79.0458C99.4574 79.9297 98.2513 80.5168 96.9587 80.6371C95.6793 80.7601 94.2581 80.406 93.2295 79.4694C92.7175 79.0129 92.307 78.4456 92.0374 77.8387C91.7744 77.2281 91.6251 76.5941 91.5865 75.9741V75.9685L93.7612 75.9544C93.7198 76.2982 93.6672 76.6439 93.6071 76.9867C93.5122 77.3221 93.3957 77.6555 93.2755 77.9843C93.1233 78.299 92.943 78.6015 92.772 78.9068C92.5691 79.1895 92.3474 79.4601 92.1304 79.7315C91.1685 80.7329 89.9323 81.4336 88.6041 81.7089C87.2852 81.9869 85.8621 81.9024 84.6259 81.3359C83.3803 80.793 82.3846 79.8029 81.7815 78.6813C81.6096 78.361 81.7299 77.9627 82.0493 77.7908C82.3311 77.6396 82.6739 77.7138 82.8693 77.9533L82.8843 77.9721C83.5438 78.7781 84.3638 79.3718 85.2759 79.6526C86.1881 79.925 87.1744 79.9335 88.0874 79.6526C88.993 79.3699 89.8422 78.8777 90.4434 78.1807C91.0661 77.5034 91.4419 76.6627 91.5837 75.7524L91.595 75.681C91.688 75.0855 92.246 74.6778 92.8415 74.7708C93.3422 74.8488 93.7104 75.2574 93.7593 75.7393V75.743C93.9058 76.5725 94.229 77.2732 94.7578 77.741C95.282 78.2107 96.0241 78.4606 96.8103 78.4399C97.5956 78.423 98.4016 78.1374 99.0742 77.633C99.7543 77.1304 100.279 76.3912 100.661 75.5326L100.67 75.511C100.819 75.1785 101.208 75.0282 101.541 75.1757C101.819 75.2987 101.968 75.5908 101.925 75.8774H101.926Z" fill="#323232"/>
<path d="M92.7659 87.3626C90.9285 87.3626 89.0639 86.3819 87.7629 84.6901C87.745 84.6667 87.7281 84.6432 87.7122 84.6178C86.9513 83.5995 86.4215 82.3681 86.1772 81.053L88.3265 80.6547C88.5125 81.6617 88.9183 82.5954 89.4979 83.3553C89.512 83.3732 89.5251 83.3919 89.5373 83.4098C90.5133 84.646 91.9346 85.3242 93.1773 85.1467C94.2341 84.9935 95.0467 84.2552 95.5267 83.0124C95.8808 82.0834 96.0358 80.9196 95.987 79.5584L98.1719 79.4805C98.2311 81.1356 98.0272 82.5869 97.5669 83.7949C96.807 85.7657 95.3209 87.0442 93.4901 87.31C93.2506 87.3448 93.0083 87.3617 92.7659 87.3617V87.3626Z" fill="#323232"/>
<path d="M42.3103 58.634C42.052 58.634 41.7909 58.557 41.5617 58.3992C40.967 57.9849 40.8205 57.1677 41.2348 56.5731C43.756 52.9528 46.3693 50.1948 49.1808 48.1978C41.3794 43.145 39.0498 44.1735 38.8469 44.2853C38.412 44.7766 37.668 44.8753 37.1166 44.4911C36.522 44.0777 36.3755 43.2596 36.7897 42.6649C37.4783 41.6777 40.6308 39.0794 52.3098 47.1353C52.6789 47.3899 52.8922 47.8154 52.8762 48.2635C52.8593 48.7116 52.6151 49.1202 52.229 49.3466C49.0868 51.1868 46.1955 54.0415 43.3887 58.0723C43.1341 58.4386 42.7255 58.6349 42.3113 58.6349L42.3103 58.634ZM38.9399 44.1679C38.9399 44.1679 38.9399 44.1689 38.939 44.1698C38.939 44.1698 38.939 44.1689 38.9399 44.1679ZM38.9418 44.166C38.9418 44.166 38.9418 44.167 38.9409 44.1679C38.9409 44.1679 38.9409 44.167 38.9418 44.166ZM38.9437 44.1642C38.9437 44.1642 38.9427 44.1651 38.9418 44.166C38.9418 44.166 38.9418 44.1651 38.9437 44.1642Z" fill="#323232"/>
<g opacity="0.3">
<path opacity="0.3" d="M51.5645 48.2148C48.0626 50.2654 45.0284 53.4217 42.3099 57.3209L37.8687 43.4147C37.8687 43.4147 40.0545 40.2716 51.5654 48.2148H51.5645Z" fill="#323232"/>
</g>
<path d="M52.3632 47.1749L58.3102 52.3996C58.6371 52.6871 58.67 53.1849 58.3826 53.5128C58.1186 53.8134 57.6762 53.865 57.3521 53.648L50.7663 49.2556C50.1623 48.8526 49.9997 48.0363 50.4018 47.4333C50.8048 46.8293 51.6211 46.6667 52.2241 47.0688C52.2711 47.0998 52.3209 47.1392 52.3622 47.1749H52.3632Z" fill="#323232"/>
<path d="M102.423 46.5118C101.837 46.5118 101.305 46.1172 101.153 45.5245C99.5248 39.151 99.8329 34.2954 102.069 31.0913C104.172 28.0788 107.206 27.7359 107.335 27.7228C108.057 27.6504 108.699 28.1727 108.773 28.8941C108.846 29.6109 108.327 30.2524 107.613 30.3314C107.506 30.3445 105.57 30.6169 104.185 32.645C102.464 35.1653 102.295 39.3943 103.695 44.8754C103.874 45.5771 103.45 46.292 102.749 46.4704C102.64 46.4986 102.531 46.5118 102.424 46.5118H102.423Z" fill="#323232"/>
<path d="M47.1189 80.9633C45.645 80.7952 44.1881 80.6505 42.7283 80.5763C41.2695 80.5068 39.8116 80.4871 38.3528 80.5444C36.894 80.5932 35.4361 80.7097 33.9754 80.8591C32.5138 81.0131 31.0521 81.2122 29.5679 81.3945H29.5642C29.2025 81.4396 28.8728 81.1822 28.8277 80.8196C28.7901 80.5134 28.9696 80.2297 29.2448 80.1226C30.6773 79.5684 32.1653 79.1645 33.6786 78.8751C35.1919 78.5811 36.7333 78.4139 38.2805 78.3632C39.8276 78.3209 41.3822 78.3867 42.9171 78.6037C44.4511 78.8159 45.9691 79.1597 47.4223 79.6867C47.7651 79.8107 47.9417 80.1893 47.8178 80.5321C47.7116 80.8252 47.4195 80.9971 47.1226 80.9633H47.1179H47.1189Z" fill="#323232"/>
<path d="M48.2103 86.2776C46.805 86.4373 45.4232 86.6421 44.0565 86.9305C42.6906 87.2179 41.3427 87.5739 40.0078 87.991C38.6768 88.4184 37.3541 88.8824 36.04 89.3934C34.7183 89.8894 33.4098 90.4333 32.0599 90.934H32.0562C31.7133 91.0627 31.3319 90.888 31.2051 90.5451C31.0999 90.2624 31.2014 89.9533 31.4324 89.7823C32.6179 88.905 33.9001 88.1704 35.2274 87.5194C36.5613 86.8835 37.9441 86.3321 39.3738 85.9159C40.7988 85.4885 42.2642 85.172 43.7484 85.0029C45.2316 84.8338 46.7346 84.7972 48.2159 84.9672C48.5776 85.0085 48.8378 85.3354 48.7965 85.698C48.7608 86.0089 48.5146 86.2447 48.2159 86.2785H48.2103V86.2776Z" fill="#323232"/>
<path d="M51.5772 90.778C50.6115 91.444 49.6684 92.0753 48.777 92.7751C47.8827 93.4683 47.0222 94.1963 46.2069 94.9863C45.3972 95.7792 44.6259 96.6218 43.8942 97.5113C43.1558 98.3962 42.4626 99.329 41.7525 100.272L41.7496 100.276C41.5298 100.567 41.1156 100.625 40.8234 100.405C40.5792 100.221 40.4993 99.9001 40.6083 99.6296C41.0686 98.4911 41.6585 97.4033 42.3367 96.3644C43.0206 95.3301 43.7993 94.3457 44.6823 93.4533C45.5587 92.5562 46.5338 91.7418 47.6046 91.0767C48.6774 90.4173 49.829 89.8791 51.0474 89.5785C51.4043 89.4902 51.7651 89.7081 51.8534 90.066C51.921 90.3422 51.8064 90.6202 51.5866 90.7724L51.5781 90.778H51.5772Z" fill="#323232"/>
<path d="M118.223 61.8374L113.956 64.9927C113.664 65.2088 113.251 65.1468 113.035 64.8546C112.841 64.5916 112.872 64.2328 113.091 64.0054L116.783 60.1916C117.204 59.7567 117.899 59.7455 118.334 60.1663C118.769 60.5871 118.78 61.2822 118.359 61.7172C118.318 61.7594 118.269 61.8017 118.223 61.8365V61.8374Z" fill="#323232"/>
<path d="M114.55 69.773L119.962 67.7121C120.528 67.4969 121.161 67.7806 121.377 68.3461C121.592 68.9116 121.308 69.5447 120.743 69.7608C120.692 69.7796 120.636 69.7965 120.584 69.8078L114.923 71.0308C114.568 71.1078 114.219 70.8815 114.142 70.5264C114.072 70.2042 114.252 69.8867 114.551 69.773H114.55Z" fill="#323232"/>
<path d="M116.333 75.2006L120.735 75.2157C121.342 75.2176 121.831 75.7117 121.829 76.3175C121.828 76.9234 121.333 77.4138 120.728 77.4119C120.655 77.4119 120.579 77.4025 120.511 77.3893L116.199 76.5045C115.842 76.4312 115.613 76.0827 115.686 75.7267C115.75 75.4139 116.026 75.1988 116.334 75.1997L116.333 75.2006Z" fill="#323232"/>
<path d="M103.151 97.0197C104.987 101.646 105.952 106.594 106.091 111.543C106.231 116.495 105.563 121.451 104.184 126.193C102.802 130.934 100.714 135.478 97.9219 139.579C95.1301 143.669 91.6151 147.345 87.3542 150.057L88.022 148.391L88.5321 150.432L87.4218 149.318C89.0365 149.725 90.5085 150.629 91.6029 151.893C92.6916 153.146 93.4421 154.824 93.3829 156.642C93.3576 157.541 93.1237 158.445 92.7151 159.24C92.3055 160.035 91.7409 160.715 91.1163 161.266C89.8528 162.365 88.4081 163.002 86.984 163.45C86.8422 163.495 86.6985 163.517 86.5566 163.517H77.8666C77.8084 163.517 77.7502 163.513 77.6929 163.506L77.6713 163.504C75.7954 163.278 73.9871 162.413 72.6241 161.182C71.2404 159.96 70.2353 158.455 69.4904 156.892C68.7408 155.325 68.2523 153.678 67.9489 152.012C67.8719 151.595 67.8099 151.177 67.7573 150.758C67.7084 150.362 67.6624 150.011 67.6042 149.641C67.4849 148.914 67.3562 148.201 67.1692 147.514L67.1627 147.489C67.1505 147.446 67.1411 147.401 67.1335 147.358C66.6028 144.134 66.0787 140.909 65.6278 137.672C65.3873 136.057 65.1985 134.431 64.9815 132.811C64.8706 132.001 64.7795 131.188 64.6893 130.375C64.5964 129.563 64.5034 128.75 64.4291 127.934C64.3831 127.428 64.7551 126.979 65.2624 126.933C65.7189 126.89 66.1284 127.19 66.2383 127.62C66.4431 128.413 66.6291 129.21 66.8161 130.007C67.0049 130.803 67.1937 131.599 67.3618 132.399C67.7037 133.997 68.0729 135.591 68.3913 137.193C69.0574 140.394 69.651 143.605 70.2372 146.82L70.2024 146.664C70.4391 147.492 70.6261 148.324 70.7491 149.149C70.813 149.557 70.8666 149.985 70.9135 150.37C70.9586 150.73 71.0103 151.091 71.076 151.447C71.3334 152.875 71.7449 154.27 72.3395 155.549C72.9313 156.826 73.7147 157.989 74.6879 158.861C75.6554 159.743 76.8117 160.296 78.062 160.468L77.8676 160.455H86.5378L86.0907 160.522C87.2377 160.165 88.3057 159.659 89.0873 158.974C89.8688 158.287 90.3037 157.449 90.3235 156.547C90.3629 155.646 89.9646 154.67 89.2883 153.895C88.6157 153.114 87.6801 152.537 86.6731 152.285C86.1086 152.144 85.6971 151.705 85.5637 151.177V151.173L85.0527 149.132C84.8893 148.478 85.1739 147.815 85.7131 147.472L85.7206 147.467C89.5494 145.03 92.7977 141.658 95.3922 137.854C97.9886 134.042 99.95 129.782 101.244 125.337C102.537 120.89 103.162 116.246 103.03 111.629C102.901 107.014 102.002 102.427 100.307 98.1507L100.305 98.1469C99.9932 97.3616 100.377 96.472 101.164 96.1611C101.949 95.8492 102.839 96.2334 103.15 97.0187L103.151 97.0197Z" fill="#323232"/>
<path d="M85.0303 149.022L81.116 122.543C81.0418 122.042 81.3884 121.575 81.89 121.501C82.3766 121.428 82.8312 121.755 82.9252 122.233L88.0456 148.506C88.2072 149.336 87.6661 150.14 86.8357 150.301C86.0063 150.463 85.2022 149.922 85.0406 149.091C85.0368 149.071 85.0321 149.043 85.0284 149.023L85.0303 149.022Z" fill="#323232"/>
<path d="M44.238 130.467C46.9969 129.842 49.954 129.696 52.8087 130.419C55.6644 131.108 58.3143 132.766 60.2315 135.017C62.1619 137.27 63.3831 140.017 64.0453 142.819C64.7104 145.633 64.8456 148.519 64.6578 151.352L63.4516 149.882C64.5807 149.992 65.7267 150.217 66.8512 150.64C67.9718 151.059 69.0831 151.691 70.0055 152.621C70.928 153.541 71.6128 154.781 71.8495 156.11C72.0937 157.437 71.9359 158.819 71.3901 160.056C70.8509 161.285 69.8956 162.425 68.5373 163.059C67.8722 163.371 67.0813 163.528 66.3796 163.523L64.8081 163.528L58.5209 163.545L52.2329 163.563L49.0889 163.572L48.3026 163.574C48.0424 163.575 47.7221 163.534 47.4356 163.514C47.135 163.494 46.8579 163.455 46.5789 163.417C46.299 163.38 46.019 163.344 45.7419 163.29C43.5147 162.915 41.3589 162.163 39.3609 161.125C37.3713 160.07 35.5349 158.727 33.9436 157.139C30.7489 153.972 28.5367 149.829 27.6762 145.412C26.797 141.006 27.3305 136.301 29.1125 132.203C29.5521 131.174 30.0547 130.173 30.6343 129.218C31.2063 128.261 31.8676 127.34 32.5017 126.499C33.7896 124.784 35.1807 123.137 36.6677 121.574C39.6418 118.451 43.0713 115.702 46.8908 113.597L46.5244 113.877L58.5923 101.429C59.1804 100.822 60.1488 100.807 60.7557 101.395C61.3625 101.983 61.3803 102.949 60.7923 103.556L48.7544 116.035C48.6474 116.145 48.5281 116.237 48.4003 116.309L48.3881 116.315C44.8852 118.259 41.7187 120.803 38.9382 123.739C37.5489 125.209 36.2403 126.764 35.0229 128.396C34.402 129.226 33.8469 130.007 33.3471 130.845C32.8436 131.679 32.4087 132.552 32.0301 133.446C30.4924 137.025 30.0641 140.998 30.8156 144.801C31.5576 148.592 33.458 152.145 36.2046 154.866C38.9429 157.594 42.5021 159.479 46.2924 160.153C46.5282 160.202 46.7668 160.233 47.0044 160.266C47.243 160.3 47.4835 160.336 47.7043 160.351C47.9382 160.366 48.1373 160.404 48.3994 160.404L49.1809 160.406L52.3071 160.415L58.5604 160.432L64.8137 160.45L66.3768 160.455C66.7196 160.456 66.9761 160.4 67.2617 160.277C67.8121 160.033 68.3278 159.501 68.6312 158.827C68.9422 158.156 69.0446 157.372 68.9206 156.64C68.7966 155.906 68.449 155.223 67.9126 154.65C67.3744 154.076 66.6483 153.615 65.8226 153.283C64.9978 152.948 64.081 152.738 63.1369 152.602L63.089 152.595C62.3732 152.492 61.8698 151.845 61.9308 151.133C62.1591 148.533 62.0867 145.906 61.5476 143.392C61.0112 140.884 59.9892 138.487 58.3998 136.552C56.8301 134.61 54.6902 133.153 52.2536 132.481C49.8225 131.787 47.1801 131.803 44.6081 132.268H44.6016C44.1028 132.359 43.6246 132.027 43.5344 131.528C43.4471 131.044 43.7599 130.578 44.2352 130.47L44.238 130.467Z" fill="#323232"/>
<path d="M57.248 161.551L57.6848 157.616C57.7252 157.253 58.0512 156.993 58.4137 157.033C58.7266 157.068 58.9633 157.316 58.9962 157.616L59.4329 161.551C59.4996 162.155 59.0647 162.698 58.4617 162.765C57.8577 162.832 57.3147 162.397 57.2471 161.794C57.2386 161.713 57.2386 161.629 57.2471 161.551H57.248Z" fill="#323232"/>
<path d="M63.0399 161.551L63.4767 157.616C63.5171 157.253 63.843 156.993 64.2056 157.033C64.5184 157.068 64.7552 157.316 64.789 157.616L65.2258 161.551C65.2925 162.155 64.8576 162.698 64.2545 162.765C63.6505 162.832 63.1075 162.397 63.0399 161.794C63.0305 161.713 63.0314 161.629 63.0399 161.551Z" fill="#323232"/>
<path d="M85.4457 161.551L85.8825 157.616C85.9229 157.253 86.2488 156.993 86.6114 157.033C86.9242 157.068 87.1609 157.316 87.1947 157.616L87.6315 161.551C87.6982 162.155 87.2633 162.698 86.6603 162.765C86.0562 162.832 85.5133 162.397 85.4457 161.794C85.4363 161.713 85.4372 161.629 85.4457 161.551Z" fill="#323232"/>
<path d="M94.9534 161.551L95.3902 158.053C95.4353 157.691 95.7659 157.434 96.1276 157.48C96.4338 157.518 96.6649 157.76 96.7015 158.053L97.1383 161.551C97.2135 162.155 96.7861 162.705 96.1821 162.78C95.5781 162.855 95.0276 162.428 94.9524 161.824C94.9412 161.733 94.9421 161.638 94.9524 161.551H94.9534Z" fill="#323232"/>
<path d="M99.7625 161.551L100.199 158.053C100.244 157.691 100.575 157.434 100.937 157.48C101.243 157.518 101.474 157.76 101.511 158.053L101.947 161.551C102.023 162.155 101.595 162.705 100.991 162.78C100.387 162.855 99.8367 162.428 99.7615 161.824C99.7503 161.733 99.7512 161.638 99.7615 161.551H99.7625Z" fill="#323232"/>
<path d="M79.7626 161.551L80.1994 157.616C80.2398 157.253 80.5657 156.993 80.9283 157.033C81.2411 157.068 81.4778 157.316 81.5116 157.616L81.9484 161.551C82.0151 162.155 81.5802 162.698 80.9772 162.765C80.3731 162.832 79.8302 162.397 79.7626 161.794C79.7532 161.713 79.7541 161.629 79.7626 161.551Z" fill="#323232"/>
<path d="M101.029 163.518H92.0145C90.1302 163.518 88.5972 161.985 88.5972 160.1C88.5972 159.256 89.282 158.57 90.1274 158.57C90.9728 158.57 91.6576 159.255 91.6576 160.1C91.6576 160.298 91.8182 160.457 92.0155 160.457H101.03C102.098 160.457 103.013 159.735 103.207 158.74C103.605 156.695 102.459 154.278 100.421 152.862C100.013 152.579 99.7689 152.116 99.7642 151.62L99.5585 130.467C99.5501 129.623 100.229 128.931 101.074 128.922H101.089C101.927 128.922 102.61 129.598 102.619 130.437L102.817 150.838C105.445 152.996 106.797 156.314 106.211 159.323C105.739 161.753 103.559 163.517 101.03 163.517L101.029 163.518Z" fill="#323232"/>
<path d="M27.3417 151.074C17.6156 151.074 9.709 147.395 4.84971 140.529C-1.29181 131.853 -1.61871 119.226 3.97422 106.752C3.99019 106.717 4.00616 106.683 4.02401 106.65C8.57426 98.2347 14.0432 97.2737 17.6447 99.1815C22.2691 101.631 24.6673 109.175 20.877 116.51C17.887 122.817 17.4794 128.812 19.7601 132.96C21.513 136.148 24.7293 138.113 29.0607 138.645C29.8995 138.747 30.496 139.511 30.3927 140.35C30.2894 141.189 29.5285 141.786 28.6878 141.682C23.4152 141.036 19.2923 138.461 17.0783 134.434C14.2752 129.334 14.6463 122.494 18.1238 115.173C18.1313 115.156 18.1397 115.14 18.1482 115.125C21.078 109.479 19.4792 103.615 16.2131 101.885C13.2823 100.332 9.65639 102.697 6.74439 108.056C1.62302 119.515 1.84752 130.99 7.3484 138.76C12.1062 145.482 20.3153 148.725 30.4575 147.882C31.302 147.82 32.0394 148.439 32.1089 149.28C32.1784 150.122 31.5528 150.861 30.7102 150.932C29.5661 151.027 28.4426 151.073 27.3426 151.073L27.3417 151.074Z" fill="#323232"/>
<g opacity="0.3">
<path opacity="0.3" d="M108.287 92.8061L107.972 94.2921C102.538 97.5451 96.6495 99.9884 90.5249 101.601C52.417 111.635 27.6255 90.4098 42.3096 57.3209L50.729 47.6465L56.9278 52.3329C38.8114 72.8795 58.1387 115.15 108.286 92.8061H108.287Z" fill="#323232"/>
</g>
<g opacity="0.3">
<path opacity="0.3" d="M75.1717 152.991L69.792 124.742C69.6191 123.834 68.4524 123.559 67.8917 124.294L63.9435 129.475C63.0615 130.632 61.3735 130.777 60.3082 129.786C55.3465 109.768 73.0647 104.325 74.0397 104.045C67.6352 105.523 62.0132 104.141 59.0889 103.115L47.6391 114.957C41.9645 118.087 37.1991 122.673 33.1035 128.339C30.2009 132.352 28.6181 137.209 28.8802 142.153C29.4532 152.89 37.9384 161.253 48.0459 161.975C47.8974 161.835 47.749 161.695 47.5959 161.551C26.4322 141.651 45.2005 131.22 45.2005 131.22C67.1373 129.524 63.2954 151.242 63.2954 151.242L69.822 154.792L69.8831 154.823L69.8042 154.351L69.481 152.397C69.9404 154.705 72.1131 162.142 80.8557 161.989V158.798C78.4735 157.814 76.5582 155.925 75.1726 152.992L75.1717 152.991ZM69.3702 151.753L69.4792 152.388C69.4097 152.055 69.3787 151.828 69.3702 151.753Z" fill="#323232"/>
</g>
<g opacity="0.3">
<path opacity="0.3" d="M69.4801 152.387C69.4105 152.055 69.3795 151.828 69.3711 151.753L69.4801 152.387Z" fill="#323232"/>
</g>
<g opacity="0.3">
<path opacity="0.3" d="M69.4801 152.387C69.4105 152.055 69.3795 151.828 69.3711 151.753L69.4801 152.387Z" fill="#323232"/>
</g>
<g opacity="0.3">
<path opacity="0.3" d="M30.5809 149.406C7.3412 151.334 -3.46141 132.676 3.71716 111.578V111.573C4.18965 110.183 4.74012 108.784 5.36949 107.376C11.2236 96.5522 18.4979 98.9175 20.6096 105.256V105.261C10.0343 103.115 -2.4422 141.354 23.9143 138.783H23.919C25.3656 139.47 27.0273 139.937 28.8769 140.165L30.5818 149.406H30.5809Z" fill="#323232"/>
</g>
<path d="M106.997 60.5192C106.223 60.9118 105.446 61.3646 104.754 61.8578C104.06 62.3603 103.422 62.9033 102.862 63.5045C102.3 64.101 101.798 64.7397 101.392 65.4424C101.169 65.7805 101.002 66.1535 100.821 66.5189C100.645 66.8871 100.52 67.2826 100.362 67.663L98.4754 66.347C98.713 66.1807 98.8718 66.0933 99.0653 65.991C99.2503 65.8904 99.4382 65.8068 99.6261 65.7204C100.003 65.557 100.39 65.4273 100.781 65.3202C101.564 65.1108 102.376 65.0093 103.179 65.045C103.978 65.0948 104.774 65.2047 105.506 65.4912C106.249 65.7336 106.919 66.13 107.532 66.5621C107.72 66.6945 107.765 66.9547 107.632 67.1435C107.535 67.2816 107.368 67.3427 107.212 67.3126L107.164 67.3032C106.819 67.2365 106.492 67.1407 106.16 67.0806C105.824 67.0383 105.503 66.9604 105.174 66.9472C104.523 66.8824 103.881 66.904 103.261 66.9942C102.64 67.0712 102.038 67.2403 101.465 67.461C101.178 67.5691 100.903 67.7043 100.633 67.8415C100.502 67.9147 100.368 67.9852 100.246 68.065C100.129 68.1346 99.9859 68.2398 99.9332 68.2783L99.9107 68.2952C99.3743 68.6897 98.62 68.5742 98.2255 68.0378C97.9907 67.7184 97.9381 67.3145 98.047 66.9622C98.3523 65.9919 98.7159 65.0206 99.2851 64.1498C99.814 63.2602 100.523 62.4787 101.31 61.8221C102.098 61.1627 102.984 60.6338 103.926 60.2825C104.865 59.9171 105.828 59.6991 106.858 59.7057C107.089 59.7067 107.275 59.8955 107.274 60.1265C107.273 60.2881 107.18 60.4281 107.046 60.4967L106.999 60.5201L106.997 60.5192Z" fill="#323232"/>
<path d="M76.568 78.4438C79.8042 77.2157 81.1203 72.775 79.5076 68.525C77.8949 64.275 73.9641 61.8253 70.7279 63.0533C67.4916 64.2813 66.1755 68.7221 67.7882 72.9721C69.4009 77.2221 73.3318 79.6718 76.568 78.4438Z" fill="#323232"/>
<path d="M75.3964 71.0358C76.3417 70.6771 76.7263 69.38 76.2553 68.1388C75.7842 66.8976 74.6361 66.1822 73.6907 66.5409C72.7454 66.8996 72.3608 68.1966 72.8318 69.4379C73.3028 70.6791 74.451 71.3945 75.3964 71.0358Z" fill="white"/>
<path d="M52.2768 118.281C55.96 119.15 59.7785 118.234 62.947 115.725C65.7181 113.53 65.3724 109.211 62.3411 107.393L54.9972 102.99C52.7155 101.622 49.7011 102.157 48.1812 104.34C46.7149 106.446 46.2818 109.122 46.6078 111.814C46.9864 114.941 49.2117 117.556 52.2777 118.281H52.2768Z" fill="#E4B740"/>
<g opacity="0.3">
<path opacity="0.3" d="M63.8855 111.028C60.718 113.537 56.8995 114.453 53.2153 113.584C50.1493 112.86 47.9239 110.246 47.5454 107.118C47.4852 106.619 47.4599 106.122 47.4533 105.628C46.5853 107.488 46.343 109.643 46.606 111.814C46.9846 114.941 49.2099 117.557 52.276 118.281C55.9592 119.151 59.7777 118.235 62.9461 115.725C64.6595 114.367 65.178 112.199 64.6097 110.311C64.3955 110.567 64.1598 110.81 63.8855 111.028Z" fill="#323232"/>
</g>
<g opacity="0.55">
<path opacity="0.55" d="M47.2395 107.628C48.7594 105.445 51.7738 104.909 54.0555 106.278L61.3994 110.682C62.9296 111.599 63.7732 113.154 63.8793 114.751C65.5739 112.429 64.969 108.971 62.3388 107.394L54.9949 102.99C52.7132 101.622 49.6988 102.157 48.1789 104.34C47.2715 105.643 46.7614 107.166 46.5811 108.774C46.7746 108.378 46.9859 107.991 47.2395 107.628Z" fill="white"/>
</g>
<path d="M55.044 120.136C54.0069 120.136 52.9633 120.015 51.9253 119.77C48.2947 118.912 45.5471 115.79 45.0877 111.998C44.712 108.893 45.2643 106.067 46.6846 103.826C48.6103 100.788 52.7134 99.8366 55.8302 101.706L63.1272 106.081C65.003 107.206 66.2073 109.184 66.3501 111.372C66.4919 113.553 65.5977 115.577 63.8965 116.924C61.2259 119.039 58.1645 120.136 55.044 120.136ZM52.628 116.791C55.8603 117.555 59.1884 116.749 61.9962 114.525C62.8979 113.811 63.3714 112.734 63.2953 111.57C63.2173 110.368 62.5823 109.323 61.5528 108.706L54.2559 104.331C52.55 103.309 50.3134 103.817 49.2679 105.464C47.9565 107.534 47.9218 109.96 48.1247 111.63C48.43 114.153 50.2392 116.227 52.627 116.791H52.628Z" fill="#323232"/>
<path d="M163.812 70.1689C162.587 69.9209 161.32 69.7114 160.096 69.6081C158.865 69.4992 157.653 69.4832 156.469 69.5658C155.875 69.594 155.295 69.688 154.714 69.7641C154.427 69.8157 154.144 69.8843 153.859 69.9416C153.717 69.9745 153.573 69.9961 153.432 70.0308L153.016 70.1539C151.888 70.431 150.842 70.9364 149.802 71.454L149.078 68.4029C149.197 68.4132 149.269 68.4236 149.348 68.4339C149.43 68.4443 149.506 68.4555 149.578 68.4687C149.726 68.495 149.875 68.5213 150.017 68.5542C150.305 68.6124 150.583 68.6885 150.862 68.7618C151.416 68.9149 151.953 69.114 152.478 69.3301C153.527 69.7687 154.517 70.3436 155.414 71.0331C156.307 71.7254 157.127 72.5117 157.777 73.4191C158.468 74.2899 158.962 75.2922 159.361 76.2907C159.477 76.58 159.336 76.9088 159.047 77.0243C158.831 77.1108 158.593 77.0544 158.439 76.8994L158.391 76.8515C158.032 76.4927 157.727 76.1103 157.373 75.775C157.013 75.4434 156.68 75.1015 156.3 74.8093C155.568 74.2006 154.783 73.6859 153.964 73.2528C153.152 72.8085 152.296 72.4591 151.421 72.1923C150.984 72.057 150.54 71.9509 150.1 71.8551C149.88 71.8137 149.659 71.7686 149.442 71.7414C149.332 71.7226 149.227 71.7132 149.121 71.7019C149.068 71.6944 149.017 71.6888 148.971 71.686L148.858 71.6766L148.815 71.6728C147.916 71.6024 147.244 70.8161 147.314 69.9172C147.358 69.3601 147.685 68.8857 148.134 68.6255C149.394 67.9088 150.719 67.2485 152.145 66.9169C152.497 66.8163 152.849 66.7215 153.21 66.6783C153.57 66.6228 153.928 66.559 154.288 66.5148C155.011 66.4725 155.732 66.4096 156.448 66.466C157.881 66.5308 159.286 66.7919 160.614 67.2419C161.942 67.7078 163.186 68.2958 164.327 69.1704C164.576 69.3611 164.623 69.718 164.432 69.9669C164.296 70.1445 164.075 70.2196 163.869 70.1783L163.813 70.167L163.812 70.1689Z" fill="#323232"/>
<path opacity="0.2" d="M9.85143 161.373C14.6008 160.286 19.3502 159.998 24.1005 159.882C28.8499 159.731 33.5993 159.811 38.3496 159.893C43.099 159.982 47.8484 159.962 52.5987 159.964H209.336L216.46 159.962C218.835 159.964 221.209 159.866 223.584 159.822C225.959 159.776 228.334 159.847 230.708 160.024C233.083 160.233 235.458 160.582 237.832 161.373C238.221 161.502 238.432 161.923 238.302 162.312C238.226 162.541 238.045 162.71 237.832 162.782C235.458 163.574 233.083 163.922 230.708 164.131C228.334 164.307 225.959 164.379 223.584 164.333C221.209 164.289 218.835 164.191 216.46 164.193L209.336 164.191H52.5987C47.8493 164.193 43.1 164.173 38.3496 164.261C33.6002 164.344 28.8509 164.424 24.1005 164.273C19.3511 164.157 14.6018 163.869 9.85143 162.782C9.46253 162.693 9.21924 162.306 9.30848 161.916C9.37236 161.637 9.59029 161.433 9.85143 161.373Z" fill="#390565"/>
</svg>
