<svg width="34" height="34" viewBox="0 0 34 34" fill="none" xmlns="http://www.w3.org/2000/svg">
<path d="M16.9214 9.08027C18.6803 9.21935 20.4392 8.24578 21.5385 7.01143C22.6195 5.74232 23.334 4.03857 23.1508 2.30005C21.5935 2.36959 19.6697 3.27362 18.5704 4.54274C17.5627 5.638 16.7016 7.41129 16.9214 9.08027Z" fill="#323232"/>
<path d="M19.0268 10.2782C20.1689 9.85267 21.5828 9.32586 23.1323 9.41048C24.1217 9.48002 26.9799 9.75818 28.8121 12.3312C28.8037 12.3372 28.7851 12.3487 28.7575 12.3657C28.3042 12.6454 25.4246 14.4222 25.4592 17.9292C25.4936 22.1074 29.0804 23.6655 29.5497 23.8694C29.5803 23.8827 29.5977 23.8902 29.5999 23.8923C29.5979 23.898 29.5943 23.9092 29.5889 23.9256C29.4953 24.213 28.8784 26.1069 27.4746 28.0474C26.1737 29.8554 24.8362 31.6287 22.7109 31.6635C21.7108 31.6804 21.037 31.4042 20.3355 31.1165C19.5976 30.8139 18.829 30.4987 17.6175 30.4987C16.3624 30.4987 15.5586 30.8223 14.7849 31.1339C14.1128 31.4045 13.4634 31.6659 12.5607 31.6983C10.5086 31.7678 8.95128 29.7859 7.65043 27.9778C4.99377 24.327 2.96006 17.6858 5.70832 13.2004C7.04581 10.9578 9.48261 9.54956 12.1026 9.51479C13.2457 9.49507 14.3357 9.90596 15.2891 10.2653C16.0167 10.5396 16.6647 10.7839 17.1961 10.7839C17.6695 10.7839 18.2919 10.552 19.0268 10.2782Z" fill="#323232"/>
</svg>
