<svg width="24" height="24" viewBox="0 0 24 24" fill="none" xmlns="http://www.w3.org/2000/svg">
<path d="M16 2V5M12 2V5M8 2V5M12 16H17M12 11H17M20 3H4C2.895 3 2 3.895 2 5V20C2 21.105 2.895 22 4 22H20C21.105 22 22 21.105 22 20V5C22 3.895 21.105 3 20 3ZM8.63388 15.1161C9.12204 15.6043 9.12204 16.3957 8.63388 16.8839C8.14573 17.372 7.35427 17.372 6.86611 16.8839C6.37795 16.3957 6.37795 15.6043 6.86611 15.1161C7.35426 14.6279 8.14572 14.6279 8.63388 15.1161ZM8.63388 10.1161C9.12204 10.6043 9.12204 11.3957 8.63388 11.8839C8.14573 12.372 7.35427 12.372 6.86611 11.8839C6.37795 11.3957 6.37795 10.6043 6.86611 10.1161C7.35426 9.62795 8.14572 9.62795 8.63388 10.1161Z" stroke="#323232" stroke-width="1.5" stroke-linecap="round" stroke-linejoin="round"/>
</svg>
