<svg width="34" height="34" viewBox="0 0 34 34" fill="none" xmlns="http://www.w3.org/2000/svg">
<path d="M31.8063 17.3427C31.8063 16.2946 31.722 15.2466 31.5533 14.22H17.2389V20.1445H25.4396C25.1023 22.0481 24.0061 23.7591 22.4039 24.8285V28.6784H27.2948C30.1619 26.0049 31.8063 22.0481 31.8063 17.3427Z" fill="#4285F4"/>
<path d="M17.2395 32.4001C21.3293 32.4001 24.7861 31.0311 27.2948 28.6784L22.4039 24.8285C21.0335 25.7696 19.2844 26.3045 17.2395 26.3045C13.2761 26.3045 9.92414 23.5882 8.72248 19.9522H3.68396V23.9304C6.25593 29.1277 11.5053 32.4001 17.2395 32.4001Z" fill="#34A853"/>
<path d="M8.72248 19.9522C8.08993 18.0486 8.09052 15.9739 8.72307 14.0489V10.0921H3.68375C1.51199 14.4339 1.51199 19.5671 3.68375 23.9089L8.72248 19.9522Z" fill="#FBBC04"/>
<path d="M17.2395 7.69666C19.4109 7.65388 21.498 8.48802 23.058 10.0066L27.4008 5.60062C24.6391 2.99126 21.0131 1.55825 17.2395 1.60103C11.5053 1.60103 6.25571 4.8948 3.68375 10.0921L8.72248 14.0703C9.92414 10.413 13.2761 7.69666 17.2395 7.69666Z" fill="#EA4335"/>
</svg>
