<svg width="24" height="24" viewBox="0 0 24 24" fill="none" xmlns="http://www.w3.org/2000/svg">
<path d="M20.0033 10.5453V21.0037M22.0042 11.9999L12.6253 5.18208C12.2752 4.92857 11.8019 4.92857 11.4518 5.18208L1.99585 11.9999M19.5031 9.74197V4.49679C19.5031 4.22053 19.2792 3.99658 19.0029 3.99658H16.0017C15.7254 3.99658 15.5015 4.22053 15.5015 4.49679V7.10688M22.0042 21.0037H1.99585M3.99668 10.5573V21.0037M6.99793 21.0037V15.5014C6.99793 15.2251 7.22188 15.0012 7.49814 15.0012H9.99918C10.2754 15.0012 10.4994 15.2251 10.4994 15.5014V21.0037M14.0006 18.0024H17.0023C17.2784 18.0024 17.5023 17.7786 17.5023 17.5024V15.5012C17.5023 15.225 17.2784 15.0012 17.0023 15.0012H14.0006C13.7245 15.0012 13.5006 15.225 13.5006 15.5012V17.5024C13.5006 17.7786 13.7245 18.0024 14.0006 18.0024Z" stroke="#323232" stroke-width="1.5" stroke-linecap="round" stroke-linejoin="round"/>
</svg>
