<svg width="40" height="40" viewBox="0 0 40 40" fill="none" xmlns="http://www.w3.org/2000/svg">
<path d="M28.3372 20.833C25.6696 21.9452 22.6682 21.9455 20.0004 20.8337C17.3326 19.7219 14.3312 19.7221 11.6636 20.8344M16.6151 8.3183C16.5062 9.42547 16.0301 10.4644 15.2625 11.2697L13.5345 13.0598C12.3343 14.3031 11.6636 15.9636 11.6636 17.6917V31.6715C11.6636 33.5132 13.1566 35.0062 14.9983 35.0062H25.0025C25.8869 35.0062 26.7351 34.6549 27.3605 34.0295C27.9858 33.4041 28.3372 32.5559 28.3372 31.6715V17.6917C28.3372 15.9637 27.6664 14.3031 26.4663 13.0598L24.7383 11.2697C23.9707 10.4644 23.4946 9.42549 23.3857 8.3183M17.4993 3.32639H22.5014C23.8827 3.32639 25.0025 4.44614 25.0025 5.82743V6.66111C25.0025 7.58197 24.256 8.32847 23.3351 8.32847H16.6657C15.7448 8.32847 14.9983 7.58197 14.9983 6.66111V5.82743C14.9983 4.44614 16.1181 3.32639 17.4993 3.32639Z" stroke="#323232" stroke-width="2" stroke-linecap="round" stroke-linejoin="round"/>
</svg>
