<svg width="24" height="24" viewBox="0 0 24 24" fill="none" xmlns="http://www.w3.org/2000/svg">
<path d="M1.99951 14.31H17.556M5.55542 9.77752L6.89995 4.755C7.05249 4.18578 7.42528 3.70067 7.93604 3.40673C8.4468 3.11278 9.05353 3.03417 9.62233 3.18824L20.3563 6.06619C20.9255 6.21874 21.4106 6.59153 21.7046 7.10228C21.9985 7.61304 22.0771 8.21977 21.9231 8.78858L20.2008 15.2223C19.8943 16.3802 18.7224 17.0843 17.5561 16.8113M17.556 18.667V11.9999C17.5562 11.4104 17.3221 10.8451 16.9053 10.4283C16.4885 10.0115 15.9231 9.77736 15.3337 9.77753H4.22187C3.63241 9.77736 3.06705 10.0115 2.65025 10.4283C2.23344 10.8451 1.99935 11.4104 1.99951 11.9999V18.667C1.99935 19.2564 2.23344 19.8218 2.65025 20.2386C3.06705 20.6554 3.63241 20.8895 4.22187 20.8893H15.3337C16.561 20.8893 17.556 19.8943 17.556 18.667Z" stroke="#323232" stroke-width="1.5" stroke-linecap="round" stroke-linejoin="round"/>
</svg>
