<svg width="24" height="24" viewBox="0 0 24 24" fill="none" xmlns="http://www.w3.org/2000/svg">
<path fill-rule="evenodd" clip-rule="evenodd" d="M7.9912 22.4873L8.36845 20.0106L7.52807 19.9904H3.51511L6.30397 1.71339C6.31266 1.65805 6.34075 1.60667 6.38177 1.57012C6.42299 1.53358 6.47553 1.51353 6.53049 1.51353H13.297C15.5435 1.51353 17.0937 1.99659 17.903 2.9502C18.2825 3.39755 18.5241 3.86516 18.6411 4.37955C18.7638 4.91943 18.7658 5.56435 18.6462 6.35108L18.6375 6.40831V6.91247L19.0169 7.13468C19.3364 7.30991 19.5904 7.5104 19.7852 7.73993C20.1097 8.12254 20.3196 8.60874 20.4084 9.18495C20.5001 9.77766 20.4698 10.4832 20.3196 11.2818C20.1465 12.2003 19.8666 13.0004 19.4886 13.6549C19.141 14.2581 18.6981 14.7585 18.1721 15.1461C17.67 15.5145 17.0735 15.7942 16.399 15.9732C15.7454 16.149 15.0001 16.2378 14.1828 16.2378H13.6562C13.2798 16.2378 12.9141 16.3779 12.6269 16.6291C12.339 16.8856 12.1486 17.2361 12.0902 17.6193L12.0504 17.8423L11.3838 22.2079L11.3537 22.3681C11.3456 22.4188 11.3319 22.4441 11.3117 22.4612C11.2937 22.4769 11.2678 22.4873 11.2426 22.4873H7.9912Z" fill="#28356A"/>
<path fill-rule="evenodd" clip-rule="evenodd" d="M19.3764 6.46653C19.3564 6.59998 19.3332 6.73636 19.3073 6.8765C18.415 11.6119 15.362 13.2478 11.463 13.2478H9.47778C9.00091 13.2478 8.59901 13.6056 8.52485 14.0918L7.22054 22.6431C7.17224 22.9624 7.41027 23.25 7.72186 23.25H11.243C11.6599 23.25 12.0141 22.9369 12.0797 22.5119L12.1143 22.3271L12.7773 17.9787L12.8199 17.7402C12.8848 17.3137 13.2398 17.0004 13.6566 17.0004H14.1832C17.5946 17.0004 20.2653 15.569 21.0459 11.4263C21.3718 9.69574 21.2031 8.25072 20.3403 7.23447C20.0792 6.92808 19.7553 6.67371 19.3764 6.46653Z" fill="#298FC2"/>
<path fill-rule="evenodd" clip-rule="evenodd" d="M18.4427 6.08186C18.3063 6.04072 18.1656 6.00355 18.0214 5.96992C17.8763 5.93713 17.7278 5.9081 17.5748 5.88262C17.0395 5.79324 16.4529 5.75084 15.8247 5.75084H10.5212C10.3905 5.75084 10.2664 5.78133 10.1555 5.83647C9.91077 5.95802 9.72911 6.19736 9.68506 6.49037L8.55674 13.8765L8.52485 14.0918C8.59901 13.6056 9.00091 13.2478 9.47778 13.2478H11.463C15.362 13.2478 18.415 11.6119 19.3073 6.8765C19.3332 6.73636 19.3564 6.59998 19.3764 6.46653C19.1507 6.34268 18.9058 6.23683 18.6425 6.14661C18.5774 6.12426 18.5104 6.10275 18.4427 6.08186Z" fill="#22284F"/>
<path fill-rule="evenodd" clip-rule="evenodd" d="M9.68506 6.49037C9.72911 6.19736 9.91077 5.95802 10.1555 5.83647C10.2664 5.78133 10.3905 5.75084 10.5212 5.75084H15.8247C16.4529 5.75084 17.0395 5.79324 17.5748 5.88262C17.7278 5.9081 17.8763 5.93713 18.0214 5.96992C18.1656 6.00355 18.3063 6.04072 18.4427 6.08186C18.5104 6.10275 18.5768 6.1251 18.6425 6.14661C18.9058 6.23683 19.1507 6.34268 19.3764 6.46653C19.6419 4.71659 19.3748 3.52518 18.4595 2.44627C17.4502 1.25834 15.6288 0.75 13.298 0.75H6.53134C6.05528 0.75 5.64913 1.10776 5.57558 1.59479L2.75721 20.0597C2.70165 20.425 2.97423 20.7545 3.33067 20.7545H7.50811L9.68506 6.49037Z" fill="#28356A"/>
</svg>
