<svg width="41" height="41" viewBox="0 0 41 41" fill="none" xmlns="http://www.w3.org/2000/svg">
<path d="M17.6624 17.6621H4.3291M24.9624 23.2955L32.0291 30.3621M28.1088 5.54919C29.736 7.17637 29.736 9.81455 28.1088 11.4417C26.4816 13.0689 23.8434 13.0689 22.2162 11.4417C20.589 9.81455 20.589 7.17637 22.2162 5.54919C23.8434 3.922 26.4816 3.922 28.1088 5.54919ZM15.7098 12.9481C18.3133 15.5516 18.3133 19.7727 15.7098 22.3762C13.1063 24.9797 8.88522 24.9797 6.28173 22.3762C3.67823 19.7727 3.67823 15.5516 6.28173 12.9481C8.88523 10.3446 13.1063 10.3446 15.7098 12.9481ZM36.1874 26.2538L27.9208 34.5205C25.9541 36.4871 22.7674 36.4871 20.8008 34.5205C18.8341 32.5538 18.8341 29.3671 20.8008 27.4005L29.0674 19.1338C31.0341 17.1671 34.2208 17.1671 36.1874 19.1338C38.1541 21.1005 38.1541 24.2888 36.1874 26.2538Z" stroke="#323232" stroke-width="2" stroke-linecap="round" stroke-linejoin="round"/>
</svg>
