<svg width="24" height="24" viewBox="0 0 24 24" fill="none" xmlns="http://www.w3.org/2000/svg">
<path d="M9.11222 8.494L5.97 15.9907H3.92L2.37444 10.0084C2.28 9.63956 2.19889 9.50512 1.91333 9.34956C1.44666 9.09623 0.677778 8.85956 0 8.71178L0.045556 8.48956H3.34555C3.56138 8.48912 3.77024 8.56596 3.93431 8.70619C4.09838 8.84641 4.20681 9.04074 4.24 9.254L5.05667 13.5873L7.07555 8.48401L9.11222 8.494ZM17.1444 13.5429C17.1533 11.5651 14.4089 11.4562 14.4278 10.5718C14.4333 10.3029 14.69 10.0162 15.25 9.944C15.9058 9.8806 16.5666 9.99578 17.1622 10.2773L17.5033 8.68734C16.923 8.46964 16.3087 8.35677 15.6889 8.354C13.7722 8.354 12.4222 9.37289 12.4122 10.8318C12.3989 11.9118 13.3744 12.5129 14.11 12.8718C14.8644 13.2396 15.1178 13.4751 15.1156 13.804C15.11 14.3073 14.5133 14.5284 13.9544 14.5373C12.98 14.5529 12.4133 14.274 11.9633 14.064L11.6122 15.7062C12.0644 15.9151 12.9011 16.0962 13.7689 16.1051C15.8056 16.1051 17.1378 15.0984 17.1444 13.5396V13.5429ZM22.2067 15.984H24L22.4344 8.494H20.7789C20.6022 8.49325 20.4293 8.54517 20.2823 8.64313C20.1352 8.74109 20.0207 8.88066 19.9533 9.04401L17.0433 15.9907H19.08L19.4844 14.8707H21.9722L22.2067 15.984ZM20.0422 13.3285L21.0633 10.5251L21.6511 13.3407L20.0422 13.3285ZM11.8833 8.48734L10.28 15.984H8.34L9.94444 8.48734H11.8833Z" fill="#1434CB"/>
</svg>
