<svg width="24" height="24" viewBox="0 0 24 24" fill="none" xmlns="http://www.w3.org/2000/svg">
<path d="M19.4961 18.0026V21.0038M19.5031 10.9997C20.8839 10.9997 22.0042 12.119 22.0042 13.4997V15.5026C22.0042 16.8833 20.8839 18.0026 19.5031 18.0026C18.1224 18.0026 17.0021 16.8833 17.0021 15.5026V13.4997C17.0021 12.119 18.1224 10.9997 19.5031 10.9997ZM19.5031 10.9997L19.5031 3.99675C19.5031 3.44424 19.0552 2.99634 18.5027 2.99634H8.99877C8.44625 2.99634 7.99835 3.44424 7.99835 3.99675V6.998M8.49856 19.003V21.0038M5.49731 16.0018H11.4998M5.49731 13.0005H11.4998M5.49731 9.99925H11.4998M2.99627 21.0038V7.99842C2.99627 7.44591 3.44417 6.998 3.99668 6.998H13.0004C13.5529 6.998 14.0008 7.44591 14.0008 7.99842V21.0038M1.99585 21.0038H22.0042" stroke="#323232" stroke-width="1.5" stroke-linecap="round" stroke-linejoin="round"/>
</svg>
