<svg width="154" height="176" viewBox="0 0 154 176" fill="none" xmlns="http://www.w3.org/2000/svg">
<g opacity="0.2">
<path opacity="0.6" d="M79.0202 175.903C116.161 175.903 146.27 168.105 146.27 158.486C146.27 148.867 116.161 141.07 79.0202 141.07C41.8789 141.07 11.77 148.867 11.77 158.486C11.77 168.105 41.8789 175.903 79.0202 175.903Z" fill="#390565"/>
</g>
<path d="M125.685 82.0467V82.0398H126.914L125.685 82.0467Z" fill="#323232"/>
<path d="M126.299 82.0469C126.289 91.8372 103.773 126.037 84.5874 131.239C82.9878 131.674 81.4083 131.907 79.8716 131.907C77.4957 131.907 75.1588 131.529 72.8716 130.838C59.6719 126.846 48.0876 112.442 40.3473 100.308C40.3411 100.298 40.3373 100.295 40.3341 100.292C34.2721 90.788 30.5665 82.6822 30.2935 82.0771C39.7711 97.9426 61.4452 108.654 79.7885 108.654C98.1318 108.654 117.746 97.0701 126.299 82.0475L126.299 82.0469Z" fill="#FE5359"/>
<path d="M79.8708 132.521C77.5144 132.521 75.0996 132.153 72.6935 131.426C59.1686 127.336 47.378 112.463 39.8591 100.685L39.8157 100.621C33.643 90.9428 29.8895 82.6754 29.7329 82.3282L30.8205 81.7601C39.7704 96.7413 60.8217 108.038 79.7884 108.038C97.7537 108.038 117.09 96.979 125.765 81.7419L126.915 79.7214L126.913 82.047C126.908 87.1428 121.107 98.3679 113.12 108.738C103.592 121.108 93.2504 129.525 84.7465 131.831C83.0625 132.289 81.422 132.521 79.8702 132.521L79.8708 132.521ZM40.8316 99.9298L40.8555 99.9638C48.2706 111.587 59.8656 126.263 73.0489 130.25C75.3399 130.942 77.6352 131.293 79.8708 131.293C81.3138 131.293 82.8462 131.075 84.4257 130.646C102.036 125.871 121.826 96.9734 125.187 85.0066C120.888 91.4171 114.592 97.2042 107.175 101.514C98.5721 106.514 88.8459 109.267 79.7884 109.267C70.7309 109.267 60.55 106.636 51.4309 101.858C44.5643 98.2597 38.6149 93.6118 34.1317 88.4053C35.8056 91.5655 38.0745 95.6033 40.8322 99.9292L40.8316 99.9298Z" fill="#323232"/>
<path d="M82.1883 124.436C81.8637 124.403 81.5335 124.394 81.2152 124.33C80.7547 124.238 80.3232 124.275 79.8942 124.465C79.2671 124.744 78.6141 124.831 77.9461 124.633C76.8491 124.307 76.3968 123.259 76.9252 122.243C77.0579 121.988 77.2435 121.752 77.441 121.541C77.8316 121.124 78.1568 120.669 78.404 120.152C78.7336 119.463 79.2891 119.068 80.0496 119.003C80.8164 118.937 81.4404 119.235 81.87 119.873C82.1732 120.322 82.5336 120.687 83.0067 120.955C83.4105 121.184 83.7244 121.517 83.9282 121.942C84.2842 122.684 84.0811 123.476 83.4143 123.959C83.0759 124.204 82.6645 124.351 82.1927 124.396L82.1889 124.436L82.1883 124.436Z" fill="white"/>
<path d="M79.3062 115.631C79.3659 116.067 79.3823 116.503 79.2188 116.918C79.1326 117.135 79.0193 117.354 78.8696 117.531C78.3695 118.119 77.5663 118.112 77.0272 117.514C76.5416 116.976 76.3522 116.337 76.5164 115.622C76.6655 114.971 77.0014 114.422 77.5059 113.985C77.6348 113.873 77.7877 113.78 77.9437 113.711C78.2607 113.572 78.5444 113.655 78.7595 113.927C78.981 114.207 79.0822 114.539 79.1621 114.878C79.2206 115.127 79.259 115.38 79.3062 115.632V115.631Z" fill="white"/>
<path d="M80.0283 115.565C80.0522 115.132 80.061 114.699 80.1069 114.269C80.1264 114.084 80.2026 113.896 80.2894 113.729C80.4272 113.462 80.6668 113.356 80.965 113.397C81.3267 113.446 81.623 113.633 81.896 113.86C82.3728 114.256 82.7596 114.725 82.9087 115.338C83.0628 115.972 82.9609 116.578 82.5564 117.104C82.0494 117.764 81.2021 117.769 80.6284 117.132C80.3416 116.814 80.1812 116.435 80.1126 116.016C80.0881 115.868 80.0812 115.716 80.0661 115.566L80.0283 115.565Z" fill="white"/>
<path d="M85.6273 118.1C85.7053 118.897 85.4637 119.528 84.8466 119.985C84.166 120.488 83.3458 120.204 83.0941 119.394C82.9941 119.073 82.9765 118.744 83.0545 118.419C83.1872 117.869 83.4036 117.352 83.754 116.901C83.8502 116.777 83.9698 116.664 84.0987 116.574C84.3604 116.394 84.634 116.413 84.8831 116.61C85.2354 116.889 85.4128 117.277 85.5361 117.694C85.5788 117.838 85.6027 117.988 85.6273 118.099V118.1Z" fill="white"/>
<path d="M77.114 119.634C77.0825 119.849 77.0756 120.071 77.0152 120.277C76.8378 120.88 76.2491 121.176 75.6502 120.982C74.918 120.746 74.3928 120.041 74.3475 119.237C74.3236 118.807 74.372 118.388 74.5475 117.991C74.6003 117.872 74.6702 117.756 74.7494 117.652C74.9664 117.366 75.259 117.294 75.5867 117.441C75.6773 117.482 75.7685 117.531 75.8439 117.594C76.3899 118.053 76.7926 118.613 77.0184 119.293C77.0542 119.401 77.0662 119.516 77.0895 119.628L77.114 119.634Z" fill="white"/>
<path d="M126.925 80.9082L123.631 123.094C122.452 122.683 121.153 122.456 119.741 122.456C113.129 122.456 107.067 127.011 104.332 133.04C103.674 134.494 103.207 136.031 102.977 137.614L102.974 137.627L101.542 142.455C98.4616 137.749 93.6073 137.453 93.6073 137.453C93.6073 137.453 89.5959 136.808 84.5869 136.564V131.239C103.773 126.036 126.289 91.8371 126.299 82.0468C126.513 81.6681 126.723 81.29 126.924 80.9082H126.925Z" fill="#FFDCBF"/>
<path d="M126.31 80.9079V80.9016H127.539L126.31 80.9079Z" fill="#323232"/>
<path d="M72.871 130.837V136.695C67.3556 137.077 62.7347 137.972 62.7347 137.972C62.7347 137.972 58.295 138.393 55.2152 142.642L53.4678 136.751L53.4647 136.737C53.2671 135.773 52.9872 134.832 52.6287 133.917L52.6224 133.894C50.0918 127.447 43.7699 122.455 36.8524 122.455C36.1907 122.455 35.556 122.504 34.9439 122.599L28.9448 79.6104C29.3531 80.4331 29.8003 81.2427 30.2777 82.0391C30.2777 82.0391 30.2841 82.0523 30.2941 82.0755C30.5671 82.6813 34.2727 90.7864 40.3348 100.291C40.3379 100.294 40.3411 100.297 40.348 100.307C48.0883 112.44 59.672 126.845 72.8723 130.837L72.871 130.837Z" fill="#FFDCBF"/>
<path d="M126.273 144.498C127.257 144.837 128.122 145.246 128.833 145.709C130.199 146.594 131.002 147.674 131.002 148.842C131.002 150.689 128.995 152.318 125.924 153.298C124.009 153.914 121.676 154.273 119.162 154.273C117.273 154.273 115.486 154.069 113.906 153.707C112.172 153.315 110.678 152.729 109.556 152.015C105.238 149.761 102.276 144.772 102.875 138.444C102.902 138.171 102.934 137.898 102.974 137.628L102.977 137.615L104.333 133.04C107.068 127.012 113.129 122.457 119.741 122.457C121.152 122.457 122.453 122.684 123.631 123.095C129.232 125.067 132.151 131.293 131.444 137.951C130.851 140.313 129.432 143.078 126.273 144.499L126.273 144.498Z" fill="#FFDCBF"/>
<path d="M104.332 133.039L102.977 137.614C103.207 136.031 103.674 134.494 104.332 133.039Z" fill="#FFDCBF"/>
<path d="M120.021 145.402C122.631 145.597 124.675 145.221 126.274 144.497L120.021 145.402Z" fill="#FFDCBF"/>
<path d="M47.0375 152.014C44.8887 153.383 41.3868 154.272 37.4315 154.272C36.632 154.272 35.852 154.235 35.0984 154.163C33.7755 154.045 32.5351 153.824 31.4129 153.518C27.928 152.574 25.5911 150.833 25.5911 148.842C25.5911 147.674 26.3944 146.595 27.76 145.709C28.4708 145.245 29.3364 144.837 30.3202 144.498C28.5199 143.688 27.2857 142.441 26.4466 141.082C25.8113 140.058 25.4037 138.966 25.1502 137.948C24.3639 130.547 28.0626 123.673 34.9436 122.6C35.5557 122.504 36.191 122.455 36.8521 122.455C43.7696 122.455 50.0914 127.447 52.6221 133.894L52.6284 133.918L53.4643 136.738L53.4675 136.751C53.5795 137.307 53.665 137.874 53.7178 138.443C54.3167 144.772 51.3552 149.761 47.0375 152.014Z" fill="#FFDCBF"/>
<path d="M53.4644 136.738L52.6284 133.917C52.987 134.832 53.2669 135.774 53.4644 136.738Z" fill="#FFDCBF"/>
<path d="M30.3218 144.497C31.9214 145.221 33.9645 145.596 36.5744 145.402L30.3218 144.497Z" fill="#FFDCBF"/>
<path d="M84.5869 131.239V136.564C82.5431 136.462 80.3352 136.43 78.1632 136.535C76.3861 136.508 74.5858 136.577 72.8711 136.696V130.838C75.1583 131.529 77.4945 131.907 79.871 131.907C81.4077 131.907 82.9872 131.674 84.5869 131.239Z" fill="#FFDCBF"/>
<path d="M78.6642 136.143C78.7234 136.14 78.7863 136.137 78.8454 136.137C81.0174 136.032 83.2254 136.065 85.2691 136.167C90.2781 136.41 94.2895 137.055 94.2895 137.055C94.2895 137.055 99.1438 137.352 102.224 142.058C102.8 142.939 103.317 143.976 103.725 145.194C106.319 152.914 106.555 152.99 107.5 155.587C108.211 157.542 111.508 167.269 79.9053 167.806L77.8024 167.839C46.1997 168.375 49.4971 158.535 50.2079 156.554C51.1521 153.925 51.3892 153.843 53.9827 146.037C54.486 144.516 55.154 143.269 55.8982 142.246C58.9786 137.997 63.4177 137.576 63.4177 137.576C63.4177 137.576 68.0379 136.681 73.5539 136.299C75.2687 136.18 77.0684 136.111 78.846 136.138C78.9121 136.135 78.9775 136.138 79.0435 136.138" fill="#0BA011"/>
<g opacity="0.6">
<path opacity="0.6" d="M130.764 139.614C130.764 139.614 133.806 123.491 119.74 122.455C119.74 122.455 131.337 130.987 130.764 139.614Z" fill="white"/>
</g>
<g opacity="0.6">
<path opacity="0.6" d="M25.9204 139.02C25.9204 139.02 22.8784 122.897 36.9443 121.861C36.9443 121.861 25.3473 130.393 25.9204 139.02Z" fill="white"/>
</g>
<g opacity="0.6">
<path opacity="0.6" d="M122.883 87.7917C122.883 87.7917 119.263 97.9935 97.8721 113.461C97.8721 113.461 121.238 102.93 122.883 87.7917Z" fill="white"/>
</g>
<g opacity="0.6">
<path opacity="0.6" d="M102.427 143.542C102.427 143.542 96.4233 137.874 79.6218 138.364C57.5822 139.006 53.8477 145.688 53.8477 145.688C53.8477 145.688 54.5484 135.604 79.9507 136.081C105.352 136.557 102.798 144.069 102.798 144.069" fill="white"/>
</g>
<g opacity="0.6">
<path opacity="0.6" d="M60.6436 143.699C60.6436 143.699 64.9216 150.269 77.7565 150.269C90.5913 150.269 96.4231 143.328 96.4231 143.328C96.4231 143.328 78.1949 152.267 60.6436 143.699Z" fill="white"/>
</g>
<g opacity="0.6">
<path opacity="0.6" d="M33.6694 87.637C33.6694 87.637 42.274 109.137 61.9603 114.344C61.9603 114.344 43.2239 102.23 33.6694 87.637Z" fill="white"/>
</g>
<g opacity="0.3">
<path opacity="0.3" d="M126.273 144.608C127.257 144.947 128.122 145.356 128.833 145.819C130.199 146.704 131.002 147.784 131.002 148.952C131.002 150.799 128.995 152.428 125.924 153.408C125.924 153.408 116.794 155.86 109.555 152.125C105.227 149.894 102.276 144.882 102.874 138.554C102.898 138.317 103.158 137.211 103.056 137.468L103.513 135.921C103.513 135.921 110.259 141.93 120.02 139.956C126.483 138.649 129.35 134.167 130.61 130.524C131.43 132.805 131.726 135.398 131.443 138.061C130.85 140.423 129.432 143.188 126.273 144.61V144.608Z" fill="#323232"/>
<path opacity="0.3" d="M120.019 145.515C122.628 145.709 124.672 145.333 126.271 144.609L120.019 145.515Z" fill="#323232"/>
</g>
<g opacity="0.3">
<path opacity="0.3" d="M47.0517 151.551C44.9029 152.92 41.4011 153.809 37.4457 153.809C30.9069 153.809 25.6047 151.377 25.6047 148.379C25.6047 147.211 26.4074 146.131 27.7736 145.246C28.4845 144.781 29.35 144.374 30.3338 144.035C27.1748 142.613 25.7563 139.848 25.1638 137.486C24.6832 132.977 25.8715 128.663 28.4285 125.737C27.1415 131.48 32.0882 136.653 39.2624 137.581C45.3275 138.365 52.3734 134.116 52.3734 134.116L49.5169 122.92C49.5169 122.92 49.6981 123.088 50.0403 123.385L52.6369 133.432L53.483 136.288L53.812 137.391V137.401C54.4076 143.726 51.3669 149.297 47.0523 151.552L47.0517 151.551Z" fill="#323232"/>
<path opacity="0.3" d="M30.334 144.036C31.9336 144.76 33.9767 145.135 36.5866 144.941L30.334 144.036Z" fill="#323232"/>
</g>
<g opacity="0.3">
<path opacity="0.3" d="M126.92 80.7608L125.508 98.8443C119.008 109.978 101.32 124.609 101.32 124.609C101.32 124.609 99.132 136.629 96.7511 139.018C95.4905 140.283 93.5562 137.578 93.5562 137.578C93.5562 137.578 89.5448 136.934 84.5358 136.69V136.232C84.7761 136.101 85.0164 135.969 85.2567 135.837C85.0327 135.88 84.8057 135.92 84.5817 135.959C83.5319 136.137 82.4889 136.259 81.4586 136.325H81.4523C80.4911 136.318 79.5174 136.331 78.5462 136.371C76.6112 136.312 74.7191 136.064 72.8659 135.663C72.7408 135.637 72.6194 135.607 72.4942 135.581C72.642 135.814 72.7508 136.035 72.82 136.242V136.822C67.3046 137.204 62.6837 138.099 62.6837 138.099C62.6837 138.099 61.6534 135.366 58.573 139.614C56.8664 137.711 54.9925 124.829 54.9925 124.829C45.6828 115.755 34.016 102.096 31.4496 97.4592L28.9385 79.4644C29.3467 80.2871 29.794 81.0967 30.2714 81.8931V81.8962C30.2714 81.8962 30.2777 81.9094 30.2878 81.9327C30.5608 82.5385 34.2633 90.6404 40.3284 100.145C40.3316 100.148 40.3347 100.155 40.3417 100.161C48.075 112.291 59.6625 126.702 72.8659 130.691V130.694C75.1531 131.385 77.4931 131.763 79.8659 131.763C81.4026 131.763 82.9821 131.53 84.5817 131.095C103.768 125.889 126.287 91.6834 126.294 81.8994V81.8962C126.508 81.5175 126.718 81.1426 126.919 80.7608H126.92Z" fill="#323232"/>
</g>
<g opacity="0.3">
<path opacity="0.3" d="M126.206 81.3347C126.203 83.5628 125.143 84.795 123.116 88.9221C85.9944 129.41 51.3478 107.442 35.1727 91.069L35.1696 91.0659C32.1552 85.6455 30.3845 81.7757 30.2002 81.3643C39.6779 97.2298 61.352 107.942 79.6953 107.942C98.0386 107.942 117.653 96.358 126.206 81.3347H126.206Z" fill="#323232"/>
</g>
<g opacity="0.3">
<path opacity="0.3" d="M104.199 118.896C98.0154 125.103 91.2426 130.069 84.8416 131.803C83.2419 132.238 81.6624 132.471 80.1257 132.471C77.7498 132.471 75.4129 132.092 73.1258 131.402C65.8956 129.216 59.1492 123.905 53.2583 117.553C64.915 124.974 83.1331 131.145 104.198 118.896L104.199 118.896Z" fill="#323232"/>
</g>
<g opacity="0.3">
<path opacity="0.3" d="M114.231 104.471C114.231 104.471 91.3837 119.365 74.082 120.926C74.082 120.926 89.3846 122.983 107.296 114.784L114.231 104.471Z" fill="#323232"/>
</g>
<g opacity="0.3">
<path opacity="0.3" d="M44.8198 104.471C44.8198 104.471 64.4734 121.156 86.3777 114.344C86.3777 114.344 60.0129 123.973 51.7556 114.784L44.8204 104.471H44.8198Z" fill="#323232"/>
</g>
<path d="M41.4946 99.1855C41.4927 99.1477 41.4606 99.0974 41.453 99.0867L41.5958 99.205L41.8839 99.4453L42.4771 99.9397L43.6723 100.939L46.0746 102.941C47.6861 104.267 49.2914 105.607 50.9389 106.898C52.5807 108.199 54.2659 109.443 55.9794 110.66C57.6866 111.89 59.4592 113.02 61.2457 114.175L61.25 114.177C61.3375 114.234 61.3626 114.351 61.306 114.439C61.2576 114.514 61.1651 114.543 61.0846 114.514C59.0698 113.807 57.0884 112.971 55.1742 112.006C53.2632 111.037 51.383 109.992 49.5739 108.839C47.761 107.693 45.9771 106.491 44.2862 105.168C43.4402 104.507 42.6067 103.829 41.8028 103.113C41.3964 102.76 41.0027 102.392 40.6101 102.019C40.4133 101.836 40.2226 101.636 40.0289 101.445C39.9327 101.352 39.8351 101.244 39.7383 101.142L39.5936 100.986C39.493 100.882 39.3697 100.735 39.2753 100.603C38.8841 99.99 39.064 99.176 39.6766 98.7848C40.2893 98.3935 41.1033 98.5728 41.4946 99.1855Z" fill="#323232"/>
<path d="M119.855 99.9448C119.761 100.078 119.637 100.224 119.537 100.329L119.392 100.484C119.295 100.587 119.198 100.694 119.101 100.787C118.908 100.978 118.717 101.178 118.52 101.361C118.128 101.734 117.734 102.102 117.327 102.455C116.524 103.171 115.69 103.849 114.844 104.51C113.153 105.833 111.37 107.034 109.556 108.181C107.747 109.334 105.867 110.379 103.956 111.348C102.043 112.314 100.061 113.15 98.0456 113.857C97.9475 113.891 97.8393 113.84 97.8047 113.741C97.7751 113.657 97.8085 113.566 97.8802 113.519L97.8846 113.517C99.6711 112.363 101.444 111.232 103.151 110.002C104.864 108.785 106.55 107.54 108.191 106.24C109.839 104.949 111.444 103.609 113.056 102.283L115.458 100.281L116.653 99.2818L117.246 98.7874L117.534 98.5477L117.677 98.4295C117.67 98.4395 117.638 98.4899 117.636 98.5282C118.027 97.9156 118.841 97.7363 119.454 98.1275C120.066 98.5188 120.246 99.3328 119.855 99.9455V99.9448Z" fill="#323232"/>
<g opacity="0.3">
<path opacity="0.3" d="M79.3912 167.978L77.2883 168.01C45.6855 168.547 48.9829 158.707 49.6938 156.726C50.5656 154.297 50.8354 154.041 52.9125 147.871C58.1713 154.63 67.1558 159.083 77.3543 159.083C88.616 159.083 98.3962 153.656 103.32 145.688C105.811 153.09 106.054 153.199 106.986 155.759C107.697 157.714 110.994 167.441 79.3912 167.978Z" fill="#323232"/>
</g>
<g opacity="0.3">
<path opacity="0.3" d="M61.2842 143.252C61.2842 143.252 80.4257 150.701 96.4234 142.642C96.4234 142.642 75.8011 138.593 61.2842 143.252Z" fill="#323232"/>
</g>
<path d="M79.9231 132.828C73.4088 132.828 66.6617 130.111 59.87 124.753C54.5308 120.541 49.14 114.685 43.846 107.348C34.8766 94.9154 29.1832 82.3083 29.1272 82.1818C28.8296 81.5188 29.1272 80.7401 29.7896 80.4425C30.4513 80.1456 31.2313 80.4413 31.5295 81.1049C31.7503 81.5956 53.8577 130.195 79.9237 130.195C88.1559 130.195 98.9785 122.732 109.615 109.718C119.14 98.0669 125.035 86.0737 125.035 81.644C125.035 80.9168 125.624 80.3274 126.352 80.3274C127.079 80.3274 127.668 80.9168 127.668 81.644C127.668 87.4305 120.784 100.216 111.654 111.385C105.108 119.393 92.2811 132.829 79.9243 132.829L79.9231 132.828Z" fill="#323232"/>
<path d="M123.684 124.013C123.649 124.013 123.615 124.012 123.579 124.009C122.855 123.953 122.313 123.319 122.37 122.594L125.664 80.4019C125.721 79.6766 126.353 79.1363 127.079 79.1916C127.804 79.2483 128.346 79.8817 128.289 80.6063L124.995 122.799C124.941 123.489 124.364 124.013 123.684 124.013Z" fill="#323232"/>
<path d="M34.9942 123.519C34.3476 123.519 33.784 123.043 33.6921 122.384L27.693 79.3953C27.5924 78.6751 28.0949 78.0102 28.8152 77.9095C29.5361 77.8101 30.2003 78.3115 30.301 79.0311L36.3001 122.02C36.4008 122.74 35.8981 123.405 35.1779 123.506C35.1162 123.515 35.0552 123.519 34.9942 123.519Z" fill="#323232"/>
<path d="M119.176 155.013C116.063 155.013 112.366 154.522 109.003 152.787C103.831 150.118 101 144.422 101.615 137.921C101.644 137.624 101.68 137.326 101.722 137.033L101.75 136.842L101.831 136.667C102.137 136.008 102.922 135.718 103.581 136.025C104.145 136.288 104.437 136.897 104.318 137.48C104.286 137.709 104.259 137.938 104.236 138.17C103.725 143.578 106.014 148.282 110.21 150.447C116.711 153.801 125.075 151.771 125.609 151.636C128.117 150.828 129.736 149.577 129.736 148.444C129.736 147.564 128.754 146.796 128.168 146.416C127.547 146.011 126.784 145.652 125.895 145.345L122.754 144.263L125.784 142.9C128.547 141.657 129.708 139.198 130.194 137.32C130.833 131 128.048 125.629 123.244 123.938C122.174 123.565 121.011 123.375 119.791 123.375C119.064 123.375 118.475 122.785 118.475 122.058C118.475 121.331 119.064 120.742 119.791 120.742C121.307 120.742 122.762 120.981 124.115 121.454C130.121 123.567 133.611 130.092 132.803 137.69L132.771 137.872C132.297 139.762 131.284 142.143 129.12 143.913C129.287 144.009 129.449 144.108 129.604 144.21C131.89 145.691 132.37 147.33 132.37 148.445C132.37 150.857 130.185 152.938 126.376 154.155L126.316 154.172C126.097 154.232 123.101 155.014 119.175 155.014L119.176 155.013Z" fill="#323232"/>
<path d="M121.392 146.372C120.931 146.372 120.458 146.354 119.974 146.318C119.25 146.264 118.705 145.632 118.759 144.907C118.813 144.182 119.443 143.637 120.169 143.692C122.372 143.855 124.259 143.59 125.782 142.901C126.444 142.6 127.223 142.895 127.523 143.557C127.823 144.219 127.53 144.999 126.867 145.299C125.292 146.013 123.455 146.372 121.392 146.372Z" fill="#323232"/>
<path d="M37.4839 155.191C29.9833 155.191 24.327 152.291 24.327 148.445C24.327 147.33 24.8076 145.691 27.096 144.207C27.2501 144.106 27.4106 144.008 27.5766 143.913C25.4127 142.144 24.3994 139.762 23.9251 137.872L23.893 137.691C22.979 129.09 27.5634 122.03 34.7929 120.902C35.4937 120.793 39.0792 120.284 40.8336 120.98C41.5091 121.248 41.8394 122.013 41.5708 122.689C41.3028 123.365 40.536 123.695 39.8617 123.427C39.1371 123.139 36.8763 123.243 35.1986 123.504C28.6667 124.523 25.887 131.209 26.5016 137.321C26.9885 139.199 28.1503 141.658 30.9124 142.901L33.9418 144.264L30.8011 145.346C29.9122 145.653 29.1492 146.012 28.5315 146.415C27.9421 146.797 26.9595 147.565 26.9595 148.445C26.9595 150.163 30.9634 152.559 37.4839 152.559C41.0392 152.559 44.3662 151.793 46.3823 150.508L46.4804 150.451C50.678 148.26 52.9689 143.554 52.4594 138.171C52.3908 137.447 52.9224 136.805 53.6458 136.736C54.3666 136.666 55.012 137.198 55.0806 137.922C55.6908 144.372 52.8821 150.051 47.7486 152.759C45.2897 154.306 41.5532 155.192 37.4839 155.192V155.191Z" fill="#323232"/>
<path d="M35.3065 146.372C33.2433 146.372 31.4065 146.013 29.8301 145.3C29.1677 145 28.874 144.22 29.1734 143.558C29.4735 142.896 30.2522 142.601 30.9158 142.901C32.4381 143.59 34.3271 143.855 36.5281 143.692C37.2521 143.639 37.8843 144.182 37.9384 144.908C37.9925 145.633 37.4484 146.264 36.7231 146.318C36.2394 146.354 35.767 146.372 35.3059 146.372H35.3065Z" fill="#323232"/>
<path d="M55.2677 143.561C54.7003 143.561 54.1763 143.19 54.0065 142.618L48.2935 123.358C48.0866 122.661 48.4842 121.928 49.1811 121.722C49.8756 121.515 50.6103 121.912 50.8179 122.609L56.5308 141.87C56.7377 142.567 56.3402 143.3 55.6432 143.507C55.518 143.544 55.3922 143.561 55.2683 143.561L55.2677 143.561Z" fill="#323232"/>
<path d="M101.595 143.373C101.471 143.373 101.345 143.356 101.22 143.318C100.523 143.112 100.126 142.379 100.332 141.682L103.123 132.267L106.055 122.601C106.266 121.905 107.004 121.513 107.697 121.724C108.393 121.934 108.785 122.67 108.575 123.365L105.645 133.024L102.856 142.431C102.686 143.003 102.162 143.374 101.595 143.374V143.373Z" fill="#323232"/>
<path d="M78.5318 148.106C68.0307 148.106 61.1107 144.643 60.6823 144.423C60.0356 144.091 59.7809 143.297 60.113 142.651C60.4445 142.005 61.2365 141.749 61.8837 142.081C62.0316 142.157 76.919 149.554 95.9435 142.103C96.6197 141.839 97.384 142.172 97.6495 142.849C97.9143 143.526 97.5809 144.289 96.9034 144.555C90.1117 147.215 83.8604 148.107 78.5318 148.107V148.106Z" fill="#323232"/>
<path d="M74.761 169.175C60.7907 169.175 52.1528 166.998 49.0699 162.695C47.7017 160.785 47.4558 158.57 48.3383 156.109C48.6302 155.296 48.8579 154.718 49.0988 154.104C49.636 152.737 50.3041 151.036 52.1031 145.62C52.612 144.084 53.3184 142.687 54.2028 141.471C57.4084 137.049 61.9337 136.352 62.5891 136.272C63.1433 136.167 67.5497 135.35 72.8324 134.985C74.7478 134.853 76.5519 134.798 78.1924 134.82C80.1858 134.726 82.3761 134.736 84.7048 134.852C89.4735 135.084 93.2981 135.666 93.8145 135.747C94.5102 135.807 99.4683 136.406 102.695 141.337C103.37 142.37 103.924 143.526 104.343 144.775C106.144 150.136 106.783 151.744 107.348 153.163C107.588 153.766 107.816 154.336 108.107 155.136C108.983 157.544 108.752 159.747 107.421 161.683C104.206 166.357 94.7442 168.86 79.2976 169.121L77.1928 169.154C76.3657 169.168 75.5548 169.175 74.7616 169.175L74.761 169.175ZM77.4608 137.447C76.0807 137.447 74.5886 137.502 73.0135 137.611C67.6497 137.982 63.0823 138.858 63.037 138.867L62.9112 138.885C62.759 138.902 59.0024 139.336 56.3327 143.017C55.6075 144.016 55.025 145.17 54.6016 146.449C52.7799 151.933 52.0974 153.671 51.5483 155.067C51.3049 155.688 51.0941 156.223 50.8155 156.999C50.445 158.033 50.082 159.588 51.2093 161.162C52.7429 163.303 58.1557 166.843 77.1482 166.523L79.2529 166.49C98.3253 166.166 103.727 162.405 105.249 160.192C106.359 158.579 105.998 157.048 105.63 156.037C105.353 155.274 105.143 154.747 104.9 154.137C104.351 152.759 103.669 151.044 101.845 145.614C101.497 144.576 101.041 143.623 100.49 142.778C97.8321 138.718 93.7434 138.381 93.5711 138.37L93.449 138.356C93.41 138.349 89.4439 137.719 84.5739 137.482C82.4497 137.376 80.4506 137.361 78.6245 137.437C78.5553 137.448 78.4836 137.454 78.4113 137.454L78.2741 137.452L78.232 137.454H78.2043C78.1729 137.454 78.1395 137.456 78.1081 137.458C78.0257 137.462 77.9445 137.46 77.8653 137.45C77.7313 137.449 77.5961 137.449 77.4602 137.449L77.4608 137.447Z" fill="#323232"/>
<path d="M142.369 158.647C142.369 161.165 139.822 163.208 136.679 163.208C133.536 163.208 131.644 161.494 131.644 158.976H108.196C108.196 161.494 106.307 163.208 103.164 163.208C100.022 163.208 97.4711 161.165 97.4711 158.647C97.4711 157.252 97.5931 156.005 98.8235 155.169C98.0863 154.353 97.583 153.323 97.4151 152.187C97.3755 151.914 97.356 151.637 97.356 151.354C97.356 148.212 99.9067 145.664 103.049 145.664C106.192 145.664 108.74 147.553 108.74 150.696C108.74 151.067 108.704 151.43 108.635 151.778H131.635C131.565 151.429 131.53 151.067 131.53 150.696C131.53 147.553 134.08 145.664 137.223 145.664C140.366 145.664 142.913 148.211 142.913 151.354C142.913 153.065 142.157 154.603 140.962 155.642C141.841 156.446 142.37 157.495 142.37 158.647H142.369Z" fill="white"/>
<g opacity="0.6">
<path opacity="0.6" d="M142.369 153.123C142.369 153.123 140.921 147.76 136.225 149.228C131.528 150.696 134.689 154.272 134.689 154.272H106.122C106.122 154.272 106.676 147.786 102.798 148.515C98.709 149.283 99.3669 153.999 100.519 155.481C100.519 155.481 96.0148 152.93 97.471 149.063C98.9279 145.197 103.049 145.665 103.049 145.665C103.049 145.665 107.649 145.306 108.307 150.271C108.965 155.234 115.876 152.437 115.876 152.437L132.249 152.766C132.249 152.766 130.274 147.253 134.799 146.389C139.325 145.526 143.002 147.37 142.37 153.123H142.369Z" fill="white"/>
</g>
<g opacity="0.3">
<path opacity="0.3" d="M140.845 156.155C140.845 156.155 144.507 147.418 141.271 146.924C139.049 146.585 140.404 150.034 139.351 152.245C138.144 154.782 134.457 156.155 130.192 156.155H107.978C107.978 156.155 100.628 157.126 98.7087 147.675C98.686 147.563 97.7362 152.394 97.6664 152.3C94.0312 147.377 98.8225 155.169 98.8225 155.169C98.8225 155.169 94.4853 162.708 103.163 163.208C103.163 163.208 107.787 163.906 107.432 159.088H131.643C131.643 159.088 131.91 164.551 138.62 162.935C145.33 161.322 140.845 156.156 140.845 156.156V156.155ZM102.799 159.897C101.39 159.897 100.248 159.176 100.248 158.284C100.248 157.392 101.39 156.668 102.799 156.668C104.208 156.668 105.349 157.392 105.349 158.284C105.349 159.176 104.208 159.897 102.799 159.897ZM137.458 159.486C136.112 159.486 135.02 158.857 135.02 158.08C135.02 157.303 136.112 156.675 137.458 156.675C138.805 156.675 139.9 157.303 139.9 158.08C139.9 158.857 138.808 159.486 137.458 159.486Z" fill="#323232"/>
</g>
<path d="M136.679 164.525C133.407 164.525 131.06 162.871 130.472 160.293H109.369C108.78 162.871 106.434 164.525 103.165 164.525C99.2992 164.525 96.1547 161.888 96.1547 158.647C96.1547 157.444 96.2421 156.12 97.0756 155.023C96.5805 154.22 96.2528 153.324 96.1132 152.38C96.0641 152.04 96.0396 151.696 96.0396 151.355C96.0396 147.491 99.1841 144.349 103.05 144.349C106.915 144.349 109.93 146.906 110.052 150.463H130.216C130.338 146.906 133.247 144.349 137.222 144.349C141.197 144.349 144.229 147.492 144.229 151.355C144.229 152.936 143.695 154.455 142.735 155.679C143.354 156.57 143.686 157.591 143.686 158.647C143.686 161.888 140.543 164.525 136.68 164.525H136.679ZM106.88 157.66H132.96V158.977C132.96 160.802 134.35 161.892 136.679 161.892C139.008 161.892 141.053 160.437 141.053 158.648C141.053 157.708 140.52 157.024 140.073 156.615L138.983 155.619L140.097 154.65C141.05 153.82 141.596 152.619 141.596 151.355C141.596 148.943 139.634 146.981 137.223 146.981C135.044 146.981 132.846 148.13 132.846 150.696C132.846 150.976 132.873 151.254 132.926 151.523L133.237 153.095H107.031L107.343 151.523C107.396 151.255 107.423 150.976 107.423 150.696C107.423 148.13 105.226 146.981 103.049 146.981C100.635 146.981 98.6721 148.943 98.6721 151.355C98.6721 151.574 98.6872 151.786 98.718 152C98.8438 152.849 99.2181 153.642 99.8006 154.286L100.813 155.408L99.5628 156.257C98.9608 156.666 98.7872 157.202 98.7872 158.647C98.7872 160.436 100.75 161.891 103.164 161.891C105.578 161.891 106.88 160.801 106.88 158.976V157.659V157.66Z" fill="#323232"/>
<path d="M34.1067 162.87C40.5286 162.87 45.7345 157.664 45.7345 151.242C45.7345 144.82 40.5286 139.615 34.1067 139.615C27.6849 139.615 22.479 144.82 22.479 151.242C22.479 157.664 27.6849 162.87 34.1067 162.87Z" fill="#B2FA72"/>
<path d="M34.1066 163.484C27.3564 163.484 21.8643 157.992 21.8643 151.242C21.8643 144.491 27.3557 138.999 34.1066 138.999C40.8574 138.999 46.3482 144.491 46.3482 151.242C46.3482 157.992 40.8567 163.484 34.1066 163.484ZM34.1066 140.228C28.0338 140.228 23.0928 145.169 23.0928 151.242C23.0928 157.316 28.0332 162.256 34.1066 162.256C40.1799 162.256 45.1197 157.316 45.1197 151.242C45.1197 145.169 40.1793 140.228 34.1066 140.228Z" fill="#323232"/>
<g opacity="0.3">
<path opacity="0.3" d="M45.7347 151.243C45.7347 157.664 40.5282 162.87 34.1045 162.87C27.6808 162.87 22.478 157.664 22.478 151.243C22.478 150.084 22.646 148.966 22.9649 147.909C24.3966 152.707 28.8426 156.206 34.1045 156.206C39.3664 156.206 43.8162 152.707 45.2472 147.909C45.563 148.965 45.7341 150.084 45.7341 151.243H45.7347Z" fill="#323232"/>
</g>
<g opacity="0.6">
<path opacity="0.6" d="M45.6675 149.491C43.7389 145.739 39.8294 143.175 35.3243 143.175C28.9037 143.175 23.6972 148.381 23.6972 154.801C23.6972 155.4 23.7431 155.99 23.8286 156.562C23.009 154.969 22.5454 153.159 22.5454 151.244C22.5454 144.821 27.7519 139.614 34.1725 139.614C39.9974 139.614 44.8221 143.899 45.6675 149.49V149.491Z" fill="white"/>
</g>
<g opacity="0.6">
<path opacity="0.6" d="M45.5172 148.934C44.0132 144.258 39.6263 140.875 34.45 140.875C28.0262 140.875 22.8197 146.081 22.8197 152.501C22.8197 153.287 22.899 154.058 23.0468 154.801C22.6851 153.679 22.4907 152.482 22.4907 151.24C22.4907 144.817 27.6966 139.614 34.1172 139.614C39.7515 139.614 44.4472 143.616 45.5172 148.934Z" fill="white"/>
</g>
<path d="M34.1064 164.186C26.9687 164.186 21.1621 158.38 21.1621 151.242C21.1621 144.104 26.9687 138.298 34.1064 138.298C41.2441 138.298 47.0507 144.104 47.0507 151.242C47.0507 158.38 41.2441 164.186 34.1064 164.186ZM34.1064 140.931C28.4205 140.931 23.7946 145.557 23.7946 151.243C23.7946 156.928 28.4205 161.554 34.1064 161.554C39.7922 161.554 44.4175 156.928 44.4175 151.243C44.4175 145.557 39.7916 140.931 34.1064 140.931Z" fill="#323232"/>
<path d="M37.9624 154.269C37.6473 154.269 37.3328 154.241 37.0221 154.182C33.2566 153.474 31.4375 151.022 30.7417 145.722C30.5254 144.069 29.5982 142.518 28.4873 141.949C28.0023 141.7 27.8098 141.105 28.0583 140.62C28.3068 140.135 28.9012 139.944 29.3868 140.191C31.094 141.066 32.3942 143.135 32.6993 145.465C33.3623 150.52 34.9205 151.777 37.3875 152.241C38.8148 152.511 40.4698 151.722 41.4171 150.325C42.64 148.522 42.5116 146.089 41.0812 143.589H40.651L40.6478 142.599C40.6478 142.054 41.09 141.612 41.6348 141.612C41.6612 141.612 41.6876 141.613 41.7134 141.615H42.1808L42.4714 142.074C44.5988 145.427 44.8101 148.838 43.0507 151.433C41.8499 153.204 39.8911 154.269 37.9618 154.269H37.9624Z" fill="#323232"/>
<path d="M40.4904 161.948C40.4401 161.948 40.3885 161.944 40.3375 161.936C39.7991 161.852 39.4298 161.347 39.5135 160.808C39.6053 160.217 39.85 158.646 36.7571 158.046C33.1659 157.353 31.3385 158.626 29.7269 159.75C28.801 160.395 27.9266 161.005 26.8478 161.176C26.3094 161.261 25.8037 160.893 25.7187 160.354C25.6338 159.816 26.0012 159.31 26.5403 159.225C27.1699 159.126 27.8317 158.664 28.5978 158.13C30.3378 156.917 32.7212 155.255 37.1326 156.108C41.6113 156.975 41.6541 159.896 41.4654 161.112C41.3893 161.6 40.9691 161.948 40.491 161.948H40.4904Z" fill="#323232"/>
<path d="M72.9235 137.614C72.1964 137.614 71.6069 137.025 71.6069 136.297V130.44C71.6069 129.713 72.1964 129.123 72.9235 129.123C73.6507 129.123 74.2401 129.713 74.2401 130.44V136.297C74.2401 137.025 73.6507 137.614 72.9235 137.614Z" fill="#323232"/>
<path d="M84.6388 137.483C83.9117 137.483 83.3223 136.893 83.3223 136.166V130.844C83.3223 130.117 83.9117 129.528 84.6388 129.528C85.366 129.528 85.9554 130.117 85.9554 130.844V136.166C85.9554 136.893 85.366 137.483 84.6388 137.483Z" fill="#323232"/>
<path d="M83.8201 107.783C61.0031 110.276 43.6222 107.587 32.6531 93.8042L26.7848 45.3792C26.0702 14.5495 43.5605 3.04757 68.4049 5.49767L71.5086 5.0781C94.8093 -3.88377 114.727 2.55819 122.228 32.4701L129.435 80.714C122.521 96.9154 106.479 104.125 83.8195 107.783" fill="#FFDCBF"/>
<g opacity="0.6">
<path opacity="0.6" d="M27.3346 49.4413C26.5596 18.1644 44.0324 6.53101 68.8881 9.06477L71.9918 8.6452C95.2812 -0.400962 115.216 6.17309 122.778 36.5323L129.565 82.0266C129.577 81.9983 129.59 81.9719 129.602 81.9436L122.299 32.9889C114.737 2.62973 94.8019 -3.94369 71.5124 5.10184L68.4088 5.52141C43.5531 2.98765 26.081 14.621 26.8553 45.898L32.8198 95.0338C32.8387 95.0577 32.8588 95.0804 32.8777 95.1043L27.3353 49.442L27.3346 49.4413Z" fill="white"/>
</g>
<g opacity="0.3">
<path opacity="0.3" d="M87.8169 83.3752C88.0597 85.8007 87.6955 88.1118 86.2959 89.914C84.5082 92.2106 82.0493 92.7308 81.1152 92.8717C80.0968 92.99 77.6511 93.1 75.3809 91.3903C73.6032 90.0511 72.5515 88.0665 72.0476 85.9787C71.5148 83.7702 71.5953 81.4402 72.0759 79.6418C72.3955 78.446 72.9968 76.4105 74.743 75.5984C76.0892 74.9744 77.6769 75.1631 78.8463 76.4457L78.984 76.4268C80.5535 73.3339 84.902 74.0082 86.3601 77.7101C87.0797 79.538 87.6332 81.4893 87.8163 83.3758L87.8169 83.3752Z" fill="#323232"/>
</g>
<path d="M92.0247 75.9069C84.9656 88.7336 76.3296 89.9017 66.1172 79.4112C71.1614 77.1731 77.114 73.4279 77.7682 70.7029C79.4804 72.663 84.0869 74.9539 92.0253 75.9069H92.0247Z" fill="#323232"/>
<path d="M87.0879 82.2839C87.2792 84.2811 86.9093 86.1921 85.5877 87.698C83.8994 89.6172 81.6153 90.0802 80.7479 90.2098C79.8031 90.3217 77.536 90.4469 75.4571 89.0687C73.8297 87.9893 72.8831 86.367 72.4459 84.6522C71.9829 82.8381 72.0905 80.9151 72.561 79.4256C72.8736 78.4348 73.4593 76.7478 75.0878 76.0533C76.3434 75.5199 77.8109 75.6532 78.8765 76.6943L79.0048 76.6767C80.5019 74.1039 84.5196 74.599 85.8192 77.6315C86.4602 79.1293 86.9458 80.7308 87.0886 82.2839H87.0879Z" fill="#F95877"/>
<g opacity="0.6">
<path opacity="0.6" d="M85.3782 86.1459C83.6899 88.0651 81.4059 88.528 80.5384 88.6576C79.5936 88.7696 77.3265 88.8948 75.2476 87.5165C73.6203 86.4371 72.6736 84.8148 72.2364 83.1001C72.21 82.9957 72.1917 82.89 72.1685 82.7849C72.2018 83.4058 72.2886 84.0348 72.4459 84.6519C72.8831 86.3667 73.8297 87.989 75.457 89.0684C77.536 90.4466 79.8024 90.322 80.7479 90.2095C81.6153 90.0805 83.8994 89.6175 85.5877 87.6977C86.9093 86.1918 87.2785 84.2808 87.0879 82.2836C87.0483 81.8559 86.981 81.4243 86.8935 80.9922C87.0288 82.8938 86.6413 84.7054 85.3782 86.1453V86.1459Z" fill="white"/>
</g>
<path d="M70.0819 109.965C51.9977 109.965 39.8554 105.054 31.5804 94.6569C31.4226 94.4587 31.3225 94.2203 31.2923 93.9681L25.4241 45.5437C25.4184 45.4996 25.4153 45.455 25.4146 45.4109C25.0737 30.6927 28.7762 19.6349 36.4196 12.5451C43.7724 5.72506 54.8221 2.81262 68.379 4.1185L71.1676 3.74171C83.8917 -1.11948 95.3169 -1.24655 104.217 3.37561C113.47 8.18018 119.976 17.8566 123.558 32.137C123.569 32.1804 123.578 32.2238 123.584 32.2679L130.791 80.5118C130.829 80.7627 130.796 81.0188 130.696 81.2521C124.245 96.3698 109.856 104.969 84.0389 109.137C84.0156 109.14 83.9923 109.144 83.9697 109.146C78.989 109.69 74.3681 109.966 70.0825 109.966L70.0819 109.965ZM33.9664 93.2497C43.563 105.055 58.9096 109.12 83.6363 106.424C108.191 102.454 121.906 94.4587 128.022 80.5281L120.883 32.7384C117.499 19.2877 111.466 10.2271 102.955 5.80746C94.6187 1.47844 84.2043 1.66337 72.0017 6.35724C71.9023 6.39561 71.7985 6.42203 71.6934 6.4365L68.5892 6.85606C68.4841 6.8699 68.3772 6.87179 68.2709 6.86173C55.2599 5.57912 45.1708 8.16698 38.2841 14.5548C31.2521 21.0773 27.844 31.4149 28.1535 45.2813L33.9664 93.2504V93.2497Z" fill="#323232"/>
<path d="M65.7282 54.1201C66.4617 51.5706 68.6319 49.6954 71.2606 49.34L78.3731 48.3782C81.1258 48.0059 83.8218 49.3734 85.1478 51.814L85.1787 51.8707C86.1612 53.6798 85.8322 55.9198 84.371 57.3697L81.0478 60.6665C80.5704 61.1118 79.145 62.3259 76.9201 62.607C74.921 62.8599 73.383 62.2202 72.7785 61.9296C71.2751 61.1999 69.7717 60.4708 68.2683 59.7411C67.9185 59.5675 66.6429 58.8813 65.9641 57.3194C65.3206 55.838 65.6232 54.5107 65.7282 54.1188V54.1201Z" fill="#323232"/>
<g opacity="0.3">
<path opacity="0.3" d="M65.9206 55.5432C66.6541 52.9937 68.8243 51.1185 71.453 50.7631L78.5655 49.8013C81.3182 49.429 84.0142 50.7965 85.3402 53.2371L85.3711 53.2937C86.3536 55.1029 86.0246 57.3429 84.5634 58.7928L81.2402 62.0902C80.7627 62.5355 79.3374 63.7496 77.1125 64.0308C75.1134 64.2836 73.5754 63.6439 72.9709 63.3533C71.4675 62.6236 69.9641 61.8946 68.4607 61.1649C68.111 60.9913 66.8353 60.305 66.1565 58.7431C65.513 57.2617 65.8156 55.9344 65.9206 55.5425V55.5432Z" fill="#323232"/>
</g>
<path d="M75.3948 52.4483C77.8591 52.1151 79.8054 51.4649 79.742 50.996C79.6786 50.5271 77.6295 50.417 75.1652 50.7502C72.7009 51.0834 70.7545 51.7336 70.8179 52.2025C70.8813 52.6714 72.9304 52.7815 75.3948 52.4483Z" fill="white"/>
<path d="M78.0114 61.9144L78.8726 68.318L78.9254 68.718L78.9518 68.9143L78.9776 69.0634C79.0097 69.2628 79.0682 69.4565 79.1336 69.6478C79.2695 70.0296 79.4808 70.3856 79.7406 70.7064C80.2665 71.3531 80.9842 71.8324 81.8454 72.0941L88.0036 74.0491L88.7736 74.2938L89.1548 74.4133L89.5089 74.5177C89.9845 74.6461 90.4663 74.7543 90.9551 74.8253C91.9307 74.9725 92.9277 74.999 93.909 74.8908C94.8897 74.7851 95.8578 74.5498 96.7686 74.1787C97.6858 73.8013 98.5708 73.3175 99.3584 72.72C100.145 72.1199 100.843 71.4109 101.417 70.6127C101.996 69.8163 102.423 68.9181 102.714 67.9783C103.293 66.0937 103.237 64.0173 102.612 62.088C101.993 60.1518 100.847 58.3629 99.3961 56.8249C99.2747 56.6959 99.2804 56.4927 99.4093 56.3713C99.5263 56.2606 99.7043 56.2556 99.8276 56.3518L99.8289 56.3531C100.697 57.0312 101.479 57.8288 102.177 58.705C102.861 59.592 103.44 60.5745 103.865 61.6332C104.293 62.6894 104.572 63.8204 104.652 64.9765C104.722 66.1308 104.633 67.3096 104.321 68.4375C104.008 69.5622 103.526 70.6479 102.865 71.6148C102.209 72.5841 101.403 73.4478 100.496 74.1781C99.5861 74.9078 98.5821 75.4953 97.521 75.9652C96.4497 76.4363 95.3118 76.7458 94.1562 76.9031C93.0001 77.0622 91.825 77.0641 90.6676 76.9219C90.0876 76.8552 89.5158 76.732 88.9497 76.5898L88.5276 76.4728L88.1364 76.3564L87.3626 76.1243L81.1742 74.268C79.9702 73.9233 78.7851 73.2062 77.946 72.1815C77.5252 71.6701 77.1773 71.0876 76.9465 70.4561C76.8332 70.1397 76.7376 69.8157 76.6797 69.4842L76.637 69.2351L76.608 69.0319L76.5533 68.6319L75.6827 62.2295C75.5953 61.5867 76.0457 60.9947 76.6885 60.9073C77.3308 60.8199 77.9233 61.2703 78.0108 61.9131V61.915L78.0114 61.9144Z" fill="#323232"/>
<path d="M77.8834 61.9321L78.7445 68.3357L78.7973 68.7358L78.8238 68.9396L78.8483 69.1906C78.881 69.5258 78.8747 69.8636 78.8496 70.1983C78.7948 70.8688 78.6143 71.5224 78.3444 72.1275C77.8072 73.3384 76.8555 74.3449 75.7861 74.9972L70.3129 78.4311L69.6291 78.8601L69.2826 79.0765L68.9064 79.3017C68.3981 79.5891 67.8798 79.8596 67.3382 80.0779C66.26 80.5226 65.1265 80.8327 63.9703 80.9869C62.8148 81.1422 61.6354 81.146 60.4773 80.9762C59.33 80.8044 58.2059 80.5056 57.1346 80.0433C56.0665 79.5797 55.0601 78.9614 54.17 78.2015C53.2761 77.4454 52.5219 76.527 51.9218 75.5256C51.3211 74.521 50.9229 73.4082 50.6838 72.2766C50.4549 71.1406 50.4228 69.9762 50.5543 68.8446C50.6832 67.7111 50.9801 66.6102 51.4041 65.5736C51.8438 64.5432 52.386 63.567 53.0427 62.6819V62.6807C53.1497 62.5385 53.3503 62.5089 53.4931 62.6146C53.6221 62.7102 53.6586 62.8851 53.585 63.0229C52.5942 64.8911 51.9652 66.921 51.8834 68.9515C51.7928 70.977 52.2904 72.9937 53.3497 74.6569C53.88 75.4853 54.5304 76.2383 55.2997 76.8522C56.0659 77.4693 56.927 77.9675 57.8448 78.3367C58.7626 78.7041 59.7439 78.9356 60.7289 79.0551C61.7058 79.1715 62.7016 79.1406 63.6753 78.9821C64.6497 78.8255 65.6033 78.5355 66.5053 78.1342C66.9576 77.936 67.3936 77.7039 67.8175 77.4536L68.1314 77.2592L68.4673 77.0422L69.1442 76.6018L74.562 73.0811C75.3225 72.5999 75.8868 71.9476 76.2221 71.184C76.3875 70.8059 76.497 70.4065 76.5265 70.002C76.5391 69.8001 76.5435 69.5975 76.5215 69.3969L76.507 69.2459L76.4806 69.0496L76.4253 68.6496L75.5547 62.2479C75.4672 61.605 75.9176 61.0131 76.5605 60.9256C77.2034 60.8382 77.7953 61.2886 77.8827 61.9315V61.9334L77.8834 61.9321Z" fill="#323232"/>
<path d="M79.6915 91.0544C78.3951 91.0544 76.6489 90.7977 75.0235 89.7196C71.4751 87.367 70.7227 82.6416 71.8135 79.1895C72.0972 78.2925 72.7608 76.1915 74.7819 75.3329C76.162 74.7466 77.6371 74.8693 78.7964 75.6304C79.6381 74.6692 80.8798 74.1604 82.2492 74.244C84.13 74.3591 85.773 75.5392 86.5373 77.3238C87.913 80.5356 88.9667 85.0326 86.175 88.213C84.437 90.1926 82.1007 90.7984 80.8634 90.9833C80.8559 90.9845 80.8483 90.9852 80.8401 90.9864C80.5256 91.0242 80.1344 91.0537 79.6915 91.0537V91.0544ZM76.5533 76.528C76.174 76.528 75.7814 76.6092 75.3933 76.774C74.0359 77.3508 73.5433 78.9108 73.3062 79.6613C72.4148 82.4831 73.0162 86.5102 75.8884 88.4143C77.6446 89.5793 79.6154 89.5541 80.6426 89.4333C81.6717 89.278 83.594 88.7791 84.9974 87.1801C87.2506 84.613 86.2951 80.7388 85.0968 77.9409C84.4634 76.462 83.1607 75.8688 82.1529 75.8072C81.0874 75.7399 80.1859 76.2028 79.6802 77.0722C79.5588 77.281 79.3474 77.4219 79.1078 77.4546L78.9794 77.4722C78.7404 77.5056 78.4995 77.4244 78.3265 77.2558C77.8371 76.7759 77.215 76.5287 76.5533 76.5287V76.528Z" fill="#323232"/>
<path d="M79.7155 76.5823L79.9061 82.0385C79.9105 82.1719 79.8061 82.2839 79.6727 82.2889C79.5557 82.2933 79.4551 82.2128 79.4293 82.1033L78.1637 76.793C78.063 76.3703 78.3241 75.9457 78.7468 75.8451C79.1695 75.7444 79.5941 76.0055 79.6947 76.4282C79.7067 76.4785 79.7136 76.5332 79.7155 76.5829V76.5823Z" fill="#323232"/>
<g opacity="0.3">
<path opacity="0.3" d="M87.0879 82.2839C86.557 80.8428 85.4871 79.5885 84.1434 78.8299C82.3249 77.7995 80.0648 77.6511 78.0839 78.3141C76.1031 78.9733 74.4166 80.41 73.3259 82.1896C72.8346 82.9985 72.4471 83.932 72.5553 84.8775L72.4459 84.651C71.9829 82.8369 72.0905 80.9139 72.561 79.4243C72.8736 78.4336 73.4593 76.7465 75.0878 76.0521C76.3434 75.5187 77.8109 75.652 78.8765 76.6931L79.0048 76.6755C80.5019 74.1027 84.5196 74.5977 85.8192 77.6303C86.4602 79.1281 86.9458 80.7296 87.0886 82.2827L87.0879 82.2839Z" fill="#323232"/>
</g>
<path d="M70.7636 9.42582C71.1712 11.084 71.4788 12.7559 71.7694 14.4304C72.045 16.1068 72.2997 17.7857 72.5111 19.4703C72.6218 20.3119 72.7306 21.1542 72.825 21.9977C72.9275 22.8406 73.0181 23.6848 73.103 24.5302C73.2728 26.2211 73.4257 27.9132 73.5112 29.6154C73.5188 29.76 73.4074 29.8827 73.2628 29.8902C73.1332 29.8972 73.0212 29.8078 72.9942 29.6852C72.6249 28.022 72.3224 26.3494 72.0368 24.6743C71.8946 23.837 71.7581 22.9985 71.6323 22.1588C71.499 21.3203 71.3801 20.4792 71.2637 19.6382C71.019 17.9581 70.8196 16.2716 70.6397 14.5827C70.4749 12.8918 70.3271 11.1978 70.2799 9.49124C70.2761 9.35537 70.383 9.24214 70.5189 9.23837C70.6372 9.23523 70.7378 9.31574 70.7649 9.42582H70.7636Z" fill="#323232"/>
<g opacity="0.3">
<path opacity="0.3" d="M122.137 31.7924C119.077 19.735 113.88 11.6041 107.188 6.8335C110.128 11.4494 112.534 17.3837 114.281 24.7648L120.603 67.5694C118.073 61.8358 116.331 55.7668 115.45 49.574C114.83 50.7597 114.478 52.0744 114.412 53.401L114.396 51.4567C113.781 57.9169 114.159 64.4601 115.515 70.7989C115.942 72.7929 116.468 74.797 116.387 76.8357C116.32 78.5429 115.842 80.152 115.107 81.6787C114.518 82.8997 113.634 83.9527 112.547 84.7622C106.096 89.5668 95.3945 95.9389 81.5803 97.531C76.1762 98.1538 71.6704 97.887 69.5795 97.7128C60.1955 96.9315 52.6918 94.1311 47.6199 91.6829C45.5768 90.6965 43.9859 88.9359 43.2865 86.7776C43.2808 86.76 43.2751 86.7424 43.2695 86.7248C42.6505 84.7805 42.6247 82.709 42.5064 80.6735C42.1296 74.202 40.7571 67.7934 38.4479 61.7288L38.9486 63.6071C38.5322 62.3459 37.8446 61.1721 36.9313 60.194C37.5597 65.0935 37.6496 70.061 37.2093 74.9864L32.3997 35.8396C32.1236 28.2597 32.8665 21.8995 34.4749 16.6685C29.291 23.045 26.4409 32.2642 26.6937 44.7015L32.3991 91.9219C43.3179 105.331 60.6818 107.898 83.4969 105.39C106.159 101.747 122.217 94.6601 129.181 78.8317L122.137 31.7924Z" fill="#323232"/>
</g>
<g opacity="0.3">
<path opacity="0.3" d="M52.303 64.7595C52.2753 64.7802 52.2477 64.801 52.22 64.8217C52.254 64.8173 52.2879 64.8129 52.3213 64.8085L52.3087 64.8041C52.2552 64.784 52.186 64.8079 52.1476 64.8469L52.0703 64.9255C52.0482 64.9475 52.0275 64.9708 52.013 64.9985C52.0086 65.0073 52.0036 65.0155 51.9992 65.0243C51.9916 65.0388 51.9841 65.0557 51.9791 65.0715C51.9715 65.0947 51.9709 65.118 51.9759 65.1413C51.9753 65.1507 51.9765 65.1595 51.9803 65.1677C51.986 65.1815 51.9916 65.1947 51.9973 65.2086C52.008 65.2281 52.0225 65.2444 52.0413 65.2564C52.052 65.2671 52.0646 65.274 52.0791 65.2784C52.0992 65.2891 52.1212 65.2941 52.1445 65.2929C52.2055 65.2998 52.254 65.2589 52.2948 65.2199C52.3187 65.1979 52.3364 65.1715 52.3527 65.1438C52.371 65.1117 52.3892 65.0803 52.4081 65.0482C52.4232 65.0224 52.4307 64.9947 52.4307 64.9645C52.4307 64.935 52.4232 64.9067 52.4081 64.8809L52.3999 64.8702C52.4043 64.9041 52.4087 64.9381 52.4131 64.9714L52.4508 64.8746C52.4565 64.8595 52.4552 64.8362 52.4508 64.8211C52.4452 64.7997 52.432 64.7821 52.4144 64.7689C52.3999 64.7576 52.3848 64.7513 52.3665 64.7488C52.3464 64.7463 52.3194 64.7481 52.3024 64.7607L52.303 64.7595Z" fill="#323232"/>
</g>
<g opacity="0.3">
<path opacity="0.3" d="M53.1796 63.1223C52.0342 65.1289 51.7278 67.5979 52.3493 69.8228C52.9708 72.0483 54.512 74.0015 56.5318 75.1237C59.6342 76.8479 63.5682 76.5157 66.7888 75.0237C70.0095 73.5322 72.637 71.018 75.0443 68.41C76.1193 67.2456 77.2233 65.9071 77.2478 64.3225C77.6284 66.5455 77.7831 68.8069 77.7083 71.0607C77.6938 71.4916 77.668 71.9357 77.4799 72.3238C77.2535 72.7906 76.8207 73.1183 76.3986 73.4203C73.3893 75.5716 70.1026 77.3341 66.6461 78.6507C64.8609 79.3307 62.9977 79.8974 61.0879 79.9107C57.8924 79.9327 54.7309 78.2896 52.913 75.6609C51.095 73.0328 50.6729 69.4944 51.8209 66.5122" fill="#323232"/>
</g>
<g opacity="0.3">
<path opacity="0.3" d="M52.6614 65.5713C51.4751 67.649 51.158 70.2054 51.8022 72.5102C52.7419 75.8736 55.3348 77.5135 56.1331 77.9992C59.94 80.3172 64.0998 79.2836 66.6468 78.6515C69.0874 78.0451 73.8115 76.8719 76.2207 72.5284C77.4417 70.3268 77.6065 68.144 77.5851 66.8149C77.9795 69.1165 78.1393 71.4584 78.0619 73.7922C78.0537 74.0419 78.0914 74.5552 77.8254 75.0999C77.5366 75.6912 77.0491 76.041 76.7057 76.2353C76.2069 76.2517 75.4369 76.3265 74.5707 76.6367C72.7849 77.2758 72.1609 78.3533 70.4789 79.6101C69.0529 80.6757 67.7916 81.1789 66.6065 81.6513C65.2296 82.2011 63.1965 82.9396 60.8509 82.956C57.5421 82.9786 54.268 81.2771 52.3859 78.5558C49.4345 74.2885 51.0876 69.5393 51.2549 69.0826" fill="#323232"/>
</g>
<g opacity="0.3">
<path opacity="0.3" d="M99.9279 56.7991C101.565 58.4289 102.516 60.728 102.508 63.0385C102.5 65.3489 101.533 67.6411 99.8845 69.2596C97.3514 71.7456 93.4709 72.4709 89.9697 71.8884C86.4684 71.3059 83.2679 69.5805 80.2536 67.7059C78.9081 66.8687 77.4877 65.8717 77.043 64.3506C77.2663 66.5944 77.7186 68.8162 78.3891 70.9687C78.5175 71.3801 78.6602 71.8016 78.9452 72.1255C79.2874 72.5155 79.7912 72.7162 80.2787 72.8955C83.751 74.1699 87.3881 74.9964 91.0705 75.3468C92.972 75.528 94.9189 75.5796 96.7639 75.0845C99.8506 74.2567 102.462 71.8324 103.516 68.8162C104.57 65.7993 104.037 62.2761 102.138 59.7065" fill="#323232"/>
</g>
<g opacity="0.3">
<path opacity="0.3" d="M101.413 59.6953C103.117 61.3163 104.097 63.6117 104.074 65.924C104.04 69.3554 101.9 71.5476 101.29 72.1672C98.2436 75.2614 94.0605 75.3118 91.0707 75.3476C88.2149 75.3816 83.4071 75.4394 80.0273 71.9477C78.4843 70.3537 77.771 68.5697 77.4219 67.3972C77.6414 69.6416 78.1006 71.8621 78.7894 74.0128C78.8322 74.1455 78.9712 74.6525 79.3637 75.1671C79.6065 75.4854 79.865 75.8238 80.2676 75.8886C80.9728 76.0012 81.554 75.1834 81.5798 75.1457C85.8925 77.3838 89.6371 78.077 92.0306 78.3154C94.1649 78.528 95.8501 78.5777 97.9894 78.0172C101.224 77.1693 103.972 74.7268 105.094 71.7011C106.754 67.2242 104.175 63.2676 103.744 62.6417C103.729 62.621 103.717 62.6033 103.709 62.592" fill="#323232"/>
</g>
<path d="M94.4169 93.592C86.9044 101.373 77.1518 102.297 68.1201 97.1486L94.4169 93.592Z" fill="#FFDCBF"/>
<path d="M68.2853 96.8587C70.4454 97.8564 72.6653 98.659 74.9449 99.1201C77.2214 99.573 79.5513 99.7133 81.8297 99.3975C82.3933 99.2887 82.9663 99.2271 83.5262 99.1006L84.3609 98.8861C84.6383 98.8106 84.922 98.7565 85.19 98.6496L86.0077 98.3716C86.2807 98.2791 86.5569 98.1936 86.8167 98.0665L87.6092 97.7161L88.0087 97.5457C88.142 97.489 88.266 97.4123 88.3949 97.3469C90.467 96.3014 92.383 94.9264 94.1864 93.372L94.189 93.3701C94.3229 93.255 94.5249 93.2701 94.64 93.4035C94.7431 93.523 94.7419 93.6966 94.645 93.8148C93.1014 95.6988 91.2168 97.3412 89.0705 98.5899C88.8113 98.7616 88.5345 98.9031 88.2553 99.0396L87.4174 99.4504C87.1419 99.5976 86.8487 99.7032 86.5575 99.8152L85.6838 100.152C85.395 100.273 85.0874 100.336 84.7874 100.423L83.8822 100.668C83.5821 100.758 83.2689 100.788 82.9626 100.85L82.0379 101.009C79.5544 101.336 77.0163 101.133 74.6234 100.495C72.2274 99.8605 69.9679 98.8088 67.9531 97.4412C67.8003 97.3368 67.76 97.1286 67.8638 96.9757C67.9575 96.838 68.1355 96.7921 68.2821 96.8594L68.284 96.8606L68.2853 96.8587Z" fill="#323232"/>
<path d="M102.861 4.16284C104.497 3.30043 107.595 1.97316 111.486 2.20591C113.261 2.31221 116.395 2.81481 120.995 6.05623C125.709 9.37754 129.314 13.7078 131.945 17.6714C135.144 22.4898 138.862 26.9528 143.178 30.8019C156.633 42.7988 151.809 52.7665 146.161 68.4811C145.208 71.1312 144.991 73.989 145.498 76.7592C146.033 79.6761 146.313 82.3004 146.008 84.1963C145.733 85.901 144.19 87.0981 142.464 87.044C122.953 86.4319 111.686 62.0782 117.627 34.0483C118.364 30.5704 118.444 26.9742 117.819 23.4749C117.273 20.4159 116.122 16.9367 113.848 13.5241C110.125 7.93579 105.21 5.25359 102.861 4.16284H102.861Z" fill="#CE8C70"/>
<g opacity="0.6">
<path opacity="0.6" d="M143.491 84.5794C143.801 82.7156 143.527 80.1372 142.999 77.2719C142.498 74.5507 142.722 71.742 143.681 69.1353C149.365 53.6793 154.21 43.8726 140.788 32.114C136.481 28.3417 132.775 23.9643 129.589 19.2364C126.968 15.3477 123.374 11.1005 118.67 7.84773C114.078 4.67361 110.947 4.18674 109.172 4.08672C107.185 3.97413 105.406 4.26285 103.921 4.68431C103.529 4.48176 103.171 4.30752 102.861 4.16284C104.497 3.30043 107.595 1.97316 111.486 2.20591C113.261 2.31221 116.395 2.81481 120.995 6.05623C125.709 9.37754 129.314 13.7078 131.945 17.6714C135.144 22.4898 138.862 26.9528 143.179 30.8019C156.633 42.7988 151.81 52.7665 146.161 68.4811C145.208 71.1312 144.991 73.989 145.499 76.7592C146.033 79.6761 146.313 82.3004 146.008 84.1963C145.734 85.901 144.19 87.0981 142.465 87.044C142.196 87.0358 141.929 87.0207 141.663 87.0031C142.605 86.5313 143.313 85.6595 143.493 84.5788L143.491 84.5794Z" fill="white"/>
</g>
<path d="M142.577 88.4158C142.525 88.4158 142.473 88.4152 142.421 88.4133C135.006 88.1805 128.468 84.7202 123.513 78.4059C115.285 67.9199 112.584 51.2316 116.286 33.7645C116.998 30.4023 117.06 27.0219 116.47 23.7157C115.857 20.2849 114.591 17.1114 112.707 14.2839C109.488 9.45293 105.262 6.78896 102.283 5.40571C101.811 5.18618 101.504 4.71817 101.491 4.19733C101.477 3.67649 101.761 3.19339 102.222 2.95058C105.199 1.38114 108.43 0.6502 111.567 0.838282C114.803 1.03202 118.145 2.3725 121.784 4.93582C125.961 7.87908 129.764 11.9093 133.086 16.9133C136.383 21.8795 140.085 26.2079 144.09 29.779C157.398 41.6445 153.663 51.8883 148.494 66.0668C148.152 67.0047 147.802 67.9633 147.449 68.944C146.587 71.3444 146.378 73.9612 146.846 76.5119C147.495 80.0521 147.658 82.5632 147.361 84.4139C146.989 86.7199 144.948 88.4164 142.577 88.4164V88.4158ZM106.04 4.29546C108.936 6.02154 112.28 8.7006 114.988 12.7642C117.082 15.9075 118.488 19.4301 119.168 23.2338C119.821 26.8892 119.753 30.6231 118.967 34.3326C115.431 51.0152 117.937 66.8594 125.67 76.7145C130.107 82.3695 135.929 85.4681 142.507 85.6745C143.564 85.7109 144.494 84.9787 144.655 83.9786C144.899 82.4664 144.734 80.1855 144.151 77.0063C143.596 73.9807 143.846 70.8726 144.872 68.0174C145.226 67.0323 145.577 66.0706 145.92 65.1283C151.075 50.9875 154.187 42.4521 142.267 31.8246C138.087 28.0975 134.231 23.5905 130.804 18.4293C127.671 13.709 124.105 9.92345 120.206 7.17645C115.436 3.81551 112.402 3.63372 111.404 3.57396C109.632 3.46765 107.812 3.71486 106.04 4.29546H106.04Z" fill="#323232"/>
<g opacity="0.3">
<path opacity="0.3" d="M115.463 13.1718C112.198 7.5904 107.976 4.85158 105.963 3.73126C106.873 3.18841 108.326 2.4581 110.163 2.11401C109.715 2.32726 109.324 2.54239 109.004 2.73361C111.017 3.85393 115.239 6.59275 118.504 12.1742C120.498 15.5829 121.541 19.0363 122.062 22.0633C122.659 25.5261 122.659 29.0713 122.099 32.487C121.131 38.3974 120.834 44.1556 121.126 49.5647C121.284 50.5561 121.449 51.5455 121.622 52.5344C122.415 57.071 123.393 61.6724 125.51 65.6529C126.786 68.0533 130.055 73.5039 135.024 73.4813C140.084 73.458 143.35 67.7262 143.657 67.1695C143.8 66.9506 143.944 66.7317 144.087 66.5128C142.692 69.8926 142.644 72.4994 142.864 74.2638C143.002 75.369 143.302 76.6139 143.95 80.8712C144.168 82.3085 144.469 84.4875 143.327 85.3751C143.231 85.4499 143.129 85.5091 143.025 85.5594C142.504 86.0117 141.844 86.2608 141.14 86.2192C124.572 85.2455 114.55 61.0138 119.059 33.484C119.618 30.0684 119.618 26.5231 119.022 23.0603C118.501 20.0334 117.458 16.58 115.464 13.1712L115.463 13.1718Z" fill="#323232"/>
</g>
<path d="M37.8073 12.9614C36.0007 12.5651 32.6617 12.1078 28.9724 13.3665C27.2898 13.9408 24.4019 15.258 20.8277 19.6041C17.1654 24.0583 14.8405 29.1906 13.3566 33.7108C11.5525 39.2061 9.15403 44.4963 6.01514 49.3537C-3.76888 64.4939 3.52919 72.8224 13.1497 86.4712C14.7719 88.7735 15.7407 91.4708 15.9873 94.2763C16.2464 97.2309 16.6741 99.8351 17.4718 101.581C18.1889 103.151 19.9955 103.895 21.6448 103.385C40.2926 97.612 44.6845 71.1403 31.5119 45.6958C29.8776 42.5387 28.8448 39.0928 28.517 35.5533C28.2308 32.459 28.417 28.7987 29.7021 24.9049C31.8069 18.5284 35.8333 14.6366 37.8073 12.9614Z" fill="#CE8C70"/>
<g opacity="0.6">
<path opacity="0.6" d="M20.0001 101.282C19.2069 99.5673 18.7854 97.009 18.5332 94.1067C18.2935 91.3502 17.3317 88.7014 15.7151 86.4431C6.12922 73.0522 -1.14684 64.8854 8.66989 49.9836C11.8195 45.2029 14.2293 39.9983 16.0453 34.5936C17.5393 30.1482 19.8755 25.0989 23.5472 20.7133C27.1302 16.4333 30.02 15.1325 31.7039 14.5645C33.5898 13.9285 35.3819 13.7335 36.9256 13.7455C37.2489 13.446 37.5477 13.1831 37.8087 12.9617C36.0021 12.5647 32.6632 12.1081 28.9739 13.3668C27.2912 13.9411 24.4033 15.2583 20.8291 19.6043C17.1669 24.0585 14.842 29.1908 13.3581 33.711C11.554 39.2063 9.1555 44.4965 6.01661 49.3539C-3.76741 64.4942 3.53066 72.8226 13.1511 86.4714C14.7734 88.7737 15.7422 91.471 15.9887 94.2765C16.2479 97.2311 16.6756 99.8353 17.4732 101.581C18.1903 103.152 19.9969 103.896 21.6463 103.386C21.9036 103.306 22.1564 103.221 22.408 103.133C21.3752 102.929 20.4605 102.276 20.0007 101.282H20.0001Z" fill="white"/>
</g>
<path d="M20.5938 104.915C18.7475 104.915 17.012 103.872 16.2257 102.151C15.447 100.445 14.9375 97.9808 14.6223 94.396C14.3952 91.8125 13.4988 89.3448 12.0294 87.2608C11.4287 86.4085 10.8374 85.5775 10.2587 84.7642C1.50942 72.4684 -4.81238 63.5845 4.86408 48.6103C7.77652 44.1033 10.1958 38.9471 12.0546 33.2839C13.9279 27.5773 16.5233 22.6821 19.7697 18.7343C22.5966 15.2966 25.4619 13.1163 28.5303 12.0703C31.5025 11.0563 34.8118 10.9015 38.1011 11.6243C38.61 11.7356 39.0113 12.1262 39.1371 12.632C39.2629 13.1377 39.0912 13.6705 38.6936 14.0077C36.1901 16.1326 32.8228 19.8231 31.003 25.336C29.9381 28.563 29.56 31.9585 29.8808 35.4289C30.1903 38.7735 31.1477 42.0161 32.7279 45.0676C40.9368 60.9243 42.7654 77.7309 37.6192 90.0254C34.5206 97.4292 29.1367 102.502 22.0493 104.696C21.5662 104.846 21.0762 104.917 20.5931 104.917L20.5938 104.915ZM34.035 13.9159C32.4322 13.9159 30.8728 14.1656 29.4147 14.6631C28.4693 14.9858 25.5921 15.9671 21.8864 20.4742C18.8576 24.1584 16.4251 28.7561 14.6588 34.1381C12.727 40.024 10.2059 45.3934 7.16636 50.0974C-1.5005 63.5097 3.7664 70.9115 12.4918 83.1746C13.073 83.9911 13.6668 84.8258 14.27 85.6813C16.0175 88.1609 17.0831 91.091 17.3523 94.1557C17.6354 97.3751 18.082 99.6176 18.7186 101.012C19.1394 101.933 20.2251 102.39 21.2398 102.076C27.5264 100.13 32.3165 95.5955 35.0918 88.9649C39.9284 77.4095 38.135 61.4697 30.2947 46.325C28.5517 42.9591 27.4943 39.3767 27.1521 35.6786C26.7967 31.8308 27.2169 28.0616 28.4007 24.4742C29.9318 19.837 32.4442 16.3659 34.7773 13.9328C34.5288 13.9209 34.2809 13.9152 34.0344 13.9152L34.035 13.9159Z" fill="#323232"/>
<g opacity="0.3">
<path opacity="0.3" d="M28.0514 24.9944C29.7164 18.7462 33.0585 14.9845 34.7022 13.3698C33.6812 13.088 32.0866 12.7697 30.2234 12.927C30.7122 13.0131 31.1462 13.1169 31.506 13.2163C29.863 14.831 26.5203 18.5927 24.8552 24.8409C23.8387 28.6566 23.75 32.2629 24.0513 35.32C24.396 38.8174 25.3377 42.235 26.7845 45.3795C29.288 50.8207 31.1047 56.2927 32.2596 61.5848C32.3703 62.5824 32.4747 63.5801 32.571 64.579C33.0119 69.1634 33.2912 73.8591 32.3074 78.2592C31.7142 80.9125 30.0114 87.0355 25.215 88.3339C20.3306 89.6555 15.6593 84.9975 15.2159 84.5427C15.0196 84.3697 14.8227 84.1967 14.6265 84.0244C16.8696 86.9123 17.6081 89.4127 17.8647 91.1715C18.0258 92.2735 18.0667 93.5536 18.5731 97.8304C18.7441 99.2747 19.0329 101.455 20.3696 102.007C20.4822 102.053 20.5954 102.083 20.7093 102.104C21.3314 102.402 22.034 102.466 22.7021 102.239C38.4154 96.8995 41.6398 70.8762 29.98 45.5337C28.5332 42.3891 27.5915 38.9715 27.2468 35.4741C26.9455 32.4176 27.0336 28.8107 28.0507 24.995L28.0514 24.9944Z" fill="#323232"/>
</g>
<path d="M92.6175 142.053C92.6175 143.145 92.2369 144.145 91.6009 144.936H91.5978C90.5907 145.221 89.5975 145.464 88.6231 145.674C87.7242 145.867 86.8423 146.031 85.9767 146.166H85.9736C84.652 145.506 83.6939 144.224 83.4776 142.702C83.448 142.492 83.4316 142.273 83.4316 142.053C83.4316 141.728 83.4644 141.41 83.5298 141.105C83.7002 140.292 84.0839 139.56 84.6218 138.967C85.4615 138.039 86.675 137.458 88.023 137.458C90.5611 137.458 92.6175 139.515 92.6175 142.053Z" fill="#FFB74D"/>
<path d="M85.9764 147.477C85.7732 147.477 85.5694 147.43 85.3876 147.339C83.6515 146.474 82.4519 144.809 82.1783 142.887C82.1393 142.608 82.1191 142.329 82.1191 142.053C82.1191 141.634 82.1619 141.222 82.2468 140.829C82.4594 139.815 82.9444 138.864 83.6489 138.086C84.7636 136.854 86.3576 136.147 88.022 136.147C91.2792 136.147 93.9286 138.796 93.9286 142.054C93.9286 143.415 93.477 144.697 92.6222 145.759C92.4391 145.986 92.1881 146.144 91.9095 146.211C90.9489 146.482 89.9362 146.733 88.8983 146.956C87.9792 147.154 87.0634 147.324 86.1764 147.462C86.1097 147.472 86.0424 147.478 85.9751 147.478L85.9764 147.477ZM88.0226 138.769C87.0986 138.769 86.2141 139.162 85.5952 139.846C85.202 140.28 84.9328 140.807 84.8139 141.374C84.7667 141.593 84.7435 141.819 84.7435 142.052C84.7435 142.206 84.7548 142.363 84.7768 142.519C84.9102 143.456 85.4405 144.284 86.2217 144.797C86.9181 144.681 87.6314 144.545 88.3472 144.39C89.1914 144.209 90.0167 144.008 90.8074 143.793C91.1351 143.272 91.3062 142.677 91.3062 142.052C91.3062 140.242 89.8336 138.769 88.0233 138.769H88.0226Z" fill="#323232"/>
<path d="M83.3212 142.866C85.1152 141.072 85.1152 138.163 83.3212 136.369C81.5272 134.575 78.6185 134.575 76.8245 136.369C75.0305 138.163 75.0305 141.072 76.8245 142.866C78.6185 144.66 81.5272 144.66 83.3212 142.866Z" fill="#FFB74D"/>
<path d="M80.0729 145.523C76.817 145.523 74.1675 142.874 74.1675 139.618C74.1675 136.361 76.8164 133.712 80.0729 133.712C83.3294 133.712 85.9783 136.361 85.9783 139.618C85.9783 142.874 83.3294 145.523 80.0729 145.523ZM80.0729 136.336C78.2638 136.336 76.7912 137.808 76.7912 139.618C76.7912 141.427 78.2632 142.899 80.0729 142.899C81.8826 142.899 83.3546 141.427 83.3546 139.618C83.3546 137.808 81.8826 136.336 80.0729 136.336Z" fill="#323232"/>
<path d="M75.8077 142.057C75.8077 144.058 74.5377 145.759 72.7569 146.398C72.0889 146.312 71.4472 146.216 70.8314 146.108C69.9067 145.954 69.0412 145.776 68.2385 145.588C67.2315 144.746 66.5898 143.475 66.5898 142.057C66.5898 139.51 68.6531 137.446 71.2007 137.446C73.1387 137.446 74.7943 138.64 75.4756 140.339V140.342C75.5743 140.582 75.6498 140.829 75.7058 141.089C75.7222 141.162 75.7385 141.241 75.7486 141.319V141.326C75.7882 141.563 75.8077 141.806 75.8077 142.056V142.057Z" fill="#FFB74D"/>
<path d="M72.7566 147.714C72.7006 147.714 72.6446 147.71 72.5893 147.704C71.8697 147.611 71.2205 147.514 70.6028 147.405C69.7278 147.258 68.8276 147.078 67.9388 146.87C67.7381 146.823 67.5513 146.73 67.3934 146.598C66.0454 145.47 65.2729 143.815 65.2729 142.057C65.2729 138.788 67.9319 136.13 71.1997 136.13C73.6322 136.13 75.7898 137.59 76.6962 139.849C76.7025 139.865 76.7088 139.881 76.7145 139.898C76.8321 140.192 76.9227 140.492 76.9913 140.812C77.0133 140.909 77.0385 141.033 77.0536 141.157C77.0536 141.159 77.0536 141.161 77.0536 141.163C77.0988 141.453 77.1221 141.754 77.1221 142.057C77.1221 144.553 75.5458 146.795 73.1994 147.636C73.056 147.688 72.9063 147.714 72.7547 147.714L72.7566 147.714ZM68.8679 144.382C69.5938 144.546 70.326 144.689 71.0481 144.81C71.5356 144.896 72.0389 144.973 72.583 145.047C73.7347 144.513 74.4902 143.346 74.4902 142.057C74.4902 141.88 74.4764 141.706 74.4493 141.541C74.4449 141.514 74.4411 141.487 74.4386 141.46C74.4342 141.434 74.4273 141.407 74.4223 141.383C74.3783 141.179 74.3254 141.008 74.2575 140.843C74.2499 140.824 74.2424 140.806 74.2355 140.787C73.7222 139.555 72.5352 138.762 71.1997 138.762C69.3831 138.762 67.9055 140.24 67.9055 142.057C67.9055 142.935 68.2527 143.768 68.8679 144.382V144.382Z" fill="#323232"/>
<path d="M80.0727 145.67C80.0727 146.034 80.0299 146.385 79.9513 146.723C79.8204 146.729 79.6858 146.729 79.5575 146.733C77.1143 146.782 74.8579 146.635 72.8243 146.379C72.1587 146.293 71.519 146.198 70.9057 146.09C70.8925 145.952 70.8862 145.811 70.8862 145.67C70.8862 143.135 72.9425 141.079 75.4775 141.079C75.5593 141.079 75.6386 141.082 75.7172 141.085H75.7203C75.7367 141.085 75.7499 141.085 75.7631 141.089C77.5836 141.2 79.1146 142.367 79.7544 143.988C79.7839 144.06 79.8104 144.132 79.833 144.204C79.9871 144.663 80.0727 145.158 80.0727 145.67V145.67Z" fill="#FFB74D"/>
<path d="M78.6353 148.054C76.6382 148.054 74.6353 147.929 72.6608 147.68C71.9418 147.589 71.2939 147.491 70.678 147.382C70.0974 147.28 69.6565 146.802 69.6005 146.215C69.5835 146.038 69.5747 145.855 69.5747 145.671C69.5747 142.415 72.2229 139.767 75.4776 139.767C75.57 139.767 75.66 139.77 75.7487 139.774C75.7839 139.774 75.8342 139.776 75.8946 139.783C78.1516 139.941 80.1419 141.398 80.9741 143.506C81.0118 143.598 81.0502 143.704 81.0835 143.81C81.2798 144.394 81.3836 145.028 81.3836 145.67C81.3836 146.122 81.3314 146.577 81.2282 147.02C81.0955 147.59 80.5998 148.004 80.0148 148.033C79.9154 148.038 79.8141 148.04 79.7147 148.041L79.5915 148.043C79.2725 148.05 78.9536 148.053 78.6347 148.053L78.6353 148.054ZM72.2714 144.98C72.5035 145.013 72.7425 145.046 72.991 145.077C74.8951 145.317 76.8331 145.435 78.7523 145.43C78.7322 145.155 78.6775 144.884 78.5894 144.622C78.5699 144.56 78.5555 144.522 78.5397 144.484C78.068 143.288 76.9489 142.475 75.6827 142.398C75.6713 142.398 75.66 142.396 75.6493 142.395C75.5933 142.393 75.5361 142.39 75.4776 142.39C73.9062 142.39 72.5897 143.502 72.2714 144.979V144.98Z" fill="#323232"/>
<path d="M88.6226 145.67V145.673C87.7237 145.867 86.8417 146.03 85.9762 146.165H85.973C83.8677 146.496 81.8573 146.67 79.9519 146.722C79.8211 146.728 79.6865 146.728 79.5581 146.732C79.4764 146.391 79.4336 146.037 79.4336 145.67C79.4336 145.155 79.5191 144.656 79.6764 144.194C79.699 144.125 79.7255 144.056 79.755 143.988C80.3652 142.433 81.8013 141.292 83.5299 141.105C83.6941 141.088 83.8614 141.078 84.0281 141.078C84.1627 141.078 84.2935 141.085 84.4218 141.095C86.7763 141.295 88.6232 143.266 88.6232 145.67H88.6226Z" fill="#FFB74D"/>
<path d="M79.5575 148.044C78.953 148.044 78.4246 147.63 78.2825 147.039C78.1762 146.596 78.1221 146.135 78.1221 145.67C78.1221 145.019 78.2271 144.38 78.4347 143.771C78.463 143.685 78.5001 143.588 78.541 143.49C79.3493 141.45 81.205 140.037 83.389 139.8C83.8086 139.758 84.1721 139.76 84.5225 139.787C87.562 140.046 89.9347 142.629 89.9347 145.67V145.674C89.9347 146.292 89.5032 146.826 88.8993 146.956C87.9803 147.154 87.0644 147.324 86.1781 147.462C86.1668 147.464 86.1549 147.465 86.1435 147.467C84.0967 147.788 82.0259 147.978 79.9884 148.035C79.9173 148.039 79.8161 148.041 79.7167 148.043L79.5934 148.045C79.5814 148.045 79.5701 148.045 79.5582 148.045L79.5575 148.044ZM84.0281 142.39C83.9149 142.39 83.7909 142.396 83.6607 142.41C82.4555 142.54 81.4226 143.329 80.976 144.466C80.971 144.478 80.9659 144.49 80.9609 144.502C80.9464 144.536 80.9332 144.57 80.9219 144.604C80.8351 144.858 80.781 145.117 80.7577 145.379C82.4335 145.3 84.1092 145.129 85.7686 144.868C85.7818 144.866 85.7944 144.864 85.8076 144.862C86.2455 144.794 86.6908 144.717 87.1406 144.633C86.7323 143.425 85.634 142.513 84.3105 142.4C84.2262 142.394 84.1281 142.388 84.0281 142.388V142.39Z" fill="#323232"/>
<path d="M54.2175 36.3291C50.6131 36.3341 48.019 40.8135 48.4222 46.3339C48.8254 51.855 52.0743 56.3262 55.6787 56.3218C59.2831 56.3167 61.8779 51.8374 61.474 46.3169C61.0702 40.7959 57.8212 36.3247 54.2175 36.3291Z" fill="#323232"/>
<path d="M54.3437 38.6466C53.297 39.2712 53.1165 41.1854 53.9393 42.9215C54.7627 44.6583 56.278 45.5597 57.3247 44.9351C58.3708 44.3105 58.552 42.3963 57.7292 40.6602C56.9058 38.9234 55.3904 38.022 54.3444 38.6466H54.3437Z" fill="white"/>
<path d="M56.5959 45.3099C56.4128 45.3099 56.2222 45.2804 56.0291 45.2219C55.1547 44.9564 54.3144 44.1248 53.7797 42.997C52.9198 41.1828 53.1324 39.1636 54.2527 38.4943C54.6572 38.2528 55.1371 38.2069 55.6385 38.3591C56.5128 38.6245 57.3538 39.4561 57.8885 40.584C58.7484 42.3975 58.5358 44.4173 57.4155 45.0866C57.1664 45.2351 56.8896 45.3099 56.5959 45.3099ZM55.0742 38.6258C54.8434 38.6258 54.627 38.6837 54.4345 38.7982C53.4658 39.3762 53.3155 41.1916 54.0992 42.846C54.5918 43.8845 55.3516 44.6469 56.1316 44.8841C56.5361 45.0074 56.9179 44.9728 57.2337 44.7834C58.2024 44.2054 58.3528 42.3893 57.569 40.7356C57.0765 39.6964 56.3159 38.9347 55.5359 38.6975C55.3774 38.6491 55.2227 38.6252 55.0736 38.6252L55.0742 38.6258Z" fill="#323232"/>
<path d="M52.4721 50.8157C52.0066 51.2944 52.1098 52.3279 52.7024 53.123C53.2949 53.9181 54.1523 54.1748 54.6178 53.6961C55.0832 53.2174 54.9801 52.1845 54.3875 51.3888C53.795 50.5937 52.9376 50.337 52.4721 50.8157Z" fill="#B199C5"/>
<path d="M54.0321 54.1139C54.0063 54.1139 53.9799 54.1133 53.9541 54.1114C53.4698 54.08 52.9489 53.7497 52.5608 53.2289C51.9091 52.3533 51.8142 51.2399 52.3457 50.6926C52.5514 50.4813 52.825 50.3794 53.1364 50.4007C53.6207 50.4328 54.1416 50.7624 54.5297 51.2839C55.182 52.1589 55.2764 53.2729 54.7448 53.8196C54.5567 54.0133 54.3114 54.1146 54.0321 54.1146V54.1139ZM52.5992 50.9386C52.1991 51.35 52.3117 52.3017 52.8445 53.0169C53.1716 53.456 53.595 53.7334 53.9774 53.7579C54.1844 53.7717 54.358 53.7088 54.4913 53.5723C54.8914 53.1609 54.7794 52.2092 54.246 51.494C53.9189 51.0549 53.4956 50.7782 53.1131 50.753C52.9049 50.7404 52.7325 50.8021 52.5992 50.9386Z" fill="#323232"/>
<path d="M92.4044 31.9637C95.9434 31.2812 99.3446 35.1844 100.001 40.6809C100.657 46.1774 98.3199 51.1864 94.7803 51.8683C91.2413 52.5501 87.8401 48.6476 87.1841 43.1511C86.528 37.6546 88.8655 32.6456 92.4044 31.9637Z" fill="#323232"/>
<path d="M92.7227 34.2628C93.8688 34.6767 94.4116 36.521 93.9342 38.3823C93.4567 40.2436 92.1408 41.4174 90.9947 41.0041C89.8486 40.5902 89.3058 38.7459 89.7832 36.8846C90.26 35.0233 91.5759 33.8495 92.7227 34.2628Z" fill="white"/>
<path d="M91.4675 41.2638C91.2857 41.2638 91.1071 41.233 90.9341 41.1701C89.7062 40.7272 89.1124 38.7848 89.6113 36.8404C89.9207 35.632 90.5875 34.6551 91.3952 34.228C91.8594 33.9821 92.3394 33.9368 92.7816 34.0966C94.0095 34.5394 94.6033 36.4819 94.1044 38.4268C93.795 39.6352 93.1276 40.6121 92.3205 41.0392C92.0381 41.1889 91.7493 41.2644 91.4675 41.2644V41.2638ZM92.25 34.357C92.0242 34.357 91.7915 34.4186 91.5606 34.5407C90.8397 34.9225 90.239 35.8151 89.9535 36.9285C89.4993 38.7011 89.9931 40.4548 91.0543 40.8379C91.4009 40.9625 91.7814 40.9247 92.1551 40.7266C92.876 40.3454 93.4767 39.4522 93.7622 38.3388C94.2164 36.5662 93.7226 34.8124 92.6614 34.4293C92.5281 34.3815 92.3903 34.357 92.2494 34.357H92.25Z" fill="#323232"/>
<path d="M96.879 45.852C97.4269 46.2332 97.5225 47.2673 97.0929 48.1606C96.6626 49.0544 95.87 49.4696 95.3215 49.0884C94.7736 48.7072 94.678 47.6731 95.1077 46.7798C95.5379 45.886 96.3305 45.4708 96.8784 45.852H96.879Z" fill="#B199C5"/>
<path d="M95.7719 49.4075C95.5738 49.4075 95.3869 49.349 95.2209 49.2339C94.595 48.798 94.4755 47.6871 94.9491 46.7033C95.2303 46.1183 95.6788 45.6943 96.1481 45.5711C96.45 45.4912 96.7381 45.5383 96.9803 45.7069C97.6062 46.1428 97.7257 47.2543 97.2527 48.2375C96.9709 48.8232 96.5217 49.2465 96.0525 49.3698C95.9575 49.395 95.8631 49.4075 95.7719 49.4075ZM96.4292 45.8875C96.3676 45.8875 96.3041 45.8963 96.238 45.9132C95.8675 46.0107 95.5046 46.3636 95.268 46.8568C94.8812 47.6601 94.9523 48.6162 95.4234 48.9439C95.5807 49.0534 95.7625 49.0811 95.9631 49.0282C96.3336 48.9307 96.6966 48.5778 96.9337 48.0847C97.3206 47.2814 97.2489 46.3253 96.7784 45.9975C96.6727 45.9239 96.5557 45.8875 96.4292 45.8875Z" fill="#323232"/>
</svg>
